<svg width="124" height="124" viewBox="0 0 124 124" fill="none" xmlns="http://www.w3.org/2000/svg">
<circle cx="62" cy="62" r="62" fill="url(#paint0_linear_230_4)"/>
<g filter="url(#filter0_d_230_4)">
<path fill-rule="evenodd" clip-rule="evenodd" d="M60.9488 40.11C59.9448 40.4198 58.9029 41.2539 58.4715 42.0933C58.2102 42.6015 57.994 43.3093 57.994 43.6562V43.9208L56.8478 43.9543C55.9045 43.9818 55.6157 44.0209 55.2162 44.1757C54.1146 44.602 53.1643 45.6123 52.8227 46.72C52.6659 47.2289 52.6525 47.4507 52.6755 49.1599C52.7038 51.2646 52.7135 51.301 53.3394 51.6516C53.6437 51.8222 53.6673 51.8225 62.092 51.8009C70.3105 51.7798 70.5452 51.7749 70.7526 51.6197C71.2943 51.214 71.2897 51.2367 71.2897 48.9871C71.2897 47.0226 71.2812 46.9134 71.0938 46.4558C70.8072 45.7558 70.2082 45.0196 69.5969 44.616C68.8192 44.1024 68.1852 43.9366 66.9995 43.9366H66.0196L65.9746 43.4644C65.8347 41.9947 64.6697 40.611 63.1943 40.162C62.5605 39.9692 61.4859 39.9442 60.9488 40.11ZM48.7637 46.7358C47.6805 47.074 46.6664 48.0128 46.228 49.0837L46.0321 49.5619L46.0099 64.1385C45.9879 78.5897 45.9892 78.7199 46.1572 79.2662C46.4941 80.3617 47.4395 81.3667 48.5475 81.807L49.033 82H61.9952H74.9574L75.4429 81.807C76.5446 81.3692 77.4885 80.3702 77.8302 79.2805C77.9983 78.7443 78 78.5946 78 64.3028C78 50.011 77.9983 49.8613 77.8302 49.325C77.3606 47.8273 75.9446 46.7016 74.3818 46.584L73.8063 46.5406L73.8683 46.7374C73.9822 47.0984 74.024 50.1954 73.9248 50.9228C73.675 52.7549 72.3426 54.1088 70.5394 54.3628C69.7535 54.4735 54.2369 54.4735 53.451 54.3628C51.6478 54.1088 50.3155 52.7549 50.0656 50.9228C49.9679 50.206 50.0075 47.0988 50.1189 46.7493C50.1751 46.573 50.1571 46.5647 49.7304 46.5691C49.4844 46.5716 49.0494 46.6467 48.7637 46.7358ZM55.9934 57.2962C56.5774 57.6548 56.6186 57.8133 56.6186 59.704C56.6186 61.5896 56.5908 61.6988 56.0124 62.0893C55.7192 62.2872 55.683 62.2908 53.9989 62.2908C52.0783 62.2908 51.9683 62.2638 51.5716 61.6939C51.3759 61.4127 51.3659 61.3356 51.3398 59.9069C51.3236 59.0222 51.3484 58.2819 51.4008 58.0904C51.5068 57.7025 51.9142 57.2691 52.2732 57.1622C52.4167 57.1196 53.2467 57.092 54.1178 57.1009C55.5849 57.1159 55.7232 57.1303 55.9934 57.2962ZM71.9831 58.5953C72.8237 59.0944 72.8237 60.3135 71.9831 60.8126C71.715 60.9718 71.537 60.9776 66.1805 60.9997C62.5047 61.0148 60.5456 60.9935 60.329 60.936C59.6535 60.7568 59.2297 60.0393 59.4099 59.3798C59.516 58.992 59.9047 58.5853 60.2709 58.4794C60.4263 58.4344 62.8532 58.4085 66.1214 58.4168C71.5452 58.4307 71.7145 58.4358 71.9831 58.5953ZM55.9934 65.1799C56.5774 65.5385 56.6186 65.697 56.6186 67.5876C56.6186 69.4732 56.5908 69.5825 56.0124 69.9729C55.7192 70.1709 55.683 70.1745 53.9989 70.1745C52.0783 70.1745 51.9683 70.1475 51.5716 69.5776C51.3759 69.2964 51.3659 69.2192 51.3398 67.7906C51.3236 66.9059 51.3484 66.1656 51.4008 65.9741C51.5068 65.5862 51.9142 65.1527 52.2732 65.0459C52.4167 65.0033 53.2467 64.9757 54.1178 64.9846C55.5849 64.9996 55.7232 65.014 55.9934 65.1799ZM71.9831 66.479C72.8237 66.9781 72.8237 68.1972 71.9831 68.6963C71.715 68.8555 71.537 68.8613 66.1805 68.8834C62.5047 68.8985 60.5456 68.8772 60.329 68.8197C59.6535 68.6405 59.2297 67.9229 59.4099 67.2635C59.516 66.8756 59.9047 66.469 60.2709 66.363C60.4263 66.3181 62.8532 66.2922 66.1214 66.3005C71.5452 66.3143 71.7145 66.3195 71.9831 66.479ZM55.9934 73.0636C56.5774 73.4221 56.6186 73.5806 56.6186 75.4713C56.6186 77.3569 56.5908 77.4661 56.0124 77.8566C55.7192 78.0545 55.683 78.0582 53.9989 78.0582C52.0783 78.0582 51.9683 78.0311 51.5716 77.4613C51.3759 77.1801 51.3659 77.1029 51.3398 75.6743C51.3236 74.7896 51.3484 74.0493 51.4008 73.8578C51.5068 73.4699 51.9142 73.0364 52.2732 72.9296C52.4167 72.887 53.2467 72.8594 54.1178 72.8682C55.5849 72.8833 55.7232 72.8977 55.9934 73.0636ZM71.9831 74.3627C72.8237 74.8617 72.8237 76.0809 71.9831 76.58C71.715 76.7392 71.537 76.745 66.1805 76.767C62.5047 76.7822 60.5456 76.7609 60.329 76.7034C59.6535 76.5242 59.2297 75.8066 59.4099 75.1472C59.516 74.7593 59.9047 74.3527 60.2709 74.2467C60.4263 74.2018 62.8532 74.1759 66.1214 74.1842C71.5452 74.198 71.7145 74.2032 71.9831 74.3627Z" fill="#6F879D"/>
</g>
<defs>
<filter id="filter0_d_230_4" x="45" y="40" width="40" height="55" filterUnits="userSpaceOnUse" color-interpolation-filters="sRGB">
<feFlood flood-opacity="0" result="BackgroundImageFix"/>
<feColorMatrix in="SourceAlpha" type="matrix" values="0 0 0 0 0 0 0 0 0 0 0 0 0 0 0 0 0 0 127 0" result="hardAlpha"/>
<feOffset dx="3" dy="9"/>
<feGaussianBlur stdDeviation="2"/>
<feComposite in2="hardAlpha" operator="out"/>
<feColorMatrix type="matrix" values="0 0 0 0 0 0 0 0 0 0 0 0 0 0 0 0 0 0 0.19 0"/>
<feBlend mode="normal" in2="BackgroundImageFix" result="effect1_dropShadow_230_4"/>
<feBlend mode="normal" in="SourceGraphic" in2="effect1_dropShadow_230_4" result="shape"/>
</filter>
<linearGradient id="paint0_linear_230_4" x1="119.912" y1="110.897" x2="-61.0437" y2="28.0018" gradientUnits="userSpaceOnUse">
<stop stop-color="#2F4356"/>
<stop offset="1" stop-color="#1F2E3D"/>
</linearGradient>
</defs>
</svg>
