<svg width="124" height="124" viewBox="0 0 124 124" fill="none" xmlns="http://www.w3.org/2000/svg">
<circle cx="62" cy="62" r="62" fill="url(#paint0_linear_230_6)"/>
<g filter="url(#filter0_d_230_6)">
<path fill-rule="evenodd" clip-rule="evenodd" d="M59.0618 41.1821C57.6578 41.6266 56.5717 42.7064 56.0114 44.2147C55.8093 44.7587 55.8024 44.9429 55.7673 50.6401L55.7313 56.5054L57.4952 57.3934C58.4652 57.8818 59.3016 58.2814 59.3537 58.2814C59.4057 58.2814 59.9176 57.3489 60.4914 56.2091C61.3209 54.561 61.6366 54.0321 62.0337 53.6247C62.9219 52.7136 64.2693 52.2084 65.5024 52.3242C67.5343 52.5151 69.0975 54.0062 69.4188 56.06C69.624 57.3712 69.5019 57.726 67.3738 62.0033C66.1796 64.4036 65.8052 65.2426 65.8493 65.4192C65.9071 65.6509 65.755 67.1778 65.6455 67.4646C65.5972 67.5916 65.7403 67.6133 66.6249 67.6133C67.1947 67.6133 67.6609 67.647 67.6609 67.6882C67.6609 67.7294 66.4082 71.2266 64.8772 75.4596C63.2666 79.9128 62.0936 83.2976 62.0936 83.4919C62.0936 83.6764 62.1545 83.9743 62.229 84.1535C62.6258 85.1085 64.1294 85.2622 64.7443 84.4106C64.8744 84.2305 68.7986 73.5329 70.8088 67.8787C70.9002 67.6215 70.9377 67.6057 71.391 67.6331L71.8754 67.6624L74.8756 75.8752C76.5257 80.3922 77.9515 84.2041 78.044 84.3462C78.6311 85.2473 79.9697 85.1904 80.5232 84.2406C80.7202 83.9025 80.7627 83.7238 80.7236 83.3988C80.6962 83.1719 79.4161 79.5456 77.879 75.3403C76.3417 71.135 75.084 67.6761 75.084 67.6538C75.084 67.6315 76.8722 67.6133 79.0577 67.6133C82.4888 67.6133 83.1123 67.5906 83.6239 67.4474C85.1855 67.0099 86.3991 65.7893 86.8348 64.2178C86.9847 63.6775 87 62.7546 87 54.3031C87 45.8516 86.9847 44.9287 86.8348 44.3883C86.3991 42.8168 85.1855 41.5962 83.6239 41.1588C83.0821 41.007 82.031 40.9937 71.3172 41.0018C60.463 41.0102 59.5632 41.0234 59.0618 41.1821ZM44.7632 44.0972C43.9692 44.2903 42.908 44.825 42.2799 45.3484C40.7334 46.637 39.9267 48.359 39.9234 50.3778C39.9217 51.4658 40.0946 52.1837 40.6206 53.2717C40.9429 53.9384 41.1838 54.2651 41.8161 54.8929C42.2779 55.3514 42.8522 55.8083 43.194 55.989C43.8512 56.3364 44.9031 56.7042 45.2856 56.7203C45.4245 56.7262 45.2155 56.7902 44.8212 56.8627C41.1878 57.5298 38.396 60.0197 37.3157 63.5567C37.0533 64.4157 37.0515 64.442 37.0143 67.9798C36.9816 71.0813 36.9978 71.6116 37.1393 72.1054C37.4951 73.3466 38.3564 74.4082 39.4847 74.9966L40.1116 75.3235L40.1389 79.6952C40.166 84.0387 40.1675 84.0688 40.384 84.374C40.8354 85.0103 40.7368 85 46.3442 85H51.4184L51.7413 84.779C51.9189 84.6574 52.1561 84.4332 52.2685 84.2807C52.4717 84.005 52.473 83.9535 52.4988 75.514L52.5249 67.0247L54.7773 68.1581C56.0162 68.7816 57.2572 69.3747 57.535 69.4762C58.6189 69.8722 59.6212 69.823 60.7375 69.3193C61.4445 69.0002 62.2999 68.1153 62.6689 67.3212C62.8937 66.8374 62.9222 66.6499 62.9307 65.5995L62.9402 64.4208L64.7633 60.7622C66.344 57.5903 66.5865 57.0431 66.5865 56.6481C66.5865 55.4074 65.1638 54.7171 64.232 55.5057C64.0243 55.6814 63.4544 56.7238 62.3316 58.9815L60.7277 62.2062L56.1608 59.9181C53.6489 58.6596 51.2071 57.4893 50.7345 57.3173C49.9482 57.0313 49.421 56.9188 48.0915 56.7535L47.617 56.6945L48.3845 56.4267C50.5594 55.668 52.0936 53.905 52.5778 51.6079C52.8687 50.2275 52.6868 48.8713 52.0265 47.4994C51.4567 46.3154 50.3652 45.2118 49.2008 44.6424C48.7442 44.4192 48.1087 44.1697 47.7885 44.0881C47.0634 43.9034 45.5411 43.9079 44.7632 44.0972ZM80.0027 47.5643C80.9286 48.1782 80.8542 49.5544 79.868 50.0554C79.5505 50.2166 78.9855 50.2263 71.3063 50.2028C63.1745 50.1777 63.0816 50.1752 62.8149 49.9749C62.3534 49.6283 62.1749 49.3086 62.1749 48.8278C62.1749 48.2699 62.4015 47.8186 62.8065 47.5704C63.1101 47.3841 63.3588 47.3786 71.4213 47.3788C79.39 47.3791 79.7346 47.3866 80.0027 47.5643ZM79.8504 53.0168C79.9954 53.0927 80.224 53.273 80.3583 53.4176C80.5655 53.6407 80.6025 53.7745 80.6025 54.3031C80.6025 54.8317 80.5655 54.9654 80.3583 55.1885C79.8551 55.7303 79.8779 55.7274 75.9435 55.727C72.4804 55.7267 72.2846 55.717 71.982 55.5314C71.8069 55.4241 71.5764 55.1923 71.4696 55.0161C71.0778 54.3698 71.311 53.4862 71.982 53.0747C72.2846 52.8892 72.4804 52.8794 75.9435 52.8791C78.8826 52.8788 79.6376 52.9055 79.8504 53.0168ZM79.868 58.5517C80.8744 59.0602 80.9203 60.552 79.9455 61.0702C79.6552 61.2244 79.2771 61.2372 75.8488 61.2096L72.0717 61.1792L71.8105 60.9336C71.2318 60.3896 71.107 59.6436 71.4965 59.0572C71.9419 58.3867 71.9865 58.3799 75.963 58.3799C79.1624 58.3799 79.5629 58.3975 79.868 58.5517Z" fill="#6F879D"/>
</g>
<defs>
<filter id="filter0_d_230_6" x="36" y="41" width="58" height="57" filterUnits="userSpaceOnUse" color-interpolation-filters="sRGB">
<feFlood flood-opacity="0" result="BackgroundImageFix"/>
<feColorMatrix in="SourceAlpha" type="matrix" values="0 0 0 0 0 0 0 0 0 0 0 0 0 0 0 0 0 0 127 0" result="hardAlpha"/>
<feOffset dx="3" dy="9"/>
<feGaussianBlur stdDeviation="2"/>
<feComposite in2="hardAlpha" operator="out"/>
<feColorMatrix type="matrix" values="0 0 0 0 0 0 0 0 0 0 0 0 0 0 0 0 0 0 0.19 0"/>
<feBlend mode="normal" in2="BackgroundImageFix" result="effect1_dropShadow_230_6"/>
<feBlend mode="normal" in="SourceGraphic" in2="effect1_dropShadow_230_6" result="shape"/>
</filter>
<linearGradient id="paint0_linear_230_6" x1="119.912" y1="110.897" x2="-61.0437" y2="28.0018" gradientUnits="userSpaceOnUse">
<stop stop-color="#2F4356"/>
<stop offset="1" stop-color="#1F2E3D"/>
</linearGradient>
</defs>
</svg>
