<svg width="124" height="124" viewBox="0 0 124 124" fill="none" xmlns="http://www.w3.org/2000/svg">
<circle cx="62" cy="62.001" r="62" fill="url(#paint0_linear_230_5)"/>
<g filter="url(#filter0_d_230_5)">
<path fill-rule="evenodd" clip-rule="evenodd" d="M67.64 38.1371C66.1939 38.5258 64.6804 39.7645 64.0332 41.0889C63.6447 41.8843 63.4092 42.7201 63.4092 43.304V43.706H62.0028H60.5963V45.809V47.9118L61.0417 47.9674C63.4766 48.2711 65.3251 49.811 65.9952 52.0938C66.2161 52.8464 66.2161 54.2465 65.9952 54.9991C65.3265 57.2773 63.4717 58.8224 61.0417 59.1255L60.5963 59.1811V61.2839V63.3869H64.4874C66.6275 63.3869 68.3781 63.4185 68.3776 63.4572C68.3773 63.4959 68.2085 64.0042 68.0026 64.5869C67.3939 66.3101 67.5112 67.2199 68.4653 68.1735C69.0668 68.7747 69.6226 69.01 70.4412 69.01C71.2598 69.01 71.8157 68.7747 72.4171 68.1735C73.3713 67.2199 73.4885 66.3101 72.8798 64.5869C72.6739 64.0042 72.5052 63.4959 72.5048 63.4572C72.5043 63.4185 74.2549 63.3869 76.395 63.3869H80.2861V61.9811V60.5753H80.6883C81.2721 60.5753 82.1074 60.3403 82.9114 59.9499C84.2477 59.3009 85.4776 57.7822 85.8622 56.3063C86.0459 55.6013 86.0459 54.3031 85.8622 53.5982C85.4776 52.1223 84.2477 50.6036 82.9114 49.9546C82.1074 49.5642 81.2721 49.3291 80.6883 49.3291H80.2861V46.5176V43.706H77.4733H74.6605V43.304C74.6605 42.7201 74.4249 41.8843 74.0364 41.0889C73.3794 39.7442 71.8651 38.5167 70.3895 38.1324C69.7037 37.954 68.3126 37.9562 67.64 38.1371ZM56.9866 43.8207C56.0113 43.909 54.4351 44.2123 53.4125 44.5084C45.472 46.8085 39.586 53.3212 38.2282 61.3091C38.1027 62.0477 38 62.8174 38 63.0194V63.3869H40.1508H42.3015L42.3571 62.9417C42.6609 60.508 44.2015 58.6603 46.4853 57.9905C47.2382 57.7697 48.639 57.7697 49.3919 57.9905C51.6758 58.6603 53.2163 60.508 53.5202 62.9417L53.5758 63.3869H55.6796H57.7835V59.4976C57.7835 57.3585 57.8152 55.6086 57.8538 55.6091C57.8925 55.6095 58.4094 55.7822 59.0024 55.9928C59.9561 56.3314 60.1526 56.3708 60.7035 56.3332C61.8022 56.2583 62.72 55.6312 63.1819 54.6396C64.0091 52.8636 62.5678 50.7349 60.5378 50.7349C60.2013 50.7349 59.7062 50.8541 58.984 51.1089C58.4011 51.3147 57.8929 51.4834 57.8549 51.4838C57.8168 51.4843 57.7746 49.7451 57.7611 47.6188L57.7366 43.7529L56.9866 43.8207ZM46.9077 60.7388C46.3196 60.9462 45.4875 61.795 45.283 62.3961C45.0236 63.1585 45.0772 63.8015 45.5 64.9985C45.7059 65.5811 45.8747 66.0894 45.8751 66.1281C45.8755 66.1669 44.1038 66.1984 41.938 66.1984H38V66.5659C38 66.768 38.1027 67.5376 38.2282 68.2763C38.8366 71.8553 40.3912 75.2743 42.7167 78.1475C43.5024 79.1181 45.3408 80.905 46.3031 81.6334C49.1566 83.793 52.2962 85.166 55.7048 85.7449C56.4438 85.8704 57.2137 85.973 57.4159 85.973H57.7835V83.8232V81.6735L57.3382 81.6179C54.9082 81.3148 53.0534 79.7697 52.3847 77.4915C52.1638 76.7389 52.1638 75.3388 52.3847 74.5862C53.0548 72.3034 54.9033 70.7635 57.3382 70.4598L57.7835 70.4042V68.3014V66.1984H53.8924C51.7524 66.1984 50.0018 66.1669 50.0022 66.1281C50.0026 66.0894 50.1714 65.5811 50.3773 64.9985C50.8 63.8015 50.8537 63.1585 50.5943 62.3961C50.3806 61.768 49.5583 60.946 48.9299 60.7324C48.3595 60.5385 47.4675 60.5413 46.9077 60.7388ZM60.5963 70.0877C60.5963 72.2269 60.5748 73.9771 60.5484 73.9771C60.5221 73.9771 60.0053 73.8052 59.3999 73.5952C58.0948 73.1424 57.4085 73.1198 56.6187 73.5039C54.4305 74.5679 54.4305 77.5099 56.6187 78.5739C57.4085 78.9579 58.0948 78.9353 59.3999 78.4826C60.0053 78.2725 60.5221 78.1007 60.5484 78.1007C60.5748 78.1007 60.5963 79.878 60.5963 82.0503V86L61.3543 85.9367C65.0311 85.6303 69.3521 83.8231 72.4414 81.2998C76.7383 77.7904 79.6599 72.3774 80.1749 66.9716L80.2486 66.1984H78.1635H76.0784L76.0182 66.6436C75.8203 68.1089 75.3053 69.2024 74.376 70.1314C73.2915 71.2154 71.976 71.7598 70.4412 71.7598C67.5302 71.7598 65.2358 69.6567 64.8596 66.6436L64.804 66.1984H62.7002H60.5963V70.0877Z" fill="#6F879D"/>
</g>
<defs>
<filter id="filter0_d_230_5" x="37" y="38" width="56" height="61" filterUnits="userSpaceOnUse" color-interpolation-filters="sRGB">
<feFlood flood-opacity="0" result="BackgroundImageFix"/>
<feColorMatrix in="SourceAlpha" type="matrix" values="0 0 0 0 0 0 0 0 0 0 0 0 0 0 0 0 0 0 127 0" result="hardAlpha"/>
<feOffset dx="3" dy="9"/>
<feGaussianBlur stdDeviation="2"/>
<feComposite in2="hardAlpha" operator="out"/>
<feColorMatrix type="matrix" values="0 0 0 0 0 0 0 0 0 0 0 0 0 0 0 0 0 0 0.19 0"/>
<feBlend mode="normal" in2="BackgroundImageFix" result="effect1_dropShadow_230_5"/>
<feBlend mode="normal" in="SourceGraphic" in2="effect1_dropShadow_230_5" result="shape"/>
</filter>
<linearGradient id="paint0_linear_230_5" x1="119.912" y1="110.898" x2="-61.0437" y2="28.0027" gradientUnits="userSpaceOnUse">
<stop stop-color="#2F4356"/>
<stop offset="1" stop-color="#1F2E3D"/>
</linearGradient>
</defs>
</svg>
