<svg xmlns="http://www.w3.org/2000/svg" width="124" height="124" fill="none"><circle cx="62" cy="62.001" r="62" fill="url(#a)"/><g filter="url(#b)"><path fill="#6F879D" fill-rule="evenodd" d="M49.397 40.139c-1.605.428-2.965 1.853-3.305 3.461-.05.24-.092.82-.092 1.291v.857h27.363l-.052-1.004c-.028-.552-.112-1.207-.186-1.455a4.67 4.67 0 0 0-3.26-3.159c-.672-.177-19.802-.17-20.468.009ZM46 60.998v12.79h27.338v-3.033l-.228-.002c-1.34-.007-3.147-.309-4.377-.73l-.717-.245-1.654.413c-2.148.536-2.436.58-3.098.476-.736-.116-1.324-.4-1.847-.89-.687-.645-1.129-1.63-1.129-2.514 0-.188.217-1.209.482-2.27l.482-1.927-.281-.838c-.486-1.443-.625-2.313-.63-3.936-.004-1.659.117-2.443.614-3.954.688-2.099 2.028-4.096 3.686-5.498.377-.318.685-.591.685-.606 0-.014-4.348-.026-9.663-.026H46v12.79ZM71.074 48.34c-3.89.697-7.146 3.73-8.06 7.51-.49 2.025-.33 4.295.429 6.082.136.32.266.665.29.765.023.1-.205 1.172-.507 2.382-.514 2.06-.542 2.22-.443 2.52.129.388.549.696.947.696.154 0 1.238-.239 2.41-.53l2.131-.53.67.287c1.174.504 2.122.703 3.57.749.958.03 1.468.008 2.024-.09 2.142-.377 3.974-1.323 5.498-2.84A9.987 9.987 0 0 0 83 58.251c0-2.68-1.071-5.22-3.009-7.134a10.072 10.072 0 0 0-5.398-2.784c-.892-.155-2.637-.151-3.519.007Zm-12.47 3.357c.41.303.57.59.57 1.02 0 .43-.16.717-.57 1.02-.221.164-.336.17-4.188.193-3.787.022-3.976.016-4.327-.138a1.17 1.17 0 0 1-.02-2.145c.333-.151.542-.158 4.329-.139 3.873.02 3.985.025 4.207.19Zm14.765 1.38c.415.172.67.582.67 1.075 0 1.139-1.3 1.595-2.106.74-.175-.187-.206-.299-.206-.738 0-.402.037-.559.165-.702.42-.468.937-.6 1.477-.375Zm-16.416 3.54c.409.303.568.59.568 1.02 0 .43-.16.716-.568 1.02-.22.162-.346.17-3.36.193-2.972.023-3.153.015-3.503-.138a1.17 1.17 0 0 1-.02-2.146c.329-.15.53-.158 3.502-.139 3.039.02 3.161.027 3.38.19Zm16.61.252c.116.087.28.285.365.441.14.259.153.51.153 2.95 0 2.44-.013 2.692-.153 2.95-.21.387-.503.586-.939.635-.415.046-.73-.081-1.056-.427l-.206-.22v-2.936c0-3.266-.032-3.076.578-3.462.31-.196.947-.16 1.257.07Zm-16.61 4.667c.409.303.568.59.568 1.02 0 .43-.16.717-.568 1.02-.22.162-.346.17-3.36.193-2.972.023-3.153.016-3.503-.138a1.17 1.17 0 0 1-.02-2.146c.329-.15.53-.158 3.502-.139 3.039.02 3.161.027 3.38.19Zm0 4.92c.409.302.568.59.568 1.02 0 .43-.16.716-.568 1.019-.22.163-.346.17-3.36.193-2.972.023-3.153.016-3.503-.138a1.17 1.17 0 0 1-.02-2.146c.329-.15.53-.158 3.502-.138 3.039.02 3.161.026 3.38.19ZM46 77.104c0 .47.04 1.052.09 1.29.336 1.608 1.73 3.05 3.354 3.47.7.18 19.737.182 20.421.001a4.67 4.67 0 0 0 3.26-3.159c.074-.248.158-.902.186-1.455l.052-1.004H46v.857Z" clip-rule="evenodd"/></g><defs><linearGradient id="a" x1="119.912" x2="-61.044" y1="110.898" y2="28.003" gradientUnits="userSpaceOnUse"><stop stop-color="#2F4356"/><stop offset="1" stop-color="#1F2E3D"/></linearGradient><filter id="b" width="45" height="55" x="45" y="40.001" color-interpolation-filters="sRGB" filterUnits="userSpaceOnUse"><feFlood flood-opacity="0" result="BackgroundImageFix"/><feColorMatrix in="SourceAlpha" result="hardAlpha" values="0 0 0 0 0 0 0 0 0 0 0 0 0 0 0 0 0 0 127 0"/><feOffset dx="3" dy="9"/><feGaussianBlur stdDeviation="2"/><feComposite in2="hardAlpha" operator="out"/><feColorMatrix values="0 0 0 0 0 0 0 0 0 0 0 0 0 0 0 0 0 0 0.19 0"/><feBlend in2="BackgroundImageFix" result="effect1_dropShadow_230_3"/><feBlend in="SourceGraphic" in2="effect1_dropShadow_230_3" result="shape"/></filter></defs></svg>