<svg width="111" height="111" viewBox="0 0 111 111" fill="none" xmlns="http://www.w3.org/2000/svg">
<g filter="url(#filter0_ddi_226_4)">
<circle cx="69.5" cy="31.501" r="21.5" fill="url(#paint0_linear_226_4)"/>
</g>
<g filter="url(#filter1_ddi_226_4)">
<path d="M65.8092 37.001V35.321L70.1293 31.241C70.4706 30.9316 70.7213 30.6543 70.8813 30.409C71.0413 30.1636 71.1479 29.9396 71.2013 29.737C71.2653 29.5343 71.2973 29.3476 71.2973 29.177C71.2973 28.729 71.1426 28.3876 70.8333 28.153C70.5346 27.9076 70.0919 27.785 69.5052 27.785C69.0359 27.785 68.5986 27.8756 68.1933 28.057C67.7986 28.2383 67.4626 28.521 67.1853 28.905L65.2973 27.689C65.7239 27.049 66.3213 26.5423 67.0893 26.169C67.8573 25.7956 68.7426 25.609 69.7453 25.609C70.5773 25.609 71.3026 25.7476 71.9213 26.025C72.5506 26.2916 73.0359 26.6703 73.3773 27.161C73.7293 27.6516 73.9053 28.2383 73.9053 28.921C73.9053 29.2836 73.8573 29.6463 73.7613 30.009C73.6759 30.361 73.4946 30.7343 73.2173 31.129C72.9506 31.5236 72.5559 31.9663 72.0333 32.457L68.4493 35.833L67.9533 34.889H74.2733V37.001H65.8092Z" fill="url(#paint1_linear_226_4)"/>
</g>
<defs>
<filter id="filter0_ddi_226_4" x="0" y="0.000976562" width="111" height="111" filterUnits="userSpaceOnUse" color-interpolation-filters="sRGB">
<feFlood flood-opacity="0" result="BackgroundImageFix"/>
<feColorMatrix in="SourceAlpha" type="matrix" values="0 0 0 0 0 0 0 0 0 0 0 0 0 0 0 0 0 0 127 0" result="hardAlpha"/>
<feOffset dx="-14" dy="24"/>
<feGaussianBlur stdDeviation="17"/>
<feComposite in2="hardAlpha" operator="out"/>
<feColorMatrix type="matrix" values="0 0 0 0 0.0777778 0 0 0 0 0.166667 0 0 0 0 0.0973333 0 0 0 0.67 0"/>
<feBlend mode="normal" in2="BackgroundImageFix" result="effect1_dropShadow_226_4"/>
<feColorMatrix in="SourceAlpha" type="matrix" values="0 0 0 0 0 0 0 0 0 0 0 0 0 0 0 0 0 0 127 0" result="hardAlpha"/>
<feOffset dy="2"/>
<feComposite in2="hardAlpha" operator="out"/>
<feColorMatrix type="matrix" values="0 0 0 0 0.151059 0 0 0 0 0.320833 0 0 0 0 0.168036 0 0 0 1 0"/>
<feBlend mode="normal" in2="effect1_dropShadow_226_4" result="effect2_dropShadow_226_4"/>
<feBlend mode="normal" in="SourceGraphic" in2="effect2_dropShadow_226_4" result="shape"/>
<feColorMatrix in="SourceAlpha" type="matrix" values="0 0 0 0 0 0 0 0 0 0 0 0 0 0 0 0 0 0 127 0" result="hardAlpha"/>
<feOffset dy="2"/>
<feGaussianBlur stdDeviation="4"/>
<feComposite in2="hardAlpha" operator="arithmetic" k2="-1" k3="1"/>
<feColorMatrix type="matrix" values="0 0 0 0 1 0 0 0 0 1 0 0 0 0 1 0 0 0 0.37 0"/>
<feBlend mode="normal" in2="shape" result="effect3_innerShadow_226_4"/>
</filter>
<filter id="filter1_ddi_226_4" x="17.2972" y="15.609" width="76.976" height="79.392" filterUnits="userSpaceOnUse" color-interpolation-filters="sRGB">
<feFlood flood-opacity="0" result="BackgroundImageFix"/>
<feColorMatrix in="SourceAlpha" type="matrix" values="0 0 0 0 0 0 0 0 0 0 0 0 0 0 0 0 0 0 127 0" result="hardAlpha"/>
<feOffset dx="-14" dy="24"/>
<feGaussianBlur stdDeviation="17"/>
<feComposite in2="hardAlpha" operator="out"/>
<feColorMatrix type="matrix" values="0 0 0 0 0.0777778 0 0 0 0 0.166667 0 0 0 0 0.0973333 0 0 0 0.67 0"/>
<feBlend mode="normal" in2="BackgroundImageFix" result="effect1_dropShadow_226_4"/>
<feColorMatrix in="SourceAlpha" type="matrix" values="0 0 0 0 0 0 0 0 0 0 0 0 0 0 0 0 0 0 127 0" result="hardAlpha"/>
<feOffset dx="-1" dy="2"/>
<feComposite in2="hardAlpha" operator="out"/>
<feColorMatrix type="matrix" values="0 0 0 0 0.151059 0 0 0 0 0.320833 0 0 0 0 0.168036 0 0 0 0.5 0"/>
<feBlend mode="normal" in2="effect1_dropShadow_226_4" result="effect2_dropShadow_226_4"/>
<feBlend mode="normal" in="SourceGraphic" in2="effect2_dropShadow_226_4" result="shape"/>
<feColorMatrix in="SourceAlpha" type="matrix" values="0 0 0 0 0 0 0 0 0 0 0 0 0 0 0 0 0 0 127 0" result="hardAlpha"/>
<feOffset dy="2"/>
<feGaussianBlur stdDeviation="4"/>
<feComposite in2="hardAlpha" operator="arithmetic" k2="-1" k3="1"/>
<feColorMatrix type="matrix" values="0 0 0 0 1 0 0 0 0 1 0 0 0 0 1 0 0 0 0.37 0"/>
<feBlend mode="normal" in2="shape" result="effect3_innerShadow_226_4"/>
</filter>
<linearGradient id="paint0_linear_226_4" x1="49.4022" y1="11.5367" x2="77.0509" y2="59.4092" gradientUnits="userSpaceOnUse">
<stop stop-color="#D8FF86"/>
<stop offset="1" stop-color="#0C4A0B"/>
</linearGradient>
<linearGradient id="paint1_linear_226_4" x1="51.3043" y1="18.3938" x2="76.0599" y2="62.356" gradientUnits="userSpaceOnUse">
<stop stop-color="#EEFFC9"/>
<stop offset="1" stop-color="#188A15"/>
</linearGradient>
</defs>
</svg>
