<svg width="58" height="57" viewBox="0 0 58 57" fill="none" xmlns="http://www.w3.org/2000/svg">
<g filter="url(#filter0_d_1_539)">
<path fill-rule="evenodd" clip-rule="evenodd" d="M23.0618 0.183068C21.6578 0.627559 20.5717 1.7074 20.0114 3.21563C19.8093 3.75972 19.8024 3.94391 19.7673 9.64106L19.7313 15.5064L21.4952 16.3944C22.4652 16.8828 23.3016 17.2824 23.3537 17.2824C23.4057 17.2824 23.9176 16.3499 24.4914 15.2101C25.3209 13.562 25.6366 13.033 26.0337 12.6257C26.9219 11.7146 28.2693 11.2094 29.5024 11.3252C31.5343 11.5161 33.0975 13.0072 33.4188 15.061C33.624 16.3722 33.5019 16.727 31.3738 21.0043C30.1796 23.4046 29.8052 24.2436 29.8493 24.4202C29.9071 24.6519 29.755 26.1788 29.6455 26.4656C29.5972 26.5925 29.7403 26.6142 30.6249 26.6142C31.1947 26.6142 31.6609 26.6479 31.6609 26.6892C31.6609 26.7303 30.4082 30.2275 28.8772 34.4606C27.2666 38.9138 26.0936 42.2985 26.0936 42.4928C26.0936 42.6774 26.1545 42.9752 26.229 43.1545C26.6258 44.1095 28.1294 44.2631 28.7443 43.4116C28.8744 43.2314 32.7986 32.5339 34.8088 26.8797C34.9002 26.6225 34.9377 26.6067 35.391 26.6341L35.8754 26.6634L38.8756 34.8762C40.5257 39.3932 41.9515 43.2051 42.044 43.3471C42.6311 44.2483 43.9697 44.1913 44.5232 43.2416C44.7202 42.9034 44.7627 42.7248 44.7236 42.3998C44.6962 42.1729 43.4161 38.5465 41.879 34.3413C40.3417 30.136 39.084 26.6771 39.084 26.6548C39.084 26.6325 40.8722 26.6142 43.0577 26.6142C46.4888 26.6142 47.1123 26.5915 47.6239 26.4483C49.1855 26.0109 50.3991 24.7903 50.8348 23.2188C50.9847 22.6784 51 21.7556 51 13.3041C51 4.85253 50.9847 3.92966 50.8348 3.3893C50.3991 1.81781 49.1855 0.597206 47.6239 0.159787C47.0821 0.00802186 46.031 -0.0053374 35.3172 0.0028157C24.463 0.0111653 23.5632 0.024328 23.0618 0.183068ZM8.76319 3.09814C7.96921 3.29127 6.908 3.82593 6.27987 4.3494C4.73343 5.63798 3.92665 7.35996 3.92343 9.37878C3.92167 10.4668 4.09455 11.1846 4.62061 12.2726C4.94293 12.9393 5.18379 13.266 5.81612 13.8938C6.27792 14.3524 6.85223 14.8092 7.19399 14.99C7.85122 15.3374 8.90306 15.7052 9.28564 15.7213C9.42453 15.7272 9.21551 15.7911 8.82121 15.8636C5.1878 16.5308 2.39603 19.0207 1.31568 22.5576C1.05333 23.4166 1.05147 23.443 1.01426 26.9807C0.981639 30.0823 0.997755 30.6126 1.13928 31.1064C1.4951 32.3475 2.35638 33.4092 3.48469 33.9976L4.11164 34.3245L4.1389 38.6961C4.16595 43.0397 4.16751 43.0697 4.38395 43.3749C4.8354 44.0113 4.73684 44.001 10.3442 44.001H15.4184L15.7413 43.7799C15.9189 43.6583 16.1561 43.4342 16.2685 43.2816C16.4717 43.006 16.473 42.9545 16.4988 34.515L16.5249 26.0256L18.7773 27.1591C20.0162 27.7826 21.2572 28.3757 21.535 28.4772C22.6189 28.8731 23.6212 28.824 24.7375 28.3203C25.4445 28.0011 26.2999 27.1163 26.6689 26.3222C26.8937 25.8384 26.9222 25.6509 26.9307 24.6005L26.9402 23.4218L28.7633 19.7632C30.344 16.5912 30.5865 16.0441 30.5865 15.6491C30.5865 14.4084 29.1638 13.7181 28.232 14.5067C28.0243 14.6824 27.4544 15.7247 26.3316 17.9825L24.7277 21.2072L20.1608 18.9191C17.6489 17.6606 15.2071 16.4902 14.7345 16.3182C13.9482 16.0323 13.421 15.9198 12.0915 15.7545L11.617 15.6955L12.3845 15.4277C14.5594 14.669 16.0936 12.9059 16.5778 10.6089C16.8687 9.22849 16.6868 7.87232 16.0265 6.50034C15.4567 5.31638 14.3652 4.21276 13.2008 3.64342C12.7442 3.42014 12.1087 3.17064 11.7885 3.08911C11.0634 2.90434 9.54115 2.90886 8.76319 3.09814ZM44.0027 6.56528C44.9286 7.17921 44.8542 8.55542 43.868 9.05639C43.5505 9.21759 42.9855 9.22731 35.3063 9.20374C27.1745 9.17869 27.0816 9.17613 26.8149 8.97584C26.3534 8.62929 26.1749 8.30955 26.1749 7.82881C26.1749 7.27086 26.4015 6.81959 26.8065 6.57137C27.1101 6.38512 27.3588 6.37962 35.4213 6.37982C43.39 6.38011 43.7346 6.38758 44.0027 6.56528ZM43.8504 12.0177C43.9954 12.0937 44.224 12.274 44.3583 12.4186C44.5655 12.6417 44.6025 12.7755 44.6025 13.3041C44.6025 13.8326 44.5655 13.9664 44.3583 14.1895C43.8551 14.7312 43.8779 14.7284 39.9435 14.728C36.4804 14.7277 36.2846 14.718 35.982 14.5324C35.8069 14.4251 35.5764 14.1932 35.4696 14.0171C35.0778 13.3708 35.311 12.4872 35.982 12.0757C36.2846 11.8901 36.4804 11.8804 39.9435 11.8801C42.8826 11.8798 43.6376 11.9064 43.8504 12.0177ZM43.868 17.5527C44.8744 18.0611 44.9203 19.553 43.9455 20.0711C43.6552 20.2253 43.2771 20.2382 39.8488 20.2106L36.0717 20.1802L35.8105 19.9346C35.2318 19.3906 35.107 18.6445 35.4965 18.0582C35.9419 17.3877 35.9865 17.3809 39.963 17.3809C43.1624 17.3809 43.5629 17.3985 43.868 17.5527Z" fill="#6F879D"/>
</g>
<defs>
<filter id="filter0_d_1_539" x="0" y="0.000976562" width="58" height="57" filterUnits="userSpaceOnUse" color-interpolation-filters="sRGB">
<feFlood flood-opacity="0" result="BackgroundImageFix"/>
<feColorMatrix in="SourceAlpha" type="matrix" values="0 0 0 0 0 0 0 0 0 0 0 0 0 0 0 0 0 0 127 0" result="hardAlpha"/>
<feOffset dx="3" dy="9"/>
<feGaussianBlur stdDeviation="2"/>
<feComposite in2="hardAlpha" operator="out"/>
<feColorMatrix type="matrix" values="0 0 0 0 0 0 0 0 0 0 0 0 0 0 0 0 0 0 0.19 0"/>
<feBlend mode="normal" in2="BackgroundImageFix" result="effect1_dropShadow_1_539"/>
<feBlend mode="normal" in="SourceGraphic" in2="effect1_dropShadow_1_539" result="shape"/>
</filter>
</defs>
</svg>
