<svg width="40" height="55" viewBox="0 0 40 55" fill="none" xmlns="http://www.w3.org/2000/svg">
<g filter="url(#filter0_d_1_504)">
<path fill-rule="evenodd" clip-rule="evenodd" d="M15.9488 0.110946C14.9448 0.420791 13.9029 1.2549 13.4715 2.09427C13.2102 2.60244 12.994 3.31032 12.994 3.65721V3.9218L11.8478 3.95523C10.9045 3.98274 10.6157 4.02191 10.2162 4.17663C9.11459 4.603 8.16431 5.61326 7.82271 6.721C7.66591 7.22983 7.65249 7.45172 7.6755 9.16092C7.70375 11.2655 7.71351 11.302 8.33936 11.6526C8.6437 11.8231 8.66729 11.8235 17.092 11.8019C25.3105 11.7808 25.5452 11.7758 25.7526 11.6206C26.2943 11.2149 26.2897 11.2377 26.2897 8.98805C26.2897 7.02362 26.2812 6.9144 26.0938 6.45674C25.8072 5.75673 25.2082 5.02059 24.5969 4.61696C23.8192 4.10337 23.1852 3.93757 21.9995 3.93757H21.0196L20.9746 3.46537C20.8347 1.99572 19.6697 0.61197 18.1943 0.163011C17.5605 -0.0298109 16.4859 -0.0547759 15.9488 0.110946ZM3.76374 6.73677C2.6805 7.07495 1.66644 8.01376 1.22798 9.08463L1.03209 9.56291L1.00991 24.1395C0.987907 38.5906 0.989241 38.7209 1.15721 39.2671C1.49406 40.3626 2.43951 41.3677 3.54751 41.808L4.03299 42.001H16.9952H29.9574L30.4429 41.808C31.5446 41.3702 32.4885 40.3712 32.8302 39.2815C32.9983 38.7453 33 38.5956 33 24.3038C33 10.0119 32.9983 9.86224 32.8302 9.32599C32.3606 7.82825 30.9446 6.70261 29.3818 6.58493L28.8063 6.54157L28.8683 6.73833C28.9822 7.09934 29.024 10.1964 28.9248 10.9237C28.675 12.7559 27.3426 14.1097 25.5394 14.3637C24.7535 14.4744 9.23688 14.4744 8.45098 14.3637C6.64777 14.1097 5.31545 12.7559 5.06563 10.9237C4.96793 10.207 5.00753 7.09975 5.1189 6.75024C5.17508 6.57401 5.15707 6.56571 4.73044 6.57006C4.48437 6.57261 4.04941 6.64767 3.76374 6.73677ZM10.9934 17.2972C11.5774 17.6558 11.6186 17.8142 11.6186 19.7049C11.6186 21.5905 11.5908 21.6998 11.0124 22.0902C10.7192 22.2882 10.683 22.2918 8.99889 22.2918C7.07832 22.2918 6.96828 22.2648 6.57158 21.6949C6.37585 21.4137 6.36585 21.3365 6.33976 19.9079C6.32359 19.0232 6.34843 18.2829 6.40078 18.0914C6.50681 17.7035 6.91418 17.27 7.27321 17.1632C7.41667 17.1206 8.24675 17.093 9.11784 17.1018C10.5849 17.1169 10.7232 17.1313 10.9934 17.2972ZM26.9831 18.5963C27.8237 19.0953 27.8237 20.3145 26.9831 20.8136C26.715 20.9728 26.537 20.9786 21.1805 21.0007C17.5047 21.0158 15.5456 20.9945 15.329 20.937C14.6535 20.7578 14.2297 20.0402 14.4099 19.3808C14.516 18.9929 14.9047 18.5863 15.2709 18.4803C15.4263 18.4354 17.8532 18.4095 21.1214 18.4178C26.5452 18.4316 26.7145 18.4368 26.9831 18.5963ZM10.9934 25.1809C11.5774 25.5394 11.6186 25.6979 11.6186 27.5886C11.6186 29.4742 11.5908 29.5834 11.0124 29.9739C10.7192 30.1718 10.683 30.1755 8.99889 30.1755C7.07832 30.1755 6.96828 30.1484 6.57158 29.5786C6.37585 29.2974 6.36585 29.2202 6.33976 27.7915C6.32359 26.9068 6.34843 26.1666 6.40078 25.9751C6.50681 25.5871 6.91418 25.1537 7.27321 25.0469C7.41667 25.0043 8.24675 24.9767 9.11784 24.9855C10.5849 25.0006 10.7232 25.015 10.9934 25.1809ZM26.9831 26.48C27.8237 26.979 27.8237 28.1982 26.9831 28.6973C26.715 28.8565 26.537 28.8622 21.1805 28.8843C17.5047 28.8994 15.5456 28.8782 15.329 28.8207C14.6535 28.6415 14.2297 27.9239 14.4099 27.2645C14.516 26.8766 14.9047 26.47 15.2709 26.364C15.4263 26.3191 17.8532 26.2931 21.1214 26.3014C26.5452 26.3153 26.7145 26.3205 26.9831 26.48ZM10.9934 33.0646C11.5774 33.4231 11.6186 33.5816 11.6186 35.4723C11.6186 37.3579 11.5908 37.4671 11.0124 37.8576C10.7192 38.0555 10.683 38.0591 8.99889 38.0591C7.07832 38.0591 6.96828 38.0321 6.57158 37.4623C6.37585 37.1811 6.36585 37.1039 6.33976 35.6752C6.32359 34.7905 6.34843 34.0503 6.40078 33.8588C6.50681 33.4708 6.91418 33.0374 7.27321 32.9306C7.41667 32.8879 8.24675 32.8603 9.11784 32.8692C10.5849 32.8842 10.7232 32.8987 10.9934 33.0646ZM26.9831 34.3637C27.8237 34.8627 27.8237 36.0819 26.9831 36.5809C26.715 36.7402 26.537 36.7459 21.1805 36.768C17.5047 36.7831 15.5456 36.7619 15.329 36.7044C14.6535 36.5252 14.2297 35.8076 14.4099 35.1482C14.516 34.7603 14.9047 34.3536 15.2709 34.2477C15.4263 34.2028 17.8532 34.1768 21.1214 34.1851C26.5452 34.199 26.7145 34.2042 26.9831 34.3637Z" fill="#6F879D"/>
</g>
<defs>
<filter id="filter0_d_1_504" x="0" y="0.000976562" width="40" height="55" filterUnits="userSpaceOnUse" color-interpolation-filters="sRGB">
<feFlood flood-opacity="0" result="BackgroundImageFix"/>
<feColorMatrix in="SourceAlpha" type="matrix" values="0 0 0 0 0 0 0 0 0 0 0 0 0 0 0 0 0 0 127 0" result="hardAlpha"/>
<feOffset dx="3" dy="9"/>
<feGaussianBlur stdDeviation="2"/>
<feComposite in2="hardAlpha" operator="out"/>
<feColorMatrix type="matrix" values="0 0 0 0 0 0 0 0 0 0 0 0 0 0 0 0 0 0 0.19 0"/>
<feBlend mode="normal" in2="BackgroundImageFix" result="effect1_dropShadow_1_504"/>
<feBlend mode="normal" in="SourceGraphic" in2="effect1_dropShadow_1_504" result="shape"/>
</filter>
</defs>
</svg>
