<svg width="111" height="111" viewBox="0 0 111 111" fill="none" xmlns="http://www.w3.org/2000/svg">
<g filter="url(#filter0_ddi_226_5)">
<circle cx="69.5" cy="31.501" r="21.5" fill="url(#paint0_linear_226_5)"/>
</g>
<g filter="url(#filter1_ddi_226_5)">
<path d="M69.5216 37.193C68.743 37.193 67.9696 37.0916 67.2016 36.889C66.4336 36.6756 65.783 36.377 65.2496 35.993L66.2576 34.009C66.6843 34.3183 67.1803 34.5636 67.7456 34.745C68.311 34.9263 68.8816 35.017 69.4576 35.017C70.1083 35.017 70.6203 34.889 70.9936 34.633C71.367 34.377 71.5536 34.025 71.5536 33.577C71.5536 33.1503 71.3883 32.8143 71.0576 32.569C70.727 32.3236 70.1936 32.201 69.4576 32.201H68.2736V30.489L71.3936 26.953L71.6816 27.881H65.8096V25.801H73.6496V27.481L70.5456 31.017L69.2336 30.265H69.9856C71.3616 30.265 72.4016 30.5743 73.1056 31.193C73.8096 31.8116 74.1616 32.6063 74.1616 33.577C74.1616 34.2063 73.9963 34.7983 73.6656 35.353C73.335 35.897 72.8283 36.3396 72.1456 36.681C71.463 37.0223 70.5883 37.193 69.5216 37.193Z" fill="url(#paint1_linear_226_5)"/>
</g>
<defs>
<filter id="filter0_ddi_226_5" x="0" y="0.000976562" width="111" height="111" filterUnits="userSpaceOnUse" color-interpolation-filters="sRGB">
<feFlood flood-opacity="0" result="BackgroundImageFix"/>
<feColorMatrix in="SourceAlpha" type="matrix" values="0 0 0 0 0 0 0 0 0 0 0 0 0 0 0 0 0 0 127 0" result="hardAlpha"/>
<feOffset dx="-14" dy="24"/>
<feGaussianBlur stdDeviation="17"/>
<feComposite in2="hardAlpha" operator="out"/>
<feColorMatrix type="matrix" values="0 0 0 0 0.0777778 0 0 0 0 0.166667 0 0 0 0 0.0973333 0 0 0 0.67 0"/>
<feBlend mode="normal" in2="BackgroundImageFix" result="effect1_dropShadow_226_5"/>
<feColorMatrix in="SourceAlpha" type="matrix" values="0 0 0 0 0 0 0 0 0 0 0 0 0 0 0 0 0 0 127 0" result="hardAlpha"/>
<feOffset dy="2"/>
<feComposite in2="hardAlpha" operator="out"/>
<feColorMatrix type="matrix" values="0 0 0 0 0.151059 0 0 0 0 0.320833 0 0 0 0 0.168036 0 0 0 1 0"/>
<feBlend mode="normal" in2="effect1_dropShadow_226_5" result="effect2_dropShadow_226_5"/>
<feBlend mode="normal" in="SourceGraphic" in2="effect2_dropShadow_226_5" result="shape"/>
<feColorMatrix in="SourceAlpha" type="matrix" values="0 0 0 0 0 0 0 0 0 0 0 0 0 0 0 0 0 0 127 0" result="hardAlpha"/>
<feOffset dy="2"/>
<feGaussianBlur stdDeviation="4"/>
<feComposite in2="hardAlpha" operator="arithmetic" k2="-1" k3="1"/>
<feColorMatrix type="matrix" values="0 0 0 0 1 0 0 0 0 1 0 0 0 0 1 0 0 0 0.37 0"/>
<feBlend mode="normal" in2="shape" result="effect3_innerShadow_226_5"/>
</filter>
<filter id="filter1_ddi_226_5" x="17.2496" y="15.801" width="76.912" height="79.392" filterUnits="userSpaceOnUse" color-interpolation-filters="sRGB">
<feFlood flood-opacity="0" result="BackgroundImageFix"/>
<feColorMatrix in="SourceAlpha" type="matrix" values="0 0 0 0 0 0 0 0 0 0 0 0 0 0 0 0 0 0 127 0" result="hardAlpha"/>
<feOffset dx="-14" dy="24"/>
<feGaussianBlur stdDeviation="17"/>
<feComposite in2="hardAlpha" operator="out"/>
<feColorMatrix type="matrix" values="0 0 0 0 0.0777778 0 0 0 0 0.166667 0 0 0 0 0.0973333 0 0 0 0.67 0"/>
<feBlend mode="normal" in2="BackgroundImageFix" result="effect1_dropShadow_226_5"/>
<feColorMatrix in="SourceAlpha" type="matrix" values="0 0 0 0 0 0 0 0 0 0 0 0 0 0 0 0 0 0 127 0" result="hardAlpha"/>
<feOffset dx="-1" dy="2"/>
<feComposite in2="hardAlpha" operator="out"/>
<feColorMatrix type="matrix" values="0 0 0 0 0.151059 0 0 0 0 0.320833 0 0 0 0 0.168036 0 0 0 0.5 0"/>
<feBlend mode="normal" in2="effect1_dropShadow_226_5" result="effect2_dropShadow_226_5"/>
<feBlend mode="normal" in="SourceGraphic" in2="effect2_dropShadow_226_5" result="shape"/>
<feColorMatrix in="SourceAlpha" type="matrix" values="0 0 0 0 0 0 0 0 0 0 0 0 0 0 0 0 0 0 127 0" result="hardAlpha"/>
<feOffset dy="2"/>
<feGaussianBlur stdDeviation="4"/>
<feComposite in2="hardAlpha" operator="arithmetic" k2="-1" k3="1"/>
<feColorMatrix type="matrix" values="0 0 0 0 1 0 0 0 0 1 0 0 0 0 1 0 0 0 0.37 0"/>
<feBlend mode="normal" in2="shape" result="effect3_innerShadow_226_5"/>
</filter>
<linearGradient id="paint0_linear_226_5" x1="49.4022" y1="11.5367" x2="77.0509" y2="59.4092" gradientUnits="userSpaceOnUse">
<stop stop-color="#D8FF86"/>
<stop offset="1" stop-color="#0C4A0B"/>
</linearGradient>
<linearGradient id="paint1_linear_226_5" x1="51.3043" y1="18.3938" x2="76.0599" y2="62.356" gradientUnits="userSpaceOnUse">
<stop stop-color="#EEFFC9"/>
<stop offset="1" stop-color="#188A15"/>
</linearGradient>
</defs>
</svg>
