<svg width="828" height="123" viewBox="0 0 828 123" fill="none" xmlns="http://www.w3.org/2000/svg">
<path fill-rule="evenodd" clip-rule="evenodd" d="M0 119.765H25.0909V83.9492L50.8091 83.5827C73.7848 83.2548 77.2265 83.0247 83.0861 81.4241C105.088 75.4159 116.255 62.1286 116.255 41.9537C116.255 21.8273 105.073 8.56594 82.9137 2.41215C76.9279 0.74967 74.1269 0.618308 38.2636 0.319613L0 0V119.765ZM803.745 30.9078L786.391 31.2885C767.03 31.7135 762.935 32.4682 753.006 37.4389C738.282 44.8093 730.539 58.1351 730.692 75.8393C730.846 93.4438 738.819 106.45 753.789 113.512C765.324 118.954 766.894 119.164 798.936 119.557L828 119.913V0.119647H803.745V30.9078ZM343.327 30.6585L327.018 31.1371V42.7904H343.661L343.914 70.1916C344.159 96.5387 344.243 97.7762 346.093 102.364C351.708 116.284 367.452 124.204 386.818 122.851C392.989 122.42 406.754 118.836 407.612 117.438C407.814 117.108 406.918 114.498 405.62 111.639L403.259 106.442L398.224 108.488C384.909 113.901 374.142 110.933 369.324 100.521C367.692 96.9947 367.565 95.0453 367.32 69.7733L367.059 42.7904H393.927V31.0768H367.164V3.46637H343.787L343.327 30.6585ZM72.9117 14.2211C79.299 16.3061 83.8513 20.2443 86.9751 26.3906C89.8355 32.0181 89.9082 32.4072 89.8865 41.8692C89.8672 50.1264 89.5821 52.193 87.9796 55.7129C84.9712 62.3185 82.3676 65.077 76.3341 68.0498L70.7137 70.8192L25.0909 71.3772V12.5485L47.4636 12.8832C61.6918 13.0957 70.9562 13.5827 72.9117 14.2211ZM248.832 29.1182C231.202 32.8974 218.418 44.3934 213.626 60.779C211.652 67.5268 211.616 82.2474 213.554 89.5566C217.651 105.004 229.674 116.447 246.727 121.127C254.344 123.218 273.411 123.216 281.018 121.125C298.154 116.412 309.467 105.803 314.142 90.0628C316.198 83.1435 316.198 67.6983 314.142 60.779C311.923 53.3083 307.898 46.3011 303.017 41.4123C297.602 35.9881 287.241 30.7823 278.335 29.0119C270.31 27.4164 256.541 27.4657 248.832 29.1182ZM533.86 29.3466C524.471 31.8901 518.694 35.087 512.616 41.1019C503.497 50.1272 499.757 60.1599 499.824 75.4209C499.89 90.3757 503.337 99.5374 512.265 108.488C518.131 114.369 524.748 118.087 534.047 120.725C543.636 123.444 561.29 123.474 570.643 120.787C579.087 118.36 591.309 112.128 591.309 110.247C591.309 109.607 585.354 100.521 584.934 100.521C584.778 100.521 582.553 101.863 579.99 103.504C571.363 109.025 565.265 110.855 555.345 110.901C547.613 110.937 546.009 110.684 541.925 108.784C533.306 104.776 529.192 99.616 526.631 89.606L525.464 85.0427L599.09 84.6068L598.566 74.3659C598.279 68.7342 597.513 62.1871 596.865 59.8168C593.142 46.204 582.209 35.3498 567.055 30.2243C559.092 27.531 542.207 27.0842 533.86 29.3466ZM162.568 32.3243C146.813 35.753 136.837 45.9823 134.677 60.9246C134.223 64.0655 133.844 78.5894 133.835 93.2004L133.818 119.765H157.996L158.491 58.269L160.701 54.0856C163.262 49.2353 164.628 47.8975 169.782 45.1941C173.234 43.3827 174.738 43.1961 187.973 42.9359L202.4 42.6523V31.0768L185.045 31.1429C173.957 31.1856 165.841 31.6123 162.568 32.3243ZM449.441 32.3243C433.685 35.753 423.709 45.9823 421.55 60.9246C421.096 64.0655 420.717 78.5894 420.708 93.2004L420.691 119.765H444.869L445.364 58.269L447.573 54.0856C450.135 49.2353 451.501 47.8975 456.654 45.1941C460.107 43.3827 461.611 43.1961 474.845 42.9359L489.273 42.6523V31.0768L471.918 31.1429C460.83 31.1856 452.714 31.6123 449.441 32.3243ZM617.236 119.765H641.491V42.6339L657.173 42.9778C673.665 43.3401 675.932 43.8002 681.032 47.8138C682.31 48.8195 684.192 51.2065 685.214 53.1192C687.026 56.5077 687.079 57.3921 687.328 88.1803L687.583 119.765H711.745L711.739 92.3637C711.733 64.2278 711.135 56.7295 708.408 50.5623C705.929 44.9574 699.954 39.2018 693.557 36.2584C684.021 31.87 676.608 31.0768 645.145 31.0768H617.236V119.765ZM274.932 40.984C282.126 44.6854 287.237 52.1219 289.286 61.8658C290.443 67.3712 290.499 82.0767 289.385 87.9544C287.444 98.1937 281.378 106.844 273.756 110.242C269.43 112.17 258.334 112.18 254.027 110.258C246.435 106.871 241.167 99.5801 238.686 89.0245C236.814 81.0576 237.445 63.5158 239.844 56.8357C242.94 48.2154 248.194 42.5536 255.691 39.7591C260.318 38.0347 270.454 38.6798 274.932 40.984ZM557.436 40.6041C559.736 41.6943 562.821 43.8555 564.291 45.4075C569.119 50.5029 572.909 61.1789 572.909 69.6779V72.9109H524.991L525.506 66.8449C527.03 48.9023 535.521 38.7442 549.073 38.6521C551.785 38.6337 554.724 39.319 557.436 40.6041ZM803.745 108.22L789.736 107.913C776.734 107.628 775.397 107.45 771.127 105.433C761.081 100.689 756.973 93.3451 756.268 78.868C755.318 59.4085 760.546 48.6714 773.078 44.3391C776.498 43.1568 780.151 42.8389 790.573 42.818L803.745 42.7904V108.22Z" fill="#4D6881"/>
</svg>
