<svg width="100" height="103" viewBox="0 0 100 103" fill="none" xmlns="http://www.w3.org/2000/svg">
<path d="M16.6 97.9966V31.9966L20.9 36.6966H0.8V27.9966H26.5V97.9966H16.6Z" fill="#6F879D"/>
<path d="M47.438 91.1947L48.152 91.9087L40.2 91.9087L40.2 88.6607L48.152 88.6607L47.438 89.3887L47.438 85.9727L48.152 86.7007L40.2 86.7007L40.2 83.4527L50 83.4527L50 97.1307L40.2 97.1307L40.2 93.8827L48.152 93.8827L47.438 94.5967L47.438 91.1947ZM50 78.4885L40.2 74.2045L40.2 70.9565L50 66.6725L50 70.0885L41.768 73.2525L41.768 71.9645L50 75.1285L50 78.4885ZM48.292 75.9405L45.912 75.1005L45.912 70.5925L48.292 69.7525L48.292 75.9405ZM50 61.7079L40.2 61.7079L40.2 54.2459L42.762 54.2459L42.762 59.1739L42.048 58.4599L50 58.4599L50 61.7079Z" fill="#6F879D"/>
</svg>
