<svg width="45" height="55" viewBox="0 0 45 55" fill="none" xmlns="http://www.w3.org/2000/svg">
<g filter="url(#filter0_d_1_485)">
<path fill-rule="evenodd" clip-rule="evenodd" d="M4.39646 0.138551C2.79238 0.566773 1.43211 1.99172 1.09192 3.60016C1.04138 3.83915 1 4.4202 1 4.89147V5.74832H14.6815H28.3631L28.3112 4.74397C28.2828 4.19162 28.1991 3.5367 28.1254 3.28869C27.6695 1.75437 26.4157 0.539799 24.865 0.130106C24.1934 -0.0473158 5.06305 -0.039445 4.39646 0.138551ZM1 20.998V33.7881H14.6688H28.3375V32.2714V30.7546L28.1104 30.7533C26.7705 30.7457 24.963 30.4443 23.7329 30.0233L23.0161 29.7781L21.3615 30.1912C19.2144 30.7271 18.9264 30.7713 18.2638 30.6671C17.528 30.5514 16.9405 30.2679 16.4166 29.7761C15.7301 29.1316 15.2882 28.1473 15.2882 27.2631C15.2882 27.0751 15.5052 26.054 15.7704 24.9936L16.2525 23.0658L15.9706 22.2279C15.4849 20.7847 15.3459 19.9152 15.3415 18.2925C15.3369 16.633 15.4585 15.8489 15.9545 14.3378C16.6432 12.2393 17.9825 10.2422 19.6411 8.84016C20.0179 8.52164 20.3262 8.24903 20.3262 8.23444C20.3262 8.21984 15.9778 8.20795 10.6631 8.20795H1V20.998ZM26.0743 8.33971C22.1835 9.03718 18.9275 12.0707 18.0138 15.8495C17.524 17.8748 17.6842 20.145 18.4428 21.9322C18.5789 22.2526 18.7094 22.5969 18.7328 22.6972C18.7563 22.7975 18.5283 23.8695 18.2262 25.0792C17.7122 27.1381 17.6838 27.2995 17.7834 27.5995C17.9119 27.9867 18.3317 28.295 18.7303 28.295C18.8839 28.295 19.9684 28.0565 21.1403 27.765L23.2711 27.235L23.9408 27.5224C25.1149 28.0264 26.0632 28.2251 27.5116 28.271C28.4691 28.3014 28.9792 28.2786 29.5351 28.1809C31.6774 27.8043 33.5091 26.8583 35.0332 25.3411C36.9381 23.4447 38 20.9072 38 18.2515C38 15.5716 36.9286 13.0312 34.9912 11.1169C33.5029 9.64618 31.6489 8.69029 29.5928 8.33323C28.7011 8.17836 26.9562 8.18155 26.0743 8.33971ZM13.6047 11.6975C14.0133 12.0005 14.1732 12.2873 14.1732 12.7173C14.1732 13.1473 14.0133 13.434 13.6047 13.737C13.3829 13.9015 13.2684 13.9068 9.41641 13.9296C5.62847 13.9521 5.44016 13.9461 5.08857 13.7917C4.14836 13.3788 4.13655 12.0715 5.06933 11.6468C5.40167 11.4956 5.61112 11.4889 9.39766 11.5081C13.2712 11.5279 13.3827 11.533 13.6047 11.6975ZM28.3692 13.077C28.7839 13.249 29.0396 13.6589 29.0396 14.1521C29.0396 15.2909 27.7393 15.7472 26.9335 14.8911C26.7584 14.7051 26.727 14.5932 26.727 14.154C26.727 13.7525 26.7641 13.595 26.8922 13.4521C27.3113 12.9844 27.829 12.8529 28.3692 13.077ZM11.9529 16.6168C12.3616 16.9198 12.5214 17.2065 12.5214 17.6365C12.5214 18.0666 12.3616 18.3533 11.9529 18.6563C11.7335 18.8191 11.6075 18.8263 8.59207 18.8496C5.62153 18.8725 5.44008 18.8654 5.09014 18.7117C4.14836 18.2981 4.13572 16.9917 5.06933 16.5658C5.39862 16.4156 5.59915 16.4076 8.57176 16.4271C11.6107 16.447 11.7332 16.4539 11.9529 16.6168ZM28.5624 16.8694C28.6794 16.9561 28.8438 17.1543 28.928 17.31C29.0678 17.5688 29.0809 17.8209 29.0809 20.2602C29.0809 22.6994 29.0678 22.9515 28.928 23.2103C28.7188 23.5975 28.425 23.796 27.989 23.8447C27.5742 23.8912 27.259 23.7637 26.9335 23.4178L26.727 23.1985V20.2621C26.727 16.9957 26.6951 17.1864 27.3052 16.8004C27.615 16.6043 28.252 16.6393 28.5624 16.8694ZM11.9529 21.5361C12.3616 21.8391 12.5214 22.1258 12.5214 22.5558C12.5214 22.9858 12.3616 23.2726 11.9529 23.5756C11.7335 23.7383 11.6075 23.7455 8.59207 23.7688C5.62153 23.7918 5.44008 23.7847 5.09014 23.6309C4.14836 23.2174 4.13572 21.911 5.06933 21.4851C5.39862 21.3349 5.59915 21.3269 8.57176 21.3463C11.6107 21.3663 11.7332 21.3731 11.9529 21.5361ZM11.9529 26.4553C12.3616 26.7583 12.5214 27.0451 12.5214 27.4751C12.5214 27.9051 12.3616 28.1918 11.9529 28.4948C11.7335 28.6576 11.6075 28.6648 8.59207 28.6881C5.62153 28.7111 5.44008 28.7039 5.09014 28.5502C4.14836 28.1366 4.13572 26.8303 5.06933 26.4043C5.39862 26.2541 5.59915 26.2462 8.57176 26.2656C11.6107 26.2855 11.7332 26.2924 11.9529 26.4553ZM1 37.1046C1 37.5759 1.0408 38.1569 1.0906 38.3959C1.42576 40.003 2.81956 41.4447 4.44428 41.8648C5.1435 42.0456 24.1809 42.0467 24.865 41.866C26.4157 41.4563 27.6695 40.2417 28.1254 38.7074C28.1991 38.4594 28.2828 37.8046 28.3112 37.2521L28.3631 36.2478H14.6815H1V37.1046Z" fill="#6F879D"/>
</g>
<defs>
<filter id="filter0_d_1_485" x="0" y="0.000976562" width="45" height="55" filterUnits="userSpaceOnUse" color-interpolation-filters="sRGB">
<feFlood flood-opacity="0" result="BackgroundImageFix"/>
<feColorMatrix in="SourceAlpha" type="matrix" values="0 0 0 0 0 0 0 0 0 0 0 0 0 0 0 0 0 0 127 0" result="hardAlpha"/>
<feOffset dx="3" dy="9"/>
<feGaussianBlur stdDeviation="2"/>
<feComposite in2="hardAlpha" operator="out"/>
<feColorMatrix type="matrix" values="0 0 0 0 0 0 0 0 0 0 0 0 0 0 0 0 0 0 0.19 0"/>
<feBlend mode="normal" in2="BackgroundImageFix" result="effect1_dropShadow_1_485"/>
<feBlend mode="normal" in="SourceGraphic" in2="effect1_dropShadow_1_485" result="shape"/>
</filter>
</defs>
</svg>
