<svg width="56" height="61" viewBox="0 0 56 61" fill="none" xmlns="http://www.w3.org/2000/svg">
<g filter="url(#filter0_d_1_523)">
<path fill-rule="evenodd" clip-rule="evenodd" d="M30.64 0.138076C29.1939 0.526819 27.6804 1.76549 27.0332 3.08992C26.6447 3.88531 26.4092 4.72109 26.4092 5.30496V5.70701H25.0028H23.5963V7.80995V9.91281L24.0417 9.96838C26.4766 10.2721 28.3251 11.812 28.9952 14.0948C29.2161 14.8474 29.2161 16.2475 28.9952 17.0001C28.3265 19.2783 26.4717 20.8234 24.0417 21.1265L23.5963 21.1821V23.2849V25.3879H27.4874C29.6275 25.3879 31.3781 25.4194 31.3776 25.4582C31.3773 25.4969 31.2085 26.0052 31.0026 26.5878C30.3939 28.3111 30.5112 29.2208 31.4653 30.1744C32.0668 30.7756 32.6226 31.011 33.4412 31.011C34.2599 31.011 34.8157 30.7756 35.4171 30.1744C36.3712 29.2208 36.4885 28.3111 35.8798 26.5878C35.674 26.0052 35.5052 25.4969 35.5048 25.4582C35.5043 25.4194 37.2549 25.3879 39.395 25.3879H43.2861V23.9821V22.5763H43.6883C44.2721 22.5763 45.1074 22.3413 45.9114 21.9508C47.2477 21.3018 48.4776 19.7831 48.8622 18.3073C49.0459 17.6023 49.0459 16.3041 48.8622 15.5992C48.4776 14.1233 47.2477 12.6046 45.9114 11.9556C45.1074 11.5652 44.2721 11.3301 43.6883 11.3301H43.2861V8.51856V5.70701H40.4733H37.6605V5.30496C37.6605 4.72109 37.4249 3.88531 37.0364 3.08992C36.3794 1.74516 34.8651 0.517635 33.3895 0.13339C32.7037 -0.04505 31.3126 -0.0428008 30.64 0.138076ZM19.9866 5.82172C19.0113 5.91 17.4351 6.21327 16.4125 6.50942C8.47198 8.80946 2.58596 15.3221 1.22821 23.31C1.10267 24.0487 1 24.8183 1 25.0204V25.3879H3.15078H5.30146L5.35706 24.9427C5.66094 22.5089 7.20152 20.6613 9.48535 19.9915C10.2382 19.7707 11.639 19.7707 12.3919 19.9915C14.6758 20.6613 16.2163 22.5089 16.5202 24.9427L16.5758 25.3879H18.6796H20.7835V21.4985C20.7835 19.3594 20.8152 17.6096 20.8538 17.6101C20.8925 17.6105 21.4094 17.7832 22.0024 17.9938C22.9561 18.3324 23.1526 18.3717 23.7035 18.3341C24.8022 18.2593 25.72 17.6322 26.1819 16.6406C27.0091 14.8646 25.5678 12.7359 23.5378 12.7359C23.2013 12.7359 22.7062 12.8551 21.984 13.1099C21.4011 13.3157 20.8929 13.4844 20.8549 13.4848C20.8168 13.4853 20.7746 11.746 20.7611 9.61975L20.7366 5.75387L19.9866 5.82172ZM9.90774 22.7398C9.31958 22.9472 8.48745 23.796 8.28296 24.3971C8.02362 25.1595 8.07725 25.8025 8.50002 26.9994C8.70592 27.5821 8.87469 28.0904 8.87506 28.1291C8.87553 28.1678 7.10383 28.1994 4.93795 28.1994H1V28.5669C1 28.7689 1.10267 29.5386 1.22821 30.2772C1.83663 33.8563 3.39118 37.2753 5.71673 40.1485C6.50235 41.119 8.34081 42.906 9.30308 43.6344C12.1566 45.794 15.2962 47.167 18.7048 47.7459C19.4438 47.8714 20.2137 47.974 20.4159 47.974H20.7835V45.8242V43.6745L20.3382 43.6189C17.9082 43.3158 16.0534 41.7707 15.3847 39.4925C15.1638 38.7399 15.1638 37.3398 15.3847 36.5872C16.0548 34.3044 17.9033 32.7645 20.3382 32.4608L20.7835 32.4052V30.3024V28.1994H16.8924C14.7524 28.1994 13.0018 28.1678 13.0022 28.1291C13.0026 28.0904 13.1714 27.5821 13.3773 26.9994C13.8 25.8025 13.8537 25.1595 13.5943 24.3971C13.3806 23.769 12.5583 22.947 11.9299 22.7334C11.3595 22.5395 10.4675 22.5423 9.90774 22.7398ZM23.5963 32.0887C23.5963 34.2278 23.5748 35.978 23.5484 35.978C23.5221 35.978 23.0053 35.8062 22.3999 35.5961C21.0948 35.1434 20.4085 35.1208 19.6187 35.5048C17.4305 36.5688 17.4305 39.5108 19.6187 40.5748C20.4085 40.9589 21.0948 40.9363 22.3999 40.4835C23.0053 40.2735 23.5221 40.1016 23.5484 40.1016C23.5748 40.1016 23.5963 41.879 23.5963 44.0513V48.001L24.3543 47.9377C28.0311 47.6313 32.3521 45.8241 35.4414 43.3008C39.7383 39.7913 42.6599 34.3784 43.1749 28.9726L43.2486 28.1994H41.1635H39.0784L39.0182 28.6446C38.8203 30.1099 38.3053 31.2034 37.376 32.1324C36.2915 33.2163 34.976 33.7608 33.4412 33.7608C30.5302 33.7608 28.2358 31.6577 27.8596 28.6446L27.804 28.1994H25.7002H23.5963V32.0887Z" fill="#6F879D"/>
</g>
<defs>
<filter id="filter0_d_1_523" x="0" y="0.000976562" width="56" height="61" filterUnits="userSpaceOnUse" color-interpolation-filters="sRGB">
<feFlood flood-opacity="0" result="BackgroundImageFix"/>
<feColorMatrix in="SourceAlpha" type="matrix" values="0 0 0 0 0 0 0 0 0 0 0 0 0 0 0 0 0 0 127 0" result="hardAlpha"/>
<feOffset dx="3" dy="9"/>
<feGaussianBlur stdDeviation="2"/>
<feComposite in2="hardAlpha" operator="out"/>
<feColorMatrix type="matrix" values="0 0 0 0 0 0 0 0 0 0 0 0 0 0 0 0 0 0 0.19 0"/>
<feBlend mode="normal" in2="BackgroundImageFix" result="effect1_dropShadow_1_523"/>
<feBlend mode="normal" in="SourceGraphic" in2="effect1_dropShadow_1_523" result="shape"/>
</filter>
</defs>
</svg>
