<svg width="51" height="37" viewBox="0 0 51 37" fill="none" xmlns="http://www.w3.org/2000/svg">
<path fill-rule="evenodd" clip-rule="evenodd" d="M3.43954 0.111206C1.81293 0.351002 0.407028 1.69859 0.104733 3.30789C-0.0349109 4.0509 -0.0349109 32.9491 0.104733 33.6921C0.425056 35.3971 1.85655 36.6954 3.65498 36.9118C4.08427 36.9635 5.69057 36.9932 7.22446 36.9778L10.0133 36.9497V18.5V0.0502764L7.02525 0.0367028C5.3818 0.029162 3.76823 0.062744 3.43954 0.111206Z" fill="#85E25A"/>
<path fill-rule="evenodd" clip-rule="evenodd" d="M13.0513 3.0163V6.03261H32.0257H51V4.9403C51 4.33966 50.9543 3.60499 50.8985 3.30788C50.5874 1.65143 49.1551 0.317214 47.4502 0.0954155C47.0744 0.0465514 39.1809 0.00512743 29.9091 0.00331765L13.0513 0V3.0163ZM13.0513 23.0245V37L29.9091 36.9967C39.1809 36.9949 47.0744 36.9534 47.4502 36.9046C49.1551 36.6828 50.5874 35.3486 50.8985 33.6921C50.9639 33.3441 51 28.8643 51 21.1005V9.04891H32.0257H13.0513V23.0245ZM24.4415 17.2317C25.3918 17.7011 25.9364 18.7487 25.6929 19.6391C25.609 19.9455 25.5301 20.0216 25.1895 20.1246C24.8597 20.2243 24.7107 20.2203 24.3774 20.1024C24.008 19.9717 23.9576 19.9117 23.8473 19.4724C23.7803 19.2053 23.6483 18.9008 23.554 18.7957C23.156 18.3516 22.1345 18.4789 21.8644 19.0061C21.7479 19.2335 21.7167 19.732 21.7167 21.3655C21.7167 23.7771 21.762 23.9532 22.428 24.1343C23.2179 24.3489 23.6378 24.0848 23.821 23.2579C23.9652 22.6078 24.1798 22.4212 24.7833 22.4212C25.3626 22.4212 25.5731 22.5533 25.6931 22.9924C25.8863 23.6988 25.5611 24.595 24.9062 25.1609C24.3845 25.6117 23.6646 25.8397 22.7626 25.8397C21.7944 25.8397 21.0838 25.5973 20.5603 25.0885C19.9065 24.4532 19.8243 24.0297 19.8243 21.3007C19.8243 18.6098 19.92 18.1739 20.6492 17.5438C21.2341 17.0386 21.7778 16.889 22.9153 16.9206C23.7238 16.943 23.9504 16.9892 24.4415 17.2317ZM31.1851 17.0533C31.8524 17.2533 32.5007 17.8667 32.661 18.45C32.8202 19.0289 32.798 20.0985 32.6154 20.6392C32.4693 21.0724 32.0098 21.5945 31.5303 21.8724C31.3649 21.9683 31.4138 22.0942 32.111 23.3667C32.5296 24.1309 32.8723 24.8316 32.8723 24.9237C32.8723 25.503 31.7945 26.0712 31.2984 25.7535C31.227 25.7079 30.7769 24.9055 30.2982 23.9705L29.4278 22.2704H29.0335H28.6391L28.6116 23.8239C28.5809 25.5502 28.5389 25.6722 27.9417 25.77C27.495 25.8431 26.9242 25.6783 26.7977 25.4397C26.7346 25.3208 26.6969 23.7695 26.6969 21.2939C26.6969 17.8764 26.718 17.3079 26.852 17.1148C27.0026 16.8977 27.0592 16.8913 28.8259 16.8913C30.2083 16.8913 30.7745 16.9302 31.1851 17.0533ZM35.8527 17.2675C35.9939 17.4383 36.392 18.0784 36.7374 18.69C37.0828 19.3016 37.4043 19.8264 37.4519 19.856C37.4995 19.8857 37.822 19.404 38.1686 18.7854C38.5151 18.1669 38.9598 17.4877 39.1567 17.2761C39.4906 16.9173 39.5533 16.8913 40.0826 16.8913C40.5526 16.8913 40.6925 16.9338 40.8948 17.1381L41.1393 17.3849V21.3989C41.1393 25.7927 41.1724 25.5565 40.532 25.7419C40.1163 25.8623 39.4867 25.7021 39.3482 25.4407C39.2881 25.3273 39.2466 24.3167 39.2461 22.9557L39.2454 20.6617L38.6236 21.7153C37.6249 23.4075 37.3052 23.4143 36.4082 21.7622L35.8106 20.6617L35.7608 23.0455C35.7141 25.2818 35.6986 25.4383 35.5118 25.5764C35.1162 25.8686 34.4238 25.8767 34.0409 25.5933C33.8778 25.4726 33.8649 25.168 33.8643 21.4034L33.8637 17.3438L34.133 17.1068C34.3674 16.9005 34.4796 16.8754 34.9992 16.9133C35.5184 16.9512 35.6295 16.9974 35.8527 17.2675ZM28.5893 19.6562V20.8125L29.2119 20.8119C30.0068 20.8112 30.5349 20.6622 30.7279 20.3841C30.9043 20.1298 30.9313 19.287 30.7726 18.9876C30.6088 18.6787 30.0656 18.5 29.2898 18.5H28.5893V19.6562Z" fill="#B8D6DF"/>
</svg>
