<svg width="50" height="50" viewBox="0 0 50 50" fill="none" xmlns="http://www.w3.org/2000/svg">
<path fill-rule="evenodd" clip-rule="evenodd" d="M0.672322 0.169341C-0.0336125 0.517865 0.000302098 -0.0486059 0.000302098 11.3846C0.000302098 22.8514 -0.0360577 22.2592 0.689013 22.6036C1.00658 22.7544 2.89283 22.7715 19.2894 22.7715C34.819 22.7715 37.5903 22.7489 37.8981 22.6202C38.6329 22.3129 38.5928 22.9612 38.5928 11.3846C38.5928 -0.19206 38.6329 0.456248 37.8981 0.148908C37.5902 0.0201405 34.8207 -0.00199464 19.2734 0.000133754C2.90654 0.00226215 0.975214 0.0198214 0.672322 0.169341ZM31.0939 3.55433C31.502 3.72503 31.7886 4.1887 31.7886 4.67823C31.7886 5.6756 32.8625 6.80854 33.8077 6.80854C34.3156 6.80854 34.8407 7.07831 35.0242 7.43343C35.273 7.91488 35.273 14.8543 35.0242 15.3357C34.8407 15.6908 34.3156 15.9606 33.8077 15.9606C32.8625 15.9606 31.7886 17.0936 31.7886 18.0909C31.7886 18.5805 31.502 19.0441 31.0939 19.2148C30.5357 19.4483 8.00287 19.4403 7.51063 19.2064C7.06485 18.9947 6.90857 18.7193 6.80077 17.9561C6.64172 16.8301 5.93546 16.1234 4.80969 15.9642C3.40144 15.7649 3.40239 15.7681 3.40239 11.3846C3.40239 7.00052 3.40123 7.00424 4.81097 6.80481C5.93589 6.64561 6.64182 5.93866 6.80087 4.81179C6.90729 4.05823 7.0623 3.77962 7.49373 3.56647C7.96524 3.33351 30.5381 3.32191 31.0939 3.55433ZM8.66809 6.45661C8.25091 7.41513 7.41048 8.25638 6.4529 8.67397L5.74133 8.98429V11.3846V13.7849L6.4529 14.0952C7.41048 14.5128 8.25091 15.354 8.66809 16.3125L8.9781 17.0248H19.3235C29.082 17.0248 29.6725 17.0143 29.7304 16.8386C29.9449 16.1887 30.4183 15.4546 30.9505 14.9464C31.5057 14.4164 32.4832 13.836 32.8252 13.8333C32.9276 13.8324 32.9581 13.2712 32.9581 11.3846C32.9581 9.49797 32.9276 8.93672 32.8252 8.93586C32.4832 8.9332 31.5057 8.35279 30.9505 7.82272C30.4183 7.31456 29.9449 6.58048 29.7304 5.93058C29.6725 5.75488 29.082 5.74434 19.3235 5.74434H8.9781L8.66809 6.45661ZM20.0217 6.91123C20.9056 7.05618 21.7069 7.45812 22.3776 8.09302C23.3604 9.02345 23.8149 10.0643 23.8149 11.3846C23.8149 12.7048 23.3604 13.7457 22.3776 14.6761C19.7538 17.1601 15.4715 15.6888 14.8561 12.0921C14.6147 10.6823 15.0846 9.2498 16.13 8.20785C16.8079 7.53219 17.5027 7.14706 18.3929 6.95348C19.1375 6.79162 19.2709 6.7881 20.0217 6.91123ZM18.3936 9.31929C16.6195 10.0895 16.6346 12.709 18.4175 13.4547C19.875 14.0642 21.572 12.9659 21.58 11.4078C21.5882 9.80542 19.8693 8.67875 18.3936 9.31929ZM22.6132 29.7921C21.8211 30.1019 21.2137 30.6647 20.8302 31.4446C20.5505 32.0134 20.4834 32.2948 20.4381 33.0913L20.3834 34.0519H35.1917H50L49.9379 33.0919C49.8319 31.4545 49.0634 30.2815 47.7819 29.8017C47.2029 29.5848 47.0609 29.5824 35.1601 29.5873C23.6454 29.5921 23.1018 29.6009 22.6132 29.7921ZM20.4349 41.8472L20.466 47.3012L20.7735 47.9676C21.1329 48.7467 21.6849 49.2863 22.5264 49.6812L23.1239 49.9617L34.9135 49.9905C45.0939 50.0154 46.7878 49.9976 47.3235 49.8604C48.4356 49.5751 49.1198 48.9921 49.64 47.8865L49.9154 47.3012L49.9465 41.8472L49.9776 36.3932H35.1907H20.4038L20.4349 41.8472ZM31.4065 38.9377C31.9528 39.4517 31.8324 40.4503 31.1889 40.7438C31.0199 40.8209 30.0328 40.8628 28.3865 40.8628C26.7402 40.8628 25.7531 40.8209 25.5841 40.7438C24.7699 40.3725 24.8647 39.031 25.7286 38.7005C25.8163 38.6669 27.0684 38.6488 28.511 38.6603C31.1232 38.6811 31.1351 38.6823 31.4065 38.9377ZM28.9317 42.2001C29.3767 42.4305 29.6055 42.9975 29.4472 43.4775C29.2168 44.1763 28.9688 44.2682 27.314 44.2682C26.4579 44.2682 25.7361 44.2186 25.5841 44.1492C24.9619 43.8654 24.8169 42.8518 25.3315 42.3832C25.6805 42.0655 25.7622 42.051 27.2489 42.0418C28.289 42.0354 28.6856 42.0727 28.9317 42.2001Z" fill="#B8D6DF"/>
<path fill-rule="evenodd" clip-rule="evenodd" d="M43.5258 8.28332C43.2978 8.45061 42.6284 9.08625 42.0385 9.69582C40.4592 11.3276 40.465 11.4566 42.1984 13.2307C42.8758 13.9241 43.5593 14.5587 43.7172 14.6407C44.2122 14.8981 44.634 14.8301 45.0355 14.4282C45.4886 13.9746 45.5168 13.5066 45.1258 12.9298L44.8546 12.5297L45.5398 12.5734C46.329 12.6237 46.8704 12.9324 47.3107 13.5831L47.5764 13.976L47.6296 20.2094C47.6699 24.9401 47.715 26.4994 47.8165 26.677C48.1312 27.2276 48.9222 27.4198 49.4245 27.0675C49.9617 26.6909 49.9685 26.6076 49.9679 20.4603C49.9676 17.2943 49.9215 14.4568 49.8648 14.1103C49.525 12.0332 47.9417 10.554 45.7702 10.2846L44.8973 10.1764L45.1471 9.80788C45.5159 9.26376 45.4796 8.78551 45.0355 8.341C44.5679 7.87296 44.1092 7.85541 43.5258 8.28332ZM9.65204 25.1853C9.49321 25.2871 9.31226 25.4938 9.24985 25.6446C9.17288 25.8306 9.14609 27.785 9.1665 31.7204L9.19659 37.522L9.59272 38.3241C10.3436 39.8446 11.7069 40.7561 13.3601 40.8429L14.2374 40.889L13.9845 41.2218C13.8453 41.4048 13.6997 41.6821 13.6609 41.8382C13.5569 42.2553 13.8694 42.8329 14.3129 43.0436C14.9444 43.3436 15.2261 43.1971 16.5927 41.8579C18.6694 39.823 18.6699 39.7938 16.6555 37.7972C15.3024 36.4561 15.2195 36.3932 14.8041 36.3932C14.2843 36.3932 13.7651 36.7743 13.6652 37.2289C13.5877 37.5824 13.7489 38.0566 14.0596 38.3886L14.2837 38.628H13.8026C12.8951 38.628 12.1333 38.2186 11.6785 37.4862L11.4292 37.0849L11.3761 31.3672L11.3229 25.6494L11.0468 25.3731C10.6889 25.0151 10.0513 24.9293 9.65204 25.1853Z" fill="#85E25A"/>
</svg>
