<svg width="61" height="49" viewBox="0 0 61 49" fill="none" xmlns="http://www.w3.org/2000/svg">
<path fill-rule="evenodd" clip-rule="evenodd" d="M21.9957 0.122896C17.9954 0.525436 13.5578 2.19742 10.2615 4.54392C8.98349 5.45367 6.13263 8.04855 6.20609 8.23511C6.22754 8.28934 10.331 11.7584 15.3247 15.9442L24.4046 23.5547L26.1194 21.9284C27.0626 21.0339 30.8582 17.3205 34.5541 13.6761C40.9453 7.3743 41.2674 7.03332 41.1395 6.70535C40.961 6.24776 39.8451 5.31429 38.0179 4.09447C33.3335 0.966887 27.6382 -0.444782 21.9957 0.122896ZM4.60835 10.1555C2.45581 13.0713 0.969417 16.6208 0.246518 20.5718C-0.086961 22.3944 -0.0809865 26.6376 0.257652 28.4978C0.772398 31.3247 1.83896 34.3571 3.04212 36.414L3.60208 37.3716L5.33098 36.2457C10.3349 32.9869 23.0974 24.6009 23.1952 24.5075C23.2765 24.43 7.77681 11.2865 5.47097 9.47757C5.26798 9.3184 5.16859 9.39636 4.60835 10.1555ZM14.7185 31.705C9.23659 35.2929 4.66647 38.3084 4.56259 38.4062C4.12063 38.8224 7.72141 42.6518 10.2615 44.4665C12.8257 46.2988 16.4244 47.8574 19.6048 48.5134C24.7949 49.5839 30.4137 48.8716 35.1665 46.5404C42.4173 42.984 47.3102 36.4377 48.6835 28.4559C49.0343 26.4165 49.035 25.5085 48.6856 25.3218C48.5104 25.2281 44.476 25.1815 36.5543 25.1815H24.6855L14.7185 31.705Z" fill="#B8D6DF"/>
<path fill-rule="evenodd" clip-rule="evenodd" d="M46.2195 10.7082L38.3203 18.4703L49.4919 18.505C58.1253 18.5318 60.7089 18.5021 60.8632 18.3743C61.1238 18.1583 61.0075 16.662 60.5542 14.395C59.7871 10.5609 58.0127 6.80229 55.5529 3.80162C55.0103 3.13971 54.7727 2.94949 54.4868 2.948C54.1818 2.94651 52.763 4.27832 46.2195 10.7082Z" fill="#85E25A"/>
</svg>
