<svg width="51" height="51" viewBox="0 0 51 51" fill="none" xmlns="http://www.w3.org/2000/svg">
<path fill-rule="evenodd" clip-rule="evenodd" d="M30.5987 3.57239V7.14477H31.3168C31.7118 7.14477 32.271 7.2145 32.5596 7.29977C33.2598 7.50665 34.3157 8.56259 34.5226 9.26276C34.8757 10.4579 34.6268 11.4107 33.7259 12.3115C33.0035 13.034 32.4232 13.2632 31.3168 13.2632H30.5987V16.8323V20.4013H34.1677H37.7368V21.1195C37.7368 22.2259 37.966 22.8061 38.6885 23.5286C39.9931 24.8332 41.7933 24.8054 43.0011 23.4621C43.6306 22.7619 43.8552 22.1458 43.8552 21.1195V20.4013H47.4276H51L50.9648 11.383C50.9316 2.87068 50.9164 2.33978 50.6923 1.91863C50.361 1.29583 49.7461 0.670858 49.1451 0.345945C48.638 0.0718909 48.5859 0.0701064 39.617 0.0351805L30.5987 0V3.57239ZM9.18424 26.6863C8.55863 26.8835 7.49161 27.9884 7.29977 28.6377C7.2145 28.9263 7.14477 29.4855 7.14477 29.8805V30.5987H3.57239H0L0.0351805 39.617C0.0684493 48.1293 0.083618 48.6602 0.307705 49.0814C0.638991 49.7042 1.25389 50.3291 1.8549 50.6541C2.36196 50.9281 2.41409 50.9299 11.383 50.9648L20.4013 51V47.4276V43.8552H19.6832C18.5768 43.8552 17.9965 43.626 17.2741 42.9036C15.9845 41.614 15.9845 39.9781 17.2741 38.6885C17.9965 37.966 18.5768 37.7368 19.6832 37.7368H20.4013V34.1677V30.5987H16.8323H13.2632V29.8805C13.2632 28.8542 13.0386 28.2381 12.409 27.5379C11.5841 26.6204 10.3922 26.3056 9.18424 26.6863ZM30.5987 34.1677V37.7368H29.8805C29.4855 37.7368 28.9263 37.8065 28.6377 37.8918C27.9375 38.0987 26.8816 39.1546 26.6747 39.8548C26.3217 41.0499 26.5706 42.0028 27.4714 42.9036C28.1939 43.626 28.7741 43.8552 29.8805 43.8552H30.5987V47.4276V51L39.617 50.9648C48.5859 50.9299 48.638 50.9281 49.1451 50.6541C49.7461 50.3291 50.361 49.7042 50.6923 49.0814C50.9164 48.6602 50.9316 48.1293 50.9648 39.617L51 30.5987H47.4276H43.8552V31.3168C43.8552 31.7118 43.7855 32.271 43.7002 32.5596C43.4933 33.2598 42.4374 34.3157 41.7372 34.5226C40.5421 34.8757 39.5893 34.6268 38.6885 33.7259C37.966 33.0035 37.7368 32.4232 37.7368 31.3168V30.5987H34.1677H30.5987V34.1677Z" fill="#B8D6DF"/>
<path fill-rule="evenodd" clip-rule="evenodd" d="M2.42773 0.125646C1.55191 0.392051 0.76633 1.05641 0.307705 1.91859C0.083618 2.33975 0.0684493 2.87064 0.0351805 11.383L0 20.4013H3.57239H7.14477V19.6831C7.14477 18.5767 7.37396 17.9965 8.09644 17.274C9.38602 15.9844 11.0219 15.9844 12.3115 17.274C13.034 17.9965 13.2632 18.5767 13.2632 19.6831V20.4013H16.8323H20.4013V16.8322V13.2631H21.1434C22.2505 13.2631 22.9795 12.9641 23.6261 12.2449C24.7691 10.9737 24.7691 9.43417 23.6261 8.16294C22.9795 7.44377 22.2505 7.14474 21.1434 7.14474H20.4013V3.57566V0.0065918L11.5742 0.0175538C6.71929 0.0235447 2.60338 0.072237 2.42773 0.125646Z" fill="#85E25A"/>
</svg>
