<svg xmlns="http://www.w3.org/2000/svg" width="770" height="610" fill="none"><g fill="#2F4457" filter="url(#a)"><path d="m73 96.903 516.675-74.369 86.435 200.133-516.675 74.369z"/><path d="m73 96.903 369.195-53.14 155.82 360.79-369.195 53.14z"/><path d="m73 96.903 272.195-39.179 192.693 446.168-272.194 39.179z"/></g><path stroke="#445D74" d="M.693.388h247v458h-247z" transform="matrix(.9898 -.14247 .39649 .91804 92.261 107.892)"/><path stroke="#445D74" d="M.693.388h248v184h-248z" transform="matrix(.9898 -.14247 .39649 .91804 336.742 72.702)"/><path stroke="#445D74" d="M.693.388h95v183h-95z" transform="matrix(.9898 -.14247 .39649 .91804 409.696 241.621)"/><path stroke="#445D74" d="M.693.388h247v183h-247z" transform="matrix(.9898 -.14247 .39649 .91804 201.296 360.353)"/><path fill="#2F4457" stroke="#445D74" d="M.693.388h109v9h-109z" transform="matrix(.9898 -.14247 .39649 .91804 159.961 94.247)"/><path fill="#2F4457" stroke="#445D74" d="M.693.388h83v9h-83z" transform="matrix(.9898 -.14247 .39649 .91804 538.763 219.143)"/><path fill="#2F4457" stroke="#445D74" d="M.297-.53h83v9h-83z" transform="matrix(-.39649 -.91804 .9898 -.14247 146.482 240.195)"/><path fill="#2F4457" stroke="#445D74" d="M.297-.53h83v9h-83z" transform="matrix(-.39649 -.91804 .9898 -.14247 251.155 482.558)"/><path fill="#445D74" d="m287.552 342.952 75.225-10.828 5.947 13.771-75.225 10.828zM420.528 232.152l62.357-8.976 5.948 13.771-62.358 8.976zM470.317 398.555l-24.979-57.837 14.847-2.137 24.979 57.837z"/><path fill="#2F4457" d="m367.626 160.782-24.979-57.837 14.847-2.137 24.979 57.837z"/><path fill="#2F4457" stroke="#445D74" d="M.297-.53h83v109h-83z" transform="matrix(-.39649 -.91804 .9898 -.14247 296.107 501.44)"/><path fill="#2F4457" stroke="#3A5772" d="M.297-.53h122v109h-122z" transform="matrix(-.39649 -.91804 .9898 -.14247 512.708 187.482)"/><path fill="#2F4457" stroke="#445D74" d="M.297-.53h82v73h-82z" transform="matrix(-.39649 -.91804 .9898 -.14247 167.645 203.996)"/><path fill="#2F4457" stroke="#445D74" d="M.297-.53h83v9h-83z" transform="matrix(-.39649 -.91804 .9898 -.14247 631.279 157.739)"/><path fill="#2F4457" stroke="#445D74" d="M.297-.53h83v9h-83z" transform="matrix(-.39649 -.91804 .9898 -.14247 555.172 353.964)"/><g filter="url(#b)"><rect width="276" height="343.166" fill="url(#c)" rx="10" transform="matrix(.9898 -.14247 .39649 .91804 165.162 144.703)"/></g><g filter="url(#d)"><rect width="51" height="52" fill="url(#e)" rx="8" transform="matrix(.9898 -.14247 .39649 .91804 182.675 119.734)"/></g><g filter="url(#f)"><path fill="#fff" d="m204.275 145.489-1.189-2.754 2.469-8.742 4.791-.689-2.252 8.71-2.439-.293 10.729-1.544 1.451 3.36-13.56 1.952Zm8.138 1.169-.952-2.204-1.313-3.38-.848-1.964 4.395-.633 3.251 7.528-4.533.653Zm14.472-1.771c-1.227.176-2.381.167-3.46-.029-1.072-.21-2.004-.583-2.797-1.119-.797-.548-1.376-1.238-1.735-2.071-.359-.832-.396-1.581-.108-2.246.287-.666.833-1.219 1.638-1.66.805-.441 1.801-.747 2.989-.917 1.188-.171 2.316-.171 3.385 0 1.07.171 2.002.511 2.796 1.021a4.456 4.456 0 0 1 1.732 2.013c.359.832.41 1.599.152 2.299-.264.688-.79 1.271-1.579 1.748-.781.464-1.785.784-3.013.961Zm-1.261-2.92c.449-.064.762-.233.938-.505.185-.287.188-.638.008-1.055a1.748 1.748 0 0 0-.856-.91 1.976 1.976 0 0 0-1.247-.21c-.449.064-.766.24-.95.526-.177.273-.176.617.004 1.033.18.416.461.727.844.932.391.191.811.254 1.259.189Zm-1.308-3.029c-1.082.155-2.12.155-3.112-.001-.985-.17-1.844-.489-2.578-.955-.74-.479-1.276-1.104-1.609-1.875-.338-.783-.385-1.491-.14-2.125.24-.645.72-1.189 1.44-1.631.721-.441 1.642-.743 2.764-.905 1.121-.161 2.18-.144 3.175.05.995.195 1.861.545 2.598 1.05a4.351 4.351 0 0 1 1.605 1.914c.333.772.368 1.469.104 2.092-.269.61-.769 1.124-1.5 1.542-.736.405-1.652.686-2.747.844Zm-1.023-2.369c.317-.045.538-.181.665-.408.127-.226.116-.51-.032-.853-.154-.355-.375-.609-.666-.762a1.418 1.418 0 0 0-.919-.18c-.316.045-.538.181-.665.408-.131.214-.121.498.033.853.148.343.37.597.665.762.296.166.602.226.919.18Z"/></g><path fill="#EFD701" d="m402.574 144.582-4.901-11.347 2.761 1.475-4.375.629-1.412-3.268 7.048-1.014 5.55 12.852-4.671.673Zm15.321-2.206-4.96-4.181 2.763-2.465 7.463 5.889-5.266.757Zm-7.483 1.078-4.337-10.044 4.473-.644 4.338 10.044-4.474.644Zm1.724-3.798-1.372-3.176 4.039-.582 1.372 3.177-4.039.581Zm4.873-2.008-4.355.237 1.24-5.6 4.711-.678-1.596 6.041Z"/><g filter="url(#g)"><rect width="215" height="40" fill="url(#h)" rx="4" transform="matrix(.9898 -.14247 .39649 .91804 271.885 326.293)"/></g><path fill="#fff" d="m301.775 346.369-3.608-8.354 1.117.644-2.84.409-.605-1.401 3.852-.554 3.886 8.997-1.802.259Zm4.294-.618-.483-1.118 2.387-3.948c.201-.329.334-.612.398-.849.065-.237.081-.449.05-.635a2.031 2.031 0 0 0-.144-.539 1.648 1.648 0 0 0-.869-.885c-.404-.188-.902-.239-1.494-.154-.471.068-.867.207-1.188.417a1.771 1.771 0 0 0-.679.848l-1.649-.718c.175-.526.526-.963 1.052-1.312.532-.358 1.195-.595 1.99-.709a5.344 5.344 0 0 1 1.968.058c.615.13 1.144.367 1.588.713.453.344.794.782 1.024 1.313.125.292.21.589.252.892.039.295.012.618-.082.968s-.278.754-.551 1.212l-2.052 3.394-.646-.575 5.668-.816.61 1.414-7.15 1.029Zm15.027-2.163.407-8.905.793.678-5.501.791.51-.933 1.01 2.339-1.677.242-1.271-2.944 7.538-1.085.483 1.118-.366 8.422-1.926.277Zm6.831-10.676c.887-.128 1.716-.06 2.486.202a5.247 5.247 0 0 1 2.091 1.296c.617.612 1.135 1.402 1.553 2.37.445 1.029.617 1.927.518 2.697-.091.768-.412 1.388-.964 1.859-.552.471-1.299.774-2.242.91-.489.07-.976.09-1.46.06a4.71 4.71 0 0 1-1.339-.272l.121-1.355a3.67 3.67 0 0 0 1.023.221c.34.015.676-.001 1.009-.049.914-.132 1.527-.498 1.837-1.097.31-.6.245-1.41-.196-2.43-.07-.162-.156-.35-.258-.563a4.46 4.46 0 0 0-.385-.655l.798.486a1.755 1.755 0 0 1-.296.985 2.211 2.211 0 0 1-.812.676 3.93 3.93 0 0 1-1.238.37 4.786 4.786 0 0 1-1.849-.089 4.452 4.452 0 0 1-1.608-.793 3.551 3.551 0 0 1-1.076-1.401c-.259-.6-.324-1.136-.195-1.61.125-.482.404-.882.836-1.199.441-.318.99-.525 1.646-.619Zm.663 1.297c-.369.053-.67.165-.9.334-.235.162-.385.37-.452.625-.061.245-.023.527.114.844.204.471.54.818 1.01 1.042.469.224 1 .293 1.591.208.388-.056.702-.169.942-.34.236-.18.388-.398.454-.653.063-.264.031-.541-.094-.833a1.855 1.855 0 0 0-.564-.724 2.423 2.423 0 0 0-.917-.455 2.948 2.948 0 0 0-1.184-.048Zm9.25 6.969-.483-1.118 2.387-3.948c.201-.329.334-.612.399-.849.064-.237.081-.449.049-.635a2.031 2.031 0 0 0-.144-.539 1.651 1.651 0 0 0-.868-.886c-.405-.187-.903-.238-1.494-.153-.471.068-.868.207-1.189.417a1.783 1.783 0 0 0-.679.848l-1.649-.718c.175-.526.526-.963 1.052-1.312.532-.358 1.196-.595 1.99-.709a5.344 5.344 0 0 1 1.968.058c.615.13 1.145.367 1.589.713a3.23 3.23 0 0 1 1.023 1.313c.126.292.21.589.253.892a2.48 2.48 0 0 1-.083.968c-.094.35-.277.754-.551 1.212l-2.051 3.394-.647-.576 5.668-.815.611 1.413-7.151 1.03Zm17.507-2.384a4.829 4.829 0 0 1-2.311-.24c-.765-.272-1.471-.726-2.119-1.361-.65-.643-1.189-1.458-1.614-2.443-.426-.986-.611-1.846-.556-2.582.051-.745.304-1.341.758-1.789.464-.449 1.079-.728 1.846-.839a4.787 4.787 0 0 1 2.312.241c.765.272 1.473.73 2.124 1.373.656.634 1.197 1.444 1.622 2.429.426.985.608 1.851.548 2.597-.055.736-.31 1.328-.764 1.775-.454.448-1.07.728-1.846.839Zm-.627-1.452c.453-.065.797-.233 1.034-.504.232-.279.339-.668.321-1.165-.01-.5-.17-1.109-.481-1.829-.314-.728-.669-1.31-1.063-1.744-.388-.445-.796-.755-1.225-.93a2.454 2.454 0 0 0-1.328-.177c-.434.062-.772.234-1.014.514-.236.271-.35.656-.34 1.155.015.489.18 1.098.494 1.826.311.72.661 1.302 1.049 1.747.397.443.812.757 1.245.94.438.174.874.229 1.308.167Zm10.644.01a4.82 4.82 0 0 1-2.312-.24c-.765-.272-1.471-.726-2.118-1.361-.651-.643-1.189-1.458-1.614-2.443-.426-.985-.611-1.846-.556-2.582.051-.745.304-1.341.758-1.788.464-.449 1.079-.729 1.846-.839a4.769 4.769 0 0 1 2.311.24c.765.272 1.473.73 2.124 1.374.657.633 1.197 1.443 1.623 2.428.426.986.608 1.851.548 2.597-.055.736-.31 1.328-.764 1.775-.455.448-1.07.728-1.846.839Zm-.627-1.452c.453-.065.797-.233 1.033-.504.233-.279.34-.667.321-1.165-.009-.499-.169-1.109-.48-1.829-.315-.728-.669-1.309-1.063-1.744-.388-.445-.797-.755-1.225-.93a2.456 2.456 0 0 0-1.328-.177c-.434.062-.772.234-1.014.515-.237.27-.35.655-.341 1.154.016.49.18 1.098.495 1.827.311.719.66 1.302 1.049 1.746.397.444.812.757 1.245.941.438.173.874.229 1.308.166Zm10.644.011c-.767.11-1.537.03-2.312-.241-.765-.272-1.471-.726-2.118-1.36-.651-.644-1.189-1.458-1.615-2.444-.425-.985-.611-1.846-.556-2.582.052-.744.305-1.341.759-1.788.463-.449 1.079-.729 1.845-.839a4.773 4.773 0 0 1 2.312.24c.765.273 1.473.73 2.124 1.374.656.634 1.197 1.443 1.623 2.428.425.986.608 1.851.547 2.597-.055.736-.309 1.328-.764 1.776-.454.447-1.069.727-1.845.839Zm-.627-1.453c.452-.065.797-.233 1.033-.503.233-.28.34-.668.321-1.166-.01-.499-.17-1.109-.481-1.828-.314-.729-.668-1.31-1.062-1.745-.388-.445-.797-.754-1.226-.929a2.442 2.442 0 0 0-1.327-.178c-.435.063-.773.234-1.015.515-.236.27-.349.655-.34 1.155.015.489.18 1.098.495 1.826.31.72.66 1.302 1.048 1.747.398.443.813.756 1.245.94.438.173.874.229 1.309.166Zm13.157-.487-2.543-5.887.569.328-3.007.433-.589-1.363 6.929-.997.588 1.362-2.993.431.236-.443 2.542 5.886-1.732.25Z"/><g filter="url(#i)"><rect width="138" height="40" fill="url(#j)" rx="4" transform="matrix(.9898 -.14247 .39649 .91804 250.078 275.801)"/></g><path fill="#fff" d="m279.178 295.99-3.885-8.996 6.582-.948.597 1.416-5.225.752.244-.458 3.461 7.979-1.774.255Zm9.29 1.407a4.026 4.026 0 0 1-1.153-.011 3.635 3.635 0 0 1-1.101-.333l.182-1.283c.239.121.487.208.746.262.259.054.503.064.734.031.314-.046.537-.155.668-.329.131-.173.206-.443.224-.81l.041-.962.056-.212.179-6.47 1.663-.239-.262 7.915c-.009.547-.092.991-.249 1.332-.147.34-.371.595-.67.766-.29.169-.643.283-1.058.343Zm.514-2.558-6.41-6.627 1.802-.259 5.275 5.534-.667 1.352Zm5.052-1.001-.5-1.361h.191c.059 0 .112-.003.158-.009.287-.042.473-.155.56-.34.087-.186.108-.421.063-.706a4.901 4.901 0 0 0-.239-.962 24.072 24.072 0 0 0-.372-1.066l-1.019-2.665 5.987-.862 2.964 6.863-1.732.25-2.565-5.938.591.379-3.52.507.18-.504.686 1.826c.235.612.424 1.186.566 1.72.148.525.222.992.223 1.402.009.408-.083.74-.277.995-.185.254-.494.413-.928.475-.139.02-.297.029-.474.027a7.3 7.3 0 0 1-.543-.031Zm12.545-6.679c.952-.137 1.762-.044 2.431.278s1.159.844 1.47 1.563c.322.746.296 1.368-.077 1.868-.376.491-1.07.805-2.081.941l-3.469.486-2.965-6.863 1.733-.25.971 2.249 1.987-.272Zm1.08 3.49c.512-.065.858-.219 1.037-.464.179-.244.183-.563.013-.957-.17-.394-.426-.658-.768-.791-.337-.142-.765-.181-1.286-.115l-1.586.215 1.005 2.326 1.585-.214Zm6.046.372-2.964-6.864 1.816-.261 5.083 4.442-.721.104 1.028-5.322 1.621-.233 2.978 6.861-1.566.225-2.22-5.141.349.128-.934 4.653-.748.107-4.673-3.969.3-.125 2.231 5.167-1.58.228Zm11.858-1.707-2.965-6.863 1.733-.25 1.953 4.524 2.134-5.112 1.58-.227 2.964 6.863-1.732.249-1.954-4.524-2.12 5.111-1.593.229Zm14.563-2.001a4.143 4.143 0 0 1-1.816-.148c-.6-.187-1.159-.516-1.677-.987-.512-.482-.94-1.121-1.285-1.918-.347-.805-.494-1.485-.439-2.039.065-.555.288-.992.67-1.311.379-.328.882-.537 1.511-.627a4.744 4.744 0 0 1 2.114.16c.69.21 1.309.553 1.858 1.029a4.792 4.792 0 0 1 1.298 1.779c.307.711.409 1.356.306 1.936a2.307 2.307 0 0 1-.803 1.412c-.428.371-1.007.609-1.737.714Zm-3.064 2.994-4.041-9.357 1.649-.237.7 1.619.732 1.834.927 1.805 1.765 4.087-1.732.249Zm2.276-4.341c.416-.06.748-.199.997-.417.259-.219.415-.505.468-.859.054-.353-.014-.749-.203-1.186a3.04 3.04 0 0 0-.785-1.102 2.943 2.943 0 0 0-1.112-.631 2.716 2.716 0 0 0-1.219-.098c-.416.06-.753.2-1.012.419a1.348 1.348 0 0 0-.467.859c-.058.345.01.74.203 1.186.188.437.45.804.785 1.102.334.297.705.508 1.111.631.407.124.818.156 1.234.096Zm11.316-.264-.599-1.388-.225-.281-1.049-2.43c-.204-.471-.513-.813-.929-1.026-.42-.222-.939-.288-1.558-.199-.416.06-.801.179-1.156.357-.345.177-.61.393-.795.647l-1.184-1.072c.275-.34.656-.617 1.142-.833a5.888 5.888 0 0 1 1.623-.466c1.072-.154 2.002-.033 2.792.363.795.386 1.407 1.076 1.836 2.07l1.737 4.023-1.635.235Zm-2.289.425a4.276 4.276 0 0 1-1.566-.047 3.47 3.47 0 0 1-1.287-.593 2.62 2.62 0 0 1-.793-1.019c-.166-.386-.219-.747-.158-1.083.07-.338.292-.629.667-.874.375-.245.937-.422 1.685-.529l2.148-.31.46 1.067-2.023.291c-.591.085-.949.233-1.075.442-.129.2-.138.429-.027.686.126.292.35.505.674.64.323.136.707.172 1.15.108.425-.061.765-.206 1.02-.434.264-.229.394-.53.39-.902l.707.922c.008.427-.157.783-.495 1.068-.329.284-.821.473-1.477.567Z"/><g filter="url(#k)"><rect width="153" height="40" fill="url(#l)" rx="4" transform="matrix(.9898 -.14247 .39649 .91804 228.271 225.309)"/></g><path fill="#fff" d="M259.713 245.298a8.238 8.238 0 0 1-2.125.019 7.03 7.03 0 0 1-1.969-.536l.216-1.41c.465.215.983.368 1.552.459a5.516 5.516 0 0 0 1.671.019c.647-.093 1.099-.285 1.355-.577.253-.3.289-.661.108-1.08-.178-.412-.485-.713-.921-.905-.436-.192-1.024-.235-1.763-.129l-.887.128-.494-1.144 1.451-3.458.507.596-5.21.75-.605-1.401 6.61-.951.483 1.118-1.451 3.458-1.164-.379.541-.078c1.191-.171 2.19-.051 2.996.361.811.402 1.384.988 1.717 1.759.218.506.281.993.189 1.461-.092.469-.367.877-.825 1.225-.453.338-1.113.57-1.982.695Zm9.756-1.405a4.829 4.829 0 0 1-2.311-.24c-.766-.272-1.472-.726-2.119-1.361-.651-.643-1.189-1.458-1.614-2.443-.426-.986-.611-1.846-.556-2.582.051-.745.304-1.341.758-1.789.464-.449 1.079-.728 1.846-.839a4.781 4.781 0 0 1 2.311.241c.766.272 1.474.73 2.124 1.374.657.633 1.198 1.443 1.623 2.428.426.985.608 1.851.548 2.597-.055.736-.31 1.328-.764 1.775-.455.448-1.07.728-1.846.839Zm-.627-1.452c.453-.065.797-.233 1.034-.504.232-.279.339-.667.32-1.165-.009-.5-.169-1.109-.48-1.829-.315-.728-.669-1.31-1.063-1.744-.388-.445-.797-.755-1.225-.93a2.454 2.454 0 0 0-1.328-.177c-.434.062-.772.234-1.014.514-.237.271-.35.656-.34 1.155.015.489.179 1.098.494 1.827.311.719.66 1.301 1.049 1.746.397.443.812.757 1.245.94.438.174.874.229 1.308.167Zm10.644.011c-.767.11-1.537.03-2.312-.241-.765-.272-1.471-.726-2.118-1.361-.651-.643-1.189-1.458-1.615-2.443-.425-.985-.61-1.846-.555-2.582.051-.745.304-1.341.758-1.788.463-.449 1.079-.729 1.845-.839a4.773 4.773 0 0 1 2.312.24c.765.272 1.473.73 2.124 1.374.656.633 1.197 1.443 1.623 2.428.425.986.608 1.851.547 2.597-.055.736-.309 1.328-.764 1.776-.454.447-1.069.727-1.845.839Zm-.627-1.453c.452-.065.797-.233 1.033-.504.233-.279.34-.667.321-1.165-.009-.499-.17-1.109-.48-1.829-.315-.728-.669-1.309-1.063-1.744-.388-.445-.797-.755-1.226-.929a2.442 2.442 0 0 0-1.327-.178c-.435.063-.773.234-1.014.515-.237.27-.35.655-.341 1.154.015.49.18 1.098.495 1.827.311.719.66 1.302 1.048 1.746.398.444.813.757 1.245.941.438.173.875.229 1.309.166Zm15.166-.64c-.767.11-1.537.03-2.311-.241-.766-.272-1.472-.725-2.119-1.36-.651-.644-1.189-1.458-1.614-2.444-.426-.985-.611-1.846-.556-2.582.051-.744.304-1.34.758-1.788.464-.449 1.079-.729 1.846-.839a4.757 4.757 0 0 1 2.311.241c.765.272 1.473.729 2.124 1.373.657.634 1.198 1.443 1.623 2.428.426.986.608 1.851.548 2.597-.055.736-.31 1.328-.764 1.776-.455.447-1.07.727-1.846.839Zm-.627-1.453c.453-.065.797-.233 1.034-.503.232-.279.339-.668.32-1.166-.009-.499-.169-1.109-.48-1.828-.315-.729-.669-1.31-1.063-1.745-.388-.445-.797-.754-1.225-.929a2.446 2.446 0 0 0-1.328-.178c-.434.063-.772.234-1.014.515-.237.271-.35.655-.341 1.155.016.489.18 1.098.495 1.826.311.72.66 1.302 1.049 1.747.397.443.812.756 1.245.94.438.173.874.229 1.308.166Zm10.644.011c-.767.11-1.537.03-2.312-.241-.765-.272-1.471-.725-2.118-1.36-.651-.644-1.189-1.458-1.615-2.443-.425-.986-.611-1.847-.556-2.583.052-.744.305-1.34.759-1.788.463-.449 1.079-.728 1.845-.839a4.773 4.773 0 0 1 2.312.241c.765.272 1.473.73 2.124 1.373.656.634 1.197 1.443 1.623 2.429.425.985.608 1.851.547 2.597-.055.736-.309 1.327-.764 1.775-.454.448-1.069.727-1.845.839Zm-.627-1.452c.452-.065.797-.233 1.033-.504.233-.279.34-.668.321-1.166-.009-.499-.17-1.108-.481-1.828-.314-.728-.668-1.31-1.062-1.745-.388-.444-.797-.754-1.226-.929a2.442 2.442 0 0 0-1.327-.177c-.435.062-.773.234-1.015.514-.236.271-.349.656-.34 1.155.015.489.18 1.098.495 1.826.31.72.66 1.302 1.048 1.747.398.443.813.757 1.245.94.438.174.874.229 1.309.167Zm10.644.01a4.831 4.831 0 0 1-2.312-.24c-.765-.272-1.471-.726-2.118-1.361-.651-.643-1.189-1.458-1.615-2.443-.426-.986-.611-1.846-.556-2.582.051-.745.304-1.341.759-1.789.463-.449 1.078-.728 1.845-.839a4.785 4.785 0 0 1 2.312.241c.765.272 1.473.73 2.124 1.373.656.634 1.197 1.444 1.622 2.429.426.985.609 1.851.548 2.597-.055.736-.31 1.328-.764 1.775-.454.448-1.069.728-1.845.839Zm-.628-1.452c.453-.065.798-.233 1.034-.504.233-.279.34-.668.321-1.165-.01-.5-.17-1.109-.481-1.829-.314-.728-.669-1.31-1.062-1.744-.389-.445-.797-.755-1.226-.93a2.454 2.454 0 0 0-1.328-.177c-.434.062-.772.234-1.014.514-.236.271-.35.656-.34 1.155.015.489.18 1.098.494 1.826.311.72.661 1.302 1.049 1.747.398.443.813.757 1.245.94.438.174.874.229 1.308.167Zm13.157-.488-2.542-5.886.569.327-3.007.433-.589-1.362 6.929-.997.588 1.362-2.993.431.235-.444 2.543 5.887-1.733.249Z"/><g filter="url(#m)"><rect width="138" height="40" fill="url(#n)" rx="4" transform="matrix(.9898 -.14247 .39649 .91804 206.464 178.817)"/></g><path fill="#fff" d="m233.781 193.092-.499-1.157 2.277-6.484 1.926-.278-2.208 6.475-1.012-.127 7.691-1.107.611 1.413-8.786 1.265Zm6.204 1.278-.883-2.044-.555-1.422-.782-1.812 1.69-.243 2.276 5.269-1.746.252Zm4.791-.69-.483-1.118 2.387-3.948c.201-.329.334-.612.398-.849.065-.237.081-.448.05-.635a2.004 2.004 0 0 0-.145-.539 1.65 1.65 0 0 0-.868-.885c-.405-.188-.903-.239-1.494-.154-.471.068-.867.207-1.189.417a1.778 1.778 0 0 0-.678.849l-1.65-.718c.175-.526.526-.964 1.053-1.312.532-.359 1.195-.596 1.989-.71a5.344 5.344 0 0 1 1.968.058 3.84 3.84 0 0 1 1.589.713 3.23 3.23 0 0 1 1.023 1.314c.126.291.21.588.253.892.039.294.012.617-.082.967-.094.351-.278.755-.551 1.213l-2.052 3.394-.646-.576 5.667-.816.611 1.414-7.15 1.029Zm9.925.633-.423-2.956.647.917a1.568 1.568 0 0 1-.935-.152 1.43 1.43 0 0 1-.646-.713c-.14-.325-.145-.598-.014-.817.137-.229.362-.366.676-.411.323-.047.634.013.931.18.298.166.515.408.652.725.037.086.069.181.095.287.022.097.038.213.047.348.018.134.024.306.017.516l.076 1.914-1.123.162Zm7.261-2.97c-.878.126-1.705.063-2.481-.189a5.371 5.371 0 0 1-2.096-1.309c-.618-.612-1.136-1.402-1.554-2.37-.444-1.029-.621-1.927-.531-2.695.1-.77.425-1.39.978-1.861.561-.472 1.308-.775 2.241-.91.49-.07.977-.09 1.461-.06.493.029.94.12 1.339.272l-.121 1.355a3.385 3.385 0 0 0-1.018-.209 4.737 4.737 0 0 0-1.014.037c-.915.132-1.527.498-1.837 1.097-.31.6-.245 1.41.195 2.43.071.162.159.354.264.576.102.213.228.427.38.641l-.798-.485c.014-.376.115-.699.301-.972.192-.282.461-.512.806-.689a4.012 4.012 0 0 1 1.239-.37 4.576 4.576 0 0 1 1.854.102 4.25 4.25 0 0 1 1.608.792c.474.369.83.832 1.071 1.389.255.591.32 1.128.195 1.61-.125.482-.404.882-.836 1.199-.433.317-.981.523-1.646.619Zm-.664-1.297c.37-.053.672-.16.907-.322a1.07 1.07 0 0 0 .432-.635c.066-.255.033-.537-.101-.846a1.997 1.997 0 0 0-1.009-1.042c-.47-.224-1-.293-1.591-.208-.388.056-.7.174-.937.353-.231.17-.384.383-.46.64-.066.255-.034.533.095.833.119.274.306.515.563.724.257.209.563.36.918.455.364.093.758.109 1.183.048Zm4.769-1.601-.5-1.157 2.278-6.484 1.926-.278-2.208 6.475-1.012-.127 7.691-1.107.61 1.413-8.785 1.265Zm6.204 1.278-.883-2.044-.555-1.422-.783-1.812 1.691-.243 2.276 5.269-1.746.252Zm15.299-2.203-4.095-2.905 1.063-1.013 5.069 3.625-2.037.293Zm-5.307.764-2.964-6.863 1.732-.249 2.964 6.863-1.732.249Zm.031-2.926-.577-1.336 2.508-.361.577 1.336-2.508.361Zm2.783-.919-1.699.054 1.228-3.836 1.857-.267-1.386 4.049Zm6.445 2.513-2.965-6.864 3.617-.52c.896-.129 1.665-.076 2.306.159.651.234 1.098.634 1.343 1.2.24.557.189 1.028-.155 1.414-.347.378-.918.624-1.712.738l.035-.428c.897-.129 1.628-.071 2.196.175.573.236.985.646 1.237 1.228.262.609.223 1.12-.119 1.533-.345.404-1.016.678-2.014.822l-3.769.543Zm1.144-1.407 1.981-.286c.471-.067.797-.187.978-.359.178-.18.203-.416.077-.707-.133-.309-.342-.52-.626-.633-.285-.114-.663-.137-1.134-.069l-2.037.293.761 1.761Zm-1.222-2.828 1.816-.261c.443-.064.744-.185.903-.362.164-.188.187-.419.069-.693a1.02 1.02 0 0 0-.619-.58c-.28-.105-.643-.126-1.086-.062l-1.815.262.732 1.696Zm9.915 2.914a1.482 1.482 0 0 1-.931-.18 1.5 1.5 0 0 1-.666-.723c-.14-.326-.14-.599 0-.819.137-.229.362-.366.676-.411.314-.046.625.014.931.18.304.156.525.397.666.723.133.308.133.581.001.819-.137.229-.362.366-.677.411Zm3.511-.601-2.964-6.863 1.815-.261 5.083 4.442-.72.104 1.028-5.322 1.621-.233 2.978 6.861-1.566.225-2.22-5.141.349.127-.934 4.653-.748.108-4.673-3.969.299-.125 2.232 5.167-1.58.227Z"/><g filter="url(#o)"><rect width="90" height="40" fill="url(#p)" rx="4" transform="matrix(.9898 -.14247 .39649 .91804 248.401 117.125)"/></g><path fill="#fff" d="m281.064 134.826-3.886-8.997 8.578-1.234 3.886 8.996-1.774.256-3.453-7.995.594.352-5.862.844.238-.472 3.453 7.995-1.774.255Zm18.021-3.413-2.941-6.812-3.797.547.619 1.603c.231.604.436 1.18.613 1.728.183.538.314 1.033.392 1.486.087.451.101.836.042 1.154-.059.318-.202.543-.429.676l-2.051.022c.358-.033.597-.186.715-.457.127-.274.163-.634.107-1.081a8.885 8.885 0 0 0-.358-1.545 31.265 31.265 0 0 0-.678-1.91l-1.121-2.869 7.109-1.023 3.552 8.226-1.774.255Zm-6.447 3.781-1.424-3.331 10.767-1.549 1.438 3.328-1.663.24-.827-1.915-7.441 1.071.827 1.915-1.677.241Zm18.759-4.734-5.177-3.91 1.094-1.045 6.12 4.662-2.037.293Zm-6.416.923-3.886-8.996 1.774-.256 3.886 8.997-1.774.255Zm-.404-3.969-.622-1.439 3.27-.471.622 1.44-3.27.47Zm3.297-1.02-1.737.031 1.374-4.962 1.912-.275-1.549 5.206Zm7.489 3.495-3.885-8.997 8.577-1.234 3.886 8.996-1.774.256-3.452-7.995.593.352-5.862.844.238-.472 3.453 7.995-1.774.255Z"/><g filter="url(#q)"><rect width="234" height="30" fill="url(#r)" rx="4" transform="matrix(.9898 -.14247 .39649 .91804 298.053 386.884)"/></g><mask id="s" width="242" height="60" x="299" y="354" maskUnits="userSpaceOnUse" style="mask-type:alpha"><rect width="234" height="30" fill="#fff" rx="4" transform="matrix(.9898 -.14247 .39649 .91804 298.053 386.884)"/></mask><g mask="url(#s)"><path fill="url(#t)" d="M299.639 390.556c-.876-2.028.187-3.927 2.373-4.242l40.582-5.841 11.895 27.541-40.582 5.841c-2.187.315-4.669-1.074-5.545-3.102l-8.723-20.197Z"/><path fill="url(#u)" d="m342.594 380.473 168.266-24.22 11.895 27.541-168.266 24.22-11.895-27.541Z"/></g><path fill="#fff" d="m427.255 387.789-3.921-9.077 2.209 1.18-3.5.503-1.129-2.614 5.637-.812 4.441 10.282-3.737.538Zm5.875-.845-.92-2.13 2.522-4.014c.156-.262.256-.484.301-.667.054-.185.075-.344.063-.477a1.377 1.377 0 0 0-.102-.391 1.03 1.03 0 0 0-.523-.549c-.243-.121-.544-.156-.903-.104a1.485 1.485 0 0 0-.826.384c-.228.199-.359.468-.393.805l-3.383-.901c.097-.763.451-1.423 1.063-1.979.612-.556 1.515-.92 2.708-1.091a7.088 7.088 0 0 1 2.499.061c.79.167 1.478.463 2.066.888a3.952 3.952 0 0 1 1.595 2.642c.059.345.032.723-.082 1.135-.118.401-.349.866-.693 1.394l-1.911 2.975-1.107-1.121 5.749-.827 1.161 2.688-8.884 1.279Zm15.262-2.197 2.151-7.818 1.84-.265-2.151 7.818-1.84.265Zm-.667-3.336c-.384.055-.761.03-1.13-.074a2.734 2.734 0 0 1-1.022-.571 2.917 2.917 0 0 1-.723-1.033c-.18-.418-.246-.784-.197-1.098.054-.322.199-.583.437-.782.238-.198.55-.325.934-.381a2.624 2.624 0 0 1 2.146.657c.306.263.55.603.73 1.021.18.417.244.787.19 1.109a1.198 1.198 0 0 1-.426.78c-.241.192-.554.316-.939.372Zm-.471-1.091c.124-.018.206-.094.249-.229.046-.142-.004-.382-.149-.719-.145-.336-.295-.558-.449-.664-.15-.115-.286-.163-.409-.145-.117.016-.198.096-.244.239-.05.135-.001.372.144.708.145.337.296.562.453.675.154.107.289.152.405.135Zm7.496 3.619a2.706 2.706 0 0 1-1.13-.073 2.736 2.736 0 0 1-1.022-.572 2.908 2.908 0 0 1-.723-1.033c-.181-.417-.246-.783-.197-1.098.053-.322.199-.582.437-.781.238-.199.549-.326.934-.381a2.609 2.609 0 0 1 2.146.656c.306.264.549.604.73 1.021.18.418.243.788.19 1.11a1.204 1.204 0 0 1-.427.78c-.24.192-.553.316-.938.371Zm-.471-1.091c.123-.017.206-.094.248-.228.047-.143-.003-.382-.148-.719-.146-.337-.295-.558-.449-.665-.15-.114-.286-.162-.41-.145-.116.017-.197.097-.244.239-.049.136-.001.372.145.709.145.336.296.561.453.675.154.106.289.151.405.134Z" opacity=".5"/><rect width="112" height="20" x="494.034" y="76" fill="#6F879D" rx="8"/><path fill="#263039" d="M505.974 90v-7.464l.372.384h-3.144V81.6h7.104v1.32h-3.144l.36-.384V90h-1.548Zm5.957 0v-6.408h1.5v4.224l3.54-4.224h1.368V90h-1.5v-4.224L513.311 90h-1.38Zm9.026 0v-6.408h6.144V90h-1.488v-5.484l.348.348h-3.852l.348-.348V90h-1.5Zm17.076-.696v-4.44h-2.46l-.036 1.032c-.016.368-.04.724-.072 1.068a6.342 6.342 0 0 1-.156.936c-.072.28-.176.512-.312.696a.933.933 0 0 1-.54.36l-1.488-.228c.24 0 .432-.076.576-.228.152-.16.268-.376.348-.648.088-.28.152-.596.192-.948.04-.36.068-.732.084-1.116l.084-2.196h5.28v5.712h-1.5Zm-5.292 2.124v-2.7h7.74v2.7h-1.404V90h-4.944v1.428h-1.392Zm12.536-1.344c-.656 0-1.24-.14-1.752-.42a3.228 3.228 0 0 1-1.212-1.176c-.296-.496-.444-1.06-.444-1.692 0-.64.148-1.204.444-1.692a3.14 3.14 0 0 1 1.212-1.164c.512-.28 1.096-.42 1.752-.42.664 0 1.252.14 1.764.42.52.28.924.664 1.212 1.152.296.488.444 1.056.444 1.704 0 .632-.148 1.196-.444 1.692a3.116 3.116 0 0 1-1.212 1.176c-.512.28-1.1.42-1.764.42Zm0-1.284c.368 0 .696-.08.984-.24a1.66 1.66 0 0 0 .672-.696c.168-.304.252-.66.252-1.068 0-.416-.084-.772-.252-1.068a1.66 1.66 0 0 0-.672-.696 1.967 1.967 0 0 0-.972-.24c-.368 0-.696.08-.984.24a1.76 1.76 0 0 0-.672.696c-.168.296-.252.652-.252 1.068 0 .408.084.764.252 1.068.168.304.392.536.672.696.288.16.612.24.972.24Zm5.502 1.2v-6.408h4.92v1.272h-3.768l.348-.336V90h-1.5Zm9.186.084c-.656 0-1.24-.14-1.752-.42a3.228 3.228 0 0 1-1.212-1.176c-.296-.496-.444-1.06-.444-1.692 0-.64.148-1.204.444-1.692a3.14 3.14 0 0 1 1.212-1.164c.512-.28 1.096-.42 1.752-.42.664 0 1.252.14 1.764.42.52.28.924.664 1.212 1.152.296.488.444 1.056.444 1.704 0 .632-.148 1.196-.444 1.692a3.116 3.116 0 0 1-1.212 1.176c-.512.28-1.1.42-1.764.42Zm0-1.284c.368 0 .696-.08.984-.24a1.66 1.66 0 0 0 .672-.696c.168-.304.252-.66.252-1.068 0-.416-.084-.772-.252-1.068a1.66 1.66 0 0 0-.672-.696 1.967 1.967 0 0 0-.972-.24c-.368 0-.696.08-.984.24a1.76 1.76 0 0 0-.672.696c-.168.296-.252.652-.252 1.068 0 .408.084.764.252 1.068.168.304.392.536.672.696.288.16.612.24.972.24Zm5.502 1.2v-6.408h3.132c.776 0 1.384.144 1.824.432.448.288.672.696.672 1.224 0 .52-.208.928-.624 1.224-.416.288-.968.432-1.656.432l.18-.372c.776 0 1.352.144 1.728.432.384.28.576.692.576 1.236 0 .568-.212 1.012-.636 1.332-.424.312-1.068.468-1.932.468h-3.264Zm1.428-1.092h1.716c.408 0 .716-.064.924-.192.208-.136.312-.34.312-.612 0-.288-.096-.5-.288-.636-.192-.136-.492-.204-.9-.204h-1.764v1.644Zm0-2.64h1.572c.384 0 .672-.068.864-.204.2-.144.3-.344.3-.6 0-.264-.1-.46-.3-.588-.192-.128-.48-.192-.864-.192h-1.572v1.584Zm9.458 3.816c-.656 0-1.24-.14-1.752-.42a3.228 3.228 0 0 1-1.212-1.176c-.296-.496-.444-1.06-.444-1.692 0-.64.148-1.204.444-1.692a3.14 3.14 0 0 1 1.212-1.164c.512-.28 1.096-.42 1.752-.42.664 0 1.252.14 1.764.42.52.28.924.664 1.212 1.152.296.488.444 1.056.444 1.704 0 .632-.148 1.196-.444 1.692a3.116 3.116 0 0 1-1.212 1.176c-.512.28-1.1.42-1.764.42Zm0-1.284c.368 0 .696-.08.984-.24a1.66 1.66 0 0 0 .672-.696c.168-.304.252-.66.252-1.068 0-.416-.084-.772-.252-1.068a1.66 1.66 0 0 0-.672-.696 1.967 1.967 0 0 0-.972-.24c-.368 0-.696.08-.984.24a1.76 1.76 0 0 0-.672.696c-.168.296-.252.652-.252 1.068 0 .408.084.764.252 1.068.168.304.392.536.672.696.288.16.612.24.972.24Zm9.054 1.284c-.52 0-.996-.12-1.428-.36-.424-.24-.764-.6-1.02-1.08-.248-.488-.372-1.104-.372-1.848 0-.752.12-1.368.36-1.848.248-.48.584-.836 1.008-1.068.424-.24.908-.36 1.452-.36.632 0 1.188.136 1.668.408.488.272.872.652 1.152 1.14.288.488.432 1.064.432 1.728 0 .664-.144 1.244-.432 1.74-.28.488-.664.868-1.152 1.14-.48.272-1.036.408-1.668.408Zm-3.552 2.244v-8.736h1.428v1.512l-.048 1.704.12 1.704v3.816h-1.5Zm3.384-3.528c.36 0 .68-.08.96-.24.288-.16.516-.392.684-.696.168-.304.252-.66.252-1.068 0-.416-.084-.772-.252-1.068a1.736 1.736 0 0 0-.684-.696 1.9 1.9 0 0 0-.96-.24c-.36 0-.684.08-.972.24-.288.16-.516.392-.684.696-.168.296-.252.652-.252 1.068 0 .408.084.764.252 1.068.168.304.396.536.684.696.288.16.612.24.972.24Zm9.319 1.2v-1.296l-.084-.276V86.16c0-.44-.132-.78-.396-1.02-.264-.248-.664-.372-1.2-.372-.36 0-.716.056-1.068.168a2.617 2.617 0 0 0-.876.468l-.588-1.092c.344-.264.752-.46 1.224-.588.48-.136.976-.204 1.488-.204.928 0 1.644.224 2.148.672.512.44.768 1.124.768 2.052V90h-1.416Zm-2.016.084c-.48 0-.9-.08-1.26-.24a2.05 2.05 0 0 1-.84-.684 1.79 1.79 0 0 1-.288-.996c0-.36.084-.684.252-.972.176-.288.46-.516.852-.684.392-.168.912-.252 1.56-.252h1.86v.996h-1.752c-.512 0-.856.084-1.032.252a.777.777 0 0 0-.264.6c0 .272.108.488.324.648.216.16.516.24.9.24.368 0 .696-.084.984-.252.296-.168.508-.416.636-.744l.252.9a1.662 1.662 0 0 1-.78.876c-.368.208-.836.312-1.404.312Z"/><rect width="109" height="20" x="512" y="150" fill="#6F879D" rx="8"/><path fill="#263039" d="m527.766 164.248-2.844-4.092 1.26-.78 3.348 4.872h-1.764Zm-5.556 0v-8.4h1.536v8.4h-1.536Zm1.068-3.54v-1.344h2.832v1.344h-2.832Zm3.048-.48-1.428-.192 2.868-4.188h1.656l-3.096 4.38Zm7.469 4.104c-.656 0-1.24-.14-1.752-.42a3.228 3.228 0 0 1-1.212-1.176c-.296-.496-.444-1.06-.444-1.692 0-.64.148-1.204.444-1.692a3.14 3.14 0 0 1 1.212-1.164c.512-.28 1.096-.42 1.752-.42.664 0 1.252.14 1.764.42.52.28.924.664 1.212 1.152.296.488.444 1.056.444 1.704 0 .632-.148 1.196-.444 1.692a3.116 3.116 0 0 1-1.212 1.176c-.512.28-1.1.42-1.764.42Zm0-1.284c.368 0 .696-.08.984-.24a1.66 1.66 0 0 0 .672-.696c.168-.304.252-.66.252-1.068 0-.416-.084-.772-.252-1.068a1.66 1.66 0 0 0-.672-.696 1.967 1.967 0 0 0-.972-.24c-.368 0-.696.08-.984.24a1.76 1.76 0 0 0-.672.696c-.168.296-.252.652-.252 1.068 0 .408.084.764.252 1.068.168.304.392.536.672.696.288.16.612.24.972.24Zm5.502 1.2v-6.408h1.572l2.58 4.548h-.624l2.712-4.548h1.404l.012 6.408h-1.356v-4.8l.24.156-2.4 3.972h-.648l-2.412-4.08.288-.072v4.824h-1.368Zm10.268 0v-6.408h1.5v2.604h3.228v-2.604h1.5v6.408h-1.5v-2.532h-3.228v2.532h-1.5Zm12.726 0v-1.296l-.084-.276v-2.268c0-.44-.132-.78-.396-1.02-.264-.248-.664-.372-1.2-.372-.36 0-.716.056-1.068.168a2.617 2.617 0 0 0-.876.468l-.588-1.092c.344-.264.752-.46 1.224-.588.48-.136.976-.204 1.488-.204.928 0 1.644.224 2.148.672.512.44.768 1.124.768 2.052v3.756h-1.416Zm-2.016.084c-.48 0-.9-.08-1.26-.24a2.05 2.05 0 0 1-.84-.684 1.79 1.79 0 0 1-.288-.996c0-.36.084-.684.252-.972.176-.288.46-.516.852-.684.392-.168.912-.252 1.56-.252h1.86v.996h-1.752c-.512 0-.856.084-1.032.252a.777.777 0 0 0-.264.6c0 .272.108.488.324.648.216.16.516.24.9.24.368 0 .696-.084.984-.252.296-.168.508-.416.636-.744l.252.9a1.662 1.662 0 0 1-.78.876c-.368.208-.836.312-1.404.312Zm7.22-.084v-5.496l.348.36h-2.604v-1.272h6v1.272h-2.592l.348-.36v5.496h-1.5Zm5.432 0v-6.408h1.5v2.604h3.228v-2.604h1.5v6.408h-1.5v-2.532h-3.228v2.532h-1.5Zm11.695.084c-.656 0-1.24-.14-1.752-.42a3.228 3.228 0 0 1-1.212-1.176c-.296-.496-.444-1.06-.444-1.692 0-.64.148-1.204.444-1.692a3.14 3.14 0 0 1 1.212-1.164c.512-.28 1.096-.42 1.752-.42.664 0 1.252.14 1.764.42.52.28.924.664 1.212 1.152.296.488.444 1.056.444 1.704 0 .632-.148 1.196-.444 1.692a3.116 3.116 0 0 1-1.212 1.176c-.512.28-1.1.42-1.764.42Zm0-1.284c.368 0 .696-.08.984-.24a1.66 1.66 0 0 0 .672-.696c.168-.304.252-.66.252-1.068 0-.416-.084-.772-.252-1.068a1.66 1.66 0 0 0-.672-.696 1.967 1.967 0 0 0-.972-.24c-.368 0-.696.08-.984.24a1.76 1.76 0 0 0-.672.696c-.168.296-.252.652-.252 1.068 0 .408.084.764.252 1.068.168.304.392.536.672.696.288.16.612.24.972.24Zm8.417 1.284c-.672 0-1.272-.14-1.8-.42a3.204 3.204 0 0 1-1.224-1.176c-.296-.496-.444-1.06-.444-1.692 0-.64.148-1.204.444-1.692a3.117 3.117 0 0 1 1.224-1.164c.528-.28 1.128-.42 1.8-.42.624 0 1.172.128 1.644.384.48.248.844.616 1.092 1.104l-1.152.672a1.83 1.83 0 0 0-1.596-.888c-.368 0-.7.08-.996.24-.296.16-.528.392-.696.696-.168.296-.252.652-.252 1.068 0 .416.084.776.252 1.08.168.296.4.524.696.684.296.16.628.24.996.24a1.83 1.83 0 0 0 1.596-.888l1.152.672c-.248.48-.612.852-1.092 1.116-.472.256-1.02.384-1.644.384Zm5.942-.084v-5.496l.348.36h-2.604v-1.272h6v1.272h-2.592l.348-.36v5.496h-1.5Zm8.648-4.296c.824 0 1.452.184 1.884.552.432.368.648.888.648 1.56 0 .696-.24 1.24-.72 1.632-.48.384-1.156.572-2.028.564l-3-.012v-6.408h1.5v2.1l1.716.012Zm-.348 3.204c.44.008.776-.084 1.008-.276.232-.192.348-.472.348-.84s-.116-.632-.348-.792c-.224-.168-.56-.256-1.008-.264l-1.368-.012v2.172l1.368.012Z"/><rect width="82" height="20" x="503.034" y="209.248" fill="#6F879D" rx="8"/><path fill="#263039" d="M513.222 223.248v-8.4h7.428v8.4h-1.536v-7.464l.36.384h-5.076l.36-.384v7.464h-1.536Zm9.293-.012.072-1.26.156.024a.808.808 0 0 0 .132.012c.248 0 .44-.076.576-.228.136-.152.236-.356.3-.612.072-.264.12-.556.144-.876.032-.328.056-.656.072-.984l.108-2.472h5.184v6.408h-1.5v-5.544l.348.408h-3.048l.324-.42-.084 1.692a15.31 15.31 0 0 1-.144 1.584c-.064.48-.168.9-.312 1.26-.136.36-.328.64-.576.84-.24.2-.548.3-.924.3-.12 0-.252-.012-.396-.036a5.37 5.37 0 0 1-.432-.096Zm12.22.096c-.656 0-1.24-.14-1.752-.42a3.228 3.228 0 0 1-1.212-1.176c-.296-.496-.444-1.06-.444-1.692 0-.64.148-1.204.444-1.692a3.14 3.14 0 0 1 1.212-1.164c.512-.28 1.096-.42 1.752-.42.664 0 1.252.14 1.764.42.52.28.924.664 1.212 1.152.296.488.444 1.056.444 1.704 0 .632-.148 1.196-.444 1.692a3.116 3.116 0 0 1-1.212 1.176c-.512.28-1.1.42-1.764.42Zm0-1.284c.368 0 .696-.08.984-.24a1.66 1.66 0 0 0 .672-.696c.168-.304.252-.66.252-1.068 0-.416-.084-.772-.252-1.068a1.66 1.66 0 0 0-.672-.696 1.967 1.967 0 0 0-.972-.24c-.368 0-.696.08-.984.24a1.76 1.76 0 0 0-.672.696c-.168.296-.252.652-.252 1.068 0 .408.084.764.252 1.068.168.304.392.536.672.696.288.16.612.24.972.24Zm9.81-.072-.324.36v-5.496h1.5v5.496l-.36-.36h3.168l-.348.36v-5.496h1.5v6.408h-9.444v-6.408h1.5v5.496l-.348-.36h3.156Zm4.656 2.592v-1.692l.348.372h-1.416v-1.272h2.472v2.592h-1.404Zm6.985-1.32v-1.296l-.084-.276v-2.268c0-.44-.132-.78-.396-1.02-.264-.248-.664-.372-1.2-.372-.36 0-.716.056-1.068.168a2.617 2.617 0 0 0-.876.468l-.588-1.092c.344-.264.752-.46 1.224-.588.48-.136.976-.204 1.488-.204.928 0 1.644.224 2.148.672.512.44.768 1.124.768 2.052v3.756h-1.416Zm-2.016.084c-.48 0-.9-.08-1.26-.24a2.05 2.05 0 0 1-.84-.684 1.79 1.79 0 0 1-.288-.996c0-.36.084-.684.252-.972.176-.288.46-.516.852-.684.392-.168.912-.252 1.56-.252h1.86v.996h-1.752c-.512 0-.856.084-1.032.252a.777.777 0 0 0-.264.6c0 .272.108.488.324.648.216.16.516.24.9.24.368 0 .696-.084.984-.252.296-.168.508-.416.636-.744l.252.9a1.662 1.662 0 0 1-.78.876c-.368.208-.836.312-1.404.312Zm10.28-.78v-4.44h-2.46l-.036 1.032c-.016.368-.04.724-.072 1.068a6.342 6.342 0 0 1-.156.936c-.072.28-.176.512-.312.696a.933.933 0 0 1-.54.36l-1.488-.228c.24 0 .432-.076.576-.228.152-.16.268-.376.348-.648.088-.28.152-.596.192-.948.04-.36.068-.732.084-1.116l.084-2.196h5.28v5.712h-1.5Zm-5.292 2.124v-2.7h7.74v2.7h-1.404v-1.428h-4.944v1.428h-1.392Zm12.895-5.724c.824 0 1.452.184 1.884.552.432.368.648.888.648 1.56 0 .696-.24 1.24-.72 1.632-.48.384-1.156.572-2.028.564l-3-.012v-6.408h1.5v2.1l1.716.012Zm-.348 3.204c.44.008.776-.084 1.008-.276.232-.192.348-.472.348-.84s-.116-.632-.348-.792c-.224-.168-.56-.256-1.008-.264l-1.368-.012v2.172l1.368.012Z"/><rect width="112" height="20" x="555.034" y="328.248" fill="#6F879D" rx="8"/><path fill="#263039" d="M565.222 342.248v-8.4h1.536v5.964l4.512-5.964h1.452v8.4h-1.536v-5.952l-4.512 5.952h-1.452Zm10.287 0v-6.408h1.572l2.58 4.548h-.624l2.712-4.548h1.404l.012 6.408h-1.356v-4.8l.24.156-2.4 3.972h-.648l-2.412-4.08.288-.072v4.824h-1.368Zm14.336 0v-2.184l.216.252h-1.92c-.88 0-1.572-.184-2.076-.552-.496-.376-.744-.916-.744-1.62 0-.752.264-1.324.792-1.716.536-.392 1.248-.588 2.136-.588h2.94v6.408h-1.344Zm-4.608 0 1.728-2.448h1.536l-1.656 2.448h-1.608Zm4.608-2.664v-2.88l.216.396h-1.764c-.464 0-.824.088-1.08.264-.248.168-.372.444-.372.828 0 .72.468 1.08 1.404 1.08h1.812l-.216.312Zm12.474 2.664-2.316-3.072 1.224-.756 2.856 3.828h-1.764Zm-4.596 0v-6.408h1.5v6.408h-1.5Zm1.056-2.568v-1.248h2.172v1.248h-2.172Zm2.592-.456-1.404-.168 2.352-3.216h1.608l-2.556 3.384Zm3.434 3.012.072-1.26.156.024a.808.808 0 0 0 .132.012c.248 0 .44-.076.576-.228.136-.152.236-.356.3-.612.072-.264.12-.556.144-.876.032-.328.056-.656.072-.984l.108-2.472h5.184v6.408h-1.5v-5.544l.348.408h-3.048l.324-.42-.084 1.692a15.31 15.31 0 0 1-.144 1.584c-.064.48-.168.9-.312 1.26-.136.36-.328.64-.576.84-.24.2-.548.3-.924.3-.12 0-.252-.012-.396-.036a5.37 5.37 0 0 1-.432-.096Zm9.365.012v-6.408h1.5v4.224l3.54-4.224h1.368v6.408h-1.5v-4.224l-3.528 4.224h-1.38Zm12.013.084c-.712 0-1.336-.14-1.872-.42a3.182 3.182 0 0 1-1.236-1.176c-.288-.496-.432-1.06-.432-1.692 0-.64.14-1.204.42-1.692a3.1 3.1 0 0 1 1.176-1.164c.504-.28 1.076-.42 1.716-.42.624 0 1.18.136 1.668.408.488.272.872.656 1.152 1.152.28.496.42 1.08.42 1.752 0 .064-.004.136-.012.216 0 .08-.004.156-.012.228h-5.34v-.996h4.548l-.588.312a1.841 1.841 0 0 0-.228-.972c-.16-.28-.38-.5-.66-.66a1.835 1.835 0 0 0-.948-.24c-.368 0-.692.08-.972.24-.272.16-.488.384-.648.672-.152.28-.228.612-.228.996v.24c0 .384.088.724.264 1.02.176.296.424.524.744.684.32.16.688.24 1.104.24.36 0 .684-.056.972-.168.288-.112.544-.288.768-.528l.804.924a2.87 2.87 0 0 1-1.092.78c-.432.176-.928.264-1.488.264Zm5.253-.084v-6.408h1.5v2.604h3.228v-2.604h1.5v6.408h-1.5v-2.532h-3.228v2.532h-1.5Zm10.17 0v-5.496l.348.36h-2.604v-1.272h6v1.272h-2.592l.348-.36v5.496h-1.5Zm9.32 0v-1.296l-.084-.276v-2.268c0-.44-.132-.78-.396-1.02-.264-.248-.664-.372-1.2-.372-.36 0-.716.056-1.068.168a2.617 2.617 0 0 0-.876.468l-.588-1.092c.344-.264.752-.46 1.224-.588.48-.136.976-.204 1.488-.204.928 0 1.644.224 2.148.672.512.44.768 1.124.768 2.052v3.756h-1.416Zm-2.016.084c-.48 0-.9-.08-1.26-.24a2.05 2.05 0 0 1-.84-.684 1.79 1.79 0 0 1-.288-.996c0-.36.084-.684.252-.972.176-.288.46-.516.852-.684.392-.168.912-.252 1.56-.252h1.86v.996h-1.752c-.512 0-.856.084-1.032.252a.777.777 0 0 0-.264.6c0 .272.108.488.324.648.216.16.516.24.9.24.368 0 .696-.084.984-.252.296-.168.508-.416.636-.744l.252.9a1.662 1.662 0 0 1-.78.876c-.368.208-.836.312-1.404.312Z"/><rect width="135" height="20" x="580.034" y="386.248" fill="#6F879D" rx="8"/><path fill="#263039" d="M594.074 400.368a5.03 5.03 0 0 1-1.788-.312 4.464 4.464 0 0 1-1.428-.9 4.216 4.216 0 0 1-.936-1.38 4.379 4.379 0 0 1-.336-1.728c0-.624.112-1.2.336-1.728.224-.528.54-.984.948-1.368a4.205 4.205 0 0 1 1.428-.9 4.803 4.803 0 0 1 1.788-.324c.688 0 1.316.12 1.884.36.568.232 1.048.58 1.44 1.044l-1.008.948a2.976 2.976 0 0 0-1.02-.732 2.966 2.966 0 0 0-1.224-.252c-.44 0-.844.072-1.212.216-.36.144-.676.348-.948.612a2.908 2.908 0 0 0-.624.936c-.144.36-.216.756-.216 1.188 0 .432.072.828.216 1.188.152.36.36.672.624.936.272.264.588.468.948.612.368.144.772.216 1.212.216.44 0 .848-.08 1.224-.24.376-.168.716-.42 1.02-.756l1.008.96a3.843 3.843 0 0 1-1.44 1.044c-.568.24-1.2.36-1.896.36Zm5.793 2.292c-.312 0-.624-.052-.936-.156a2.22 2.22 0 0 1-.78-.432l.6-1.104c.152.136.324.244.516.324.192.08.388.12.588.12.272 0 .492-.068.66-.204.168-.136.324-.364.468-.684l.372-.84.12-.18 2.424-5.664h1.44l-3 6.924c-.2.48-.424.86-.672 1.14-.24.28-.512.476-.816.588a2.76 2.76 0 0 1-.984.168Zm1.32-2.184-2.892-6.636h1.56l2.352 5.532-1.02 1.104Zm5.793-.228v-6.408h1.572l2.58 4.548h-.624l2.712-4.548h1.404l.012 6.408h-1.356v-4.8l.24.156-2.4 3.972h-.648l-2.412-4.08.288-.072v4.824h-1.368Zm10.268 0v-6.408h1.572l2.58 4.548h-.624l2.712-4.548h1.404l.012 6.408h-1.356v-4.8l.24.156-2.4 3.972h-.648l-2.412-4.08.288-.072v4.824h-1.368Zm14.156 0v-1.296l-.084-.276v-2.268c0-.44-.132-.78-.396-1.02-.264-.248-.664-.372-1.2-.372-.36 0-.716.056-1.068.168a2.617 2.617 0 0 0-.876.468l-.588-1.092c.344-.264.752-.46 1.224-.588.48-.136.976-.204 1.488-.204.928 0 1.644.224 2.148.672.512.44.768 1.124.768 2.052v3.756h-1.416Zm-2.016.084c-.48 0-.9-.08-1.26-.24a2.05 2.05 0 0 1-.84-.684 1.79 1.79 0 0 1-.288-.996c0-.36.084-.684.252-.972.176-.288.46-.516.852-.684.392-.168.912-.252 1.56-.252h1.86v.996h-1.752c-.512 0-.856.084-1.032.252a.777.777 0 0 0-.264.6c0 .272.108.488.324.648.216.16.516.24.9.24.368 0 .696-.084.984-.252.296-.168.508-.416.636-.744l.252.9a1.662 1.662 0 0 1-.78.876c-.368.208-.836.312-1.404.312Zm14.197-.78v-4.44h-2.46l-.036 1.032c-.016.368-.04.724-.072 1.068a6.342 6.342 0 0 1-.156.936c-.072.28-.176.512-.312.696a.933.933 0 0 1-.54.36l-1.488-.228c.24 0 .432-.076.576-.228.152-.16.268-.376.348-.648.088-.28.152-.596.192-.948.04-.36.068-.732.084-1.116l.084-2.196h5.28v5.712h-1.5Zm-5.292 2.124v-2.7h7.74v2.7h-1.404v-1.428h-4.944v1.428h-1.392Zm12.536-1.344c-.656 0-1.24-.14-1.752-.42a3.228 3.228 0 0 1-1.212-1.176c-.296-.496-.444-1.06-.444-1.692 0-.64.148-1.204.444-1.692a3.14 3.14 0 0 1 1.212-1.164c.512-.28 1.096-.42 1.752-.42.664 0 1.252.14 1.764.42.52.28.924.664 1.212 1.152.296.488.444 1.056.444 1.704 0 .632-.148 1.196-.444 1.692a3.116 3.116 0 0 1-1.212 1.176c-.512.28-1.1.42-1.764.42Zm0-1.284c.368 0 .696-.08.984-.24a1.66 1.66 0 0 0 .672-.696c.168-.304.252-.66.252-1.068 0-.416-.084-.772-.252-1.068a1.66 1.66 0 0 0-.672-.696 1.967 1.967 0 0 0-.972-.24c-.368 0-.696.08-.984.24a1.76 1.76 0 0 0-.672.696c-.168.296-.252.652-.252 1.068 0 .408.084.764.252 1.068.168.304.392.536.672.696.288.16.612.24.972.24Zm5.501 1.2v-6.408h4.92v1.272h-3.768l.348-.336v5.472h-1.5Zm9.187.084c-.656 0-1.24-.14-1.752-.42a3.228 3.228 0 0 1-1.212-1.176c-.296-.496-.444-1.06-.444-1.692 0-.64.148-1.204.444-1.692a3.14 3.14 0 0 1 1.212-1.164c.512-.28 1.096-.42 1.752-.42.664 0 1.252.14 1.764.42.52.28.924.664 1.212 1.152.296.488.444 1.056.444 1.704 0 .632-.148 1.196-.444 1.692a3.116 3.116 0 0 1-1.212 1.176c-.512.28-1.1.42-1.764.42Zm0-1.284c.368 0 .696-.08.984-.24a1.66 1.66 0 0 0 .672-.696c.168-.304.252-.66.252-1.068 0-.416-.084-.772-.252-1.068a1.66 1.66 0 0 0-.672-.696 1.967 1.967 0 0 0-.972-.24c-.368 0-.696.08-.984.24a1.76 1.76 0 0 0-.672.696c-.168.296-.252.652-.252 1.068 0 .408.084.764.252 1.068.168.304.392.536.672.696.288.16.612.24.972.24Zm5.502 1.2v-6.408h3.132c.776 0 1.384.144 1.824.432.448.288.672.696.672 1.224 0 .52-.208.928-.624 1.224-.416.288-.968.432-1.656.432l.18-.372c.776 0 1.352.144 1.728.432.384.28.576.692.576 1.236 0 .568-.212 1.012-.636 1.332-.424.312-1.068.468-1.932.468h-3.264Zm1.428-1.092h1.716c.408 0 .716-.064.924-.192.208-.136.312-.34.312-.612 0-.288-.096-.5-.288-.636-.192-.136-.492-.204-.9-.204h-1.764v1.644Zm0-2.64h1.572c.384 0 .672-.068.864-.204.2-.144.3-.344.3-.6 0-.264-.1-.46-.3-.588-.192-.128-.48-.192-.864-.192h-1.572v1.584Zm9.457 3.816c-.656 0-1.24-.14-1.752-.42a3.228 3.228 0 0 1-1.212-1.176c-.296-.496-.444-1.06-.444-1.692 0-.64.148-1.204.444-1.692a3.14 3.14 0 0 1 1.212-1.164c.512-.28 1.096-.42 1.752-.42.664 0 1.252.14 1.764.42.52.28.924.664 1.212 1.152.296.488.444 1.056.444 1.704 0 .632-.148 1.196-.444 1.692a3.116 3.116 0 0 1-1.212 1.176c-.512.28-1.1.42-1.764.42Zm0-1.284c.368 0 .696-.08.984-.24a1.66 1.66 0 0 0 .672-.696c.168-.304.252-.66.252-1.068 0-.416-.084-.772-.252-1.068a1.66 1.66 0 0 0-.672-.696 1.967 1.967 0 0 0-.972-.24c-.368 0-.696.08-.984.24a1.76 1.76 0 0 0-.672.696c-.168.296-.252.652-.252 1.068 0 .408.084.764.252 1.068.168.304.392.536.672.696.288.16.612.24.972.24Zm9.054 1.284c-.52 0-.996-.12-1.428-.36-.424-.24-.764-.6-1.02-1.08-.248-.488-.372-1.104-.372-1.848 0-.752.12-1.368.36-1.848.248-.48.584-.836 1.008-1.068.424-.24.908-.36 1.452-.36.632 0 1.188.136 1.668.408.488.272.872.652 1.152 1.14.288.488.432 1.064.432 1.728 0 .664-.144 1.244-.432 1.74-.28.488-.664.868-1.152 1.14-.48.272-1.036.408-1.668.408Zm-3.552 2.244v-8.736h1.428v1.512l-.048 1.704.12 1.704v3.816h-1.5Zm3.384-3.528c.36 0 .68-.08.96-.24.288-.16.516-.392.684-.696.168-.304.252-.66.252-1.068 0-.416-.084-.772-.252-1.068a1.736 1.736 0 0 0-.684-.696 1.9 1.9 0 0 0-.96-.24c-.36 0-.684.08-.972.24-.288.16-.516.392-.684.696-.168.296-.252.652-.252 1.068 0 .408.084.764.252 1.068.168.304.396.536.684.696.288.16.612.24.972.24Zm9.319 1.2v-1.296l-.084-.276v-2.268c0-.44-.132-.78-.396-1.02-.264-.248-.664-.372-1.2-.372-.36 0-.716.056-1.068.168a2.617 2.617 0 0 0-.876.468l-.588-1.092c.344-.264.752-.46 1.224-.588.48-.136.976-.204 1.488-.204.928 0 1.644.224 2.148.672.512.44.768 1.124.768 2.052v3.756h-1.416Zm-2.016.084c-.48 0-.9-.08-1.26-.24a2.05 2.05 0 0 1-.84-.684 1.79 1.79 0 0 1-.288-.996c0-.36.084-.684.252-.972.176-.288.46-.516.852-.684.392-.168.912-.252 1.56-.252h1.86v.996h-1.752c-.512 0-.856.084-1.032.252a.777.777 0 0 0-.264.6c0 .272.108.488.324.648.216.16.516.24.9.24.368 0 .696-.084.984-.252.296-.168.508-.416.636-.744l.252.9a1.662 1.662 0 0 1-.78.876c-.368.208-.836.312-1.404.312Z"/><rect width="198" height="20" x="517.034" y="445.248" fill="#6F879D" rx="8"/><path fill="#263039" d="M531.074 459.368a5.03 5.03 0 0 1-1.788-.312 4.464 4.464 0 0 1-1.428-.9 4.216 4.216 0 0 1-.936-1.38 4.379 4.379 0 0 1-.336-1.728c0-.624.112-1.2.336-1.728.224-.528.54-.984.948-1.368a4.205 4.205 0 0 1 1.428-.9 4.803 4.803 0 0 1 1.788-.324c.688 0 1.316.12 1.884.36.568.232 1.048.58 1.44 1.044l-1.008.948a2.976 2.976 0 0 0-1.02-.732 2.966 2.966 0 0 0-1.224-.252c-.44 0-.844.072-1.212.216-.36.144-.676.348-.948.612a2.908 2.908 0 0 0-.624.936c-.144.36-.216.756-.216 1.188 0 .432.072.828.216 1.188.152.36.36.672.624.936.272.264.588.468.948.612.368.144.772.216 1.212.216.44 0 .848-.08 1.224-.24.376-.168.716-.42 1.02-.756l1.008.96a3.843 3.843 0 0 1-1.44 1.044c-.568.24-1.2.36-1.896.36Zm6.373-.12v-5.496l.348.36h-2.604v-1.272h6v1.272h-2.592l.348-.36v5.496h-1.5Zm9.32 0v-1.296l-.084-.276v-2.268c0-.44-.132-.78-.396-1.02-.264-.248-.664-.372-1.2-.372-.36 0-.716.056-1.068.168a2.617 2.617 0 0 0-.876.468l-.588-1.092c.344-.264.752-.46 1.224-.588.48-.136.976-.204 1.488-.204.928 0 1.644.224 2.148.672.512.44.768 1.124.768 2.052v3.756h-1.416Zm-2.016.084c-.48 0-.9-.08-1.26-.24a2.05 2.05 0 0 1-.84-.684 1.79 1.79 0 0 1-.288-.996c0-.36.084-.684.252-.972.176-.288.46-.516.852-.684.392-.168.912-.252 1.56-.252h1.86v.996h-1.752c-.512 0-.856.084-1.032.252a.777.777 0 0 0-.264.6c0 .272.108.488.324.648.216.16.516.24.9.24.368 0 .696-.084.984-.252.296-.168.508-.416.636-.744l.252.9a1.662 1.662 0 0 1-.78.876c-.368.208-.836.312-1.404.312Zm7.22-.084v-5.496l.348.36h-2.604v-1.272h6v1.272h-2.592l.348-.36v5.496h-1.5Zm6.02 2.412c-.312 0-.624-.052-.936-.156a2.22 2.22 0 0 1-.78-.432l.6-1.104c.152.136.324.244.516.324.192.08.388.12.588.12.272 0 .492-.068.66-.204.168-.136.324-.364.468-.684l.372-.84.12-.18 2.424-5.664h1.44l-3 6.924c-.2.48-.424.86-.672 1.14-.24.28-.512.476-.816.588a2.76 2.76 0 0 1-.984.168Zm1.32-2.184-2.892-6.636h1.56l2.352 5.532-1.02 1.104Zm8.534-.144c-.672 0-1.272-.14-1.8-.42a3.204 3.204 0 0 1-1.224-1.176c-.296-.496-.444-1.06-.444-1.692 0-.64.148-1.204.444-1.692a3.117 3.117 0 0 1 1.224-1.164c.528-.28 1.128-.42 1.8-.42.624 0 1.172.128 1.644.384.48.248.844.616 1.092 1.104l-1.152.672a1.83 1.83 0 0 0-1.596-.888c-.368 0-.7.08-.996.24-.296.16-.528.392-.696.696-.168.296-.252.652-.252 1.068 0 .416.084.776.252 1.08.168.296.4.524.696.684.296.16.628.24.996.24a1.83 1.83 0 0 0 1.596-.888l1.152.672c-.248.48-.612.852-1.092 1.116-.472.256-1.02.384-1.644.384Zm11.429 0c-.656 0-1.24-.14-1.752-.42a3.228 3.228 0 0 1-1.212-1.176c-.296-.496-.444-1.06-.444-1.692 0-.64.148-1.204.444-1.692a3.14 3.14 0 0 1 1.212-1.164c.512-.28 1.096-.42 1.752-.42.664 0 1.252.14 1.764.42.52.28.924.664 1.212 1.152.296.488.444 1.056.444 1.704 0 .632-.148 1.196-.444 1.692a3.116 3.116 0 0 1-1.212 1.176c-.512.28-1.1.42-1.764.42Zm0-1.284c.368 0 .696-.08.984-.24a1.66 1.66 0 0 0 .672-.696c.168-.304.252-.66.252-1.068 0-.416-.084-.772-.252-1.068a1.66 1.66 0 0 0-.672-.696 1.967 1.967 0 0 0-.972-.24c-.368 0-.696.08-.984.24a1.76 1.76 0 0 0-.672.696c-.168.296-.252.652-.252 1.068 0 .408.084.764.252 1.068.168.304.392.536.672.696.288.16.612.24.972.24Zm5.502 1.2v-6.408h6.144v6.408h-1.488v-5.484l.348.348h-3.852l.348-.348v5.484h-1.5Zm7.832-.012.072-1.26.156.024a.808.808 0 0 0 .132.012c.248 0 .44-.076.576-.228.136-.152.236-.356.3-.612.072-.264.12-.556.144-.876.032-.328.056-.656.072-.984l.108-2.472h5.184v6.408h-1.5v-5.544l.348.408h-3.048l.324-.42-.084 1.692a15.31 15.31 0 0 1-.144 1.584c-.064.48-.168.9-.312 1.26-.136.36-.328.64-.576.84-.24.2-.548.3-.924.3-.12 0-.252-.012-.396-.036a5.37 5.37 0 0 1-.432-.096Zm13.252.012v-1.296l-.084-.276v-2.268c0-.44-.132-.78-.396-1.02-.264-.248-.664-.372-1.2-.372-.36 0-.716.056-1.068.168a2.617 2.617 0 0 0-.876.468l-.588-1.092c.344-.264.752-.46 1.224-.588.48-.136.976-.204 1.488-.204.928 0 1.644.224 2.148.672.512.44.768 1.124.768 2.052v3.756h-1.416Zm-2.016.084c-.48 0-.9-.08-1.26-.24a2.05 2.05 0 0 1-.84-.684 1.79 1.79 0 0 1-.288-.996c0-.36.084-.684.252-.972.176-.288.46-.516.852-.684.392-.168.912-.252 1.56-.252h1.86v.996h-1.752c-.512 0-.856.084-1.032.252a.777.777 0 0 0-.264.6c0 .272.108.488.324.648.216.16.516.24.9.24.368 0 .696-.084.984-.252.296-.168.508-.416.636-.744l.252.9a1.662 1.662 0 0 1-.78.876c-.368.208-.836.312-1.404.312Zm7.22-.084v-5.496l.348.36h-2.604v-1.272h6v1.272h-2.592l.348-.36v5.496h-1.5Zm11.9 0v-6.408h1.5v6.408h-1.5Zm-3.348-4.296c.824 0 1.448.184 1.872.552.432.368.648.888.648 1.56 0 .696-.24 1.24-.72 1.632-.472.384-1.144.572-2.016.564l-2.904-.012v-6.408h1.5v2.1l1.62.012Zm-.348 3.204c.44.008.776-.084 1.008-.276.232-.192.348-.472.348-.84s-.116-.632-.348-.792c-.224-.168-.56-.256-1.008-.264l-1.272-.012v2.172l1.272.012Zm6.444 2.292 3.96-11.304h1.344l-3.96 11.304h-1.344Zm10.814-1.896v-4.44h-2.46l-.036 1.032c-.016.368-.04.724-.072 1.068a6.342 6.342 0 0 1-.156.936c-.072.28-.176.512-.312.696a.933.933 0 0 1-.54.36l-1.488-.228c.24 0 .432-.076.576-.228.152-.16.268-.376.348-.648.088-.28.152-.596.192-.948.04-.36.068-.732.084-1.116l.084-2.196h5.28v5.712h-1.5Zm-5.292 2.124v-2.7h7.74v2.7h-1.404v-1.428h-4.944v1.428h-1.392Zm12.667-1.344c-.712 0-1.336-.14-1.872-.42a3.182 3.182 0 0 1-1.236-1.176c-.288-.496-.432-1.06-.432-1.692 0-.64.14-1.204.42-1.692a3.1 3.1 0 0 1 1.176-1.164c.504-.28 1.076-.42 1.716-.42.624 0 1.18.136 1.668.408.488.272.872.656 1.152 1.152.28.496.42 1.08.42 1.752 0 .064-.004.136-.012.216 0 .08-.004.156-.012.228h-5.34v-.996h4.548l-.588.312a1.841 1.841 0 0 0-.228-.972c-.16-.28-.38-.5-.66-.66a1.835 1.835 0 0 0-.948-.24c-.368 0-.692.08-.972.24-.272.16-.488.384-.648.672-.152.28-.228.612-.228.996v.24c0 .384.088.724.264 1.02.176.296.424.524.744.684.32.16.688.24 1.104.24.36 0 .684-.056.972-.168.288-.112.544-.288.768-.528l.804.924a2.87 2.87 0 0 1-1.092.78c-.432.176-.928.264-1.488.264Zm8.313.036c-.528 0-1-.08-1.416-.24a2.848 2.848 0 0 1-1.08-.732c-.296-.336-.524-.76-.684-1.272-.16-.512-.24-1.12-.24-1.824 0-.512.044-.98.132-1.404a4.35 4.35 0 0 1 .396-1.14c.176-.344.396-.648.66-.912.272-.264.588-.484.948-.66.36-.176.768-.312 1.224-.408l2.976-.636.216 1.344-2.7.552c-.152.032-.336.08-.552.144a3.07 3.07 0 0 0-.648.264c-.216.112-.42.276-.612.492-.184.208-.336.48-.456.816-.112.328-.168.74-.168 1.236 0 .152.004.268.012.348.016.072.028.152.036.24.016.08.024.2.024.36l-.564-.588c.16-.408.38-.756.66-1.044.288-.296.62-.52.996-.672.384-.16.8-.24 1.248-.24.6 0 1.132.124 1.596.372.464.248.828.596 1.092 1.044.264.448.396.956.396 1.524 0 .592-.144 1.116-.432 1.572a2.989 2.989 0 0 1-1.224 1.08c-.52.256-1.132.384-1.836.384Zm.12-1.212c.36 0 .676-.076.948-.228.28-.16.496-.376.648-.648.16-.272.24-.576.24-.912 0-.336-.08-.628-.24-.876a1.65 1.65 0 0 0-.648-.612c-.272-.152-.596-.228-.972-.228-.36 0-.684.072-.972.216-.28.144-.5.344-.66.6a1.62 1.62 0 0 0-.228.864c0 .336.08.644.24.924.16.28.38.5.66.66.288.16.616.24.984.24Zm5.424 1.092v-6.408h1.5v4.224l3.54-4.224h1.368v6.408h-1.5v-4.224l-3.528 4.224h-1.38Zm10.358 0v-5.496l.348.36h-2.604v-1.272h6v1.272h-2.592l.348-.36v5.496h-1.5Zm8.006.084c-.656 0-1.24-.14-1.752-.42a3.228 3.228 0 0 1-1.212-1.176c-.296-.496-.444-1.06-.444-1.692 0-.64.148-1.204.444-1.692a3.14 3.14 0 0 1 1.212-1.164c.512-.28 1.096-.42 1.752-.42.664 0 1.252.14 1.764.42.52.28.924.664 1.212 1.152.296.488.444 1.056.444 1.704 0 .632-.148 1.196-.444 1.692a3.116 3.116 0 0 1-1.212 1.176c-.512.28-1.1.42-1.764.42Zm0-1.284c.368 0 .696-.08.984-.24a1.66 1.66 0 0 0 .672-.696c.168-.304.252-.66.252-1.068 0-.416-.084-.772-.252-1.068a1.66 1.66 0 0 0-.672-.696 1.967 1.967 0 0 0-.972-.24c-.368 0-.696.08-.984.24a1.76 1.76 0 0 0-.672.696c-.168.296-.252.652-.252 1.068 0 .408.084.764.252 1.068.168.304.392.536.672.696.288.16.612.24.972.24Zm9.054 1.284c-.52 0-.996-.12-1.428-.36-.424-.24-.764-.6-1.02-1.08-.248-.488-.372-1.104-.372-1.848 0-.752.12-1.368.36-1.848.248-.48.584-.836 1.008-1.068.424-.24.908-.36 1.452-.36.632 0 1.188.136 1.668.408.488.272.872.652 1.152 1.14.288.488.432 1.064.432 1.728 0 .664-.144 1.244-.432 1.74-.28.488-.664.868-1.152 1.14-.48.272-1.036.408-1.668.408Zm-3.552 2.244v-8.736h1.428v1.512l-.048 1.704.12 1.704v3.816h-1.5Zm3.384-3.528c.36 0 .68-.08.96-.24.288-.16.516-.392.684-.696.168-.304.252-.66.252-1.068 0-.416-.084-.772-.252-1.068a1.736 1.736 0 0 0-.684-.696 1.9 1.9 0 0 0-.96-.24c-.36 0-.684.08-.972.24-.288.16-.516.392-.684.696-.168.296-.252.652-.252 1.068 0 .408.084.764.252 1.068.168.304.396.536.684.696.288.16.612.24.972.24Zm10.109 1.2-2.316-3.072 1.224-.756 2.856 3.828h-1.764Zm-4.596 0v-6.408h1.5v6.408h-1.5Zm1.056-2.568v-1.248h2.172v1.248h-2.172Zm2.592-.456-1.404-.168 2.352-3.216h1.608l-2.556 3.384Zm4.37 3.024v-6.408h1.5v4.224l3.54-4.224h1.368v6.408h-1.5v-4.224l-3.528 4.224h-1.38Z"/><rect width="117" height="20" x="531" y="262" fill="#6F879D" rx="8"/><path fill="#263039" d="M545.074 276.368a5.03 5.03 0 0 1-1.788-.312 4.464 4.464 0 0 1-1.428-.9 4.216 4.216 0 0 1-.936-1.38 4.379 4.379 0 0 1-.336-1.728c0-.624.112-1.2.336-1.728.224-.528.54-.984.948-1.368a4.205 4.205 0 0 1 1.428-.9 4.803 4.803 0 0 1 1.788-.324c.688 0 1.316.12 1.884.36.568.232 1.048.58 1.44 1.044l-1.008.948a2.976 2.976 0 0 0-1.02-.732 2.966 2.966 0 0 0-1.224-.252c-.44 0-.844.072-1.212.216-.36.144-.676.348-.948.612a2.908 2.908 0 0 0-.624.936c-.144.36-.216.756-.216 1.188 0 .432.072.828.216 1.188.152.36.36.672.624.936.272.264.588.468.948.612.368.144.772.216 1.212.216.44 0 .848-.08 1.224-.24.376-.168.716-.42 1.02-.756l1.008.96a3.843 3.843 0 0 1-1.44 1.044c-.568.24-1.2.36-1.896.36Zm6.373-.12v-5.496l.348.36h-2.604v-1.272h6v1.272h-2.592l.348-.36v5.496h-1.5Zm8.007.084c-.656 0-1.24-.14-1.752-.42a3.228 3.228 0 0 1-1.212-1.176c-.296-.496-.444-1.06-.444-1.692 0-.64.148-1.204.444-1.692a3.14 3.14 0 0 1 1.212-1.164c.512-.28 1.096-.42 1.752-.42.664 0 1.252.14 1.764.42.52.28.924.664 1.212 1.152.296.488.444 1.056.444 1.704 0 .632-.148 1.196-.444 1.692a3.116 3.116 0 0 1-1.212 1.176c-.512.28-1.1.42-1.764.42Zm0-1.284c.368 0 .696-.08.984-.24a1.66 1.66 0 0 0 .672-.696c.168-.304.252-.66.252-1.068 0-.416-.084-.772-.252-1.068a1.66 1.66 0 0 0-.672-.696 1.967 1.967 0 0 0-.972-.24c-.368 0-.696.08-.984.24a1.76 1.76 0 0 0-.672.696c-.168.296-.252.652-.252 1.068 0 .408.084.764.252 1.068.168.304.392.536.672.696.288.16.612.24.972.24Zm5.501 1.2v-6.408h1.5v4.224l3.54-4.224h1.368v6.408h-1.5v-4.224l-3.528 4.224h-1.38Zm9.026 0v-6.408h1.572l2.58 4.548h-.624l2.712-4.548h1.404l.012 6.408h-1.356v-4.8l.24.156-2.4 3.972h-.648l-2.412-4.08.288-.072v4.824h-1.368Zm13.124.084c-.656 0-1.24-.14-1.752-.42a3.228 3.228 0 0 1-1.212-1.176c-.296-.496-.444-1.06-.444-1.692 0-.64.148-1.204.444-1.692a3.14 3.14 0 0 1 1.212-1.164c.512-.28 1.096-.42 1.752-.42.664 0 1.252.14 1.764.42.52.28.924.664 1.212 1.152.296.488.444 1.056.444 1.704 0 .632-.148 1.196-.444 1.692a3.116 3.116 0 0 1-1.212 1.176c-.512.28-1.1.42-1.764.42Zm0-1.284c.368 0 .696-.08.984-.24a1.66 1.66 0 0 0 .672-.696c.168-.304.252-.66.252-1.068 0-.416-.084-.772-.252-1.068a1.66 1.66 0 0 0-.672-.696 1.967 1.967 0 0 0-.972-.24c-.368 0-.696.08-.984.24a1.76 1.76 0 0 0-.672.696c-.168.296-.252.652-.252 1.068 0 .408.084.764.252 1.068.168.304.392.536.672.696.288.16.612.24.972.24Zm8.418 1.284c-.672 0-1.272-.14-1.8-.42a3.204 3.204 0 0 1-1.224-1.176c-.296-.496-.444-1.06-.444-1.692 0-.64.148-1.204.444-1.692a3.117 3.117 0 0 1 1.224-1.164c.528-.28 1.128-.42 1.8-.42.624 0 1.172.128 1.644.384.48.248.844.616 1.092 1.104l-1.152.672a1.83 1.83 0 0 0-1.596-.888c-.368 0-.7.08-.996.24-.296.16-.528.392-.696.696-.168.296-.252.652-.252 1.068 0 .416.084.776.252 1.08.168.296.4.524.696.684.296.16.628.24.996.24a1.83 1.83 0 0 0 1.596-.888l1.152.672c-.248.48-.612.852-1.092 1.116-.472.256-1.02.384-1.644.384Zm5.942-.084v-5.496l.348.36h-2.604v-1.272h6v1.272h-2.592l.348-.36v5.496h-1.5Zm8.648-4.296c.824 0 1.452.184 1.884.552.432.368.648.888.648 1.56 0 .696-.24 1.24-.72 1.632-.48.384-1.156.572-2.028.564l-3-.012v-6.408h1.5v2.1l1.716.012Zm-.348 3.204c.44.008.776-.084 1.008-.276.232-.192.348-.472.348-.84s-.116-.632-.348-.792c-.224-.168-.56-.256-1.008-.264l-1.368-.012v2.172l1.368.012Zm9.579 1.092v-7.8l.684.708h-2.46v-1.308h3.336v8.4h-1.56Zm4.306 0v-6.408h1.572l2.58 4.548h-.624l2.712-4.548h1.404l.012 6.408h-1.356v-4.8l.24.156-2.4 3.972h-.648l-2.412-4.08.288-.072v4.824h-1.368Zm9.788-3.924v-.672l2.148-1.872c.264-.24.436-.428.516-.564a.789.789 0 0 0 .132-.408c0-.184-.084-.336-.252-.456-.16-.128-.42-.192-.78-.192-.272 0-.516.044-.732.132-.216.088-.388.22-.516.396l-.756-.54c.2-.272.476-.488.828-.648.352-.16.772-.24 1.26-.24.648 0 1.148.14 1.5.42.352.28.528.632.528 1.056 0 .24-.06.472-.18.696-.112.224-.36.504-.744.84l-1.812 1.584-.252-.384h3.192v.852h-4.08Z"/><path stroke="#6F879D" stroke-width="2" d="m241.597 132.348 231-112.247M344.798 121.276l149-36.248M437.384 132.311l75 28M350.316 175.288l153 45M392.336 227.294l139 44M395.396 275.315l160 62M425.437 327.085l155 68.247M397.445 400.336l120 54"/><g filter="url(#v)" opacity=".2"><circle cx="424.534" cy="326.748" r="9.5" fill="#fff"/></g><g filter="url(#w)"><circle cx="424.534" cy="326.748" r="4.5" fill="#fff"/></g><g filter="url(#x)" opacity=".2"><circle cx="239.534" cy="132.748" r="9.5" fill="#fff"/></g><g filter="url(#y)"><circle cx="239.534" cy="132.748" r="4.5" fill="#fff"/></g><g filter="url(#z)" opacity=".2"><circle cx="343.534" cy="121.748" r="9.5" fill="#fff"/></g><g filter="url(#A)"><circle cx="343.534" cy="121.748" r="4.5" fill="#fff"/></g><g filter="url(#B)" opacity=".2"><circle cx="433.534" cy="131.748" r="9.5" fill="#fff"/></g><g filter="url(#C)"><circle cx="433.534" cy="131.748" r="4.5" fill="#fff"/></g><g filter="url(#D)" opacity=".2"><circle cx="349.534" cy="173.748" r="9.5" fill="#fff"/></g><circle cx="349.534" cy="173.748" r="4.5" fill="#fff"/><g filter="url(#E)" opacity=".2"><circle cx="387.534" cy="224.748" r="9.5" fill="#fff"/></g><g filter="url(#F)"><circle cx="387.534" cy="224.748" r="4.5" fill="#fff"/></g><g filter="url(#G)" opacity=".2"><circle cx="392.534" cy="272.748" r="9.5" fill="#fff"/></g><g filter="url(#H)"><circle cx="392.534" cy="272.748" r="4.5" fill="#fff"/></g><g filter="url(#I)" opacity=".2"><circle cx="395.534" cy="399.748" r="9.5" fill="#fff"/></g><g filter="url(#J)"><circle cx="395.534" cy="399.748" r="4.5" fill="#fff"/></g><rect width="153" height="20" x="473.034" y="11" fill="#6F879D" rx="8"/><path fill="#263039" d="M489.114 15.6h1.56V24h-1.56v-8.4ZM484.77 24h-1.56v-8.4h1.56V24Zm4.464-3.6h-4.596v-1.332h4.596V20.4Zm7.084 3.684c-.656 0-1.24-.14-1.752-.42a3.228 3.228 0 0 1-1.212-1.176c-.296-.496-.444-1.06-.444-1.692 0-.64.148-1.204.444-1.692a3.14 3.14 0 0 1 1.212-1.164c.512-.28 1.096-.42 1.752-.42.664 0 1.252.14 1.764.42.52.28.924.664 1.212 1.152.296.488.444 1.056.444 1.704 0 .632-.148 1.196-.444 1.692a3.116 3.116 0 0 1-1.212 1.176c-.512.28-1.1.42-1.764.42Zm0-1.284c.368 0 .696-.08.984-.24a1.66 1.66 0 0 0 .672-.696c.168-.304.252-.66.252-1.068 0-.416-.084-.772-.252-1.068a1.66 1.66 0 0 0-.672-.696 1.967 1.967 0 0 0-.972-.24c-.368 0-.696.08-.984.24a1.76 1.76 0 0 0-.672.696c-.168.296-.252.652-.252 1.068 0 .408.084.764.252 1.068.168.304.392.536.672.696.288.16.612.24.972.24Zm5.502 1.2v-6.408h1.572l2.58 4.548h-.624l2.712-4.548h1.404l.012 6.408h-1.356v-4.8l.24.156-2.4 3.972h-.648l-2.412-4.08.288-.072V24h-1.368Zm13.256.084c-.712 0-1.336-.14-1.872-.42a3.182 3.182 0 0 1-1.236-1.176c-.288-.496-.432-1.06-.432-1.692 0-.64.14-1.204.42-1.692a3.1 3.1 0 0 1 1.176-1.164c.504-.28 1.076-.42 1.716-.42.624 0 1.18.136 1.668.408.488.272.872.656 1.152 1.152.28.496.42 1.08.42 1.752 0 .064-.004.136-.012.216 0 .08-.004.156-.012.228h-5.34v-.996h4.548l-.588.312a1.841 1.841 0 0 0-.228-.972c-.16-.28-.38-.5-.66-.66a1.835 1.835 0 0 0-.948-.24c-.368 0-.692.08-.972.24-.272.16-.488.384-.648.672-.152.28-.228.612-.228.996v.24c0 .384.088.724.264 1.02.176.296.424.524.744.684.32.16.688.24 1.104.24.36 0 .684-.056.972-.168.288-.112.544-.288.768-.528l.804.924a2.87 2.87 0 0 1-1.092.78c-.432.176-.928.264-1.488.264Zm8.805 0c-.52 0-.996-.12-1.428-.36-.424-.24-.764-.6-1.02-1.08-.248-.488-.372-1.104-.372-1.848 0-.752.12-1.368.36-1.848.248-.48.584-.836 1.008-1.068.424-.24.908-.36 1.452-.36.632 0 1.188.136 1.668.408.488.272.872.652 1.152 1.14.288.488.432 1.064.432 1.728 0 .664-.144 1.244-.432 1.74-.28.488-.664.868-1.152 1.14-.48.272-1.036.408-1.668.408Zm-3.552 2.244v-8.736h1.428v1.512l-.048 1.704.12 1.704v3.816h-1.5Zm3.384-3.528c.36 0 .68-.08.96-.24.288-.16.516-.392.684-.696.168-.304.252-.66.252-1.068 0-.416-.084-.772-.252-1.068a1.736 1.736 0 0 0-.684-.696 1.9 1.9 0 0 0-.96-.24c-.36 0-.684.08-.972.24-.288.16-.516.392-.684.696-.168.296-.252.652-.252 1.068 0 .408.084.764.252 1.068.168.304.396.536.684.696.288.16.612.24.972.24Zm9.429 1.2v-6.408h6.144V24h-1.488v-5.484l.348.348h-3.852l.348-.348V24h-1.5Zm11.624.084c-.656 0-1.24-.14-1.752-.42a3.228 3.228 0 0 1-1.212-1.176c-.296-.496-.444-1.06-.444-1.692 0-.64.148-1.204.444-1.692a3.14 3.14 0 0 1 1.212-1.164c.512-.28 1.096-.42 1.752-.42.664 0 1.252.14 1.764.42.52.28.924.664 1.212 1.152.296.488.444 1.056.444 1.704 0 .632-.148 1.196-.444 1.692a3.116 3.116 0 0 1-1.212 1.176c-.512.28-1.1.42-1.764.42Zm0-1.284c.368 0 .696-.08.984-.24a1.66 1.66 0 0 0 .672-.696c.168-.304.252-.66.252-1.068 0-.416-.084-.772-.252-1.068a1.66 1.66 0 0 0-.672-.696 1.967 1.967 0 0 0-.972-.24c-.368 0-.696.08-.984.24a1.76 1.76 0 0 0-.672.696c-.168.296-.252.652-.252 1.068 0 .408.084.764.252 1.068.168.304.392.536.672.696.288.16.612.24.972.24Zm5.502 1.2v-6.408h1.572l2.58 4.548h-.624l2.712-4.548h1.404l.012 6.408h-1.356v-4.8l.24.156-2.4 3.972h-.648l-2.412-4.08.288-.072V24h-1.368Zm13.256.084c-.712 0-1.336-.14-1.872-.42a3.182 3.182 0 0 1-1.236-1.176c-.288-.496-.432-1.06-.432-1.692 0-.64.14-1.204.42-1.692a3.1 3.1 0 0 1 1.176-1.164c.504-.28 1.076-.42 1.716-.42.624 0 1.18.136 1.668.408.488.272.872.656 1.152 1.152.28.496.42 1.08.42 1.752 0 .064-.004.136-.012.216 0 .08-.004.156-.012.228h-5.34v-.996h4.548l-.588.312a1.841 1.841 0 0 0-.228-.972c-.16-.28-.38-.5-.66-.66a1.835 1.835 0 0 0-.948-.24c-.368 0-.692.08-.972.24-.272.16-.488.384-.648.672-.152.28-.228.612-.228.996v.24c0 .384.088.724.264 1.02.176.296.424.524.744.684.32.16.688.24 1.104.24.36 0 .684-.056.972-.168.288-.112.544-.288.768-.528l.804.924a2.87 2.87 0 0 1-1.092.78c-.432.176-.928.264-1.488.264Zm9.561-1.356-.324.36v-5.496h1.5v5.496l-.36-.36h3.168l-.348.36v-5.496h1.5V24h-9.444v-6.408h1.5v5.496l-.348-.36h3.156Zm4.656 2.592v-1.692l.348.372h-1.416v-1.272h2.472v2.592h-1.404Zm6.084-1.236c-.712 0-1.336-.14-1.872-.42a3.182 3.182 0 0 1-1.236-1.176c-.288-.496-.432-1.06-.432-1.692 0-.64.14-1.204.42-1.692a3.1 3.1 0 0 1 1.176-1.164c.504-.28 1.076-.42 1.716-.42.624 0 1.18.136 1.668.408.488.272.872.656 1.152 1.152.28.496.42 1.08.42 1.752 0 .064-.004.136-.012.216 0 .08-.004.156-.012.228h-5.34v-.996h4.548l-.588.312a1.841 1.841 0 0 0-.228-.972c-.16-.28-.38-.5-.66-.66a1.835 1.835 0 0 0-.948-.24c-.368 0-.692.08-.972.24-.272.16-.488.384-.648.672-.152.28-.228.612-.228.996v.24c0 .384.088.724.264 1.02.176.296.424.524.744.684.32.16.688.24 1.104.24.36 0 .684-.056.972-.168.288-.112.544-.288.768-.528l.804.924a2.87 2.87 0 0 1-1.092.78c-.432.176-.928.264-1.488.264Zm5.253-.084v-6.408h1.5v2.604h3.228v-2.604h1.5V24h-1.5v-2.532h-3.228V24h-1.5Zm8.838 0v-6.408h1.5v4.224l3.54-4.224h1.368V24h-1.5v-4.224L599.296 24h-1.38Zm13.094 0v-2.184l.216.252h-1.92c-.88 0-1.572-.184-2.076-.552-.496-.376-.744-.916-.744-1.62 0-.752.264-1.324.792-1.716.536-.392 1.248-.588 2.136-.588h2.94V24h-1.344Zm-4.608 0 1.728-2.448h1.536L608.01 24h-1.608Zm4.608-2.664v-2.88l.216.396h-1.764c-.464 0-.824.088-1.08.264-.248.168-.372.444-.372.828 0 .72.468 1.08 1.404 1.08h1.812l-.216.312Z"/><defs><filter id="a" width="691.11" height="608.536" x="0" y=".535" color-interpolation-filters="sRGB" filterUnits="userSpaceOnUse"><feFlood flood-opacity="0" result="BackgroundImageFix"/><feColorMatrix in="SourceAlpha" result="hardAlpha" values="0 0 0 0 0 0 0 0 0 0 0 0 0 0 0 0 0 0 127 0"/><feOffset dx="-29" dy="22"/><feGaussianBlur stdDeviation="22"/><feComposite in2="hardAlpha" operator="out"/><feColorMatrix values="0 0 0 0 0 0 0 0 0 0 0 0 0 0 0 0 0 0 0.28 0"/><feBlend in2="BackgroundImageFix" result="effect1_dropShadow_107_3"/><feBlend in="SourceGraphic" in2="effect1_dropShadow_107_3" result="shape"/></filter><filter id="b" width="470.851" height="419.735" x="120.359" y="96.695" color-interpolation-filters="sRGB" filterUnits="userSpaceOnUse"><feFlood flood-opacity="0" result="BackgroundImageFix"/><feColorMatrix in="SourceAlpha" result="hardAlpha" values="0 0 0 0 0 0 0 0 0 0 0 0 0 0 0 0 0 0 127 0"/><feOffset dx="-14" dy="24"/><feGaussianBlur stdDeviation="17"/><feComposite in2="hardAlpha" operator="out"/><feColorMatrix values="0 0 0 0 0.0777778 0 0 0 0 0.166667 0 0 0 0 0.0973333 0 0 0 0.67 0"/><feBlend in2="BackgroundImageFix" result="effect1_dropShadow_107_3"/><feColorMatrix in="SourceAlpha" result="hardAlpha" values="0 0 0 0 0 0 0 0 0 0 0 0 0 0 0 0 0 0 127 0"/><feOffset dx="-1" dy="3"/><feComposite in2="hardAlpha" operator="out"/><feColorMatrix values="0 0 0 0 0.151059 0 0 0 0 0.320833 0 0 0 0 0.168036 0 0 0 1 0"/><feBlend in2="effect1_dropShadow_107_3" result="effect2_dropShadow_107_3"/><feBlend in="SourceGraphic" in2="effect2_dropShadow_107_3" result="shape"/><feColorMatrix in="SourceAlpha" result="hardAlpha" values="0 0 0 0 0 0 0 0 0 0 0 0 0 0 0 0 0 0 127 0"/><feOffset dy="2"/><feGaussianBlur stdDeviation="4"/><feComposite in2="hardAlpha" k2="-1" k3="1" operator="arithmetic"/><feColorMatrix values="0 0 0 0 1 0 0 0 0 1 0 0 0 0 1 0 0 0 0.37 0"/><feBlend in2="shape" result="effect3_innerShadow_107_3"/></filter><filter id="d" width="89.981" height="76.902" x="170.233" y="109.519" color-interpolation-filters="sRGB" filterUnits="userSpaceOnUse"><feFlood flood-opacity="0" result="BackgroundImageFix"/><feColorMatrix in="SourceAlpha" result="hardAlpha" values="0 0 0 0 0 0 0 0 0 0 0 0 0 0 0 0 0 0 127 0"/><feOffset dx="-3" dy="8"/><feGaussianBlur stdDeviation="6"/><feComposite in2="hardAlpha" operator="out"/><feColorMatrix values="0 0 0 0 0.291667 0 0 0 0 0.215984 0 0 0 0 0.134896 0 0 0 0.44 0"/><feBlend in2="BackgroundImageFix" result="effect1_dropShadow_107_3"/><feColorMatrix in="SourceAlpha" result="hardAlpha" values="0 0 0 0 0 0 0 0 0 0 0 0 0 0 0 0 0 0 127 0"/><feOffset dx="-1" dy="2"/><feComposite in2="hardAlpha" operator="out"/><feColorMatrix values="0 0 0 0 0.904167 0 0 0 0 0.609533 0 0 0 0 0.293854 0 0 0 1 0"/><feBlend in2="effect1_dropShadow_107_3" result="effect2_dropShadow_107_3"/><feBlend in="SourceGraphic" in2="effect2_dropShadow_107_3" result="shape"/><feColorMatrix in="SourceAlpha" result="hardAlpha" values="0 0 0 0 0 0 0 0 0 0 0 0 0 0 0 0 0 0 127 0"/><feOffset dx="-1" dy="2"/><feGaussianBlur stdDeviation="2"/><feComposite in2="hardAlpha" k2="-1" k3="1" operator="arithmetic"/><feColorMatrix values="0 0 0 0 1 0 0 0 0 1 0 0 0 0 1 0 0 0 1 0"/><feBlend in2="shape" result="effect3_innerShadow_107_3"/></filter><filter id="f" width="41.552" height="25.434" x="195.549" y="130.552" color-interpolation-filters="sRGB" filterUnits="userSpaceOnUse"><feFlood flood-opacity="0" result="BackgroundImageFix"/><feColorMatrix in="SourceAlpha" result="hardAlpha" values="0 0 0 0 0 0 0 0 0 0 0 0 0 0 0 0 0 0 127 0"/><feOffset dy="4"/><feGaussianBlur stdDeviation="2"/><feComposite in2="hardAlpha" operator="out"/><feColorMatrix values="0 0 0 0 0 0 0 0 0 0 0 0 0 0 0 0 0 0 0.11 0"/><feBlend in2="BackgroundImageFix" result="effect1_dropShadow_107_3"/><feBlend in="SourceGraphic" in2="effect1_dropShadow_107_3" result="shape"/></filter><filter id="g" width="294.108" height="134.302" x="226.164" y="284.188" color-interpolation-filters="sRGB" filterUnits="userSpaceOnUse"><feFlood flood-opacity="0" result="BackgroundImageFix"/><feColorMatrix in="SourceAlpha" result="hardAlpha" values="0 0 0 0 0 0 0 0 0 0 0 0 0 0 0 0 0 0 127 0"/><feOffset dx="-13" dy="22"/><feGaussianBlur stdDeviation="17"/><feComposite in2="hardAlpha" operator="out"/><feColorMatrix values="0 0 0 0 0.0558333 0 0 0 0 0.279167 0 0 0 0 0.0647667 0 0 0 0.67 0"/><feBlend in2="BackgroundImageFix" result="effect1_dropShadow_107_3"/><feColorMatrix in="SourceAlpha" result="hardAlpha" values="0 0 0 0 0 0 0 0 0 0 0 0 0 0 0 0 0 0 127 0"/><feOffset dx="-1" dy="2"/><feComposite in2="hardAlpha" operator="out"/><feColorMatrix values="0 0 0 0 0.356989 0 0 0 0 0.633333 0 0 0 0 0.226944 0 0 0 1 0"/><feBlend in2="effect1_dropShadow_107_3" result="effect2_dropShadow_107_3"/><feBlend in="SourceGraphic" in2="effect2_dropShadow_107_3" result="shape"/><feColorMatrix in="SourceAlpha" result="hardAlpha" values="0 0 0 0 0 0 0 0 0 0 0 0 0 0 0 0 0 0 127 0"/><feOffset dx="2" dy="1"/><feGaussianBlur stdDeviation="3"/><feComposite in2="hardAlpha" k2="-1" k3="1" operator="arithmetic"/><feColorMatrix values="0 0 0 0 1 0 0 0 0 1 0 0 0 0 1 0 0 0 0.5 0"/><feBlend in2="shape" result="effect3_innerShadow_107_3"/></filter><filter id="i" width="217.894" height="123.332" x="204.357" y="244.666" color-interpolation-filters="sRGB" filterUnits="userSpaceOnUse"><feFlood flood-opacity="0" result="BackgroundImageFix"/><feColorMatrix in="SourceAlpha" result="hardAlpha" values="0 0 0 0 0 0 0 0 0 0 0 0 0 0 0 0 0 0 127 0"/><feOffset dx="-13" dy="22"/><feGaussianBlur stdDeviation="17"/><feComposite in2="hardAlpha" operator="out"/><feColorMatrix values="0 0 0 0 0.0558333 0 0 0 0 0.279167 0 0 0 0 0.0647667 0 0 0 0.67 0"/><feBlend in2="BackgroundImageFix" result="effect1_dropShadow_107_3"/><feColorMatrix in="SourceAlpha" result="hardAlpha" values="0 0 0 0 0 0 0 0 0 0 0 0 0 0 0 0 0 0 127 0"/><feOffset dx="-1" dy="2"/><feComposite in2="hardAlpha" operator="out"/><feColorMatrix values="0 0 0 0 0.356989 0 0 0 0 0.633333 0 0 0 0 0.226944 0 0 0 1 0"/><feBlend in2="effect1_dropShadow_107_3" result="effect2_dropShadow_107_3"/><feBlend in="SourceGraphic" in2="effect2_dropShadow_107_3" result="shape"/><feColorMatrix in="SourceAlpha" result="hardAlpha" values="0 0 0 0 0 0 0 0 0 0 0 0 0 0 0 0 0 0 127 0"/><feOffset dx="2" dy="1"/><feGaussianBlur stdDeviation="3"/><feComposite in2="hardAlpha" k2="-1" k3="1" operator="arithmetic"/><feColorMatrix values="0 0 0 0 1 0 0 0 0 1 0 0 0 0 1 0 0 0 0.5 0"/><feBlend in2="shape" result="effect3_innerShadow_107_3"/></filter><filter id="k" width="232.741" height="125.469" x="182.55" y="192.037" color-interpolation-filters="sRGB" filterUnits="userSpaceOnUse"><feFlood flood-opacity="0" result="BackgroundImageFix"/><feColorMatrix in="SourceAlpha" result="hardAlpha" values="0 0 0 0 0 0 0 0 0 0 0 0 0 0 0 0 0 0 127 0"/><feOffset dx="-13" dy="22"/><feGaussianBlur stdDeviation="17"/><feComposite in2="hardAlpha" operator="out"/><feColorMatrix values="0 0 0 0 0.0558333 0 0 0 0 0.279167 0 0 0 0 0.0647667 0 0 0 0.67 0"/><feBlend in2="BackgroundImageFix" result="effect1_dropShadow_107_3"/><feColorMatrix in="SourceAlpha" result="hardAlpha" values="0 0 0 0 0 0 0 0 0 0 0 0 0 0 0 0 0 0 127 0"/><feOffset dx="-1" dy="2"/><feComposite in2="hardAlpha" operator="out"/><feColorMatrix values="0 0 0 0 0.356989 0 0 0 0 0.633333 0 0 0 0 0.226944 0 0 0 1 0"/><feBlend in2="effect1_dropShadow_107_3" result="effect2_dropShadow_107_3"/><feBlend in="SourceGraphic" in2="effect2_dropShadow_107_3" result="shape"/><feColorMatrix in="SourceAlpha" result="hardAlpha" values="0 0 0 0 0 0 0 0 0 0 0 0 0 0 0 0 0 0 127 0"/><feOffset dx="2" dy="1"/><feGaussianBlur stdDeviation="3"/><feComposite in2="hardAlpha" k2="-1" k3="1" operator="arithmetic"/><feColorMatrix values="0 0 0 0 1 0 0 0 0 1 0 0 0 0 1 0 0 0 0.5 0"/><feBlend in2="shape" result="effect3_innerShadow_107_3"/></filter><filter id="m" width="217.894" height="123.332" x="160.743" y="147.682" color-interpolation-filters="sRGB" filterUnits="userSpaceOnUse"><feFlood flood-opacity="0" result="BackgroundImageFix"/><feColorMatrix in="SourceAlpha" result="hardAlpha" values="0 0 0 0 0 0 0 0 0 0 0 0 0 0 0 0 0 0 127 0"/><feOffset dx="-13" dy="22"/><feGaussianBlur stdDeviation="17"/><feComposite in2="hardAlpha" operator="out"/><feColorMatrix values="0 0 0 0 0.0558333 0 0 0 0 0.279167 0 0 0 0 0.0647667 0 0 0 0.67 0"/><feBlend in2="BackgroundImageFix" result="effect1_dropShadow_107_3"/><feColorMatrix in="SourceAlpha" result="hardAlpha" values="0 0 0 0 0 0 0 0 0 0 0 0 0 0 0 0 0 0 127 0"/><feOffset dx="-1" dy="2"/><feComposite in2="hardAlpha" operator="out"/><feColorMatrix values="0 0 0 0 0.356989 0 0 0 0 0.633333 0 0 0 0 0.226944 0 0 0 1 0"/><feBlend in2="effect1_dropShadow_107_3" result="effect2_dropShadow_107_3"/><feBlend in="SourceGraphic" in2="effect2_dropShadow_107_3" result="shape"/><feColorMatrix in="SourceAlpha" result="hardAlpha" values="0 0 0 0 0 0 0 0 0 0 0 0 0 0 0 0 0 0 127 0"/><feOffset dx="2" dy="1"/><feGaussianBlur stdDeviation="3"/><feComposite in2="hardAlpha" k2="-1" k3="1" operator="arithmetic"/><feColorMatrix values="0 0 0 0 1 0 0 0 0 1 0 0 0 0 1 0 0 0 0.5 0"/><feBlend in2="shape" result="effect3_innerShadow_107_3"/></filter><filter id="o" width="170.384" height="116.493" x="202.68" y="92.828" color-interpolation-filters="sRGB" filterUnits="userSpaceOnUse"><feFlood flood-opacity="0" result="BackgroundImageFix"/><feColorMatrix in="SourceAlpha" result="hardAlpha" values="0 0 0 0 0 0 0 0 0 0 0 0 0 0 0 0 0 0 127 0"/><feOffset dx="-13" dy="22"/><feGaussianBlur stdDeviation="17"/><feComposite in2="hardAlpha" operator="out"/><feColorMatrix values="0 0 0 0 0.0558333 0 0 0 0 0.279167 0 0 0 0 0.0647667 0 0 0 0.67 0"/><feBlend in2="BackgroundImageFix" result="effect1_dropShadow_107_3"/><feColorMatrix in="SourceAlpha" result="hardAlpha" values="0 0 0 0 0 0 0 0 0 0 0 0 0 0 0 0 0 0 127 0"/><feOffset dx="-1" dy="2"/><feComposite in2="hardAlpha" operator="out"/><feColorMatrix values="0 0 0 0 0.356989 0 0 0 0 0.633333 0 0 0 0 0.226944 0 0 0 1 0"/><feBlend in2="effect1_dropShadow_107_3" result="effect2_dropShadow_107_3"/><feBlend in="SourceGraphic" in2="effect2_dropShadow_107_3" result="shape"/><feColorMatrix in="SourceAlpha" result="hardAlpha" values="0 0 0 0 0 0 0 0 0 0 0 0 0 0 0 0 0 0 127 0"/><feOffset dx="2" dy="1"/><feGaussianBlur stdDeviation="3"/><feComposite in2="hardAlpha" k2="-1" k3="1" operator="arithmetic"/><feColorMatrix values="0 0 0 0 1 0 0 0 0 1 0 0 0 0 1 0 0 0 0.5 0"/><feBlend in2="shape" result="effect3_innerShadow_107_3"/></filter><filter id="q" width="308.95" height="127.828" x="252.332" y="342.072" color-interpolation-filters="sRGB" filterUnits="userSpaceOnUse"><feFlood flood-opacity="0" result="BackgroundImageFix"/><feColorMatrix in="SourceAlpha" result="hardAlpha" values="0 0 0 0 0 0 0 0 0 0 0 0 0 0 0 0 0 0 127 0"/><feOffset dx="-13" dy="22"/><feGaussianBlur stdDeviation="17"/><feComposite in2="hardAlpha" operator="out"/><feColorMatrix values="0 0 0 0 0.0558333 0 0 0 0 0.279167 0 0 0 0 0.0647667 0 0 0 0.67 0"/><feBlend in2="BackgroundImageFix" result="effect1_dropShadow_107_3"/><feColorMatrix in="SourceAlpha" result="hardAlpha" values="0 0 0 0 0 0 0 0 0 0 0 0 0 0 0 0 0 0 127 0"/><feOffset dx="-1" dy="2"/><feComposite in2="hardAlpha" operator="out"/><feColorMatrix values="0 0 0 0 0.356989 0 0 0 0 0.633333 0 0 0 0 0.226944 0 0 0 1 0"/><feBlend in2="effect1_dropShadow_107_3" result="effect2_dropShadow_107_3"/><feBlend in="SourceGraphic" in2="effect2_dropShadow_107_3" result="shape"/><feColorMatrix in="SourceAlpha" result="hardAlpha" values="0 0 0 0 0 0 0 0 0 0 0 0 0 0 0 0 0 0 127 0"/><feOffset dx="2" dy="1"/><feGaussianBlur stdDeviation="3"/><feComposite in2="hardAlpha" k2="-1" k3="1" operator="arithmetic"/><feColorMatrix values="0 0 0 0 1 0 0 0 0 1 0 0 0 0 1 0 0 0 0.5 0"/><feBlend in2="shape" result="effect3_innerShadow_107_3"/></filter><filter id="v" width="27" height="27" x="411.034" y="317.248" color-interpolation-filters="sRGB" filterUnits="userSpaceOnUse"><feFlood flood-opacity="0" result="BackgroundImageFix"/><feColorMatrix in="SourceAlpha" result="hardAlpha" values="0 0 0 0 0 0 0 0 0 0 0 0 0 0 0 0 0 0 127 0"/><feOffset dy="4"/><feGaussianBlur stdDeviation="2"/><feComposite in2="hardAlpha" operator="out"/><feColorMatrix values="0 0 0 0 0.436806 0 0 0 0 0.530333 0 0 0 0 0.616667 0 0 0 0.38 0"/><feBlend in2="BackgroundImageFix" result="effect1_dropShadow_107_3"/><feBlend in="SourceGraphic" in2="effect1_dropShadow_107_3" result="shape"/></filter><filter id="w" width="17" height="17" x="416.034" y="322.248" color-interpolation-filters="sRGB" filterUnits="userSpaceOnUse"><feFlood flood-opacity="0" result="BackgroundImageFix"/><feColorMatrix in="SourceAlpha" result="hardAlpha" values="0 0 0 0 0 0 0 0 0 0 0 0 0 0 0 0 0 0 127 0"/><feOffset dy="4"/><feGaussianBlur stdDeviation="2"/><feComposite in2="hardAlpha" operator="out"/><feColorMatrix values="0 0 0 0 0 0 0 0 0 0 0 0 0 0 0 0 0 0 0.25 0"/><feBlend in2="BackgroundImageFix" result="effect1_dropShadow_107_3"/><feBlend in="SourceGraphic" in2="effect1_dropShadow_107_3" result="shape"/></filter><filter id="x" width="27" height="27" x="226.034" y="123.248" color-interpolation-filters="sRGB" filterUnits="userSpaceOnUse"><feFlood flood-opacity="0" result="BackgroundImageFix"/><feColorMatrix in="SourceAlpha" result="hardAlpha" values="0 0 0 0 0 0 0 0 0 0 0 0 0 0 0 0 0 0 127 0"/><feOffset dy="4"/><feGaussianBlur stdDeviation="2"/><feComposite in2="hardAlpha" operator="out"/><feColorMatrix values="0 0 0 0 0.436806 0 0 0 0 0.530333 0 0 0 0 0.616667 0 0 0 0.38 0"/><feBlend in2="BackgroundImageFix" result="effect1_dropShadow_107_3"/><feBlend in="SourceGraphic" in2="effect1_dropShadow_107_3" result="shape"/></filter><filter id="y" width="17" height="17" x="231.034" y="128.248" color-interpolation-filters="sRGB" filterUnits="userSpaceOnUse"><feFlood flood-opacity="0" result="BackgroundImageFix"/><feColorMatrix in="SourceAlpha" result="hardAlpha" values="0 0 0 0 0 0 0 0 0 0 0 0 0 0 0 0 0 0 127 0"/><feOffset dy="4"/><feGaussianBlur stdDeviation="2"/><feComposite in2="hardAlpha" operator="out"/><feColorMatrix values="0 0 0 0 0 0 0 0 0 0 0 0 0 0 0 0 0 0 0.25 0"/><feBlend in2="BackgroundImageFix" result="effect1_dropShadow_107_3"/><feBlend in="SourceGraphic" in2="effect1_dropShadow_107_3" result="shape"/></filter><filter id="z" width="27" height="27" x="330.034" y="112.248" color-interpolation-filters="sRGB" filterUnits="userSpaceOnUse"><feFlood flood-opacity="0" result="BackgroundImageFix"/><feColorMatrix in="SourceAlpha" result="hardAlpha" values="0 0 0 0 0 0 0 0 0 0 0 0 0 0 0 0 0 0 127 0"/><feOffset dy="4"/><feGaussianBlur stdDeviation="2"/><feComposite in2="hardAlpha" operator="out"/><feColorMatrix values="0 0 0 0 0.436806 0 0 0 0 0.530333 0 0 0 0 0.616667 0 0 0 0.38 0"/><feBlend in2="BackgroundImageFix" result="effect1_dropShadow_107_3"/><feBlend in="SourceGraphic" in2="effect1_dropShadow_107_3" result="shape"/></filter><filter id="A" width="17" height="17" x="335.034" y="117.248" color-interpolation-filters="sRGB" filterUnits="userSpaceOnUse"><feFlood flood-opacity="0" result="BackgroundImageFix"/><feColorMatrix in="SourceAlpha" result="hardAlpha" values="0 0 0 0 0 0 0 0 0 0 0 0 0 0 0 0 0 0 127 0"/><feOffset dy="4"/><feGaussianBlur stdDeviation="2"/><feComposite in2="hardAlpha" operator="out"/><feColorMatrix values="0 0 0 0 0 0 0 0 0 0 0 0 0 0 0 0 0 0 0.25 0"/><feBlend in2="BackgroundImageFix" result="effect1_dropShadow_107_3"/><feBlend in="SourceGraphic" in2="effect1_dropShadow_107_3" result="shape"/></filter><filter id="B" width="27" height="27" x="420.034" y="122.248" color-interpolation-filters="sRGB" filterUnits="userSpaceOnUse"><feFlood flood-opacity="0" result="BackgroundImageFix"/><feColorMatrix in="SourceAlpha" result="hardAlpha" values="0 0 0 0 0 0 0 0 0 0 0 0 0 0 0 0 0 0 127 0"/><feOffset dy="4"/><feGaussianBlur stdDeviation="2"/><feComposite in2="hardAlpha" operator="out"/><feColorMatrix values="0 0 0 0 0.436806 0 0 0 0 0.530333 0 0 0 0 0.616667 0 0 0 0.38 0"/><feBlend in2="BackgroundImageFix" result="effect1_dropShadow_107_3"/><feBlend in="SourceGraphic" in2="effect1_dropShadow_107_3" result="shape"/></filter><filter id="C" width="17" height="17" x="425.034" y="127.248" color-interpolation-filters="sRGB" filterUnits="userSpaceOnUse"><feFlood flood-opacity="0" result="BackgroundImageFix"/><feColorMatrix in="SourceAlpha" result="hardAlpha" values="0 0 0 0 0 0 0 0 0 0 0 0 0 0 0 0 0 0 127 0"/><feOffset dy="4"/><feGaussianBlur stdDeviation="2"/><feComposite in2="hardAlpha" operator="out"/><feColorMatrix values="0 0 0 0 0 0 0 0 0 0 0 0 0 0 0 0 0 0 0.25 0"/><feBlend in2="BackgroundImageFix" result="effect1_dropShadow_107_3"/><feBlend in="SourceGraphic" in2="effect1_dropShadow_107_3" result="shape"/></filter><filter id="D" width="27" height="27" x="336.034" y="164.248" color-interpolation-filters="sRGB" filterUnits="userSpaceOnUse"><feFlood flood-opacity="0" result="BackgroundImageFix"/><feColorMatrix in="SourceAlpha" result="hardAlpha" values="0 0 0 0 0 0 0 0 0 0 0 0 0 0 0 0 0 0 127 0"/><feOffset dy="4"/><feGaussianBlur stdDeviation="2"/><feComposite in2="hardAlpha" operator="out"/><feColorMatrix values="0 0 0 0 0.436806 0 0 0 0 0.530333 0 0 0 0 0.616667 0 0 0 0.38 0"/><feBlend in2="BackgroundImageFix" result="effect1_dropShadow_107_3"/><feBlend in="SourceGraphic" in2="effect1_dropShadow_107_3" result="shape"/></filter><filter id="E" width="27" height="27" x="374.034" y="215.248" color-interpolation-filters="sRGB" filterUnits="userSpaceOnUse"><feFlood flood-opacity="0" result="BackgroundImageFix"/><feColorMatrix in="SourceAlpha" result="hardAlpha" values="0 0 0 0 0 0 0 0 0 0 0 0 0 0 0 0 0 0 127 0"/><feOffset dy="4"/><feGaussianBlur stdDeviation="2"/><feComposite in2="hardAlpha" operator="out"/><feColorMatrix values="0 0 0 0 0.436806 0 0 0 0 0.530333 0 0 0 0 0.616667 0 0 0 0.38 0"/><feBlend in2="BackgroundImageFix" result="effect1_dropShadow_107_3"/><feBlend in="SourceGraphic" in2="effect1_dropShadow_107_3" result="shape"/></filter><filter id="F" width="17" height="17" x="379.034" y="220.248" color-interpolation-filters="sRGB" filterUnits="userSpaceOnUse"><feFlood flood-opacity="0" result="BackgroundImageFix"/><feColorMatrix in="SourceAlpha" result="hardAlpha" values="0 0 0 0 0 0 0 0 0 0 0 0 0 0 0 0 0 0 127 0"/><feOffset dy="4"/><feGaussianBlur stdDeviation="2"/><feComposite in2="hardAlpha" operator="out"/><feColorMatrix values="0 0 0 0 0 0 0 0 0 0 0 0 0 0 0 0 0 0 0.25 0"/><feBlend in2="BackgroundImageFix" result="effect1_dropShadow_107_3"/><feBlend in="SourceGraphic" in2="effect1_dropShadow_107_3" result="shape"/></filter><filter id="G" width="27" height="27" x="379.034" y="263.248" color-interpolation-filters="sRGB" filterUnits="userSpaceOnUse"><feFlood flood-opacity="0" result="BackgroundImageFix"/><feColorMatrix in="SourceAlpha" result="hardAlpha" values="0 0 0 0 0 0 0 0 0 0 0 0 0 0 0 0 0 0 127 0"/><feOffset dy="4"/><feGaussianBlur stdDeviation="2"/><feComposite in2="hardAlpha" operator="out"/><feColorMatrix values="0 0 0 0 0.436806 0 0 0 0 0.530333 0 0 0 0 0.616667 0 0 0 0.38 0"/><feBlend in2="BackgroundImageFix" result="effect1_dropShadow_107_3"/><feBlend in="SourceGraphic" in2="effect1_dropShadow_107_3" result="shape"/></filter><filter id="H" width="17" height="17" x="384.034" y="268.248" color-interpolation-filters="sRGB" filterUnits="userSpaceOnUse"><feFlood flood-opacity="0" result="BackgroundImageFix"/><feColorMatrix in="SourceAlpha" result="hardAlpha" values="0 0 0 0 0 0 0 0 0 0 0 0 0 0 0 0 0 0 127 0"/><feOffset dy="4"/><feGaussianBlur stdDeviation="2"/><feComposite in2="hardAlpha" operator="out"/><feColorMatrix values="0 0 0 0 0 0 0 0 0 0 0 0 0 0 0 0 0 0 0.25 0"/><feBlend in2="BackgroundImageFix" result="effect1_dropShadow_107_3"/><feBlend in="SourceGraphic" in2="effect1_dropShadow_107_3" result="shape"/></filter><filter id="I" width="27" height="27" x="382.034" y="390.248" color-interpolation-filters="sRGB" filterUnits="userSpaceOnUse"><feFlood flood-opacity="0" result="BackgroundImageFix"/><feColorMatrix in="SourceAlpha" result="hardAlpha" values="0 0 0 0 0 0 0 0 0 0 0 0 0 0 0 0 0 0 127 0"/><feOffset dy="4"/><feGaussianBlur stdDeviation="2"/><feComposite in2="hardAlpha" operator="out"/><feColorMatrix values="0 0 0 0 0.436806 0 0 0 0 0.530333 0 0 0 0 0.616667 0 0 0 0.38 0"/><feBlend in2="BackgroundImageFix" result="effect1_dropShadow_107_3"/><feBlend in="SourceGraphic" in2="effect1_dropShadow_107_3" result="shape"/></filter><filter id="J" width="17" height="17" x="387.034" y="395.248" color-interpolation-filters="sRGB" filterUnits="userSpaceOnUse"><feFlood flood-opacity="0" result="BackgroundImageFix"/><feColorMatrix in="SourceAlpha" result="hardAlpha" values="0 0 0 0 0 0 0 0 0 0 0 0 0 0 0 0 0 0 127 0"/><feOffset dy="4"/><feGaussianBlur stdDeviation="2"/><feComposite in2="hardAlpha" operator="out"/><feColorMatrix values="0 0 0 0 0 0 0 0 0 0 0 0 0 0 0 0 0 0 0.25 0"/><feBlend in2="BackgroundImageFix" result="effect1_dropShadow_107_3"/><feBlend in="SourceGraphic" in2="effect1_dropShadow_107_3" result="shape"/></filter><linearGradient id="c" x1="9" x2="250.389" y1="12.256" y2="348.405" gradientUnits="userSpaceOnUse"><stop stop-color="#D8FF86"/><stop offset="1" stop-color="#0C4A0B"/></linearGradient><linearGradient id="e" x1="1.663" x2="34.85" y1="1.857" y2="58.114" gradientUnits="userSpaceOnUse"><stop stop-color="#FFE604"/><stop offset="1" stop-color="#FF890B"/></linearGradient><linearGradient id="h" x1="7.011" x2="13.218" y1="1.429" y2="59.094" gradientUnits="userSpaceOnUse"><stop stop-color="#B1E718"/><stop offset="1" stop-color="#186F2B"/></linearGradient><linearGradient id="j" x1="4.5" x2="14.015" y1="1.429" y2="58.167" gradientUnits="userSpaceOnUse"><stop stop-color="#B1E718"/><stop offset="1" stop-color="#186F2B"/></linearGradient><linearGradient id="l" x1="4.989" x2="13.615" y1="1.429" y2="58.458" gradientUnits="userSpaceOnUse"><stop stop-color="#B1E718"/><stop offset="1" stop-color="#186F2B"/></linearGradient><linearGradient id="n" x1="4.5" x2="14.015" y1="1.429" y2="58.167" gradientUnits="userSpaceOnUse"><stop stop-color="#B1E718"/><stop offset="1" stop-color="#186F2B"/></linearGradient><linearGradient id="p" x1="2.935" x2="17.005" y1="1.429" y2="56.145" gradientUnits="userSpaceOnUse"><stop stop-color="#B1E718"/><stop offset="1" stop-color="#186F2B"/></linearGradient><linearGradient id="r" x1="7.63" x2="10.858" y1="1.071" y2="44.582" gradientUnits="userSpaceOnUse"><stop stop-color="#B1E718"/><stop offset="1" stop-color="#186F2B"/></linearGradient><linearGradient id="t" x1="320.324" x2="324.449" y1="383.678" y2="412.338" gradientUnits="userSpaceOnUse"><stop stop-color="#FDE791"/><stop offset="1" stop-color="#EA9700"/></linearGradient><linearGradient id="u" x1="486.635" x2="352.397" y1="403.62" y2="366.286" gradientUnits="userSpaceOnUse"><stop stop-color="#459320"/><stop offset="1" stop-color="#305120"/></linearGradient></defs></svg>