<svg xmlns="http://www.w3.org/2000/svg" width="589" height="533" fill="none"><path stroke="#3A5772" d="m42.35 33.628 72.351 477.406M159.82 27.695l72.35 477.406M278.835 21.684l72.35 477.406M396.305 15.751l72.35 477.406M515.319 9.74l72.35 477.406M115.59 511.76l471.423-23.81M103.531 432.193l471.423-23.811M91.473 352.625l471.423-23.81M79.415 273.057l471.423-23.81M67.356 193.49l471.423-23.811M55.298 113.922l471.423-23.81M43.008 32.824 514.43 9.014M115.59 511.76l471.423-23.81"/><path stroke="#445D74" d="m42.35 33.628 72.351 477.406"/><path fill="#A3A3A3" d="m115.986 532.271-.961.048-.457-3.017-1.785.09a11.4 11.4 0 0 0-.501.035 2.46 2.46 0 0 0-.342.047c-.092.017-.17.041-.235.07a.842.842 0 0 0-.346.275.726.726 0 0 0-.113.23 1.57 1.57 0 0 0-.047.338c-.006.133-.001.296.016.49l.068.775c.007.094.012.179.014.257a1.766 1.766 0 0 1-.037.406 1.37 1.37 0 0 1-.048.197l-1.102.056c.032-.044.063-.093.09-.146a.839.839 0 0 0 .07-.188c.018-.076.031-.164.039-.265a2.885 2.885 0 0 0-.001-.36l-.063-.97a4.933 4.933 0 0 1-.012-.466c.004-.15.03-.29.079-.423a.952.952 0 0 1 .244-.362c.118-.11.286-.204.503-.283a6.363 6.363 0 0 1-.389-.136 1.71 1.71 0 0 1-.448-.265 1.875 1.875 0 0 1-.402-.476 2.16 2.16 0 0 1-.25-.775 2.232 2.232 0 0 1-.015-.617c.025-.186.068-.352.131-.498a1.42 1.42 0 0 1 .921-.83c.154-.047.31-.082.471-.106a5.72 5.72 0 0 1 .463-.053c.153-.011.286-.019.399-.025l2.97-.15 1.076 7.097Zm-1.909-6.208-2.195.11-.257.018a2.509 2.509 0 0 0-.261.028 1.565 1.565 0 0 0-.247.061.8.8 0 0 0-.429.314 1.062 1.062 0 0 0-.178.578 1.708 1.708 0 0 0 .066.532 1.281 1.281 0 0 0 .279.506c.071.081.16.154.269.22.094.06.186.106.276.137a1.608 1.608 0 0 0 .604.062c.114-.006.239-.014.375-.024l2.067-.104-.369-2.438Zm2.53.966.897-.045.316 2.086 2.438-.124-.316-2.085.902-.046.784 5.171-.902.045-.351-2.312-2.438.123.351 2.312-.898.046-.783-5.171Zm5.559-.28 2.224-.113c.637-.032 1.131.061 1.482.281.354.218.565.551.633.999.036.238.008.442-.084.612-.092.17-.225.323-.398.458.292.089.534.226.726.411.192.185.311.43.357.736a1.61 1.61 0 0 1-.023.658c-.052.197-.15.367-.296.511a1.558 1.558 0 0 1-.586.346 3.288 3.288 0 0 1-.886.152l-2.365.119-.784-5.17Zm1.573 4.415 1.366-.069a2.67 2.67 0 0 0 .582-.083.922.922 0 0 0 .355-.183.503.503 0 0 0 .161-.266.897.897 0 0 0 .008-.341.994.994 0 0 0-.11-.335.64.64 0 0 0-.239-.246 1.09 1.09 0 0 0-.404-.14 2.568 2.568 0 0 0-.599-.028l-1.365.069.245 1.622Zm-.344-2.274 1.355-.068c.303-.016.533-.087.69-.215.158-.128.217-.318.179-.569a.815.815 0 0 0-.126-.348.736.736 0 0 0-.23-.222.82.82 0 0 0-.297-.107 1.297 1.297 0 0 0-.318-.023l-1.477.075.224 1.477ZM230.704 522.901a2.559 2.559 0 0 0-.284-.871 1.9 1.9 0 0 0-.564-.638 2.303 2.303 0 0 0-.847-.371 4.087 4.087 0 0 0-1.148-.088l.634 4.186a3.849 3.849 0 0 0 1.105-.197c.304-.113.545-.263.723-.45.181-.191.302-.417.364-.68.061-.266.067-.563.017-.891Zm-3.047 3.078a5.527 5.527 0 0 1-1.481-.11 3.453 3.453 0 0 1-1.176-.5 2.82 2.82 0 0 1-.825-.873 3.354 3.354 0 0 1-.43-1.243c-.071-.474-.055-.894.05-1.263.104-.372.287-.687.549-.947.262-.26.599-.462 1.009-.606.41-.147.885-.234 1.425-.261l-.12-.792.961-.049.12.792a5.36 5.36 0 0 1 1.481.115c.448.101.84.266 1.176.495.336.23.612.522.826.878.217.352.362.765.433 1.238.072.473.054.896-.053 1.268a2.123 2.123 0 0 1-.55.942c-.262.26-.599.463-1.009.61-.41.144-.885.23-1.425.257l.12.792-.961.048-.12-.791Zm-2.966-2.774c.05.328.145.62.286.876.139.252.325.463.557.633.235.166.518.29.848.371.333.077.717.105 1.152.083l-.634-4.186c-.436.022-.805.089-1.109.202a1.823 1.823 0 0 0-.723.45c-.178.19-.297.419-.359.684a2.371 2.371 0 0 0-.018.887Zm12.675 1.271a1.882 1.882 0 0 1-.52 1.277c-.169.18-.379.329-.63.445-.247.12-.532.188-.853.204a2.858 2.858 0 0 1-1.001-.12 2.415 2.415 0 0 1-.849-.478 2.845 2.845 0 0 1-.639-.843 3.923 3.923 0 0 1-.371-1.217 3.239 3.239 0 0 1-.027-.859 2.59 2.59 0 0 1 .179-.7c.089-.209.201-.39.335-.543a2.03 2.03 0 0 1 .942-.626c.175-.058.347-.091.516-.099.357-.018.692.018 1.004.11.312.091.59.241.835.449.247.205.454.468.621.791.169.319.288.699.354 1.14l.068.444-3.819.193c.042.25.112.477.212.68.099.199.222.368.371.506.149.139.319.244.51.315.193.068.404.096.632.085.231-.012.421-.054.57-.126a1.12 1.12 0 0 0 .363-.267 1.11 1.11 0 0 0 .208-.346c.05-.126.088-.249.116-.371l.873-.044Zm-1.046-1.289a2.277 2.277 0 0 0-.219-.666 1.529 1.529 0 0 0-.367-.477 1.34 1.34 0 0 0-.495-.282 1.622 1.622 0 0 0-.601-.076 1.232 1.232 0 0 0-.951.5 1.409 1.409 0 0 0-.237.513 1.931 1.931 0 0 0-.046.635l2.916-.147Zm1.624-2.286 2.224-.112c.637-.033 1.131.061 1.482.28.354.219.565.552.633.999.036.238.008.442-.084.612a1.472 1.472 0 0 1-.397.458c.291.089.533.226.725.411.192.185.311.43.357.736a1.61 1.61 0 0 1-.023.658c-.052.197-.15.368-.296.511a1.558 1.558 0 0 1-.586.346 3.25 3.25 0 0 1-.886.152l-2.365.119-.784-5.17Zm1.573 4.415 1.366-.069a2.61 2.61 0 0 0 .582-.083.909.909 0 0 0 .355-.183.507.507 0 0 0 .162-.266.918.918 0 0 0 .007-.341 1.001 1.001 0 0 0-.11-.335.64.64 0 0 0-.239-.246 1.1 1.1 0 0 0-.404-.14 2.624 2.624 0 0 0-.599-.028l-1.365.069.245 1.622Zm-.344-2.274 1.355-.068c.303-.015.533-.087.69-.215.158-.128.218-.317.179-.568a.815.815 0 0 0-.126-.349.725.725 0 0 0-.23-.222.838.838 0 0 0-.297-.107 1.292 1.292 0 0 0-.317-.022l-1.478.074.224 1.477Zm4.194-2.415.897-.045.108.709.019-.001c.041-.122.097-.238.168-.349.075-.111.169-.208.281-.291.114-.087.249-.157.405-.21.159-.054.344-.086.556-.096a2.214 2.214 0 0 1 1.583.562c.231.202.429.461.595.777.165.313.28.682.344 1.106.081.532.094.987.04 1.365-.051.376-.16.686-.325.931a1.508 1.508 0 0 1-.645.549 2.55 2.55 0 0 1-.922.207 1.778 1.778 0 0 1-.493-.043 2.069 2.069 0 0 1-.431-.154 1.904 1.904 0 0 1-.339-.226 1.323 1.323 0 0 1-.229-.251l-.02.001.397 2.621-.897.046-1.092-7.208Zm1.273 2.567c.043.28.11.538.201.773.091.233.207.433.347.601.143.168.308.297.496.388.19.088.404.126.641.114a1.25 1.25 0 0 0 .617-.177c.167-.109.296-.254.386-.433.091-.18.146-.389.166-.627.019-.24.008-.501-.035-.781a3.87 3.87 0 0 0-.205-.802 2.12 2.12 0 0 0-.354-.619 1.405 1.405 0 0 0-1.173-.505 1.15 1.15 0 0 0-.596.18c-.158.106-.282.25-.372.433-.087.183-.14.398-.158.645-.018.247-.005.518.039.81ZM341.839 513.713l1.375-.07 2.933 5.87.02-.001 1.124-6.075 1.375-.069 1.075 7.097-.897.045-.905-5.972-.02.001-1.113 6.074-.956.048-2.924-5.87-.02.001.905 5.972-.897.045-1.075-7.096Zm8.753 3.06c-.038-.316-.018-.584.06-.806.077-.224.2-.409.368-.553.168-.145.376-.253.624-.324.251-.074.529-.119.835-.134.253-.013.503 0 .748.04.248.039.474.112.677.218.202.104.373.244.511.422.141.175.231.392.271.653l.456 3.008a.383.383 0 0 0 .101.213c.054.056.132.081.232.076a.972.972 0 0 0 .14-.017l.147-.036.093.613a4.412 4.412 0 0 1-.216.064c-.069.02-.154.033-.255.038a1.961 1.961 0 0 1-.411-.019.844.844 0 0 1-.302-.111.713.713 0 0 1-.21-.223 1.244 1.244 0 0 1-.137-.348 3.155 3.155 0 0 1-.3.351 2.052 2.052 0 0 1-.374.286 2.103 2.103 0 0 1-.486.2 2.639 2.639 0 0 1-.629.1 1.917 1.917 0 0 1-.604-.067 1.843 1.843 0 0 1-.556-.259 1.662 1.662 0 0 1-.431-.445 1.586 1.586 0 0 1-.234-.64c-.041-.267-.03-.5.032-.697.061-.201.155-.37.282-.506.126-.139.278-.249.456-.329.178-.081.362-.137.554-.169l1.441-.253a.437.437 0 0 0 .303-.176c.067-.097.085-.248.054-.45-.047-.313-.185-.531-.414-.656-.225-.128-.532-.182-.919-.162-.396.02-.679.118-.849.295-.17.174-.243.428-.219.761l-.839.042Zm3.388.826a.88.88 0 0 1-.248.144 2.611 2.611 0 0 1-.334.1 9.95 9.95 0 0 1-.395.083 14.82 14.82 0 0 0-.421.075c-.16.03-.304.07-.434.119a1.191 1.191 0 0 0-.332.182.64.64 0 0 0-.196.258.618.618 0 0 0-.033.337c.023.148.065.278.128.388.066.11.145.202.238.275a.922.922 0 0 0 .329.158c.123.033.254.046.394.039.088-.005.187-.019.298-.044.11-.029.222-.067.336-.115.114-.048.223-.107.327-.177a1.23 1.23 0 0 0 .276-.257.913.913 0 0 0 .193-.734l-.126-.831Zm1.898-2.654.897-.046.107.71.02-.001c.04-.122.096-.238.168-.349a1.21 1.21 0 0 1 .28-.292 1.48 1.48 0 0 1 .406-.21c.159-.053.344-.085.555-.096a2.207 2.207 0 0 1 1.584.562c.231.203.429.462.595.778.165.312.28.681.344 1.106.081.531.094.986.04 1.365-.051.376-.16.686-.326.931a1.49 1.49 0 0 1-.644.548c-.267.121-.574.19-.922.207a1.705 1.705 0 0 1-.493-.043 2.068 2.068 0 0 1-.431-.153 1.96 1.96 0 0 1-.339-.226 1.362 1.362 0 0 1-.23-.251l-.019.001.397 2.621-.897.045-1.092-7.207Zm1.273 2.567c.043.28.109.538.201.773.091.232.206.432.346.6.144.168.309.298.497.389.19.087.404.125.641.113a1.23 1.23 0 0 0 .617-.177c.167-.109.295-.253.386-.433.091-.179.146-.388.166-.626a3.447 3.447 0 0 0-.035-.781 3.916 3.916 0 0 0-.205-.802 2.151 2.151 0 0 0-.355-.62 1.4 1.4 0 0 0-1.172-.505 1.148 1.148 0 0 0-.597.181 1.082 1.082 0 0 0-.371.432c-.087.183-.14.398-.158.646-.018.247-.005.517.039.81Zm5.842-2.148-1.8.09-.117-.772 4.496-.227.117.772-1.799.091.666 4.398-.897.046-.666-4.398ZM467.388 511.574l-1.57-3.102-.731 3.219 2.301-.117Zm-3.916 3.146 1.595-7.343 1.165-.059 3.692 7.076-1.063.054-1.085-2.134-2.819.142-.471 2.213-1.014.051Zm9.93-4.933-2.438.123.667 4.398-.898.045-.783-5.17 4.238-.214.783 5.17-.902.046-.667-4.398Zm2.058-.882.898-.046.107.71.02-.001c.04-.122.096-.238.168-.349.075-.111.168-.208.28-.291.115-.087.25-.157.406-.211.159-.053.344-.085.555-.096a2.207 2.207 0 0 1 1.584.562c.23.203.429.462.594.778.166.313.281.681.345 1.106.08.531.094.986.04 1.365-.051.376-.16.686-.326.931a1.496 1.496 0 0 1-.644.548c-.267.121-.574.19-.922.207a1.702 1.702 0 0 1-.493-.043 2.012 2.012 0 0 1-.431-.153 1.96 1.96 0 0 1-.339-.226 1.362 1.362 0 0 1-.23-.251l-.019.001.397 2.621-.897.045-1.093-7.207Zm1.274 2.567c.042.28.109.538.201.773.09.232.206.432.346.601.143.167.309.297.496.388.191.088.404.125.642.113.247-.012.452-.071.616-.177a1.1 1.1 0 0 0 .387-.433c.091-.179.146-.388.165-.626a3.933 3.933 0 0 0-.239-1.583 2.151 2.151 0 0 0-.355-.62 1.402 1.402 0 0 0-1.172-.505 1.157 1.157 0 0 0-.597.181c-.157.105-.281.25-.372.432a1.798 1.798 0 0 0-.157.646c-.019.247-.005.517.039.81ZM563.374 502.523l1.375-.069 2.934 5.869.019-.001 1.124-6.074 1.375-.069 1.075 7.096-.897.046-.905-5.972-.019.001-1.114 6.074-.956.048-2.924-5.87-.02.001.905 5.972-.897.045-1.075-7.097Zm8.753 3.061c-.038-.316-.018-.585.06-.806.077-.224.2-.409.368-.554.168-.144.376-.252.624-.323.251-.074.529-.119.835-.135.254-.012.503.001.748.041.248.039.474.112.677.218.202.104.373.244.511.422.141.175.231.392.271.653l.456 3.007a.386.386 0 0 0 .101.214c.054.056.132.081.233.076a.976.976 0 0 0 .139-.017l.147-.036.093.613a5.882 5.882 0 0 1-.216.064c-.069.02-.154.032-.255.037a1.888 1.888 0 0 1-.41-.018.83.83 0 0 1-.302-.111.727.727 0 0 1-.211-.223 1.245 1.245 0 0 1-.136-.348 3.273 3.273 0 0 1-.301.351 2.018 2.018 0 0 1-.374.286 2.148 2.148 0 0 1-.486.2 2.69 2.69 0 0 1-.629.1 1.917 1.917 0 0 1-.604-.067 1.827 1.827 0 0 1-.555-.259 1.65 1.65 0 0 1-.432-.445 1.591 1.591 0 0 1-.234-.64c-.041-.267-.03-.5.032-.698.061-.2.155-.369.282-.505.126-.139.278-.249.456-.33.178-.08.363-.136.554-.169l1.441-.252a.44.44 0 0 0 .303-.176c.067-.098.085-.248.054-.451-.047-.312-.185-.53-.414-.655-.225-.128-.532-.182-.919-.163-.396.02-.679.119-.849.296-.17.174-.243.428-.219.76l-.839.043Zm3.388.826a.867.867 0 0 1-.248.144c-.099.037-.211.07-.334.099a9.89 9.89 0 0 1-.395.084c-.141.023-.281.048-.421.074a2.696 2.696 0 0 0-.434.12 1.147 1.147 0 0 0-.331.182.621.621 0 0 0-.197.258.617.617 0 0 0-.033.337c.023.148.065.277.128.388.066.11.145.202.238.275a.939.939 0 0 0 .329.158c.123.033.254.046.394.039a1.848 1.848 0 0 0 .634-.159c.114-.048.223-.107.327-.177a1.23 1.23 0 0 0 .276-.257.998.998 0 0 0 .171-.33.904.904 0 0 0 .022-.405l-.126-.83Zm1.898-2.655.897-.045.108.71.019-.001c.041-.122.097-.239.168-.349a1.23 1.23 0 0 1 .28-.292c.115-.087.25-.157.406-.21.159-.053.344-.085.555-.096a2.227 2.227 0 0 1 1.584.562c.231.202.429.462.595.778.165.312.28.681.344 1.106.081.531.094.986.04 1.365-.051.375-.16.686-.326.931a1.49 1.49 0 0 1-.644.548c-.267.12-.574.19-.922.207a1.74 1.74 0 0 1-.493-.043 2.126 2.126 0 0 1-.431-.153 1.962 1.962 0 0 1-.339-.227 1.293 1.293 0 0 1-.229-.251l-.02.001.397 2.622-.897.045-1.092-7.208Zm1.273 2.568c.043.28.11.537.201.773.091.232.206.432.347.6.143.168.308.298.496.389.19.087.404.125.641.113a1.23 1.23 0 0 0 .617-.177 1.09 1.09 0 0 0 .386-.433c.091-.18.146-.388.166-.626a3.456 3.456 0 0 0-.035-.782 3.886 3.886 0 0 0-.205-.802 2.157 2.157 0 0 0-.354-.619 1.425 1.425 0 0 0-.511-.388 1.38 1.38 0 0 0-.662-.117 1.141 1.141 0 0 0-.596.181 1.077 1.077 0 0 0-.372.432c-.087.183-.14.398-.158.645a3.68 3.68 0 0 0 .039.811Zm5.842-2.149-1.8.091-.117-.772 4.496-.227.117.772-1.799.091.667 4.398-.898.045-.666-4.398Z"/><path fill="url(#a)" d="M101.607 431.353s73.006-29.591 111.256-59.418c38.251-29.828 55.327-116.371 100.269-118.64 44.943-2.27 102.076 192.107 150.24 201.132 48.164 9.024 65.656-356.995 65.656-356.995l59.036 389.552-474.395 23.96-12.062-79.591Z" opacity=".5"/><path fill="#A3A3A3" d="M96.07 504.725c.903-.046 1.613.289 2.128 1.006.398.554.672 1.327.823 2.318.142.94.118 1.724-.071 2.353-.276.903-.88 1.377-1.81 1.424-.838.043-1.517-.286-2.036-.986-.432-.585-.725-1.384-.879-2.398-.119-.785-.119-1.465 0-2.038.225-1.069.84-1.629 1.845-1.679Zm.946 6.31c.455-.023.787-.241.997-.654.21-.412.231-1.163.067-2.251-.12-.785-.315-1.425-.586-1.921-.272-.498-.69-.733-1.252-.705-.517.026-.86.287-1.027.781-.164.492-.176 1.206-.034 2.143.107.704.27 1.267.487 1.687.333.642.782.948 1.348.92ZM77.11 432.472c-.058-.598-.013-1.122.134-1.574.151-.452.513-.874 1.086-1.266l.855-.583c.383-.263.646-.483.79-.663.225-.28.312-.593.26-.937-.06-.402-.231-.715-.51-.937-.28-.226-.624-.329-1.03-.308-.601.03-.983.276-1.146.739-.087.247-.105.585-.053 1.014l-.892.045c-.082-.602-.044-1.099.113-1.489.28-.689.9-1.058 1.862-1.106.8-.041 1.416.144 1.848.553.436.41.693.877.773 1.401.084.554-.041 1.037-.375 1.45-.193.24-.56.537-1.099.892l-.612.4c-.292.19-.517.369-.676.536-.282.296-.44.617-.473.962l3.814-.192.124.82-4.794.243Zm6.9-7.315c.904-.046 1.614.29 2.128 1.006.399.554.673 1.327.823 2.318.143.94.12 1.724-.07 2.353-.276.903-.88 1.378-1.81 1.425-.838.042-1.517-.287-2.036-.987-.432-.585-.725-1.384-.879-2.398-.119-.785-.119-1.465 0-2.038.225-1.069.84-1.628 1.844-1.679Zm.947 6.31c.455-.023.787-.241.997-.653.21-.413.231-1.163.067-2.251-.12-.786-.315-1.426-.587-1.921-.272-.499-.689-.734-1.251-.706-.517.026-.86.287-1.027.782-.165.491-.176 1.205-.034 2.142.107.705.27 1.267.487 1.688.333.641.782.948 1.348.919ZM67.67 350.305l-.475-3.133-1.763 3.246 2.238-.113Zm.386 2.447-.256-1.69-3.063.155-.129-.85 2.534-4.554.74-.038.68 4.485 1.03-.052.114.758-1.029.052.256 1.69-.877.044Zm3.897-7.163c.904-.045 1.613.29 2.128 1.007.398.554.673 1.326.823 2.317.142.94.119 1.725-.071 2.354-.276.902-.879 1.377-1.809 1.424-.839.042-1.517-.287-2.036-.987-.433-.584-.726-1.384-.88-2.398-.119-.785-.118-1.464.001-2.038.225-1.068.84-1.628 1.844-1.679Zm.946 6.31c.456-.023.788-.24.997-.653.21-.413.232-1.163.067-2.251-.12-.785-.314-1.426-.586-1.921-.272-.499-.69-.734-1.252-.705-.517.026-.86.286-1.026.781-.165.492-.177 1.206-.035 2.142.107.705.27 1.268.487 1.688.333.642.783.948 1.348.919ZM54.55 266.262c.78-.039 1.354.135 1.72.521.37.384.586.788.65 1.213l-.867.044c-.094-.271-.209-.481-.346-.63-.255-.279-.598-.407-1.027-.386-.49.025-.847.27-1.068.735-.221.462-.285 1.112-.19 1.951.157-.303.377-.535.66-.695a2.07 2.07 0 0 1 .908-.24 2.504 2.504 0 0 1 1.615.477c.492.349.793.889.905 1.623.095.628-.027 1.195-.367 1.702-.34.504-.891.775-1.655.813-.654.033-1.255-.183-1.804-.648-.549-.469-.912-1.284-1.088-2.446-.13-.859-.135-1.593-.014-2.203.233-1.166.889-1.776 1.968-1.831Zm.899 6.352c.461-.023.783-.194.964-.511.184-.321.244-.69.18-1.109a2.029 2.029 0 0 0-.46-.993c-.253-.311-.65-.454-1.19-.426-.376.019-.69.159-.938.422-.245.262-.33.642-.254 1.141.066.438.25.8.553 1.086.305.283.686.413 1.145.39Zm4.445-6.592c.904-.046 1.613.289 2.128 1.006.399.554.673 1.327.823 2.318.143.94.119 1.724-.07 2.353-.277.903-.88 1.377-1.81 1.424-.838.043-1.517-.286-2.036-.987-.433-.584-.726-1.383-.88-2.397-.118-.785-.118-1.465.002-2.038.224-1.069.839-1.629 1.843-1.679Zm.947 6.31c.455-.023.787-.241.996-.654.21-.412.232-1.163.067-2.251-.119-.785-.314-1.425-.586-1.921-.272-.498-.69-.733-1.252-.705-.517.026-.859.287-1.026.781-.165.492-.176 1.206-.034 2.143.107.704.269 1.267.487 1.687.333.642.782.948 1.348.92ZM42.73 189.631c.387-.02.673-.141.859-.365a.96.96 0 0 0 .21-.784c-.039-.257-.179-.489-.42-.694-.24-.205-.574-.297-1-.275-.422.021-.711.144-.867.369a1.038 1.038 0 0 0-.168.773c.049.325.21.573.481.744.272.171.573.248.905.232Zm.572 3.42c.407-.021.727-.146.96-.375.237-.232.323-.564.258-.995-.068-.448-.258-.78-.57-.998-.31-.218-.683-.316-1.115-.294-.42.021-.744.158-.975.409-.227.248-.31.582-.246 1 .054.361.222.667.503.919.283.248.678.359 1.185.334Zm-1.716-3.027a2.016 2.016 0 0 1-.626-.333 1.526 1.526 0 0 1-.537-.985 1.65 1.65 0 0 1 .364-1.356c.321-.389.828-.601 1.52-.636.67-.034 1.222.115 1.655.446.433.329.685.726.756 1.193.065.431.008.786-.173 1.064-.1.158-.27.316-.508.473.31.118.56.258.752.42.357.306.575.717.653 1.232.092.608-.036 1.135-.384 1.581-.35.442-.9.682-1.655.72-.68.035-1.283-.118-1.81-.458-.523-.343-.838-.862-.943-1.558-.062-.408-.014-.766.142-1.072.157-.31.42-.553.794-.731Zm6.25-3.57c.904-.046 1.613.29 2.128 1.006.398.554.672 1.327.823 2.318.142.94.118 1.724-.071 2.353-.276.903-.88 1.378-1.809 1.425-.839.042-1.518-.287-2.036-.987-.433-.585-.726-1.384-.88-2.398-.119-.785-.119-1.465 0-2.038.226-1.069.84-1.628 1.845-1.679Zm.946 6.31c.455-.023.788-.241.997-.653.21-.413.231-1.163.067-2.251-.12-.786-.315-1.426-.586-1.921-.272-.499-.69-.734-1.252-.706-.517.026-.86.287-1.027.782-.164.491-.176 1.205-.034 2.142.107.705.27 1.267.487 1.688.333.641.783.948 1.348.919ZM23.22 109.554l-.102-.666c.625-.094 1.052-.217 1.28-.372.229-.157.364-.506.407-1.047l.692-.034 1.044 6.884-.937.047-.741-4.895-1.644.083Zm6.998-2.387c.904-.046 1.614.29 2.128 1.006.399.554.673 1.327.823 2.318.143.94.12 1.724-.07 2.353-.276.903-.88 1.378-1.81 1.425-.838.042-1.517-.287-2.036-.987-.432-.585-.725-1.384-.879-2.398-.119-.785-.119-1.465 0-2.038.225-1.069.84-1.628 1.845-1.679Zm.947 6.31c.455-.023.787-.241.997-.653.21-.413.231-1.163.066-2.251-.119-.786-.314-1.426-.586-1.921-.272-.499-.689-.734-1.251-.706-.517.026-.86.287-1.027.782-.165.491-.176 1.205-.034 2.142.107.705.27 1.267.487 1.688.333.641.782.948 1.348.919Zm4.613-6.591c.904-.046 1.613.29 2.128 1.007.398.554.672 1.326.823 2.317.142.94.118 1.725-.071 2.354-.276.902-.88 1.377-1.809 1.424-.839.042-1.517-.287-2.036-.987-.433-.585-.726-1.384-.88-2.398-.119-.785-.118-1.464.001-2.038.225-1.069.84-1.628 1.844-1.679Zm.946 6.31c.455-.023.788-.24.997-.653.21-.413.232-1.163.067-2.251-.12-.785-.315-1.426-.586-1.921-.272-.499-.69-.734-1.252-.706-.517.027-.86.287-1.027.782-.164.492-.176 1.206-.034 2.142.107.705.27 1.268.487 1.688.333.641.783.948 1.348.919ZM11.16 29.986l-.1-.666c.624-.093 1.051-.217 1.28-.371.228-.158.364-.507.406-1.047l.693-.035 1.043 6.884-.936.047-.742-4.895-1.643.083Zm5.658 4.647c-.058-.597-.013-1.121.135-1.573.151-.452.513-.874 1.086-1.266l.855-.583c.383-.263.646-.484.789-.663a1.16 1.16 0 0 0 .26-.937c-.06-.403-.23-.715-.51-.938-.28-.226-.623-.328-1.03-.308-.6.03-.983.277-1.145.74-.087.247-.105.585-.053 1.014l-.892.045c-.082-.603-.044-1.099.113-1.49.279-.688.9-1.057 1.862-1.105.8-.04 1.416.144 1.848.553.435.41.693.876.772 1.401.084.554-.04 1.037-.375 1.45-.193.24-.559.537-1.098.891l-.612.401a3.77 3.77 0 0 0-.676.535c-.283.297-.44.617-.473.963l3.813-.193.125.821-4.794.242Zm6.901-7.315c.904-.045 1.613.29 2.128 1.007.399.554.673 1.326.823 2.318.142.94.119 1.724-.07 2.353-.277.902-.88 1.377-1.81 1.424-.838.043-1.517-.286-2.036-.987-.433-.584-.726-1.383-.88-2.397-.118-.786-.118-1.465.001-2.039.225-1.068.84-1.628 1.844-1.678Zm.947 6.31c.455-.022.787-.24.996-.653.21-.413.232-1.163.067-2.25-.119-.786-.314-1.426-.586-1.922-.272-.498-.69-.734-1.252-.705-.517.026-.859.287-1.026.781-.165.492-.176 1.206-.034 2.142.107.705.269 1.268.486 1.688.334.642.783.948 1.349.92Z"/><path fill="url(#b)" d="M100.5 415s76.75.828 115-29 42.057-197.73 87-200c44.943-2.27 103.5 99.5 136.5 113s120.5 31 123.5 25 25.564 162.984 25.564 162.984l-474.395 23.96L100.5 415Z" opacity=".5"/><path stroke="#EF002B" stroke-width="2" d="M101.004 415.514s70.713-3.571 114.238-29.823c43.525-26.251 41.171-198.512 88.313-200.893 47.142-2.381 84.219 85.544 135.943 113.399 51.725 27.854 122.679 25.874 122.679 25.874"/><path fill="#EF002B" d="M102.024 422.247c-1.639.082-3.31-.483-4.642-1.572-1.334-1.089-2.221-2.612-2.468-4.235-.246-1.623.169-3.213 1.154-4.419.984-1.207 2.459-1.932 4.098-2.015 1.639-.084 3.31.48 4.643 1.569 1.334 1.088 2.222 2.611 2.47 4.234.247 1.623-.167 3.213-1.151 4.42-.985 1.207-2.458 1.933-4.098 2.017l-.006.001ZM215.782 391.831c-1.639.083-3.309-.482-4.642-1.571-1.334-1.089-2.221-2.613-2.467-4.236-.247-1.623.168-3.212 1.153-4.419.985-1.206 2.459-1.931 4.098-2.015 1.64-.083 3.31.481 4.644 1.569 1.333 1.089 2.222 2.612 2.469 4.235.247 1.623-.167 3.213-1.151 4.42-.984 1.207-2.458 1.932-4.097 2.017h-.007ZM303.802 191.569c-1.64.083-3.31-.482-4.643-1.571-1.333-1.089-2.221-2.612-2.467-4.235-.247-1.623.168-3.213 1.153-4.42.985-1.206 2.459-1.931 4.099-2.015 1.639-.083 3.309.481 4.643 1.57 1.334 1.088 2.222 2.611 2.469 4.234.247 1.623-.167 3.213-1.151 4.42-.984 1.207-2.458 1.933-4.097 2.017h-.006ZM439.359 304.988c-1.64.083-3.31-.482-4.643-1.571-1.333-1.089-2.221-2.613-2.467-4.236-.247-1.623.168-3.212 1.153-4.419.985-1.207 2.459-1.931 4.098-2.015 1.64-.084 3.31.481 4.644 1.569s2.222 2.612 2.469 4.235c.247 1.622-.167 3.212-1.151 4.42-.984 1.207-2.458 1.932-4.097 2.017h-.006ZM563.012 329.58c-1.64.083-3.31-.483-4.643-1.572-1.333-1.089-2.221-2.612-2.467-4.235-.247-1.623.168-3.213 1.153-4.419.985-1.207 2.459-1.932 4.098-2.015 1.64-.084 3.31.481 4.644 1.569s2.222 2.611 2.469 4.234c.247 1.623-.167 3.213-1.151 4.42-.984 1.207-2.458 1.933-4.097 2.017l-.006.001Z"/><path fill="url(#c)" d="M69.5 213.5s98 205 151 205S272.998 265 310.499 233 367.5 189.5 422.5 189.5c55 0 130 95.5 133 89.5s32.564 207.984 32.564 207.984l-474.396 23.96L69.5 213.5Z" opacity=".5"/><path stroke="#5BA23A" stroke-width="2" d="M70.859 216.595s102.065 203.304 149.207 200.923c47.143-2.381 49.009-146.793 90.725-184.98 41.716-38.186 65.287-39.377 112.429-41.758 47.143-2.381 132.929 93.507 132.929 93.507"/><path fill="#5BA23A" d="M71.88 223.328c-1.64.082-3.31-.483-4.643-1.572-1.334-1.089-2.221-2.612-2.468-4.235-.246-1.623.169-3.213 1.154-4.419.984-1.207 2.459-1.932 4.098-2.016 1.64-.083 3.31.481 4.643 1.57 1.334 1.088 2.222 2.611 2.47 4.234.247 1.623-.167 3.213-1.151 4.42-.985 1.207-2.458 1.933-4.098 2.017l-.006.001ZM220.653 423.964c-1.64.083-3.31-.482-4.643-1.571-1.333-1.089-2.221-2.612-2.467-4.235-.246-1.623.169-3.213 1.153-4.42.985-1.206 2.459-1.931 4.099-2.015 1.639-.083 3.309.481 4.643 1.569 1.334 1.089 2.222 2.612 2.469 4.235.247 1.623-.167 3.213-1.151 4.42-.984 1.207-2.458 1.933-4.097 2.017h-.006ZM310.991 239.004c-1.639.083-3.309-.482-4.643-1.571-1.333-1.089-2.22-2.613-2.467-4.236-.246-1.623.169-3.212 1.154-4.419.984-1.206 2.459-1.931 4.098-2.015 1.639-.083 3.309.481 4.643 1.569 1.334 1.089 2.222 2.612 2.469 4.235.248 1.623-.166 3.213-1.151 4.42-.984 1.207-2.458 1.932-4.097 2.017h-.006ZM422.895 196.348c-1.639.082-3.309-.483-4.643-1.572-1.333-1.089-2.22-2.612-2.467-4.235-.246-1.623.169-3.213 1.154-4.419.984-1.207 2.459-1.932 4.098-2.015 1.639-.084 3.309.48 4.643 1.569 1.334 1.088 2.222 2.611 2.469 4.234.248 1.623-.166 3.213-1.151 4.42-.984 1.207-2.457 1.933-4.097 2.017l-.006.001ZM556.983 289.796c-1.639.083-3.309-.482-4.642-1.571-1.334-1.089-2.221-2.613-2.468-4.236-.246-1.623.169-3.212 1.154-4.419.985-1.207 2.459-1.931 4.098-2.015 1.639-.084 3.31.481 4.644 1.569 1.333 1.088 2.222 2.612 2.469 4.235.247 1.623-.167 3.212-1.151 4.42-.984 1.207-2.458 1.932-4.097 2.017h-.007Z"/><path stroke="#FA982F" stroke-width="2" d="M103.416 431.428s67.94-21.872 110.018-57.672c42.078-35.799 53.229-118.945 100.371-121.326 47.142-2.381 102.065 203.305 149.207 200.924 47.143-2.381 64.8-356.05 64.8-356.05"/><path fill="#fff" d="M105.627 444.6c-3.443.173-6.95-1.014-9.75-3.3-2.8-2.287-4.663-5.486-5.18-8.895-.518-3.408.353-6.746 2.421-9.28 2.069-2.534 5.164-4.056 8.607-4.232 3.443-.175 6.95 1.01 9.751 3.296 2.801 2.285 4.666 5.484 5.185 8.892.519 3.408-.35 6.747-2.417 9.282-2.067 2.535-5.161 4.059-8.604 4.236l-.013.001Z"/><g filter="url(#d)"><path fill="#FA982F" d="M104.343 437.548c-1.639.083-3.309-.482-4.642-1.571-1.334-1.089-2.221-2.613-2.467-4.236-.247-1.623.168-3.212 1.153-4.419.985-1.207 2.459-1.931 4.098-2.015 1.64-.084 3.31.481 4.644 1.569 1.333 1.089 2.222 2.612 2.469 4.235.247 1.623-.167 3.212-1.151 4.42-.984 1.207-2.458 1.932-4.097 2.017h-.007Z"/></g><path fill="#fff" d="M214.537 386.296c-3.442.174-6.95-1.013-9.749-3.3-2.8-2.287-4.664-5.486-5.181-8.894-.518-3.408.353-6.747 2.422-9.28 2.068-2.534 5.164-4.056 8.606-4.232 3.443-.176 6.95 1.01 9.751 3.295 2.801 2.286 4.666 5.484 5.186 8.892.519 3.409-.351 6.747-2.418 9.282-2.066 2.535-5.161 4.059-8.604 4.236l-.013.001Z"/><g filter="url(#e)"><path fill="#FA982F" d="M213.928 379.59c-1.639.083-3.309-.482-4.642-1.571-1.334-1.089-2.221-2.613-2.468-4.236-.246-1.623.169-3.212 1.154-4.419.985-1.207 2.459-1.931 4.098-2.015 1.639-.084 3.31.481 4.644 1.569 1.333 1.089 2.221 2.612 2.469 4.235.247 1.623-.167 3.212-1.151 4.42-.985 1.207-2.458 1.932-4.097 2.017h-.007Z"/></g><path fill="#fff" d="M315.305 267.631c-3.443.174-6.95-1.013-9.75-3.3s-4.663-5.486-5.181-8.894c-.517-3.409.354-6.747 2.422-9.281 2.068-2.534 5.164-4.056 8.607-4.231 3.442-.176 6.95 1.009 9.751 3.295 2.801 2.285 4.666 5.484 5.185 8.892.519 3.408-.35 6.747-2.417 9.282-2.067 2.535-5.162 4.059-8.604 4.236l-.013.001Z"/><g filter="url(#f)"><path fill="#FA982F" d="M314.504 261.077c-1.64.083-3.31-.483-4.643-1.571-1.334-1.089-2.221-2.613-2.467-4.236-.247-1.623.168-3.213 1.153-4.419.985-1.207 2.459-1.932 4.098-2.015 1.64-.084 3.31.481 4.644 1.569s2.222 2.611 2.469 4.234c.247 1.623-.167 3.213-1.151 4.42-.984 1.208-2.458 1.933-4.097 2.018h-.006Z"/></g><path fill="#fff" d="M464.171 466.342c-3.443.174-6.95-1.013-9.75-3.3s-4.663-5.486-5.181-8.895c-.517-3.408.354-6.746 2.422-9.28 2.069-2.534 5.164-4.056 8.607-4.231 3.443-.176 6.95 1.009 9.751 3.295 2.801 2.285 4.666 5.484 5.185 8.892.519 3.408-.35 6.747-2.417 9.282-2.067 2.535-5.161 4.059-8.604 4.236l-.013.001Z"/><g filter="url(#g)"><path fill="#FA982F" d="M462.78 459.533c-1.64.083-3.31-.483-4.643-1.571-1.333-1.089-2.221-2.613-2.467-4.236-.246-1.623.168-3.212 1.153-4.419.985-1.207 2.459-1.931 4.099-2.015 1.639-.084 3.309.481 4.643 1.569 1.334 1.088 2.222 2.612 2.469 4.234.247 1.623-.167 3.213-1.151 4.42-.984 1.208-2.458 1.933-4.097 2.018h-.006Z"/></g><path fill="#fff" d="M529.978 110.335c-3.443.174-6.95-1.013-9.75-3.299-2.8-2.287-4.664-5.487-5.181-8.895-.517-3.408.354-6.746 2.422-9.28 2.068-2.534 5.164-4.056 8.607-4.232 3.442-.175 6.95 1.01 9.751 3.295 2.801 2.286 4.666 5.484 5.185 8.893.519 3.408-.35 6.747-2.417 9.282-2.067 2.535-5.162 4.058-8.604 4.236h-.013Z"/><g filter="url(#h)"><path fill="#FA982F" d="M528.692 103.118c-1.639.083-3.309-.483-4.643-1.571-1.333-1.089-2.221-2.613-2.467-4.236-.246-1.623.169-3.213 1.153-4.42.985-1.206 2.459-1.93 4.099-2.014 1.639-.084 3.309.48 4.643 1.569 1.334 1.088 2.222 2.612 2.469 4.234.248 1.623-.166 3.213-1.151 4.42-.984 1.208-2.458 1.933-4.097 2.018h-.006Z"/></g><defs><filter id="d" width="20.504" height="20.257" x="93.164" y="425.299" color-interpolation-filters="sRGB" filterUnits="userSpaceOnUse"><feFlood flood-opacity="0" result="BackgroundImageFix"/><feColorMatrix in="SourceAlpha" result="hardAlpha" values="0 0 0 0 0 0 0 0 0 0 0 0 0 0 0 0 0 0 127 0"/><feOffset dy="4"/><feGaussianBlur stdDeviation="2"/><feComposite in2="hardAlpha" operator="out"/><feColorMatrix values="0 0 0 0 0 0 0 0 0 0 0 0 0 0 0 0 0 0 0.25 0"/><feBlend in2="BackgroundImageFix" result="effect1_dropShadow_1_1585"/><feBlend in="SourceGraphic" in2="effect1_dropShadow_1_1585" result="shape"/></filter><filter id="e" width="20.503" height="20.257" x="202.749" y="367.341" color-interpolation-filters="sRGB" filterUnits="userSpaceOnUse"><feFlood flood-opacity="0" result="BackgroundImageFix"/><feColorMatrix in="SourceAlpha" result="hardAlpha" values="0 0 0 0 0 0 0 0 0 0 0 0 0 0 0 0 0 0 127 0"/><feOffset dy="4"/><feGaussianBlur stdDeviation="2"/><feComposite in2="hardAlpha" operator="out"/><feColorMatrix values="0 0 0 0 0 0 0 0 0 0 0 0 0 0 0 0 0 0 0.25 0"/><feBlend in2="BackgroundImageFix" result="effect1_dropShadow_1_1585"/><feBlend in="SourceGraphic" in2="effect1_dropShadow_1_1585" result="shape"/></filter><filter id="f" width="20.503" height="20.257" x="303.324" y="248.828" color-interpolation-filters="sRGB" filterUnits="userSpaceOnUse"><feFlood flood-opacity="0" result="BackgroundImageFix"/><feColorMatrix in="SourceAlpha" result="hardAlpha" values="0 0 0 0 0 0 0 0 0 0 0 0 0 0 0 0 0 0 127 0"/><feOffset dy="4"/><feGaussianBlur stdDeviation="2"/><feComposite in2="hardAlpha" operator="out"/><feColorMatrix values="0 0 0 0 0 0 0 0 0 0 0 0 0 0 0 0 0 0 0.25 0"/><feBlend in2="BackgroundImageFix" result="effect1_dropShadow_1_1585"/><feBlend in="SourceGraphic" in2="effect1_dropShadow_1_1585" result="shape"/></filter><filter id="g" width="20.503" height="20.257" x="451.601" y="447.284" color-interpolation-filters="sRGB" filterUnits="userSpaceOnUse"><feFlood flood-opacity="0" result="BackgroundImageFix"/><feColorMatrix in="SourceAlpha" result="hardAlpha" values="0 0 0 0 0 0 0 0 0 0 0 0 0 0 0 0 0 0 127 0"/><feOffset dy="4"/><feGaussianBlur stdDeviation="2"/><feComposite in2="hardAlpha" operator="out"/><feColorMatrix values="0 0 0 0 0 0 0 0 0 0 0 0 0 0 0 0 0 0 0.25 0"/><feBlend in2="BackgroundImageFix" result="effect1_dropShadow_1_1585"/><feBlend in="SourceGraphic" in2="effect1_dropShadow_1_1585" result="shape"/></filter><filter id="h" width="20.503" height="20.257" x="517.513" y="90.869" color-interpolation-filters="sRGB" filterUnits="userSpaceOnUse"><feFlood flood-opacity="0" result="BackgroundImageFix"/><feColorMatrix in="SourceAlpha" result="hardAlpha" values="0 0 0 0 0 0 0 0 0 0 0 0 0 0 0 0 0 0 127 0"/><feOffset dy="4"/><feGaussianBlur stdDeviation="2"/><feComposite in2="hardAlpha" operator="out"/><feColorMatrix values="0 0 0 0 0 0 0 0 0 0 0 0 0 0 0 0 0 0 0.25 0"/><feBlend in2="BackgroundImageFix" result="effect1_dropShadow_1_1585"/><feBlend in="SourceGraphic" in2="effect1_dropShadow_1_1585" result="shape"/></filter><linearGradient id="a" x1="291.83" x2="311.606" y1="109.412" y2="500.947" gradientUnits="userSpaceOnUse"><stop stop-color="#FA982F"/><stop offset="1" stop-color="#FA982F" stop-opacity="0"/></linearGradient><linearGradient id="b" x1="291.83" x2="311.606" y1="109.412" y2="500.947" gradientUnits="userSpaceOnUse"><stop stop-color="#EF002B"/><stop offset="1" stop-color="#EF002B" stop-opacity=".06"/></linearGradient><linearGradient id="c" x1="291.831" x2="311.606" y1="109.412" y2="500.947" gradientUnits="userSpaceOnUse"><stop stop-color="#5BA13A"/><stop offset="1" stop-color="#5BA13A" stop-opacity="0"/></linearGradient></defs></svg>