<svg xmlns="http://www.w3.org/2000/svg" width="995" height="508" fill="none"><g opacity=".4"><g filter="url(#a)"><rect width="270" height="419" fill="url(#b)" rx="10" transform="matrix(.99873 -.05044 .14984 .98871 47.255 35.585)"/></g><g filter="url(#c)"><rect width="215" height="51" fill="url(#d)" rx="10" transform="matrix(.99873 -.05044 .14984 .98871 65.332 48.62)"/></g><path fill="#fff" d="m93.622 76.083-1.363-8.997 7.595-.383.298 1.966-5.064.256.22 1.452 2.35-.118c1.108-.056 1.987.132 2.637.566.659.433 1.055 1.086 1.187 1.96.137.9-.085 1.624-.665 2.17-.581.54-1.465.839-2.65.899l-4.545.23Zm2.255-1.953 1.844-.093c.424-.021.736-.123.935-.306.207-.183.287-.433.24-.75-.097-.634-.586-.93-1.47-.885l-1.843.093.294 1.941Zm11.515 1.374c-.831.042-1.582-.075-2.252-.352a4.256 4.256 0 0 1-1.635-1.213 3.828 3.828 0 0 1-.789-1.838c-.105-.694-.034-1.32.213-1.876a2.962 2.962 0 0 1 1.196-1.342c.542-.338 1.181-.526 1.916-.563a4.473 4.473 0 0 1 1.96.328 3.74 3.74 0 0 1 1.549 1.152c.419.523.687 1.17.804 1.941.013.086.023.185.032.297.008.112.015.215.02.31l-5.569.28-.195-1.285 4.258-.215-.88.407a1.698 1.698 0 0 0-.306-.813 1.576 1.576 0 0 0-1.397-.668 1.436 1.436 0 0 0-.75.232c-.196.14-.337.333-.422.579-.086.237-.105.514-.057.832l.056.372c.052.343.166.635.342.877.185.24.422.423.711.547.288.115.618.163.99.144.347-.018.634-.08.862-.186.235-.116.458-.282.67-.5l1.501 1.27a2.92 2.92 0 0 1-1.118.912c-.465.214-1.035.337-1.71.371Zm7.982-.377c.684-.034 1.29-.151 1.818-.35.528-.2.931-.475 1.209-.826.278-.35.381-.766.308-1.246-.079-.522-.366-.922-.862-1.2-.488-.286-1.117-.41-1.888-.37l.017.452c.441-.022.827-.12 1.159-.292.33-.18.579-.409.746-.685.168-.276.226-.586.174-.928a1.615 1.615 0 0 0-.648-1.082c-.366-.283-.832-.484-1.4-.602a6.207 6.207 0 0 0-1.849-.114 6.66 6.66 0 0 0-1.401.252 8.71 8.71 0 0 0-1.36.522l.815 1.578a7.582 7.582 0 0 1 1.105-.393 4.787 4.787 0 0 1 1.071-.183c.269-.014.489 0 .661.044.18.034.315.092.406.174a.427.427 0 0 1 .113.577.508.508 0 0 1-.258.194c-.125.041-.282.066-.472.076l-1.299.065.216 1.427 1.519-.077c.286-.014.505.018.656.097a.504.504 0 0 1 .27.4.432.432 0 0 1-.114.369c-.09.1-.226.18-.408.24a3.008 3.008 0 0 1-.666.1 7.13 7.13 0 0 1-1.29-.052 6.675 6.675 0 0 1-1.247-.287l-.387 1.677c.525.181 1.068.31 1.629.384a9.792 9.792 0 0 0 1.657.06Zm9.927-.644-1.055-6.966 2.454-.124.553 3.65 2.394-3.799 2.272-.115 1.056 6.967-2.467.124-.555-3.663-2.367 3.81-2.285.116Zm13.53-.567a4.875 4.875 0 0 1-2.16-.357 4.166 4.166 0 0 1-1.621-1.2 3.797 3.797 0 0 1-.804-1.85c-.106-.703-.027-1.333.237-1.89a3.041 3.041 0 0 1 1.237-1.332c.568-.34 1.242-.529 2.021-.568.796-.04 1.509.092 2.14.397a3.23 3.23 0 0 1 1.448 1.351l-1.763 1.06c-.214-.317-.453-.542-.717-.675a1.562 1.562 0 0 0-.827-.192 1.477 1.477 0 0 0-.75.232 1.23 1.23 0 0 0-.473.594c-.093.247-.113.545-.06.897.055.36.166.66.333.903.176.241.391.42.644.537.253.117.523.168.808.153.286-.014.539-.1.759-.258.219-.167.386-.417.501-.75l2.055.867c-.15.62-.49 1.113-1.019 1.476-.529.363-1.192.565-1.989.605Zm4.962-.367-1.056-6.966 7.271-.367 1.055 6.966-2.453.124-.842-5.552.625.499-3.44.174.452-.554.842 5.552-2.454.124Zm13.084-.544c-.77.039-1.477-.08-2.121-.359a4.196 4.196 0 0 1-1.608-1.201 3.86 3.86 0 0 1-.791-1.851c-.106-.703-.032-1.332.224-1.89a3.054 3.054 0 0 1 1.224-1.33c.551-.34 1.211-.528 1.982-.567.77-.039 1.477.081 2.121.36.651.269 1.187.665 1.606 1.188.42.522.683 1.135.789 1.838.106.702.033 1.336-.222 1.902a3.035 3.035 0 0 1-1.222 1.344c-.551.338-1.211.527-1.982.566Zm-.294-1.94c.286-.015.527-.092.724-.232.206-.14.355-.337.447-.592.091-.264.109-.571.056-.922a2.008 2.008 0 0 0-.329-.877 1.568 1.568 0 0 0-1.4-.694c-.277.014-.519.091-.724.23a1.28 1.28 0 0 0-.447.593c-.093.247-.113.546-.06.897.053.351.164.652.333.903.176.241.382.42.618.538.245.118.505.17.782.155Zm5.215 1.575-.198-1.998.173.018.143-.008c.216-.01.377-.07.482-.18a.856.856 0 0 0 .218-.464c.041-.192.055-.413.043-.662a7.876 7.876 0 0 0-.061-.84l-.337-2.91 6.362-.32 1.056 6.966-2.467.124-.845-5.578.629.525-2.818.143.432-.605.172 1.65c.068.626.098 1.199.09 1.717-.001.51-.061.949-.18 1.317a1.75 1.75 0 0 1-.587.872c-.266.203-.628.317-1.087.34-.165.008-.353 0-.566-.023a7.095 7.095 0 0 1-.654-.084Zm10.188-.515-1.056-6.966 2.454-.124.392 2.584 2.531-.128-.391-2.584 2.467-.124 1.056 6.966-2.467.125-.37-2.442-2.532.127.37 2.442-2.454.124Zm9.766-.493-1.056-6.966 2.454-.124.553 3.65 2.394-3.8 2.272-.114 1.056 6.967-2.467.124-.555-3.663-2.366 3.81-2.285.116Zm11.552-.583-.844-5.566.614.513-2.804.142-.294-1.941 6.985-.353.294 1.941-2.805.142.464-.568.843 5.566-2.453.124Zm9.678-.373c-.83.042-1.581-.075-2.251-.352a4.259 4.259 0 0 1-1.636-1.213 3.847 3.847 0 0 1-.789-1.838c-.105-.694-.034-1.32.213-1.876a2.97 2.97 0 0 1 1.197-1.342c.541-.338 1.18-.526 1.916-.563a4.477 4.477 0 0 1 1.96.328c.613.245 1.129.63 1.548 1.152.42.523.688 1.17.805 1.941.013.086.023.185.031.297.009.111.016.215.021.31l-5.57.28-.195-1.285 4.259-.215-.88.407a1.71 1.71 0 0 0-.307-.813 1.574 1.574 0 0 0-1.396-.668 1.436 1.436 0 0 0-.75.232c-.197.14-.338.333-.422.579-.087.237-.106.514-.058.831l.057.373c.052.343.166.635.342.877.185.24.422.423.711.547.288.114.618.163.99.144.346-.018.633-.08.861-.186.236-.116.459-.282.67-.5l1.501 1.27c-.281.386-.654.69-1.118.912-.464.214-1.034.337-1.71.371Zm4.702-.354-.198-1.997c.062.005.119.011.173.017l.142-.007c.217-.011.378-.071.483-.18a.857.857 0 0 0 .218-.464c.04-.192.055-.413.043-.663a8.15 8.15 0 0 0-.061-.839l-.337-2.91 6.362-.321 1.056 6.966-2.467.125-.845-5.578.629.525-2.818.142.432-.605.171 1.65c.069.626.099 1.2.091 1.718-.002.51-.062.948-.18 1.317-.119.368-.314.659-.588.871-.265.204-.628.317-1.086.34-.165.008-.353 0-.566-.023a7.097 7.097 0 0 1-.654-.084Zm14.615-.738-.343-2.262.381.356-1.791.09c-1.048.054-1.906-.114-2.576-.504-.67-.397-1.065-.99-1.185-1.779-.127-.84.091-1.503.654-1.989.563-.486 1.381-.756 2.454-.81l3.545-.179 1.055 6.966-2.194.111Zm-4.972.251 1.455-2.741 2.493-.126-1.339 2.736-2.609.131Zm4.518-3.246-.401-2.647.416.587-1.623.082c-.329.017-.574.094-.736.232-.164.129-.225.33-.184.605.081.531.463.78 1.147.745l1.636-.083-.255.48ZM259.023 67.91a4.202 4.202 0 0 1-2.161-.447c-.653-.338-1.205-.846-1.657-1.522-.451-.677-.752-1.512-.903-2.506-.15-.994-.105-1.847.136-2.559.241-.711.632-1.266 1.173-1.665.551-.399 1.215-.618 1.994-.657.77-.04 1.482.11 2.135.448.662.338 1.219.846 1.67 1.522.451.677.752 1.512.903 2.506.151.994.105 1.847-.136 2.558-.241.712-.636 1.267-1.186 1.666-.542.399-1.198.618-1.968.657Zm-.315-2.082c.277-.014.506-.112.688-.293.19-.183.317-.465.381-.849.063-.391.047-.9-.048-1.525-.096-.635-.233-1.137-.411-1.508-.179-.37-.389-.636-.631-.797a1.21 1.21 0 0 0-.766-.22 1.055 1.055 0 0 0-.701.294c-.182.182-.309.465-.382.848-.064.383-.048.892.048 1.526.095.626.232 1.128.412 1.508.187.37.397.636.631.797.242.16.502.233.779.22Z"/><path fill="#EFD701" fill-rule="evenodd" d="M299.617 54.333c-2.094.25-3.774 1.91-4.345 4.292-.101.424-.166.855-.147.98.037.241.218.465.427.525.116.033.142.032.246-.013.167-.07.232-.191.29-.54.352-2.135 1.617-3.646 3.392-4.052.28-.064.966-.106 1.261-.077 1.103.108 2.191.633 3.113 1.503.256.242.76.812.742.84a2.538 2.538 0 0 1-.37-.076c-.321-.078-.373-.084-.454-.052-.227.092-.325.315-.266.607a.636.636 0 0 0 .266.422c.044.032.457.15 1.038.296.797.2.985.24 1.086.224a.375.375 0 0 0 .314-.3c.016-.07.059-.61.095-1.2.071-1.187.069-1.236-.084-1.44-.166-.22-.424-.285-.613-.152-.147.102-.188.236-.21.67-.011.21-.023.391-.027.404-.003.012-.094-.088-.201-.224-.93-1.175-2.049-1.994-3.278-2.398a5.186 5.186 0 0 0-2.275-.24Zm6.697 8.482c-.154.07-.218.194-.277.54a7.286 7.286 0 0 1-.326 1.235c-.583 1.516-1.755 2.563-3.175 2.835-.312.06-1.091.076-1.378.028-1.077-.179-2.029-.666-2.894-1.483-.281-.265-.76-.816-.724-.833.012-.006.174.029.36.077.31.08.349.085.45.05.214-.074.323-.288.282-.557a1.035 1.035 0 0 0-.058-.22c-.051-.11-.224-.277-.315-.306a58.255 58.255 0 0 0-.982-.253c-.749-.189-.93-.226-1.038-.211a.368.368 0 0 0-.323.3c-.016.069-.059.609-.095 1.2-.072 1.188-.069 1.236.081 1.435.169.224.426.29.616.157.147-.103.188-.236.21-.671.011-.21.023-.391.026-.404.004-.012.095.089.202.224 1.218 1.54 2.787 2.475 4.448 2.653a6.446 6.446 0 0 0 1.382-.056 4.989 4.989 0 0 0 1.531-.579c1.211-.717 2.107-1.99 2.505-3.561.117-.459.19-.882.181-1.038-.015-.258-.199-.512-.418-.576-.147-.043-.147-.043-.271.014Z" clip-rule="evenodd"/></g><g filter="url(#e)"><rect width="270" height="419" fill="url(#f)" rx="10" transform="matrix(.99873 -.05044 .14984 .98871 345.255 35.585)"/></g><g filter="url(#g)"><rect width="215" height="51" fill="url(#h)" rx="10" transform="matrix(.99873 -.05044 .14984 .98871 363.332 48.62)"/></g><path fill="#fff" d="m391.622 76.083-1.364-8.997 2.117-.107 4.679 5.929-1.116.056 2.747-6.303 2.116-.107 1.389 8.996-2.375.12-.837-5.437.402-.02-2.05 4.688-1.142.058-3.507-4.408.48-.024.824 5.437-2.363.12Zm16.492-.716c-.77.039-1.477-.08-2.121-.36a4.194 4.194 0 0 1-1.608-1.2 3.85 3.85 0 0 1-.791-1.851c-.107-.703-.032-1.333.224-1.89a3.047 3.047 0 0 1 1.224-1.33c.55-.34 1.211-.528 1.981-.567.771-.039 1.478.08 2.122.36.651.269 1.186.665 1.606 1.187.419.523.682 1.136.789 1.839.106.702.032 1.336-.222 1.902a3.038 3.038 0 0 1-1.223 1.344c-.55.338-1.211.527-1.981.566Zm-.294-1.94c.286-.015.527-.092.724-.232.205-.14.354-.337.446-.592.091-.264.11-.571.057-.923a2.008 2.008 0 0 0-.329-.877 1.583 1.583 0 0 0-.618-.538 1.55 1.55 0 0 0-.783-.155 1.38 1.38 0 0 0-.723.23 1.28 1.28 0 0 0-.447.593c-.094.247-.114.546-.06.897.053.351.164.652.333.903.176.241.382.42.618.538.244.117.505.17.782.155Zm6.056 1.532-1.056-6.966 2.454-.124.553 3.65 2.394-3.799 2.272-.115 1.056 6.967-2.467.124-.555-3.663-2.366 3.811-2.285.115Zm18.097-.732a5.283 5.283 0 0 1-1.634-.164 3.788 3.788 0 0 1-1.389-.707c-.409-.333-.759-.777-1.053-1.332-.285-.556-.488-1.237-.61-2.042a7.198 7.198 0 0 1-.083-1.498c.026-.46.106-.882.239-1.268.141-.396.341-.747.599-1.054.268-.307.594-.57.98-.788a5.43 5.43 0 0 1 1.36-.522l3.317-.815.648 2.027-2.877.702c-.176.043-.369.096-.578.159-.2.062-.391.149-.575.262a1.756 1.756 0 0 0-.498.427c-.138.18-.238.413-.299.701-.054.28-.049.624.013 1.036.018.12.037.218.058.294.028.068.053.149.076.243.021.085.046.218.073.398l-.783-.596c.153-.37.353-.686.601-.95.257-.263.565-.473.925-.629a3.55 3.55 0 0 1 1.242-.27c.683-.034 1.292.069 1.826.31.532.231.963.572 1.293 1.022.337.44.55.952.638 1.535.104.685.02 1.285-.25 1.8-.273.506-.691.911-1.255 1.216-.557.296-1.225.463-2.004.503Zm-.216-1.855c.286-.014.523-.086.713-.217.198-.13.342-.306.43-.527a1.37 1.37 0 0 0 .073-.729 1.448 1.448 0 0 0-.289-.697 1.456 1.456 0 0 0-.576-.438c-.225-.1-.48-.144-.766-.13a1.593 1.593 0 0 0-.74.207c-.2.122-.346.28-.439.475-.092.195-.118.425-.078.69a1.649 1.649 0 0 0 .879 1.225c.243.109.508.156.793.142Zm9.628 1.314c-.831.042-1.581-.075-2.251-.352a4.251 4.251 0 0 1-1.636-1.213 3.827 3.827 0 0 1-.789-1.838c-.105-.694-.034-1.32.213-1.876a2.967 2.967 0 0 1 1.196-1.342c.542-.338 1.181-.526 1.917-.563a4.476 4.476 0 0 1 1.96.328c.612.246 1.129.63 1.548 1.152.419.523.687 1.17.804 1.941.013.086.024.185.032.297l.021.31-5.57.28-.195-1.285 4.259-.215-.88.407a1.71 1.71 0 0 0-.307-.813 1.575 1.575 0 0 0-1.396-.668 1.434 1.434 0 0 0-.75.233c-.197.139-.338.332-.423.578-.086.237-.105.514-.057.832l.057.372c.052.343.166.635.342.877.185.24.422.423.711.547.288.115.618.163.99.144.346-.018.633-.08.861-.186.236-.116.459-.282.67-.5l1.501 1.27c-.282.386-.654.69-1.118.912-.465.214-1.035.337-1.71.371Zm7.982-.377c.684-.034 1.29-.151 1.818-.35.528-.2.931-.475 1.209-.826.279-.35.381-.766.309-1.246-.08-.522-.367-.922-.862-1.2-.489-.286-1.118-.41-1.888-.37l.016.452c.441-.022.828-.12 1.159-.292.331-.18.579-.409.747-.685.167-.276.225-.586.173-.928a1.607 1.607 0 0 0-.648-1.081c-.365-.284-.832-.485-1.399-.603a6.213 6.213 0 0 0-1.849-.114 6.66 6.66 0 0 0-1.401.252c-.468.136-.921.31-1.36.522l.815 1.578a7.54 7.54 0 0 1 1.105-.393 4.757 4.757 0 0 1 1.071-.183c.268-.014.488 0 .661.044a.83.83 0 0 1 .405.174.41.41 0 0 1 .173.276.427.427 0 0 1-.059.3.512.512 0 0 1-.258.195 1.85 1.85 0 0 1-.473.076l-1.298.066.216 1.426 1.519-.076c.286-.015.504.017.656.096a.509.509 0 0 1 .27.4.435.435 0 0 1-.115.37.931.931 0 0 1-.408.24 3.013 3.013 0 0 1-.665.098 7.121 7.121 0 0 1-1.29-.051 6.667 6.667 0 0 1-1.247-.287l-.387 1.678c.524.18 1.067.308 1.628.383.56.067 1.112.087 1.657.06Zm14.648-1.957-.6-3.959-1.883.095.076.67c.033.335.059.653.079.954.027.293.024.56-.009.804a1.69 1.69 0 0 1-.205.632.986.986 0 0 1-.465.386l-2.464-.2c.234-.011.415-.085.542-.221.135-.145.228-.34.278-.584.05-.244.069-.522.057-.832a11.33 11.33 0 0 0-.061-1.007l-.277-2.434 6.505-.328.894 5.9-2.467.124Zm-5.19 2.788-.514-3.394 9.01-.455.514 3.394-2.285.115-.218-1.44-4.427.224.218 1.44-2.298.116Zm13.986-2.04c-.771.038-1.478-.081-2.122-.36a4.194 4.194 0 0 1-1.608-1.2 3.86 3.86 0 0 1-.791-1.852c-.106-.702-.031-1.332.224-1.89a3.056 3.056 0 0 1 1.225-1.33c.55-.339 1.211-.528 1.981-.567.77-.038 1.477.081 2.121.36.652.269 1.187.665 1.606 1.188.42.523.683 1.135.789 1.838.107.703.033 1.337-.222 1.902a3.03 3.03 0 0 1-1.222 1.344c-.551.339-1.211.527-1.981.566Zm-.294-1.941c.285-.015.526-.092.723-.231.206-.14.355-.338.447-.593.091-.263.11-.57.056-.922-.053-.352-.162-.644-.329-.877a1.569 1.569 0 0 0-1.4-.694 1.386 1.386 0 0 0-.724.231 1.27 1.27 0 0 0-.446.593c-.094.246-.114.545-.061.896.053.352.164.653.333.903.176.242.382.421.618.539a1.6 1.6 0 0 0 .783.154Zm8.47 1.553c.683-.034 1.289-.151 1.817-.35.528-.2.931-.475 1.21-.826.278-.35.381-.766.308-1.246-.079-.523-.367-.922-.862-1.2-.488-.286-1.118-.41-1.888-.37l.016.452c.442-.022.828-.12 1.16-.292.33-.18.579-.409.746-.685.168-.276.225-.586.173-.928a1.61 1.61 0 0 0-.647-1.081c-.366-.284-.833-.485-1.4-.603a6.21 6.21 0 0 0-1.849-.114 6.66 6.66 0 0 0-1.401.252c-.468.136-.921.31-1.36.522l.815 1.578a7.54 7.54 0 0 1 1.105-.393 4.776 4.776 0 0 1 1.071-.183 2.31 2.31 0 0 1 .661.044c.179.034.315.092.406.174a.412.412 0 0 1 .172.276.427.427 0 0 1-.059.3.512.512 0 0 1-.258.195c-.125.041-.282.066-.473.076l-1.298.066.216 1.426 1.519-.077c.286-.014.504.018.656.097a.509.509 0 0 1 .27.4.432.432 0 0 1-.114.37c-.09.099-.226.179-.409.24a3.004 3.004 0 0 1-.665.098 7.121 7.121 0 0 1-1.29-.051 6.667 6.667 0 0 1-1.247-.287l-.387 1.677c.525.181 1.067.31 1.628.384.56.067 1.112.087 1.658.06Zm5.5-.42-1.056-6.966 3.778-.191c.909-.046 1.643.076 2.201.368.558.282.881.715.969 1.298.084.557-.086 1.014-.512 1.373-.418.349-1.025.543-1.821.584l.143-.525c.857-.044 1.525.082 2.006.377.488.287.778.73.869 1.33.093.616-.075 1.117-.505 1.501-.422.384-1.126.601-2.112.651l-3.96.2Zm1.967-1.692 1.532-.078c.303-.015.52-.078.652-.188.13-.119.179-.285.147-.5-.034-.222-.132-.382-.295-.477-.154-.096-.378-.136-.673-.121l-1.558.078.195 1.286Zm-.391-2.584 1.35-.068c.294-.015.503-.077.626-.187.121-.118.167-.28.135-.486-.031-.206-.123-.352-.276-.44-.154-.095-.378-.136-.672-.121l-1.35.068.187 1.234Zm10.684 3.773c-.77.04-1.477-.08-2.121-.359a4.194 4.194 0 0 1-1.608-1.2 3.85 3.85 0 0 1-.791-1.852c-.107-.702-.032-1.332.224-1.89a3.048 3.048 0 0 1 1.224-1.33c.551-.339 1.211-.528 1.981-.566.771-.04 1.478.08 2.122.359.651.269 1.187.665 1.606 1.188.419.523.682 1.135.789 1.838.106.703.032 1.337-.222 1.902a3.032 3.032 0 0 1-1.223 1.344c-.55.339-1.21.527-1.981.566Zm-.294-1.94c.286-.015.527-.092.724-.231.205-.14.354-.338.446-.593.091-.263.11-.57.057-.922a2.008 2.008 0 0 0-.329-.877 1.582 1.582 0 0 0-.618-.539 1.551 1.551 0 0 0-.783-.155 1.382 1.382 0 0 0-.723.231c-.197.14-.346.337-.447.593-.093.246-.114.545-.06.896.053.352.164.653.333.903.176.242.382.421.618.539.244.117.505.168.782.154Zm6.056 1.533-1.056-6.967 2.454-.124.391 2.584 2.532-.128-.391-2.584 2.466-.124 1.056 6.966-2.467.125-.37-2.442-2.532.128.371 2.442-2.454.124Zm13.933-.704-.197-1.298-.217-.313-.363-2.39c-.058-.386-.224-.676-.498-.87-.266-.202-.659-.29-1.178-.263-.337.017-.671.09-1 .219-.331.12-.603.28-.817.481l-1.082-1.616c.359-.277.805-.498 1.338-.663a6.391 6.391 0 0 1 1.642-.304c1.143-.057 2.065.16 2.768.65.709.483 1.148 1.277 1.316 2.382l.586 3.869-2.298.116Zm-2.06.22c-.563.03-1.053-.041-1.471-.21a2.471 2.471 0 0 1-1.013-.726 2.263 2.263 0 0 1-.464-1.077c-.065-.429-.012-.803.157-1.122.177-.329.483-.586.917-.772.433-.194 1.012-.31 1.74-.347l1.661-.084.193 1.273-1.324.067c-.398.02-.67.098-.815.235-.136.137-.188.312-.156.526a.703.703 0 0 0 .325.502c.184.12.419.173.704.159.269-.014.501-.09.698-.23.205-.148.338-.362.4-.642l.474.883c-.057.486-.257.863-.6 1.131-.336.259-.811.404-1.426.435ZM554.048 67.88l-.242-1.594 2.925-3.321c.208-.235.356-.441.442-.618.096-.178.15-.336.164-.475.021-.148.023-.282.004-.401a.938.938 0 0 0-.401-.667c-.216-.153-.518-.22-.907-.2a1.863 1.863 0 0 0-.889.265 1.53 1.53 0 0 0-.602.691l-2.068-.958c.252-.582.672-1.06 1.261-1.436.588-.375 1.328-.585 2.22-.63.701-.036 1.332.045 1.894.24.562.197 1.021.493 1.378.89.365.396.59.872.674 1.43.044.29.049.584.016.88a2.797 2.797 0 0 1-.316.935c-.169.328-.439.7-.813 1.116l-2.326 2.604-.565-.878 4.921-.249.306 2.018-7.076.358Z"/><path fill="#EFD701" fill-rule="evenodd" d="M597.617 53.332c-2.095.243-3.787 1.825-4.376 4.089-.104.403-.172.812-.154.93.035.23.215.443.423.499.116.031.141.03.246-.013.167-.068.233-.182.293-.515.369-2.028 1.645-3.467 3.421-3.857a6.011 6.011 0 0 1 1.262-.077c1.101.1 2.186.597 3.1 1.42.255.23.754.77.736.797a2.63 2.63 0 0 1-.37-.071c-.319-.074-.372-.08-.453-.048-.227.087-.327.3-.27.577a.59.59 0 0 0 .262.4c.044.03.456.14 1.035.278.795.19.983.226 1.085.21a.373.373 0 0 0 .316-.286c.016-.065.063-.578.103-1.14.081-1.128.079-1.174-.072-1.367-.164-.209-.422-.27-.612-.144-.147.098-.19.225-.215.639a7.585 7.585 0 0 1-.03.383c-.003.011-.093-.084-.199-.212-.921-1.114-2.034-1.89-3.259-2.27a5.422 5.422 0 0 0-2.272-.222Zm6.63 8.041c-.154.067-.219.186-.28.514-.073.389-.21.87-.336 1.174-.594 1.442-1.774 2.44-3.195 2.702-.313.058-1.091.075-1.378.03-1.075-.167-2.023-.628-2.882-1.402-.279-.251-.753-.773-.717-.79a2.51 2.51 0 0 1 .36.073c.308.076.347.08.448.046.215-.07.326-.274.287-.53a.896.896 0 0 0-.057-.208c-.05-.104-.221-.263-.312-.29a61.36 61.36 0 0 0-.98-.238c-.747-.178-.927-.212-1.035-.198a.365.365 0 0 0-.326.286c-.017.065-.063.578-.104 1.14-.081 1.129-.078 1.175.07 1.363.167.213.424.275.615.148.147-.098.19-.225.215-.638.012-.2.025-.372.029-.383.004-.012.094.083.2.211 1.206 1.46 2.768 2.345 4.426 2.51a6.779 6.779 0 0 0 1.382-.057 5.2 5.2 0 0 0 1.535-.554c1.216-.684 2.121-1.897 2.531-3.39.12-.436.197-.838.189-.986-.013-.245-.196-.486-.414-.546-.147-.04-.146-.04-.271.013Z" clip-rule="evenodd"/><g filter="url(#i)"><rect width="239" height="131" fill="#fff" rx="10" transform="matrix(.99873 -.05044 .14984 .98871 378.016 145.514)"/></g><g filter="url(#j)"><rect width="100" height="19" fill="url(#k)" rx="9.5" transform="matrix(.99873 -.05044 .14984 .98871 400.238 139.41)"/></g><g filter="url(#l)"><rect width="47" height="47" fill="url(#m)" rx="23.5" transform="matrix(.99873 -.05044 .14984 .98871 548.799 156.813)"/></g><path fill="#fff" d="M566.76 183.932a2.587 2.587 0 0 1-.447-.017 24.17 24.17 0 0 1-.494-.065l-.104-1.459c.127.028.259.039.398.032.363-.018.631-.179.803-.481.171-.311.261-.756.269-1.335a17.677 17.677 0 0 0-.127-2.13l-.435-3.734 6.687-.338 1.363 8.997-1.661.084-1.212-7.994.452.391-4.324.219.3-.443.314 2.678c.109.893.167 1.68.175 2.362.007.681-.054 1.259-.183 1.731-.121.464-.324.824-.608 1.08-.284.256-.673.397-1.166.422Zm11.132-.692-1.363-8.997 4.064-.206c1.021-.051 1.848.11 2.48.484.631.365 1.003.92 1.116 1.666.112.737-.075 1.32-.559 1.751-.485.421-1.174.655-2.065.7l.163-.475c1.013-.051 1.827.111 2.442.486.615.375.98.943 1.096 1.706.118.78-.079 1.407-.592 1.882-.514.466-1.337.728-2.471.785l-4.311.218Zm1.467-1.369 2.597-.132c.589-.029 1.018-.159 1.289-.388.269-.239.369-.585.3-1.039-.069-.454-.27-.776-.604-.967-.336-.198-.798-.283-1.386-.253l-2.597.131.401 2.648Zm-.586-3.869 2.259-.114c.545-.028.945-.156 1.198-.385.252-.237.347-.561.284-.972-.065-.429-.256-.743-.574-.943-.318-.2-.75-.286-1.295-.258l-2.26.114.388 2.558Z"/><path fill="#263039" d="m411.377 192.024-.876-5.784 1.389-.07.877 5.784-1.39.07Zm-2.639-2.134-.194-1.285 5.985-.302.195 1.285-5.986.302Zm10.012 3.38 2.49-8.518.554.723-5.154.26.682-.85.355 2.339-1.571.08-.447-2.944 7.063-.357.17 1.119-2.337 8.057-1.805.091Zm13.748 1.819a10.647 10.647 0 0 1-1.591-2.64 13.918 13.918 0 0 1-.905-3.296c-.179-1.182-.213-2.294-.1-3.336.12-1.051.377-1.971.772-2.759l1.545-.078a10.988 10.988 0 0 0-.73 2.951 12.82 12.82 0 0 0 .11 3.142c.168 1.105.447 2.144.839 3.117.399.965.934 1.905 1.605 2.82l-1.545.079Zm4.188-2.725 2.49-8.518.554.723-5.154.26.682-.85.354 2.339-1.571.08-.446-2.944 7.063-.356.17 1.118-2.338 8.057-1.804.091Zm8.61-.434-1.266-8.355.855.721-2.662.134-.212-1.401 3.609-.182 1.364 8.997-1.688.086Zm7.171-.233a6.935 6.935 0 0 1-1.923-.175 5.325 5.325 0 0 1-1.649-.694l.517-1.334a4.767 4.767 0 0 0 2.809.752c.598-.03 1.046-.178 1.346-.444.309-.266.431-.609.367-1.029a1.42 1.42 0 0 0-.333-.734c-.171-.207-.447-.357-.827-.45-.372-.094-.87-.125-1.493-.093l-2.194.11-.275-4.92 5.337-.27.212 1.401-4.713.238.762-.841.205 3.681-1.002-.74 1.831-.092c.9-.046 1.641.038 2.222.25.589.204 1.041.509 1.356.916.322.398.523.863.604 1.394a2.624 2.624 0 0 1-.172 1.459c-.193.451-.538.822-1.035 1.115-.487.292-1.138.459-1.952.5Zm6.837 2.038-1.545.078c.394-.97.638-1.949.733-2.939.101-.998.068-2.049-.099-3.155a13.321 13.321 0 0 0-.85-3.104 12.715 12.715 0 0 0-1.607-2.833l1.545-.078c.635.736 1.165 1.616 1.591 2.639a13.93 13.93 0 0 1 .905 3.296c.179 1.183.212 2.295.1 3.337-.114 1.033-.371 1.953-.773 2.759Zm10.795-2.929a6.894 6.894 0 0 1-1.923-.175 5.314 5.314 0 0 1-1.649-.693l.517-1.335c.369.249.8.444 1.292.583a4.763 4.763 0 0 0 1.517.169c.597-.03 1.046-.178 1.346-.443.308-.266.431-.609.367-1.029a1.42 1.42 0 0 0-.334-.735c-.171-.207-.446-.357-.827-.45-.371-.093-.869-.124-1.492-.093l-2.194.111-.275-4.921 5.336-.269.212 1.401-4.713.238.763-.842.204 3.681-1.002-.739 1.831-.093c.9-.045 1.641.038 2.223.251.589.203 1.041.508 1.355.915.322.399.524.863.604 1.395a2.634 2.634 0 0 1-.171 1.459c-.194.45-.538.821-1.035 1.114-.488.292-1.138.459-1.952.5Zm4.76-2.429-.175-1.157 3.601-6.023 1.804-.091-3.536 6.02-.882-.215 7.205-.364.215 1.414-8.232.416Zm5.296 1.792-.31-2.044-.163-1.416-.274-1.813 1.584-.08.798 5.27-1.635.083Zm8.558-.303c-.822.042-1.553-.094-2.194-.407a3.973 3.973 0 0 1-1.58-1.449c-.412-.644-.691-1.45-.837-2.418-.156-1.028-.102-1.908.162-2.638.273-.73.715-1.296 1.326-1.698.619-.403 1.366-.626 2.24-.67a5.99 5.99 0 0 1 1.333.075c.438.073.82.2 1.144.382l-.432 1.291a2.61 2.61 0 0 0-.869-.292 3.908 3.908 0 0 0-.924-.057c-.857.043-1.497.339-1.92.887-.423.548-.557 1.332-.402 2.351.024.163.058.356.1.578.041.214.105.431.19.651l-.605-.539c.103-.36.271-.662.504-.907.241-.253.538-.45.892-.589.363-.139.765-.22 1.206-.242a3.77 3.77 0 0 1 1.65.267c.501.199.922.501 1.262.907.34.397.552.875.636 1.432.09.591.02 1.112-.208 1.564a2.54 2.54 0 0 1-1.04 1.076c-.466.265-1.01.414-1.634.445Zm-.289-1.306c.346-.018.644-.093.894-.227.249-.142.43-.332.542-.571a1.35 1.35 0 0 0 .111-.822c-.072-.471-.293-.835-.663-1.093-.371-.258-.833-.372-1.387-.344a2 2 0 0 0-.929.254 1.446 1.446 0 0 0-.568.572c-.12.24-.158.509-.113.809.042.274.154.523.336.747.182.224.422.398.72.521a2.48 2.48 0 0 0 1.057.154Zm4.891-1.983-.202-1.337 3.57-.18.203 1.337-3.571.18Zm7.623-6.653c.831-.042 1.563.098 2.197.42.64.313 1.166.791 1.578 1.435.411.644.69 1.45.837 2.419.156 1.028.097 1.907-.176 2.638-.264.73-.702 1.296-1.312 1.698-.611.402-1.358.625-2.241.67a6.104 6.104 0 0 1-1.332-.075 3.637 3.637 0 0 1-1.144-.383l.432-1.291c.276.15.566.252.871.306.303.045.611.06.922.044.857-.043 1.497-.339 1.92-.887.423-.548.557-1.332.402-2.352a13.559 13.559 0 0 0-.098-.564 3.79 3.79 0 0 0-.193-.664l.605.539a2.08 2.08 0 0 1-.501.919c-.242.245-.54.437-.894.576-.354.139-.756.22-1.206.242a3.931 3.931 0 0 1-1.648-.253 3.28 3.28 0 0 1-1.263-.908 2.868 2.868 0 0 1-.637-1.444c-.091-.6-.022-1.121.207-1.565.229-.451.575-.81 1.041-1.075.474-.266 1.019-.414 1.633-.445Zm.29 1.306a1.976 1.976 0 0 0-.893.239c-.25.134-.435.32-.556.559-.113.231-.146.504-.098.821.071.472.292.836.663 1.094.37.257.832.372 1.386.344.364-.018.675-.099.932-.241.256-.151.445-.347.565-.586.12-.248.158-.517.113-.808a1.48 1.48 0 0 0-.335-.748 1.782 1.782 0 0 0-.72-.52c-.298-.123-.65-.175-1.057-.154Zm10.629 7.467a3.898 3.898 0 0 1-2.029-.441c-.626-.331-1.155-.831-1.588-1.5-.434-.678-.726-1.509-.875-2.494-.15-.986-.112-1.83.113-2.532.224-.71.594-1.26 1.111-1.649.525-.389 1.147-.602 1.866-.638a3.843 3.843 0 0 1 2.029.441c.626.331 1.156.836 1.59 1.513.441.669.737 1.495.886 2.481.149.985.108 1.834-.125 2.545-.225.702-.595 1.247-1.112 1.636-.517.389-1.139.601-1.866.638Zm-.22-1.452c.424-.022.775-.152 1.053-.39.276-.247.466-.611.567-1.091.111-.48.111-1.08.002-1.8-.11-.729-.291-1.319-.543-1.773-.245-.463-.54-.797-.885-1.004a1.952 1.952 0 0 0-1.156-.292 1.668 1.668 0 0 0-1.038.402c-.278.239-.472.598-.583 1.079-.103.471-.099 1.071.012 1.8.109.719.285 1.311.53 1.773.253.462.553.801.9 1.017.354.206.734.299 1.141.279Zm5.561-1.874-.203-1.337 3.57-.18.203 1.337-3.57.18Zm8.564 2.624a6.939 6.939 0 0 1-1.924-.175c-.634-.158-1.184-.389-1.648-.694l.53-1.335c.369.249.8.443 1.292.583.492.139.993.196 1.504.17.606-.031 1.059-.175 1.361-.432.299-.265.418-.608.354-1.028a1.322 1.322 0 0 0-.615-.953c-.348-.224-.869-.319-1.561-.284l-.831.042-.173-1.144 2.133-3.19.316.619-4.882.246-.212-1.401 6.193-.313.169 1.119-2.133 3.19-.961-.47.507-.025c1.116-.057 1.989.15 2.619.619a2.694 2.694 0 0 1 1.13 1.847c.076.505.017.979-.177 1.42-.195.442-.541.809-1.037 1.102-.489.283-1.14.446-1.954.487Zm6.784-.472-1.266-8.355.855.721-2.662.135-.212-1.401 3.61-.183 1.363 8.997-1.688.086ZM411.706 214.548l1.888-6.372 1.15-.058 3.785 6.085-1.223.062-3.287-5.492.468-.023-1.576 5.737-1.205.061Zm1.085-1.507.177-.924 3.398-.172.452.892-4.027.204Zm7.026 1.097-.72-4.752 1.123-.056.293 1.931 2.418-.122-.293-1.931 1.124-.057.72 4.752-1.123.056-.285-1.877-2.418.122.285 1.877-1.124.057Zm9.533-.481-.146-.961-.094-.202-.255-1.682c-.049-.326-.186-.573-.411-.741-.226-.174-.539-.251-.941-.23-.269.013-.53.068-.781.165a1.72 1.72 0 0 0-.603.38l-.564-.788a2.33 2.33 0 0 1 .851-.482 3.952 3.952 0 0 1 1.092-.208c.695-.035 1.256.104 1.684.417.433.307.702.805.806 1.493l.422 2.785-1.06.054Zm-1.501.138a2.454 2.454 0 0 1-.971-.13 1.773 1.773 0 0 1-.706-.475 1.466 1.466 0 0 1-.328-.728c-.04-.267-.013-.51.08-.73.099-.221.287-.4.561-.54.275-.139.655-.221 1.141-.246l1.393-.07.112.738-1.313.067c-.383.019-.631.094-.744.226a.526.526 0 0 0-.131.455.644.644 0 0 0 .316.468c.18.11.413.158.701.144.276-.014.512-.089.709-.224a.923.923 0 0 0 .392-.576l.29.658c-.065.284-.227.51-.485.679-.253.168-.592.263-1.017.284Zm6.595-.333a3.028 3.028 0 0 1-1.396-.243 2.777 2.777 0 0 1-1.049-.826 2.63 2.63 0 0 1-.523-1.238c-.071-.474-.024-.898.143-1.271a2.02 2.02 0 0 1 .786-.91c.364-.227.798-.354 1.301-.379.467-.024.892.05 1.275.222.387.166.701.425.942.778l-.788.542a1.576 1.576 0 0 0-.606-.472 1.51 1.51 0 0 0-.689-.127 1.448 1.448 0 0 0-.719.216c-.204.13-.352.311-.443.543-.093.225-.116.493-.069.801.047.309.15.572.31.791.159.214.359.374.598.481.24.108.498.154.773.141.24-.013.454-.077.641-.194a1.19 1.19 0 0 0 .455-.525l.938.454a1.69 1.69 0 0 1-.692.869c-.325.208-.721.324-1.188.347Zm4.441-.287-.618-4.075.301.253-1.95.099-.143-.943 4.494-.227.143.943-1.941.098.22-.28.617 4.075-1.123.057Zm6.981-.352-.146-.961-.094-.202-.254-1.682c-.05-.326-.187-.573-.412-.741-.225-.174-.539-.251-.94-.231a2.54 2.54 0 0 0-.781.165 1.726 1.726 0 0 0-.604.381l-.563-.788c.228-.209.511-.369.851-.482a3.952 3.952 0 0 1 1.091-.208c.695-.035 1.257.104 1.685.417.433.307.701.805.806 1.493l.422 2.785-1.061.054Zm-1.501.138a2.449 2.449 0 0 1-.97-.13 1.768 1.768 0 0 1-.706-.476 1.45 1.45 0 0 1-.328-.727 1.328 1.328 0 0 1 .079-.731c.1-.22.287-.4.562-.539.275-.139.655-.221 1.14-.246l1.393-.07.112.738-1.312.067c-.384.019-.632.094-.745.225a.526.526 0 0 0-.13.455c.03.202.136.358.315.469.18.11.414.158.701.144a1.34 1.34 0 0 0 .709-.225.92.92 0 0 0 .393-.575l.29.658c-.066.284-.228.51-.486.679-.252.168-.591.263-1.017.284Zm6.595-.333a3.052 3.052 0 0 1-1.395-.243 2.77 2.77 0 0 1-1.049-.826 2.613 2.613 0 0 1-.523-1.238c-.072-.475-.025-.898.142-1.271.166-.379.428-.683.786-.91.364-.227.798-.354 1.301-.379.468-.024.893.05 1.275.222.387.166.701.425.942.778l-.787.541a1.583 1.583 0 0 0-.606-.471 1.501 1.501 0 0 0-.69-.127 1.451 1.451 0 0 0-.719.216c-.203.13-.351.311-.443.542-.092.226-.115.493-.069.802.047.308.151.572.311.791.159.213.358.374.598.481.24.108.497.154.773.14.24-.012.453-.076.641-.193.193-.118.345-.293.455-.525l.938.454a1.697 1.697 0 0 1-.693.869c-.324.208-.72.323-1.188.347Zm3.479-.238-.72-4.752 1.123-.057.475 3.132 2.177-3.266 1.024-.052.721 4.752-1.124.057-.475-3.132-2.168 3.265-1.033.053Zm9.808-.496-.246-1.619.19.178-1.438.073c-.659.033-1.198-.077-1.617-.331-.414-.26-.66-.651-.739-1.173-.085-.558.049-.992.4-1.302.358-.311.869-.484 1.534-.517l2.202-.111.72 4.751-1.006.051Zm-3.452.175 1.019-1.881 1.151-.058-.966 1.878-1.204.061Zm3.152-2.15-.323-2.136.206.286-1.321.066c-.348.018-.608.097-.78.237-.167.134-.229.343-.185.628.081.534.472.783 1.173.748l1.357-.069-.127.24Z"/><path fill="#EFD701" d="m413.575 151.688-.876-5.784.592.499-1.843.093-.147-.97 2.499-.126.944 6.229-1.169.059Zm5.406-.183c-.522.026-.986-.028-1.393-.163a2.335 2.335 0 0 1-.988-.605 1.816 1.816 0 0 1-.466-.981c-.057-.379-.004-.705.16-.976s.428-.485.791-.641c.363-.156.811-.247 1.344-.274.533-.027 1.002.018 1.406.135.41.117.738.304.982.56.249.251.402.563.459.937.057.379 0 .717-.173 1.013-.167.289-.434.521-.8.695-.36.173-.801.273-1.322.3Zm-.138-.908c.431-.022.76-.128.984-.319.225-.19.313-.443.266-.757a.962.962 0 0 0-.488-.711c-.279-.165-.634-.237-1.065-.215-.432.022-.757.128-.976.318-.218.19-.304.44-.258.748a.975.975 0 0 0 .481.72c.273.166.625.238 1.056.216Zm-.322-2.127c-.486.025-.912-.017-1.278-.124a2.077 2.077 0 0 1-.894-.519 1.608 1.608 0 0 1-.413-.876c-.054-.356-.005-.666.148-.931.158-.271.404-.487.736-.647.332-.16.728-.252 1.19-.275a3.44 3.44 0 0 1 1.263.151c.376.125.682.312.919.563.236.246.382.546.436.902.052.344.001.646-.153.904-.149.253-.39.453-.724.602-.335.142-.745.226-1.23.25Zm-.108-.712c.371-.018.653-.11.846-.275a.691.691 0 0 0 .226-.658.846.846 0 0 0-.431-.632c-.245-.143-.547-.206-.907-.188-.359.019-.635.11-.828.275-.192.165-.267.387-.225.666a.87.87 0 0 0 .412.625c.239.143.541.206.907.187Zm5.14 3.489a.803.803 0 0 1-.553-.179.807.807 0 0 1-.296-.523c-.034-.225.01-.407.134-.544a.66.66 0 0 1 .491-.231.798.798 0 0 1 .552.178.768.768 0 0 1 .297.523.668.668 0 0 1-.135.545.666.666 0 0 1-.49.231Zm2.808-.205-.876-5.784.591.499-1.842.093-.147-.97 2.499-.126.944 6.229-1.169.059Zm5.504-.188a2.696 2.696 0 0 1-1.405-.306c-.433-.229-.799-.575-1.099-1.038-.3-.469-.502-1.045-.606-1.727-.103-.682-.077-1.266.079-1.752.155-.493.411-.873.769-1.142.363-.27.794-.417 1.291-.442.504-.025.972.076 1.405.306.434.229.8.578 1.101 1.047.306.463.51 1.035.613 1.717.104.683.075 1.27-.086 1.762-.156.486-.412.864-.77 1.133-.358.269-.788.416-1.292.442Zm-.152-1.006c.294-.015.537-.105.729-.27.191-.171.322-.422.393-.755.076-.332.076-.748.001-1.246-.076-.504-.202-.914-.376-1.228-.17-.32-.374-.552-.613-.695a1.359 1.359 0 0 0-.8-.202 1.16 1.16 0 0 0-.719.279c-.192.165-.327.414-.403.747-.071.326-.069.741.008 1.245.075.499.198.908.367 1.228.175.32.383.555.623.704.245.143.508.208.79.193Zm4.617.753a.802.802 0 0 1-.553-.178.807.807 0 0 1-.296-.523c-.034-.225.011-.407.135-.545a.664.664 0 0 1 .49-.231.799.799 0 0 1 .552.179.766.766 0 0 1 .297.523.665.665 0 0 1-.135.544.659.659 0 0 1-.49.231Zm1.94-.16-.117-.774 2.142-2.476c.181-.206.31-.386.39-.54.079-.153.124-.293.135-.419a1.323 1.323 0 0 0-.001-.367.887.887 0 0 0-.396-.644c-.222-.15-.525-.216-.909-.196a1.995 1.995 0 0 0-.811.202c-.23.119-.418.293-.564.522l-.913-.582c.196-.338.488-.607.874-.806a3.255 3.255 0 0 1 1.361-.347c.455-.023.862.031 1.22.163.363.125.655.316.875.574.226.258.367.571.423.938.031.202.034.405.011.61a1.931 1.931 0 0 1-.211.638 4.164 4.164 0 0 1-.545.772l-1.842 2.128-.309-.424 3.677-.185.148.978-4.638.235Zm8.4-.335a2.694 2.694 0 0 1-1.405-.306c-.433-.229-.8-.575-1.099-1.038-.301-.469-.503-1.045-.606-1.727-.103-.682-.077-1.266.079-1.752.154-.492.411-.873.768-1.142a2.319 2.319 0 0 1 1.292-.442c.503-.025.972.077 1.405.306.433.229.8.578 1.101 1.047.305.463.51 1.035.613 1.718.104.682.075 1.269-.086 1.761-.156.486-.413.864-.77 1.133-.358.269-.789.417-1.292.442Zm-.152-1.005a1.18 1.18 0 0 0 .729-.27c.191-.171.322-.423.392-.755.077-.333.077-.749.002-1.247-.077-.504-.202-.913-.376-1.227-.17-.32-.374-.552-.613-.696a1.352 1.352 0 0 0-.801-.201 1.15 1.15 0 0 0-.718.278c-.192.165-.327.414-.403.747-.072.326-.069.741.007 1.246.076.498.198.907.368 1.228.175.319.383.554.623.703.245.143.508.208.79.194Zm3.922.725-.118-.774 2.143-2.476c.18-.206.31-.386.389-.539.08-.154.125-.293.136-.42a1.363 1.363 0 0 0-.001-.367.893.893 0 0 0-.397-.644c-.222-.15-.525-.215-.908-.196a2 2 0 0 0-.812.203 1.473 1.473 0 0 0-.564.521l-.912-.581c.196-.339.488-.608.874-.807.392-.205.845-.32 1.36-.346a3.08 3.08 0 0 1 1.221.162c.363.125.654.317.875.575.226.257.367.57.423.938.03.201.034.404.01.609a1.908 1.908 0 0 1-.211.638 4.12 4.12 0 0 1-.544.772l-1.842 2.128-.309-.423 3.676-.186.149.979-4.638.234Zm6.768-.342-.876-5.784.592.499-1.843.093-.147-.97 2.499-.126.944 6.229-1.169.059Zm12.674-.64-.877-5.784.592.499-1.843.093-.147-.97 2.499-.126.944 6.229-1.168.059Zm3.917-.198 1.724-5.897.384.5-3.568.181.472-.589.245 1.619-1.087.055-.309-2.037 4.89-.247.117.774-1.618 5.578-1.25.063Zm4.888-3.6a.803.803 0 0 1-.552-.178.81.81 0 0 1-.297-.524c-.034-.225.011-.407.135-.544a.657.657 0 0 1 .49-.231.802.802 0 0 1 .553.178.77.77 0 0 1 .296.523.66.66 0 0 1-.135.545.657.657 0 0 1-.49.231Zm.514 3.39a.803.803 0 0 1-.552-.178.807.807 0 0 1-.297-.523c-.034-.226.011-.407.135-.545a.657.657 0 0 1 .49-.231.803.803 0 0 1 .552.178.77.77 0 0 1 .297.523.668.668 0 0 1-.135.545.657.657 0 0 1-.49.231Zm1.852-.156-.117-.774 2.143-2.476c.18-.206.31-.386.389-.539.079-.154.125-.294.136-.42a1.36 1.36 0 0 0-.002-.367.887.887 0 0 0-.396-.644c-.222-.15-.525-.215-.908-.196a1.996 1.996 0 0 0-.812.202c-.23.12-.418.293-.564.522l-.912-.582c.196-.338.487-.607.874-.806a3.25 3.25 0 0 1 1.36-.347c.456-.023.862.032 1.22.163.363.125.655.317.875.574.227.258.368.571.423.939.031.201.034.404.011.609a1.931 1.931 0 0 1-.211.638 4.2 4.2 0 0 1-.544.772l-1.842 2.128-.309-.424 3.676-.185.148.979-4.638.234Zm6.926-6.716c.575-.029 1.082.068 1.521.291a2.68 2.68 0 0 1 1.092.994c.285.445.478 1.004.58 1.674.108.712.067 1.321-.122 1.826a2.301 2.301 0 0 1-.909 1.176c-.422.278-.939.433-1.55.464a4.259 4.259 0 0 1-.923-.052 2.522 2.522 0 0 1-.792-.265l.299-.894c.191.104.392.175.603.212.21.031.423.041.639.03.593-.03 1.036-.234 1.328-.614.293-.379.386-.922.279-1.628-.017-.113-.04-.243-.068-.391a2.721 2.721 0 0 0-.133-.46l.419.374c-.065.248-.181.46-.348.636a1.75 1.75 0 0 1-.619.399 2.65 2.65 0 0 1-.835.168 2.728 2.728 0 0 1-1.14-.176 2.265 2.265 0 0 1-.874-.628 1.988 1.988 0 0 1-.442-1c-.063-.415-.015-.776.144-1.083.158-.313.398-.561.72-.745a2.541 2.541 0 0 1 1.131-.308Zm.201.904c-.24.012-.446.068-.618.166a.88.88 0 0 0-.386.387.94.94 0 0 0-.067.568c.049.327.202.579.459.757.256.179.576.258.959.239.252-.013.467-.069.645-.167a.985.985 0 0 0 .392-.406.931.931 0 0 0 .078-.56 1.034 1.034 0 0 0-.232-.517 1.237 1.237 0 0 0-.499-.36 1.686 1.686 0 0 0-.731-.107Z"/><path fill="#EF002B" d="M417.506 233.274a2.694 2.694 0 0 1-1.405-.306c-.433-.229-.8-.575-1.099-1.038-.301-.469-.503-1.045-.606-1.727-.104-.682-.077-1.266.078-1.752.155-.493.412-.873.769-1.142.364-.27.795-.417 1.292-.442a2.66 2.66 0 0 1 1.405.306c.433.229.8.578 1.101 1.047.305.463.51 1.035.613 1.717.104.683.075 1.27-.086 1.762-.156.486-.413.864-.77 1.133-.358.269-.789.416-1.292.442Zm-.152-1.006a1.18 1.18 0 0 0 .729-.27c.191-.171.322-.422.392-.755.077-.332.077-.748.002-1.246-.077-.504-.202-.914-.377-1.228-.169-.32-.373-.552-.612-.695a1.36 1.36 0 0 0-.801-.202 1.157 1.157 0 0 0-.718.279c-.193.165-.327.414-.403.747-.072.326-.069.741.007 1.245.076.499.198.908.368 1.228.175.32.382.555.622.704.246.143.509.208.791.193Zm7.304.555-.72-4.752 4.602-.232.72 4.751-1.114.057-.616-4.067.299.245-2.885.146.222-.271.616 4.066-1.124.057Zm8.717-.378a2.88 2.88 0 0 1-1.36-.245 2.794 2.794 0 0 1-1.04-.826 2.623 2.623 0 0 1-.523-1.238c-.072-.474-.024-.898.143-1.271a2.03 2.03 0 0 1 .777-.909c.352-.227.774-.353 1.265-.378.497-.025.954.056 1.368.245.421.188.767.457 1.038.808.276.351.451.766.524 1.247.071.469.023.892-.143 1.271-.16.379-.418.685-.775.918-.352.227-.777.353-1.274.378Zm-.145-.952c.276-.014.513-.085.71-.215.198-.129.34-.31.426-.541.091-.232.114-.499.068-.802a1.706 1.706 0 0 0-.308-.782 1.434 1.434 0 0 0-.582-.491 1.577 1.577 0 0 0-.755-.141 1.396 1.396 0 0 0-.71.215c-.192.129-.334.31-.425.542-.093.225-.116.493-.069.801.046.303.149.563.309.782.16.219.354.383.581.491.234.108.486.155.755.141Zm4.256.682-.72-4.752 4.602-.232.72 4.752-1.114.056-.616-4.067.299.245-2.885.146.222-.271.616 4.066-1.124.057Zm11.413-.576-.72-4.752 1.123-.057.72 4.752-1.123.057Zm-2.991-3.059c.617-.032 1.105.081 1.464.338.365.257.586.634.661 1.132.078.517-.04.929-.356 1.238-.31.302-.792.467-1.447.494l-2.176.101-.72-4.751 1.123-.057.236 1.557 1.215-.052Zm.1 2.389c.33-.011.571-.092.724-.243.152-.151.207-.363.166-.636-.042-.273-.158-.464-.35-.574-.187-.116-.448-.169-.785-.158l-.954.039.244 1.611.955-.039Zm6.972.463-.618-4.075.301.254-1.95.098-.143-.943 4.494-.227.143.943-1.941.098.22-.28.617 4.076-1.123.056Zm6.007-.24a2.892 2.892 0 0 1-1.36-.245 2.807 2.807 0 0 1-1.04-.827 2.62 2.62 0 0 1-.523-1.237c-.071-.475-.024-.899.143-1.272a2.03 2.03 0 0 1 .777-.909c.352-.227.774-.353 1.265-.378.497-.025.954.057 1.369.245.421.188.766.458 1.037.809.276.35.451.766.524 1.246.071.469.023.893-.142 1.272-.16.378-.419.684-.776.918-.352.227-.777.353-1.274.378Zm-.145-.952c.276-.014.513-.086.71-.215.198-.13.34-.311.426-.542.091-.232.114-.499.068-.802a1.706 1.706 0 0 0-.308-.782 1.442 1.442 0 0 0-.582-.491 1.602 1.602 0 0 0-.755-.141 1.405 1.405 0 0 0-.71.215c-.192.13-.334.31-.425.542-.093.226-.116.493-.069.801.046.303.149.564.309.783.16.219.354.382.581.491.234.107.486.154.755.141Zm7.699.508-2.08-2.191.832-.607 2.569 2.731-1.321.067Zm-3.443.173-.72-4.751 1.124-.057.72 4.752-1.124.056Zm.503-1.944-.14-.925 1.626-.082.141.925-1.627.082Zm1.89-.436-1.07-.071 1.4-2.474 1.204-.061-1.534 2.606Z"/><path fill="#263039" d="M421.108 252.021a3.97 3.97 0 0 1-1.374-.163 3.82 3.82 0 0 1-1.171-.614 3.61 3.61 0 0 1-.856-.988 3.469 3.469 0 0 1-.446-1.268 3.127 3.127 0 0 1 .057-1.294c.109-.4.294-.75.557-1.051.261-.306.584-.546.968-.721a3.438 3.438 0 0 1 1.303-.308c.515-.026.999.039 1.452.196.451.15.85.39 1.196.719l-.649.741a2.594 2.594 0 0 0-.846-.504 2.37 2.37 0 0 0-.945-.14c-.33.016-.624.085-.884.206-.253.12-.467.283-.641.489a1.895 1.895 0 0 0-.362.718 2.263 2.263 0 0 0-.029.889c.049.321.147.611.296.873.154.261.345.485.572.67a2.465 2.465 0 0 0 1.711.533c.33-.017.626-.092.89-.225a1.97 1.97 0 0 0 .679-.599l.863.674a2.506 2.506 0 0 1-.961.829 3.446 3.446 0 0 1-1.38.338Zm6.564-.358a2.32 2.32 0 0 1-1.11-.213 2.267 2.267 0 0 1-.886-.762c-.24-.353-.402-.805-.486-1.357-.084-.557-.064-1.019.062-1.384.132-.365.343-.642.635-.83.291-.194.64-.301 1.047-.322.474-.023.905.056 1.295.24.397.183.727.45.991.802.271.351.444.772.518 1.265.075.492.032.928-.128 1.306-.155.373-.4.669-.735.889-.329.22-.73.342-1.203.366Zm-2.409 1.798-.981-6.478 1.069-.054.17 1.121.156 1.266.281 1.259.429 2.83-1.124.056Zm2.139-2.744c.269-.014.5-.085.692-.214.198-.13.342-.31.434-.542.092-.232.115-.499.069-.802a1.718 1.718 0 0 0-.309-.782 1.527 1.527 0 0 0-1.337-.632 1.384 1.384 0 0 0-.701.215 1.12 1.12 0 0 0-.434.542c-.093.226-.115.493-.069.801.046.303.149.564.309.783.16.219.357.382.591.49.233.108.485.155.755.141Zm6.413.636a2.892 2.892 0 0 1-1.36-.246 2.794 2.794 0 0 1-1.04-.826 2.62 2.62 0 0 1-.523-1.238c-.072-.474-.024-.898.143-1.271a2.03 2.03 0 0 1 .777-.909c.352-.227.774-.353 1.265-.378.497-.025.954.057 1.369.245.42.188.766.457 1.037.808.276.351.451.767.524 1.247.071.469.023.893-.143 1.272-.16.378-.418.684-.775.917-.352.227-.777.354-1.274.379Zm-.145-.952c.276-.014.513-.086.71-.216.198-.129.34-.31.426-.541.091-.232.114-.499.068-.802a1.706 1.706 0 0 0-.308-.782 1.434 1.434 0 0 0-.582-.491 1.577 1.577 0 0 0-.755-.141 1.405 1.405 0 0 0-.71.215c-.192.129-.334.31-.425.542-.093.226-.116.493-.069.801.046.303.149.564.309.783.16.219.354.382.581.49.234.108.486.155.755.142Zm7.699.507-2.08-2.19.832-.607 2.569 2.731-1.321.066Zm-3.443.174-.72-4.752 1.124-.056.72 4.751-1.124.057Zm.503-1.944-.141-.925 1.627-.083.141.926-1.627.082Zm1.89-.436-1.071-.072 1.401-2.473 1.204-.061-1.534 2.606Zm5.981-.069-.14-.926 2.472-.124.14.925-2.472.125Zm7.209 1.662-.944-6.229 5.457-.275.24 1.584-3.371.17.109.721 1.501-.076c.767-.039 1.379.095 1.836.4.462.3.739.755.832 1.366.096.635-.062 1.145-.475 1.53-.412.386-1.035.6-1.868.642l-3.317.167Zm1.863-1.573 1.088-.055c.21-.011.365-.064.465-.158.106-.095.147-.226.122-.392-.049-.32-.295-.469-.738-.447l-1.088.055.151.997Zm7.869 1.171c-.6.031-1.141-.053-1.623-.249a2.954 2.954 0 0 1-1.17-.847 2.612 2.612 0 0 1-.566-1.281c-.074-.492-.02-.934.162-1.326.188-.392.475-.705.863-.94.393-.235.853-.366 1.38-.393.486-.024.946.048 1.383.218.442.169.814.434 1.116.795.309.361.505.817.588 1.369.011.071.02.151.028.241l.017.232-3.784.191-.147-.97 2.705-.136-.725.296a1.071 1.071 0 0 0-.18-.475.833.833 0 0 0-.326-.297.834.834 0 0 0-.449-.094.757.757 0 0 0-.423.138.625.625 0 0 0-.232.325 1.035 1.035 0 0 0-.026.486l.046.302c.032.208.101.384.207.528a.948.948 0 0 0 .411.32c.166.063.361.089.582.078.228-.011.409-.05.544-.117.141-.067.283-.164.427-.291l1.221 1.006a2.066 2.066 0 0 1-.801.632c-.327.148-.737.234-1.228.259Zm5.606-.256a4.516 4.516 0 0 0 1.312-.246c.39-.139.689-.333.899-.583.21-.25.288-.549.235-.899-.055-.362-.254-.642-.598-.84-.344-.198-.78-.283-1.307-.257l.009.358a1.84 1.84 0 0 0 .801-.21c.229-.126.401-.287.516-.484a.94.94 0 0 0 .127-.652 1.152 1.152 0 0 0-.472-.783c-.265-.196-.603-.334-1.014-.415a5.202 5.202 0 0 0-1.334-.076c-.34.023-.687.082-1.041.178-.348.095-.68.217-.996.364l.651 1.249c.268-.109.529-.197.785-.263.255-.067.503-.106.743-.119.161-.008.289-.002.383.017.099.019.17.048.212.088a.231.231 0 0 1 .086.148.238.238 0 0 1-.022.154.22.22 0 0 1-.13.096.845.845 0 0 1-.239.039l-.935.047.17 1.121 1.124-.057c.137-.007.236.009.297.048.065.033.105.096.119.191a.208.208 0 0 1-.061.192.56.56 0 0 1-.236.119 1.535 1.535 0 0 1-.354.054 6.39 6.39 0 0 1-.899-.017 4.84 4.84 0 0 1-.878-.171l-.311 1.352c.391.111.786.187 1.185.227.404.039.795.049 1.173.03Zm9.504-.507a3.582 3.582 0 0 1-1.55-.244 2.962 2.962 0 0 1-1.168-.838 2.638 2.638 0 0 1-.568-1.298c-.075-.493-.018-.935.17-1.327.194-.392.494-.706.899-.942s.889-.368 1.452-.396c.6-.031 1.131.071 1.595.305.464.233.812.571 1.042 1.014l-1.457.845c-.136-.22-.287-.377-.452-.47a.884.884 0 0 0-.499-.128.828.828 0 0 0-.407.128.698.698 0 0 0-.257.336c-.051.14-.06.317-.028.531.032.213.095.389.189.528.099.139.217.24.354.305a.927.927 0 0 0 .439.085.74.74 0 0 0 .453-.175c.135-.108.236-.278.303-.508l1.689.685a1.74 1.74 0 0 1-.72 1.104c-.387.276-.88.43-1.479.46Zm6.707-.339c-.426.022-.793-.049-1.101-.213-.304-.17-.549-.436-.737-.797-.188-.367-.326-.838-.413-1.413-.089-.588-.102-1.068-.038-1.442.069-.38.228-.666.477-.858.249-.192.598-.299 1.047-.322a2.49 2.49 0 0 1 1.234.252c.39.183.722.459.995.828.272.363.448.805.527 1.327.079.522.04.979-.118 1.369-.16.385-.404.687-.733.907-.329.22-.709.341-1.14.362Zm-3.033 1.803-.999-6.593 1.932-.098.1.659.279 1.779.359 1.775.361 2.376-2.032.102Zm2.31-3.344a.723.723 0 0 0 .388-.127.66.66 0 0 0 .239-.335c.051-.146.06-.323.029-.531a1.297 1.297 0 0 0-.189-.528.831.831 0 0 0-.757-.392.715.715 0 0 0-.388.127.656.656 0 0 0-.239.335 1.12 1.12 0 0 0-.027.539c.031.208.094.381.187.52a.832.832 0 0 0 .757.392Zm6.737 1.238a3.496 3.496 0 0 1-1.531-.246 2.985 2.985 0 0 1-1.143-.848 2.6 2.6 0 0 1-.567-1.289c-.074-.493-.018-.935.17-1.327.189-.392.479-.705.872-.941.399-.235.878-.367 1.435-.395a3.5 3.5 0 0 1 1.532.246 2.82 2.82 0 0 1 1.141.839 2.6 2.6 0 0 1 .567 1.289c.074.492.018.935-.17 1.327a2.171 2.171 0 0 1-.871.949c-.399.236-.877.367-1.435.396Zm-.237-1.567a.707.707 0 0 0 .388-.127.664.664 0 0 0 .24-.335 1.17 1.17 0 0 0 .026-.539 1.21 1.21 0 0 0-.187-.52.876.876 0 0 0-.336-.305.842.842 0 0 0-.421-.087.716.716 0 0 0-.388.128.654.654 0 0 0-.239.334 1.08 1.08 0 0 0-.028.531c.031.207.094.384.188.528a.831.831 0 0 0 .757.392Zm7.558 1.107-1.687-2.165 1.493-1.026 2.585 3.07-2.391.121Zm-3.398.172-.737-4.868 2.031-.102.738 4.867-2.032.103Zm1.193-1.692-.233-1.54 1.833-.092.234 1.539-1.834.093Zm2.364-.72-1.933-.082 1.189-2.553 2.139-.108-1.395 2.743Zm5.913 1.933-.13-.863-.179-.224-.248-1.637c-.036-.237-.139-.414-.307-.531-.163-.118-.409-.168-.739-.151a2.153 2.153 0 0 0-.658.14 1.627 1.627 0 0 0-.542.306l-.848-1.293c.26-.193.584-.347.971-.462a4.958 4.958 0 0 1 1.156-.202c.845-.043 1.527.111 2.045.462.524.35.847.931.97 1.744l.397 2.616-1.888.095Zm-1.379.16c-.402.02-.748-.031-1.038-.154a1.709 1.709 0 0 1-.694-.512 1.607 1.607 0 0 1-.322-.755c-.048-.314-.008-.585.121-.813.129-.227.349-.406.662-.535.318-.13.732-.208 1.241-.233l1.025-.052.147.97-.701.035c-.216.011-.369.055-.46.131-.086.07-.119.173-.098.31a.418.418 0 0 0 .169.278c.1.067.226.096.375.089a.645.645 0 0 0 .362-.126.57.57 0 0 0 .206-.369l.351.583c-.023.366-.146.644-.371.835-.225.19-.55.296-.975.318ZM604.158 242.686l-.117-.774 2.142-2.475c.18-.207.31-.387.39-.54.079-.154.124-.293.135-.419a1.37 1.37 0 0 0-.001-.368.883.883 0 0 0-.397-.643c-.222-.151-.524-.216-.908-.197a2.005 2.005 0 0 0-.812.203 1.473 1.473 0 0 0-.564.521l-.912-.581c.196-.339.488-.608.874-.807.392-.205.845-.32 1.361-.346.455-.023.862.031 1.22.162.363.125.655.317.875.575.226.257.367.57.423.938.03.202.034.405.011.609a1.927 1.927 0 0 1-.212.638 4.12 4.12 0 0 1-.544.772l-1.842 2.129-.309-.424 3.677-.186.148.979-4.638.234Z"/><g filter="url(#n)"><rect width="239" height="131" fill="#fff" rx="10" transform="matrix(.99873 -.05044 .14984 .98871 401.541 300.741)"/></g><g filter="url(#o)"><rect width="100" height="19" fill="url(#p)" rx="9.5" transform="matrix(.99873 -.05044 .14984 .98871 423.762 294.637)"/></g><g filter="url(#q)"><rect width="47" height="47" fill="url(#r)" rx="23.5" transform="matrix(.99873 -.05044 .14984 .98871 572.324 312.041)"/></g><path fill="#fff" d="M590.284 339.159a2.585 2.585 0 0 1-.447-.016c-.151-.018-.316-.04-.494-.066l-.103-1.458c.126.028.259.039.397.032.364-.019.632-.179.804-.481.171-.311.26-.756.269-1.335a17.693 17.693 0 0 0-.127-2.131l-.435-3.734 6.686-.337 1.364 8.997-1.662.084-1.212-7.995.452.392-4.323.218.299-.442.314 2.678c.109.892.168 1.679.175 2.361.007.682-.053 1.259-.182 1.732-.122.464-.325.824-.609 1.08-.284.256-.672.396-1.166.421Zm11.133-.692-1.364-8.997 4.064-.205c1.021-.052 1.848.109 2.481.483.631.366 1.003.921 1.115 1.667.112.736-.074 1.32-.558 1.75-.486.422-1.175.655-2.066.7l.164-.474c1.012-.051 1.826.111 2.441.485.615.375.98.944 1.096 1.706.118.78-.079 1.407-.591 1.882-.514.467-1.338.728-2.472.786l-4.31.217Zm1.467-1.369 2.596-.131c.589-.03 1.019-.159 1.289-.389.269-.238.369-.584.301-1.038-.069-.454-.271-.777-.605-.967-.335-.199-.797-.284-1.386-.254l-2.596.131.401 2.648Zm-.587-3.869 2.26-.114c.545-.027.944-.155 1.197-.384.252-.237.347-.562.285-.973-.065-.428-.257-.742-.575-.942-.318-.2-.75-.286-1.295-.259l-2.259.115.387 2.557Z"/><path fill="#263039" d="m434.902 347.251-.877-5.784 1.389-.07.877 5.784-1.389.07Zm-2.639-2.133-.195-1.285 5.985-.303.195 1.286-5.985.302Zm10.011 3.38 2.49-8.519.555.724-5.155.26.682-.85.355 2.339-1.571.079-.446-2.943 7.063-.357.169 1.118-2.337 8.058-1.805.091Zm13.748 1.818a10.659 10.659 0 0 1-1.591-2.639 13.979 13.979 0 0 1-.905-3.296c-.179-1.183-.212-2.295-.1-3.337.12-1.051.378-1.97.773-2.759l1.545-.078a10.96 10.96 0 0 0-.73 2.951c-.095.989-.058 2.037.109 3.142.168 1.105.448 2.145.839 3.118.399.964.934 1.904 1.605 2.82l-1.545.078Zm4.35-11.928c.831-.042 1.563.098 2.196.42.641.313 1.167.792 1.579 1.436.411.644.69 1.45.837 2.418.156 1.029.097 1.908-.176 2.638-.264.73-.702 1.296-1.312 1.699-.611.402-1.358.625-2.241.67a6.041 6.041 0 0 1-1.332-.076c-.43-.073-.811-.2-1.144-.382l.432-1.291c.276.15.566.252.871.306.303.045.61.059.922.044.857-.044 1.497-.339 1.92-.887.422-.548.557-1.332.402-2.352a15.689 15.689 0 0 0-.099-.565 3.726 3.726 0 0 0-.192-.664l.605.54a2.077 2.077 0 0 1-.502.919 2.53 2.53 0 0 1-.893.576 3.827 3.827 0 0 1-1.207.242 3.945 3.945 0 0 1-1.647-.253 3.283 3.283 0 0 1-1.263-.908 2.868 2.868 0 0 1-.637-1.444c-.091-.6-.022-1.122.207-1.565.228-.452.575-.81 1.041-1.076.474-.265 1.019-.414 1.633-.445Zm.29 1.307a1.976 1.976 0 0 0-.893.239c-.25.133-.435.32-.556.559-.114.23-.146.504-.098.821.071.471.292.836.663 1.093.37.258.832.373 1.386.345.364-.019.674-.099.932-.242.256-.151.445-.346.565-.585.12-.248.157-.518.113-.809a1.49 1.49 0 0 0-.335-.747 1.798 1.798 0 0 0-.72-.521c-.298-.123-.65-.174-1.057-.153Zm8.26 7.457-1.266-8.355.855.721-2.662.135-.212-1.401 3.609-.183 1.364 8.998-1.688.085Zm4.023-.203-.17-1.119 3.095-3.575c.261-.298.448-.558.563-.78.114-.221.18-.423.196-.605a2.001 2.001 0 0 0-.002-.531c-.063-.412-.253-.721-.573-.93-.321-.217-.758-.311-1.312-.283-.441.022-.832.12-1.172.292a2.118 2.118 0 0 0-.815.754l-1.318-.84c.284-.49.705-.878 1.263-1.165.565-.296 1.22-.463 1.965-.501.658-.033 1.245.045 1.762.235.525.181.946.457 1.264.83.327.372.531.823.611 1.355.044.291.05.584.016.88a2.79 2.79 0 0 1-.305.922c-.169.328-.431.699-.786 1.114l-2.661 3.075-.446-.612 5.31-.268.214 1.413-6.699.339Zm9.96 2.009-1.545.078a10.38 10.38 0 0 0 .732-2.938c.102-.998.069-2.05-.099-3.155a13.273 13.273 0 0 0-.85-3.104 12.688 12.688 0 0 0-1.606-2.833l1.545-.078c.635.736 1.165 1.616 1.59 2.639.424 1.015.726 2.113.905 3.296.179 1.182.213 2.295.1 3.336-.113 1.034-.371 1.953-.772 2.759Zm11.431-2.96c-.753.038-1.424-.041-2.011-.235-.588-.195-1.064-.486-1.428-.874a2.628 2.628 0 0 1-.673-1.416c-.083-.549-.006-1.019.232-1.411.237-.392.617-.7 1.141-.925.524-.225 1.172-.357 1.942-.396.77-.039 1.447.026 2.031.195.593.169 1.065.439 1.418.809.36.362.581.813.663 1.353.083.548 0 1.036-.249 1.463-.242.418-.628.752-1.156 1.004-.521.25-1.157.395-1.91.433Zm-.199-1.311c.623-.032 1.097-.185 1.422-.461.324-.275.452-.64.383-1.094-.067-.445-.302-.788-.705-1.026-.402-.239-.915-.343-1.538-.311-.623.031-1.093.185-1.409.46-.316.275-.44.635-.373 1.08.069.455.301.801.694 1.04.394.239.903.343 1.526.312Zm-.465-3.072c-.702.035-1.317-.024-1.846-.179-.531-.163-.961-.413-1.291-.751a2.32 2.32 0 0 1-.598-1.265c-.078-.514-.006-.962.215-1.344.229-.392.583-.703 1.062-.935.48-.231 1.053-.364 1.719-.397.675-.035 1.284.038 1.826.218s.984.451 1.327.814c.341.354.551.788.629 1.302.075.497.002.933-.221 1.306-.215.365-.564.655-1.046.869-.483.206-1.075.326-1.776.362Zm-.156-1.028c.536-.027.944-.16 1.221-.399.277-.247.386-.563.328-.949a1.223 1.223 0 0 0-.623-.914c-.354-.206-.791-.297-1.31-.27-.519.026-.918.158-1.196.397-.278.238-.386.559-.325.962.058.385.257.686.595.902.345.207.782.297 1.31.271Zm7.952-4.275c.831-.042 1.563.099 2.196.421.641.313 1.167.791 1.578 1.435.412.644.691 1.45.838 2.419.156 1.028.097 1.907-.176 2.638-.265.73-.702 1.296-1.313 1.698-.61.402-1.357.625-2.24.67a6.113 6.113 0 0 1-1.333-.075 3.637 3.637 0 0 1-1.144-.383l.433-1.291c.275.15.566.252.87.306.304.045.611.06.923.044.857-.043 1.496-.339 1.919-.887.423-.548.557-1.332.403-2.352a16.085 16.085 0 0 0-.099-.565 3.716 3.716 0 0 0-.192-.663l.605.539a2.071 2.071 0 0 1-.502.919c-.242.245-.54.437-.894.576-.354.139-.756.22-1.206.242a3.931 3.931 0 0 1-1.648-.253 3.277 3.277 0 0 1-1.262-.908 2.869 2.869 0 0 1-.638-1.444c-.091-.6-.021-1.121.208-1.565.228-.452.575-.81 1.041-1.075.474-.266 1.018-.415 1.633-.446Zm.289 1.307a1.972 1.972 0 0 0-.892.239c-.25.134-.436.32-.557.559-.113.231-.146.504-.098.821.072.472.293.836.663 1.094.371.257.833.372 1.387.344.364-.018.674-.099.932-.241.256-.151.444-.347.565-.586.119-.248.157-.517.113-.809a1.491 1.491 0 0 0-.336-.747 1.782 1.782 0 0 0-.72-.52c-.297-.123-.65-.175-1.057-.154Zm10.63 7.467a3.901 3.901 0 0 1-2.03-.441c-.626-.331-1.155-.831-1.588-1.5-.434-.678-.725-1.509-.875-2.495-.149-.985-.111-1.829.114-2.531.223-.711.594-1.26 1.11-1.649.526-.389 1.148-.602 1.866-.638a3.84 3.84 0 0 1 2.029.441c.626.331 1.156.836 1.59 1.513.442.668.737 1.495.887 2.481.149.985.107 1.834-.125 2.545-.225.702-.596 1.247-1.113 1.636-.516.389-1.138.601-1.865.638Zm-.221-1.452c.425-.022.776-.152 1.053-.39.277-.247.466-.611.568-1.091.11-.48.111-1.08.002-1.8-.111-.729-.292-1.32-.544-1.773-.244-.463-.539-.797-.885-1.004a1.95 1.95 0 0 0-1.156-.292 1.668 1.668 0 0 0-1.038.402c-.278.239-.472.598-.582 1.079-.103.471-.099 1.071.011 1.8.109.719.286 1.311.53 1.773.254.462.554.801.9 1.017.354.206.735.299 1.141.279Zm5.561-1.874-.203-1.337 3.571-.18.202 1.337-3.57.18Zm7.143 2.566-1.266-8.354.855.721-2.662.134-.212-1.401 3.609-.182 1.364 8.997-1.688.085Zm4.023-.203-.17-1.118 3.096-3.576c.26-.298.447-.558.562-.779.114-.222.18-.424.196-.606a2.001 2.001 0 0 0-.002-.531c-.063-.411-.253-.721-.573-.93-.321-.216-.758-.311-1.312-.283-.441.022-.832.12-1.172.292a2.125 2.125 0 0 0-.815.754l-1.318-.84c.284-.489.705-.878 1.263-1.165.565-.296 1.22-.463 1.965-.501.658-.033 1.245.045 1.762.235.525.181.946.458 1.264.83.327.372.531.824.611 1.355.044.291.05.585.016.88a2.783 2.783 0 0 1-.305.922c-.169.328-.431.699-.786 1.115l-2.661 3.074-.446-.612 5.31-.268.214 1.414-6.699.338Zm7.962-3.329-.203-1.337 3.571-.18.202 1.336-3.57.181Zm8.564 2.624a6.935 6.935 0 0 1-1.923-.175 5.325 5.325 0 0 1-1.649-.694l.53-1.335c.369.249.8.443 1.292.583.492.139.993.195 1.504.17.606-.031 1.06-.175 1.361-.432.3-.265.418-.608.354-1.028a1.319 1.319 0 0 0-.615-.953c-.348-.224-.868-.319-1.561-.284l-.831.042-.173-1.144 2.133-3.19.316.619-4.882.246-.212-1.401 6.193-.313.17 1.119-2.134 3.19-.96-.47.506-.025c1.117-.057 1.99.15 2.619.619a2.694 2.694 0 0 1 1.13 1.846c.077.506.018.98-.177 1.421-.195.442-.54.809-1.037 1.102-.489.283-1.14.446-1.954.487Zm5.15-.39-.169-1.118 3.095-3.576c.26-.298.447-.558.562-.779.115-.222.18-.424.196-.606a1.96 1.96 0 0 0-.002-.531c-.062-.411-.253-.721-.573-.929-.32-.217-.758-.312-1.312-.284a2.89 2.89 0 0 0-1.172.293 2.122 2.122 0 0 0-.815.753l-1.318-.84c.284-.489.705-.877 1.263-1.165.566-.296 1.221-.463 1.965-.5.658-.034 1.245.045 1.763.234.524.181.946.458 1.264.83.326.372.53.824.611 1.355.044.292.049.585.015.88a2.783 2.783 0 0 1-.305.922c-.168.328-.43.7-.786 1.115l-2.661 3.074-.446-.612 5.31-.268.215 1.414-6.7.338ZM439.509 363.283l1.169-.059.944 6.229-1.169.059-.944-6.229Zm-2.31 6.393-1.168.059-.944-6.229 1.168-.059.944 6.229Zm2.939-2.838-3.442.173-.15-.987 3.443-.174.149.988Zm6.485 2.362-.146-.961-.094-.201-.255-1.682c-.049-.327-.186-.574-.411-.742-.226-.174-.539-.25-.941-.23-.269.014-.53.069-.781.165a1.734 1.734 0 0 0-.603.38l-.564-.787a2.33 2.33 0 0 1 .851-.483 3.915 3.915 0 0 1 1.092-.207c.695-.035 1.256.104 1.684.417.433.307.702.804.806 1.492l.422 2.785-1.06.054Zm-1.501.139a2.454 2.454 0 0 1-.971-.131 1.773 1.773 0 0 1-.706-.475 1.462 1.462 0 0 1-.328-.728c-.04-.267-.014-.51.08-.73.099-.22.287-.4.561-.54.275-.139.655-.221 1.14-.245l1.394-.071.112.739-1.313.066c-.383.019-.631.095-.744.226a.526.526 0 0 0-.131.455.64.64 0 0 0 .316.468c.18.111.413.159.701.144.276-.014.512-.089.709-.224a.927.927 0 0 0 .392-.576l.29.658a1.074 1.074 0 0 1-.486.679c-.252.168-.591.263-1.016.285Zm5.399-.336-.618-4.075.301.253-1.95.099-.143-.943 4.494-.227.143.943-1.942.098.221-.28.617 4.075-1.123.057Zm6.981-.352-.146-.961-.094-.202-.255-1.682c-.049-.326-.186-.573-.411-.741-.225-.174-.539-.251-.941-.231-.269.014-.53.069-.781.165a1.721 1.721 0 0 0-.603.381l-.563-.788c.228-.209.511-.369.85-.482a3.966 3.966 0 0 1 1.092-.208c.695-.035 1.257.104 1.685.417.432.307.701.805.805 1.493l.422 2.785-1.06.054Zm-1.501.138a2.456 2.456 0 0 1-.971-.13 1.782 1.782 0 0 1-.706-.476 1.449 1.449 0 0 1-.327-.727 1.328 1.328 0 0 1 .079-.731c.1-.22.287-.4.562-.539.274-.139.654-.221 1.14-.246l1.393-.07.112.738-1.312.067c-.384.019-.632.094-.745.225a.526.526 0 0 0-.13.455.64.64 0 0 0 .315.469c.18.11.414.158.701.144a1.34 1.34 0 0 0 .709-.225.92.92 0 0 0 .393-.575l.29.658c-.066.284-.228.51-.486.679-.252.168-.591.263-1.017.284Zm3.699-.258-.088-.937.12.011c.037.005.07.006.1.004.186-.009.321-.073.406-.191a.945.945 0 0 0 .156-.465c.024-.198.027-.417.009-.655a15.022 15.022 0 0 0-.057-.732l-.196-1.837 3.883-.196.72 4.751-1.124.057-.623-4.111.307.289-2.283.116.195-.324.127 1.258c.046.422.069.815.07 1.18.006.358-.024.674-.092.946a1.249 1.249 0 0 1-.337.645c-.157.157-.377.243-.658.257-.09.005-.19.001-.301-.012a4.42 4.42 0 0 1-.334-.054Zm8.941-3.653c.618-.031 1.109.081 1.474.338s.585.634.66 1.132c.079.516-.04.929-.356 1.238-.316.303-.801.468-1.455.495l-2.249.104-.72-4.752 1.124-.056.236 1.557 1.286-.056Zm.1 2.389c.33-.011.572-.092.724-.243.152-.151.207-.363.166-.636-.041-.273-.158-.464-.35-.574-.186-.116-.448-.169-.784-.158l-1.026.043.244 1.611 1.026-.043Zm6.422.492-.246-1.62.19.179-1.438.072c-.659.034-1.198-.077-1.617-.33-.414-.26-.66-.651-.739-1.174-.085-.557.049-.991.4-1.302.358-.311.869-.483 1.534-.517l2.202-.111.72 4.752-1.006.051Zm-3.452.174 1.019-1.881 1.151-.058-.966 1.878-1.204.061Zm3.152-2.15-.323-2.135.206.285-1.321.067c-.348.017-.608.096-.78.236-.167.134-.229.344-.185.628.081.534.472.784 1.173.748l1.357-.068-.127.239Z"/><path fill="#EFD701" d="m437.1 306.915-.877-5.783.592.499-1.843.093-.147-.97 2.499-.126.944 6.228-1.168.059Zm5.405-.183c-.521.026-.985-.028-1.392-.163a2.337 2.337 0 0 1-.989-.604 1.807 1.807 0 0 1-.465-.981c-.058-.38-.005-.705.16-.977.164-.271.427-.484.79-.64.363-.156.811-.247 1.344-.274.534-.027 1.002.018 1.407.135.41.117.737.303.981.56.25.25.403.563.459.936.058.38 0 .718-.172 1.013-.168.29-.435.521-.801.695-.36.174-.801.274-1.322.3Zm-.138-.908c.432-.021.76-.128.985-.318.224-.191.313-.443.265-.758a.96.96 0 0 0-.488-.71c-.278-.166-.634-.237-1.065-.216-.431.022-.757.128-.975.319-.219.19-.305.439-.258.748a.977.977 0 0 0 .48.72c.273.165.625.237 1.056.215Zm-.322-2.126c-.485.024-.911-.017-1.278-.124a2.078 2.078 0 0 1-.894-.52 1.605 1.605 0 0 1-.413-.876c-.054-.355-.004-.666.149-.931.158-.271.403-.486.735-.646.332-.161.729-.252 1.19-.276.467-.023.889.027 1.264.152.375.124.681.312.918.563.237.245.382.546.436.902.052.344.001.645-.153.904-.149.252-.39.453-.724.601-.334.143-.744.226-1.23.251Zm-.108-.712c.372-.019.654-.111.846-.276a.69.69 0 0 0 .227-.657.848.848 0 0 0-.431-.633c-.246-.143-.548-.205-.907-.187-.36.018-.636.11-.828.275-.193.165-.268.387-.225.666.04.267.177.475.411.625.239.143.542.205.907.187Zm5.14 3.488a.798.798 0 0 1-.552-.178.804.804 0 0 1-.297-.523c-.034-.225.011-.407.135-.545a.657.657 0 0 1 .49-.231.807.807 0 0 1 .553.178.773.773 0 0 1 .296.524.658.658 0 0 1-.135.544.657.657 0 0 1-.49.231Zm2.808-.204-.876-5.784.592.499-1.843.093-.147-.97 2.499-.126.944 6.229-1.169.059Zm5.505-.189a2.691 2.691 0 0 1-1.405-.305c-.433-.229-.8-.576-1.1-1.039-.3-.469-.502-1.044-.605-1.727-.104-.682-.078-1.266.078-1.752.155-.492.411-.873.769-1.142a2.316 2.316 0 0 1 1.292-.441 2.66 2.66 0 0 1 1.405.305c.433.229.8.578 1.1 1.047.306.463.51 1.036.614 1.718.103.682.075 1.269-.086 1.762-.156.486-.413.863-.771 1.133-.357.269-.788.416-1.291.441Zm-.153-1.005c.294-.015.537-.105.729-.27.192-.171.323-.423.393-.755.076-.333.077-.748.001-1.247-.076-.504-.201-.913-.376-1.227-.169-.32-.373-.552-.612-.695a1.346 1.346 0 0 0-.801-.202 1.148 1.148 0 0 0-.718.278c-.193.166-.327.414-.404.747-.071.326-.068.742.008 1.246.076.498.198.908.367 1.228.176.32.383.554.623.704.245.143.509.207.79.193Zm4.617.753a.811.811 0 0 1-.849-.701c-.034-.226.011-.407.135-.545a.659.659 0 0 1 .49-.231.807.807 0 0 1 .553.178.77.77 0 0 1 .296.523.66.66 0 0 1-.135.545.657.657 0 0 1-.49.231Zm1.94-.161-.117-.774 2.143-2.475a2.9 2.9 0 0 0 .389-.54c.079-.154.125-.293.136-.419a1.367 1.367 0 0 0-.002-.368.885.885 0 0 0-.396-.643c-.222-.151-.525-.216-.908-.197a2 2 0 0 0-.812.203 1.473 1.473 0 0 0-.564.521l-.912-.581c.196-.339.487-.608.874-.806.391-.206.845-.321 1.36-.347.456-.023.862.031 1.22.162.364.125.655.317.875.575.227.257.368.57.423.938.031.202.035.405.011.609a1.9 1.9 0 0 1-.211.638 4.167 4.167 0 0 1-.544.772l-1.842 2.129-.309-.424 3.676-.186.148.979-4.638.234Zm8.4-.334a2.69 2.69 0 0 1-1.404-.306c-.434-.229-.8-.575-1.1-1.038-.3-.469-.502-1.045-.606-1.727-.103-.682-.077-1.267.079-1.753.155-.492.411-.872.769-1.141.364-.27.794-.417 1.292-.442.503-.026.971.076 1.404.305.434.23.801.579 1.101 1.048.306.462.51 1.035.614 1.717.103.682.074 1.27-.087 1.762-.155.486-.412.864-.77 1.133-.358.269-.788.416-1.292.442Zm-.152-1.006c.294-.015.537-.105.729-.27.191-.171.322-.423.393-.755.076-.333.077-.748.001-1.246-.076-.505-.202-.914-.376-1.228-.169-.32-.374-.552-.613-.695a1.35 1.35 0 0 0-.8-.202 1.154 1.154 0 0 0-.719.279c-.192.165-.326.414-.403.746-.071.327-.069.742.008 1.246.075.499.198.908.367 1.228.175.32.383.555.623.704.245.143.508.207.79.193Zm3.922.726-.117-.775 2.143-2.475c.18-.206.309-.386.389-.54.079-.153.124-.293.135-.419a1.33 1.33 0 0 0-.001-.368.887.887 0 0 0-.396-.643c-.222-.15-.525-.216-.909-.196a1.995 1.995 0 0 0-.811.202c-.23.119-.418.293-.564.522l-.913-.582c.197-.339.488-.607.874-.806a3.255 3.255 0 0 1 1.361-.347c.455-.023.862.031 1.22.163.363.125.655.316.875.574a1.8 1.8 0 0 1 .423.938 2.3 2.3 0 0 1 .011.609 1.928 1.928 0 0 1-.211.639 4.128 4.128 0 0 1-.545.771l-1.842 2.129-.309-.424 3.677-.186.148.979-4.638.235Zm6.769-.342-.877-5.784.592.499-1.843.093-.147-.97 2.499-.126.944 6.229-1.168.059Zm12.673-.64-.876-5.784.592.499-1.843.093-.147-.97 2.499-.126.944 6.229-1.169.059Zm3.918-.198 1.724-5.898.384.501-3.569.18.472-.589.246 1.62-1.088.055-.309-2.038 4.89-.247.118.774-1.619 5.579-1.249.063Zm4.887-3.601a.8.8 0 0 1-.552-.178.807.807 0 0 1-.296-.523c-.035-.225.01-.407.134-.545a.666.666 0 0 1 .491-.231.802.802 0 0 1 .552.179.77.77 0 0 1 .297.523.665.665 0 0 1-.135.544.66.66 0 0 1-.491.231Zm.514 3.391a.813.813 0 0 1-.849-.702c-.034-.225.011-.407.135-.544a.659.659 0 0 1 .49-.231.802.802 0 0 1 .553.178.768.768 0 0 1 .296.523.665.665 0 0 1-.134.545.668.668 0 0 1-.491.231Zm1.853-.157-.118-.774 2.143-2.475c.18-.207.31-.386.389-.54.08-.153.125-.293.136-.419a1.37 1.37 0 0 0-.001-.368.886.886 0 0 0-.397-.643c-.222-.15-.524-.216-.908-.197a2 2 0 0 0-.812.203 1.468 1.468 0 0 0-.564.522l-.912-.582c.196-.339.488-.608.874-.806a3.255 3.255 0 0 1 1.361-.347c.455-.023.862.031 1.22.163.363.125.655.316.875.574a1.8 1.8 0 0 1 .423.938c.03.202.034.405.011.609a1.94 1.94 0 0 1-.212.639 4.117 4.117 0 0 1-.544.771l-1.842 2.129-.309-.424 3.676-.186.149.979-4.638.234Zm6.926-6.716c.575-.029 1.082.068 1.52.291a2.69 2.69 0 0 1 1.093.994c.284.446.478 1.004.579 1.674.108.712.068 1.321-.121 1.827a2.299 2.299 0 0 1-.909 1.175c-.423.279-.94.433-1.551.464a4.2 4.2 0 0 1-.923-.052 2.514 2.514 0 0 1-.792-.265l.3-.893c.19.104.391.174.602.211.21.031.423.042.639.031.593-.03 1.036-.235 1.329-.614.293-.38.385-.922.278-1.628a8.97 8.97 0 0 0-.068-.391 2.607 2.607 0 0 0-.133-.46l.419.373a1.442 1.442 0 0 1-.347.637 1.786 1.786 0 0 1-.619.399 2.657 2.657 0 0 1-.835.167 2.73 2.73 0 0 1-1.141-.175 2.275 2.275 0 0 1-.874-.629 1.978 1.978 0 0 1-.441-1c-.063-.415-.015-.776.143-1.083.158-.313.398-.561.721-.745a2.56 2.56 0 0 1 1.131-.308Zm.2.905a1.37 1.37 0 0 0-.618.165.885.885 0 0 0-.385.388.94.94 0 0 0-.068.568c.049.326.202.578.459.757.256.178.576.258.96.238.252-.012.467-.068.645-.167a.98.98 0 0 0 .391-.405.932.932 0 0 0 .078-.56 1.022 1.022 0 0 0-.232-.517 1.245 1.245 0 0 0-.498-.361 1.69 1.69 0 0 0-.732-.106Z"/><path fill="#EF002B" d="M441.03 388.501a2.69 2.69 0 0 1-1.404-.305c-.434-.229-.8-.576-1.1-1.039-.3-.469-.502-1.044-.606-1.727-.103-.682-.077-1.266.079-1.752.155-.492.411-.873.769-1.142a2.324 2.324 0 0 1 1.292-.442c.503-.025.971.077 1.404.306.434.229.801.578 1.101 1.047.306.463.51 1.036.614 1.718.103.682.074 1.269-.087 1.762-.155.486-.412.863-.77 1.133-.358.269-.788.416-1.292.441Zm-.152-1.005c.294-.015.537-.105.729-.27.192-.171.322-.423.393-.755.076-.333.077-.748.001-1.247-.076-.504-.202-.913-.376-1.227-.169-.32-.374-.552-.613-.695a1.343 1.343 0 0 0-.8-.202 1.153 1.153 0 0 0-.719.278c-.192.166-.326.414-.403.747-.071.326-.069.742.008 1.246.075.498.198.908.367 1.228.175.32.383.554.623.704.245.143.508.207.79.193Zm7.305.554-.72-4.751 4.602-.233.72 4.752-1.115.056-.616-4.066.3.245-2.885.145.221-.271.616 4.067-1.123.056Zm8.716-.377a2.89 2.89 0 0 1-1.359-.245 2.796 2.796 0 0 1-1.04-.826 2.618 2.618 0 0 1-.523-1.238c-.072-.475-.025-.899.142-1.272a2.03 2.03 0 0 1 .777-.909c.352-.227.774-.353 1.266-.377a2.9 2.9 0 0 1 1.368.244 2.646 2.646 0 0 1 1.561 2.055c.071.469.024.893-.142 1.272-.16.379-.419.685-.776.918-.352.227-.776.353-1.274.378Zm-.144-.952c.276-.014.512-.086.71-.215.198-.13.339-.31.425-.542.092-.232.115-.499.069-.801a1.717 1.717 0 0 0-.309-.783 1.432 1.432 0 0 0-.582-.49 1.588 1.588 0 0 0-.755-.142 1.4 1.4 0 0 0-.71.216 1.141 1.141 0 0 0-.425.541c-.092.226-.115.493-.069.802.046.302.149.563.309.782.16.219.354.383.582.491.234.107.485.154.755.141Zm4.256.682-.72-4.752 4.602-.233.72 4.752-1.115.056-.616-4.066.3.245-2.885.145.221-.271.616 4.067-1.123.057Zm11.412-.577-.72-4.752 1.124-.056.72 4.751-1.124.057Zm-2.99-3.059c.617-.031 1.105.082 1.464.339.365.256.585.634.661 1.132.078.516-.041.929-.356 1.237-.311.303-.793.468-1.447.495l-2.177.101-.72-4.752 1.124-.057.236 1.558 1.215-.053Zm.099 2.389c.331-.011.572-.091.724-.243.152-.151.208-.363.166-.636-.041-.273-.158-.464-.349-.574-.187-.116-.449-.168-.785-.157l-.954.039.244 1.61.954-.039Zm6.972.464-.617-4.075.301.253-1.951.099-.143-.943 4.495-.227.143.943-1.942.098.22-.28.618 4.075-1.124.057Zm6.007-.241a2.89 2.89 0 0 1-1.359-.245 2.786 2.786 0 0 1-1.04-.826 2.613 2.613 0 0 1-.523-1.238c-.072-.474-.024-.898.142-1.271a2.03 2.03 0 0 1 .777-.909c.353-.227.774-.353 1.266-.378a2.9 2.9 0 0 1 1.368.245 2.643 2.643 0 0 1 1.561 2.055c.071.468.024.892-.142 1.271-.16.379-.419.685-.776.918-.352.227-.776.353-1.274.378Zm-.144-.952c.276-.014.512-.085.71-.215.198-.129.339-.31.425-.541.092-.232.115-.499.069-.802a1.718 1.718 0 0 0-.309-.782 1.438 1.438 0 0 0-.581-.491 1.58 1.58 0 0 0-.755-.141 1.4 1.4 0 0 0-.711.215c-.191.129-.333.31-.425.541-.092.226-.115.493-.068.802.045.302.148.563.308.782.16.219.354.383.582.491.234.108.485.155.755.141Zm7.699.508-2.081-2.19.832-.607 2.57 2.73-1.321.067Zm-3.443.174-.72-4.752 1.123-.057.72 4.752-1.123.057Zm.502-1.944-.14-.926 1.627-.082.14.926-1.627.082Zm1.891-.436-1.071-.072 1.4-2.474 1.205-.061-1.534 2.607Z"/><path fill="#263039" d="M444.632 407.249a3.997 3.997 0 0 1-1.374-.164 3.818 3.818 0 0 1-1.171-.613 3.64 3.64 0 0 1-.856-.988 3.485 3.485 0 0 1-.446-1.269 3.11 3.11 0 0 1 .058-1.294c.108-.4.294-.75.556-1.05.262-.306.584-.547.968-.722.384-.18.818-.283 1.303-.307.516-.026 1 .039 1.452.195.452.151.85.391 1.196.72l-.649.741a2.54 2.54 0 0 0-.846-.504 2.364 2.364 0 0 0-.945-.141c-.33.017-.624.086-.884.206a1.9 1.9 0 0 0-.641.49 1.895 1.895 0 0 0-.362.718 2.263 2.263 0 0 0-.028.889c.048.32.147.611.295.873.154.261.345.484.573.67.233.185.493.325.778.418.292.093.603.131.933.114.329-.016.626-.091.889-.224a1.99 1.99 0 0 0 .679-.599l.863.674a2.488 2.488 0 0 1-.961.828c-.398.2-.858.313-1.38.339Zm6.564-.359a2.337 2.337 0 0 1-1.11-.212 2.267 2.267 0 0 1-.885-.763c-.241-.352-.403-.804-.487-1.356-.084-.558-.063-1.019.062-1.384a1.6 1.6 0 0 1 .635-.83c.291-.194.64-.301 1.048-.322.473-.024.905.056 1.295.239.396.184.726.451.991.802.27.351.443.773.518 1.265.074.493.032.928-.128 1.307-.155.372-.4.669-.735.889-.329.22-.73.342-1.204.365Zm-2.408 1.799-.982-6.478 1.07-.054.17 1.121.155 1.265.282 1.259.428 2.83-1.123.057Zm2.138-2.744c.27-.014.5-.085.692-.215.198-.129.343-.31.434-.542.092-.231.115-.499.069-.801a1.722 1.722 0 0 0-.309-.783 1.53 1.53 0 0 0-1.336-.631c-.27.013-.504.085-.701.214a1.13 1.13 0 0 0-.435.542c-.092.226-.115.493-.068.802.046.302.148.563.308.782.161.219.357.383.591.49.234.108.485.155.755.142Zm6.413.635a2.89 2.89 0 0 1-1.359-.245 2.796 2.796 0 0 1-1.04-.826 2.613 2.613 0 0 1-.523-1.238c-.072-.475-.025-.898.142-1.272a2.03 2.03 0 0 1 .777-.909c.352-.227.774-.352 1.265-.377.498-.025.954.056 1.369.244a2.646 2.646 0 0 1 1.561 2.056c.071.468.024.892-.142 1.271-.16.379-.419.685-.776.918-.352.227-.777.353-1.274.378Zm-.144-.952c.275-.014.512-.086.71-.215.198-.13.339-.31.425-.542.092-.231.115-.499.069-.801a1.722 1.722 0 0 0-.309-.783 1.432 1.432 0 0 0-.582-.49 1.575 1.575 0 0 0-.755-.141 1.389 1.389 0 0 0-.71.215 1.141 1.141 0 0 0-.425.541c-.092.226-.115.493-.069.802.046.302.149.563.309.782.16.219.354.383.582.491.233.108.485.155.755.141Zm7.698.508-2.08-2.191.832-.606 2.57 2.73-1.322.067Zm-3.442.174-.72-4.752 1.123-.057.72 4.752-1.123.057Zm.502-1.944-.14-.926 1.627-.082.14.925-1.627.083Zm1.89-.437-1.07-.071 1.4-2.474 1.205-.061-1.535 2.606Zm5.982-.069-.141-.925 2.472-.125.141.926-2.472.124Zm7.209 1.663-.944-6.229 5.456-.276.24 1.584-3.371.17.109.721 1.502-.076c.767-.038 1.379.095 1.835.401.463.299.74.754.832 1.365.097.635-.062 1.145-.474 1.531-.413.385-1.035.599-1.868.641l-3.317.168Zm1.863-1.574 1.087-.055c.21-.01.365-.063.465-.158.107-.095.147-.225.122-.392-.048-.32-.294-.469-.738-.446l-1.087.054.151.997Zm7.868 1.172c-.599.03-1.14-.053-1.623-.25a2.942 2.942 0 0 1-1.17-.846 2.619 2.619 0 0 1-.565-1.281c-.075-.492-.021-.934.161-1.326.188-.392.476-.706.863-.94.393-.236.853-.366 1.381-.393.485-.025.946.048 1.382.217.442.169.815.434 1.117.796.308.361.504.817.588 1.369.011.071.02.151.027.24.007.084.013.161.017.233l-3.784.191-.147-.97 2.706-.137-.725.297a1.072 1.072 0 0 0-.181-.475.829.829 0 0 0-.326-.298.841.841 0 0 0-.449-.094.775.775 0 0 0-.423.138.62.62 0 0 0-.231.326 1.019 1.019 0 0 0-.026.485l.046.303c.031.208.1.383.206.527a.952.952 0 0 0 .411.32c.167.064.361.09.583.079.227-.012.409-.051.544-.117.14-.067.283-.164.426-.291l1.222 1.005a2.078 2.078 0 0 1-.801.633c-.328.148-.738.234-1.229.259Zm5.606-.256a4.51 4.51 0 0 0 1.312-.246c.39-.139.69-.334.899-.583.21-.25.288-.55.235-.9-.055-.362-.254-.642-.598-.839-.344-.198-.779-.284-1.307-.257l.009.358c.306-.016.573-.086.802-.211.228-.125.4-.286.515-.483a.941.941 0 0 0 .128-.652 1.152 1.152 0 0 0-.472-.783c-.265-.196-.603-.335-1.014-.415a5.205 5.205 0 0 0-1.334-.077 5.43 5.43 0 0 0-1.042.179c-.348.095-.68.216-.995.364l.651 1.249c.267-.109.529-.197.784-.264a3.72 3.72 0 0 1 .743-.118 1.56 1.56 0 0 1 .383.017c.099.018.17.048.213.087.048.04.076.089.085.149a.234.234 0 0 1-.022.153c-.023.043-.067.075-.13.096a.839.839 0 0 1-.239.039l-.934.047.169 1.122 1.124-.057c.138-.007.237.009.297.048.065.032.105.096.12.191a.207.207 0 0 1-.062.191.545.545 0 0 1-.235.12 1.553 1.553 0 0 1-.355.054 6.392 6.392 0 0 1-.899-.018 4.664 4.664 0 0 1-.877-.171l-.312 1.352c.392.112.787.188 1.185.227.405.04.796.05 1.173.031Zm9.504-.507a3.575 3.575 0 0 1-1.549-.245 2.963 2.963 0 0 1-1.169-.837 2.65 2.65 0 0 1-.568-1.299c-.075-.492-.018-.934.17-1.327.194-.392.494-.706.899-.942.405-.235.889-.367 1.453-.396.599-.03 1.131.072 1.595.305a2.31 2.31 0 0 1 1.041 1.015l-1.457.844c-.136-.22-.287-.377-.452-.47a.873.873 0 0 0-.499-.127.805.805 0 0 0-.406.128.688.688 0 0 0-.257.336c-.052.14-.061.317-.029.53.033.214.096.39.189.529.1.138.218.24.354.305a.939.939 0 0 0 .439.085.742.742 0 0 0 .453-.175c.135-.109.236-.278.304-.509l1.689.686a1.74 1.74 0 0 1-.721 1.103c-.386.277-.879.43-1.479.461Zm6.707-.339c-.425.021-.792-.05-1.101-.213-.303-.17-.549-.436-.737-.797-.188-.367-.326-.838-.413-1.414-.089-.587-.101-1.068-.037-1.442.069-.38.228-.666.476-.858.249-.191.598-.299 1.048-.321.431-.022.842.062 1.233.251.39.184.722.46.995.829.273.362.448.805.528 1.327.079.522.039.978-.119 1.369a1.96 1.96 0 0 1-.732.906c-.329.22-.709.341-1.141.363Zm-3.032 1.803-1-6.594 1.933-.097.1.658.278 1.779.36 1.775.36 2.376-2.031.103Zm2.31-3.345a.718.718 0 0 0 .388-.127.656.656 0 0 0 .239-.335c.05-.146.06-.323.028-.53a1.268 1.268 0 0 0-.189-.529.876.876 0 0 0-.336-.305.828.828 0 0 0-.42-.087.727.727 0 0 0-.389.127.666.666 0 0 0-.239.335 1.15 1.15 0 0 0-.027.54c.032.207.094.38.188.519a.829.829 0 0 0 .757.392Zm6.737 1.238a3.515 3.515 0 0 1-1.532-.245 3.01 3.01 0 0 1-1.143-.848 2.59 2.59 0 0 1-.566-1.29c-.075-.492-.018-.934.17-1.326s.479-.706.872-.941c.399-.235.877-.367 1.434-.395a3.498 3.498 0 0 1 1.532.245c.464.192.844.472 1.142.839.303.367.492.797.566 1.29.075.492.018.934-.17 1.326a2.162 2.162 0 0 1-.871.95c-.399.235-.877.367-1.434.395Zm-.237-1.566a.726.726 0 0 0 .388-.127.656.656 0 0 0 .239-.335c.049-.152.058-.332.027-.539a1.21 1.21 0 0 0-.188-.52.827.827 0 0 0-.756-.392.718.718 0 0 0-.389.127.662.662 0 0 0-.239.335c-.051.14-.06.317-.028.53.031.208.094.384.189.529a.831.831 0 0 0 .757.392Zm7.557 1.107-1.686-2.166 1.493-1.026 2.584 3.071-2.391.121Zm-3.397.171-.738-4.867 2.031-.103.738 4.868-2.031.102Zm1.192-1.692-.233-1.539 1.834-.093.233 1.54-1.834.092Zm2.364-.72-1.933-.082 1.19-2.552 2.139-.108-1.396 2.742Zm5.914 1.934-.131-.863-.179-.224-.248-1.638c-.036-.237-.138-.414-.307-.531-.163-.117-.409-.168-.738-.151a2.126 2.126 0 0 0-.658.141 1.63 1.63 0 0 0-.543.305l-.848-1.293c.261-.192.585-.346.972-.461a4.847 4.847 0 0 1 1.156-.202c.845-.043 1.526.111 2.044.461.524.35.848.932.971 1.745l.396 2.616-1.887.095Zm-1.38.159c-.401.021-.747-.031-1.038-.153a1.715 1.715 0 0 1-.693-.512 1.613 1.613 0 0 1-.323-.755c-.048-.315-.007-.586.121-.813.129-.228.349-.406.662-.536.318-.129.732-.207 1.242-.233l1.024-.052.147.97-.701.036c-.215.011-.369.054-.46.131-.086.07-.119.173-.098.309a.422.422 0 0 0 .169.279.61.61 0 0 0 .376.088.642.642 0 0 0 .361-.126.575.575 0 0 0 .207-.369l.351.583c-.023.366-.147.644-.372.835-.224.191-.55.297-.975.318Z"/><path fill="#6F879D" fill-rule="evenodd" d="M594.862 236.986c-.526.108-.929.415-1.11.844a1.333 1.333 0 0 0-.1.445c-.009.21.056.504.153.695l.039.078-.221.243-.221.244.343.256.343.257.089-.031a.653.653 0 0 1 .561.067l.044.027.103-.112.102-.113.092.02c.229.05.547.048.773-.004.632-.146 1.073-.61 1.138-1.198a1.64 1.64 0 0 0-.05-.526c-.025-.078-.035-.096-.076-.123a.172.172 0 0 0-.172-.011 3.01 3.01 0 0 0-.224.228c-.171.185-.209.218-.291.26-.39.198-.909.021-1.089-.371a.79.79 0 0 1-.045-.341c.024-.145.066-.213.277-.451.195-.22.2-.226.192-.278-.009-.06-.045-.097-.118-.12-.069-.021-.399-.012-.532.015Zm-4.482.612c-.069.028-.42.408-.447.486-.021.062-.007.119.043.18.085.103.847.839.886.857a.325.325 0 0 0 .2 0 .448.448 0 0 0 .096-.079l.064-.065 1.277.953 1.278.954-.075.088c-.052.061-.077.104-.083.141-.016.114-.077.063 1.293 1.087 1.318.984 1.298.971 1.477 1.009a.798.798 0 0 0 .515-.066.77.77 0 0 0 .264-.284.61.61 0 0 0-.012-.456c-.077-.174-.044-.147-1.369-1.139-.829-.621-1.249-.928-1.289-.942-.111-.04-.186-.016-.292.095l-.069.071-1.278-.955-1.278-.955.038-.038c.13-.133.121-.28-.022-.367a62.103 62.103 0 0 0-1.038-.574.268.268 0 0 0-.179-.001Zm1.272 3.863c-.836.92-.95 1.052-.978 1.121-.125.32.028.659.373.827.115.056.239.08.383.074a.685.685 0 0 0 .324-.087c.067-.035.185-.159.903-.948l.826-.907-.041-.036a.653.653 0 0 1-.16-.24.477.477 0 0 1-.005-.289l.016-.039-.347-.259-.348-.26-.946 1.043Z" clip-rule="evenodd"/><g opacity=".4"><g filter="url(#s)"><rect width="270" height="419" fill="url(#t)" rx="10" transform="matrix(.99873 -.05044 .14984 .98871 643.255 35.585)"/></g><g filter="url(#u)"><rect width="215" height="51" fill="url(#v)" rx="10" transform="matrix(.99873 -.05044 .14984 .98871 661.332 48.62)"/></g><path fill="#fff" d="m689.622 76.083-1.364-8.997 2.117-.107 4.679 5.929-1.116.056 2.747-6.303 2.116-.107 1.389 8.996-2.375.12-.837-5.437.402-.02-2.05 4.688-1.142.058-3.507-4.408.48-.024.824 5.437-2.363.12Zm16.492-.716c-.77.039-1.477-.08-2.121-.36a4.194 4.194 0 0 1-1.608-1.2 3.85 3.85 0 0 1-.791-1.851c-.107-.703-.032-1.333.224-1.89a3.047 3.047 0 0 1 1.224-1.33c.55-.34 1.211-.528 1.981-.567.771-.039 1.478.08 2.122.36.651.269 1.186.665 1.606 1.187.419.523.682 1.136.789 1.839.106.702.032 1.336-.222 1.902a3.038 3.038 0 0 1-1.223 1.344c-.55.338-1.211.527-1.981.566Zm-.294-1.94c.286-.015.527-.092.724-.232.205-.14.354-.337.446-.592.091-.264.11-.571.057-.923a2.008 2.008 0 0 0-.329-.877 1.583 1.583 0 0 0-.618-.538 1.55 1.55 0 0 0-.783-.155 1.38 1.38 0 0 0-.723.23 1.28 1.28 0 0 0-.447.593c-.094.247-.114.546-.06.897.053.351.164.652.333.903.176.241.382.42.618.538.244.117.505.17.782.155Zm6.056 1.532-1.056-6.966 2.454-.124.553 3.65 2.394-3.799 2.272-.115 1.056 6.967-2.467.124-.555-3.663-2.366 3.811-2.285.115Zm17.957-.79a4.875 4.875 0 0 1-2.16-.357 4.167 4.167 0 0 1-1.621-1.2 3.78 3.78 0 0 1-.804-1.85c-.106-.704-.028-1.334.237-1.89a3.036 3.036 0 0 1 1.237-1.333c.568-.34 1.241-.529 2.02-.568.797-.04 1.51.092 2.141.397.63.305 1.113.756 1.447 1.352l-1.762 1.06c-.214-.317-.453-.543-.717-.676a1.562 1.562 0 0 0-.827-.191 1.477 1.477 0 0 0-.75.232c-.214.14-.372.338-.473.594-.093.246-.113.545-.06.896.054.36.165.661.333.903.176.242.391.42.644.537.253.117.522.168.808.154.286-.015.539-.1.759-.259.219-.166.386-.416.501-.75l2.055.867c-.15.62-.49 1.113-1.019 1.476-.53.364-1.192.566-1.989.606Zm9.389-.59-1.056-6.967 7.271-.367 1.056 6.966-2.454.124-.842-5.553.626.5-3.441.174.452-.554.842 5.552-2.454.124Zm13.085-.545c-.771.039-1.478-.08-2.122-.36a4.195 4.195 0 0 1-1.608-1.2 3.87 3.87 0 0 1-.791-1.851c-.106-.703-.031-1.333.224-1.89a3.056 3.056 0 0 1 1.225-1.33c.55-.34 1.211-.528 1.981-.567.77-.039 1.477.08 2.121.36.652.269 1.187.665 1.607 1.187.419.523.682 1.136.788 1.839.107.702.033 1.336-.222 1.902a3.03 3.03 0 0 1-1.222 1.344c-.55.338-1.211.527-1.981.566Zm-.294-1.941c.285-.014.527-.091.723-.23.206-.14.355-.338.447-.593.091-.264.11-.571.057-.923-.054-.351-.163-.643-.33-.877a1.568 1.568 0 0 0-1.4-.693c-.277.014-.518.09-.724.23-.197.14-.346.338-.446.593-.094.247-.114.546-.061.897.054.351.165.652.333.903.176.241.382.42.618.538a1.6 1.6 0 0 0 .783.155Zm6.055 1.533-1.055-6.966 7.27-.367 1.056 6.966-2.454.124-.841-5.553.625.5-3.441.174.453-.554.841 5.552-2.454.124Zm17.014-.859-1.055-6.966 2.454-.124 1.055 6.966-2.454.124Zm-4.117-4.636c.936-.039 1.664.132 2.184.511.529.38.849.942.962 1.687.117.772-.059 1.394-.528 1.866-.471.464-1.204.717-2.201.759l-3.713.187-1.056-6.966 2.454-.124.327 2.16 1.571-.08Zm-.083 3.164c.295-.014.514-.095.657-.24.144-.145.194-.36.151-.642-.044-.292-.157-.493-.34-.605-.174-.112-.413-.165-.717-.158l-1.013.051.248 1.633 1.014-.039Zm10.545 1.151-.843-5.565.614.513-2.805.142-.294-1.941 6.985-.353.294 1.94-2.804.142.464-.567.843 5.566-2.454.124Zm11.252-.568-2.635-3.143 1.811-1.258 3.732 4.254-2.908.147Zm-4.934.25-1.056-6.967 2.467-.125 1.056 6.967-2.467.124Zm1.364-2.57-.29-1.914 2.544-.129.291 1.915-2.545.129Zm3.174-.898-2.346-.114 1.829-3.641 2.61-.132-2.093 3.887Zm8.812 2.793-.197-1.298-.217-.313-.362-2.39c-.059-.386-.225-.676-.498-.869-.267-.203-.659-.29-1.179-.264-.337.017-.671.09-1 .219-.331.12-.603.28-.817.481l-1.082-1.616c.359-.277.805-.498 1.339-.663a6.376 6.376 0 0 1 1.641-.303c1.143-.058 2.065.159 2.768.65.71.482 1.148 1.276 1.316 2.381l.586 3.87-2.298.115Zm-2.06.22c-.562.03-1.053-.041-1.471-.21a2.479 2.479 0 0 1-1.013-.726 2.263 2.263 0 0 1-.464-1.077c-.065-.429-.012-.803.157-1.122.177-.328.483-.586.917-.772.433-.194 1.013-.31 1.74-.347l1.662-.084.192 1.273-1.324.067c-.398.02-.67.099-.815.235-.136.137-.188.312-.155.526.032.214.14.382.324.502s.419.173.705.159c.268-.014.501-.09.697-.23.205-.148.338-.362.4-.642l.474.883c-.057.486-.257.863-.6 1.131-.336.259-.811.404-1.426.435Zm6.491-.444-1.055-6.966 2.596-.131 3.144 4.426-1.026.052 1.998-4.686 2.324-.117 1.069 6.965-2.22.112-.69-4.55.416.238-1.625 3.787-1.051.053-2.766-3.746.411-.137.696 4.588-2.221.112Zm11.363-.574-1.055-6.966 2.454-.124.553 3.65 2.394-3.799 2.272-.115 1.056 6.967-2.467.124-.555-3.663-2.367 3.811-2.285.115ZM855.023 67.91a4.202 4.202 0 0 1-2.161-.447c-.653-.338-1.205-.846-1.657-1.522-.451-.677-.752-1.512-.903-2.506-.151-.994-.105-1.847.136-2.559.241-.711.632-1.266 1.173-1.665.55-.399 1.215-.618 1.994-.657.77-.04 1.482.11 2.135.448.662.338 1.218.846 1.67 1.522.451.677.752 1.512.903 2.506.151.994.105 1.847-.136 2.558-.241.712-.636 1.267-1.186 1.666-.542.399-1.198.618-1.968.657Zm-.316-2.082c.277-.014.507-.112.689-.293.19-.183.317-.465.381-.849.063-.391.047-.9-.048-1.525-.096-.635-.233-1.137-.411-1.508-.179-.37-.389-.636-.631-.797a1.212 1.212 0 0 0-.766-.22 1.06 1.06 0 0 0-.702.294c-.181.182-.309.465-.381.848-.064.383-.048.892.048 1.526.095.626.232 1.128.411 1.508.187.37.398.636.631.797.243.16.502.233.779.22Z"/><path fill="#EFD701" fill-rule="evenodd" d="M895.617 53.332c-2.093.252-3.772 1.925-4.34 4.325-.101.427-.165.861-.146.987.037.244.219.47.428.53.116.034.141.032.246-.012.167-.072.231-.193.289-.546.35-2.15 1.613-3.673 3.387-4.082.28-.064.966-.106 1.261-.077 1.103.11 2.193.64 3.115 1.516.257.244.762.819.744.847a2.5 2.5 0 0 1-.371-.076c-.32-.08-.373-.085-.454-.053-.226.092-.324.317-.265.612a.642.642 0 0 0 .266.425c.045.032.457.15 1.038.299.798.203.986.242 1.087.226a.375.375 0 0 0 .314-.303c.016-.07.058-.613.093-1.209.07-1.196.068-1.245-.085-1.45-.166-.223-.425-.288-.613-.155-.147.103-.189.238-.21.676-.011.211-.022.394-.026.407-.004.012-.094-.09-.201-.226-.932-1.184-2.052-2.01-3.281-2.418a5.157 5.157 0 0 0-2.276-.243Zm6.707 8.553c-.153.07-.217.196-.275.544a7.389 7.389 0 0 1-.325 1.244c-.582 1.528-1.753 2.583-3.172 2.857-.312.06-1.091.076-1.379.028-1.076-.181-2.029-.673-2.895-1.497-.282-.267-.761-.822-.725-.84.012-.005.174.03.36.078.31.081.349.086.45.05.214-.073.323-.29.282-.56a1.044 1.044 0 0 0-.059-.222c-.051-.11-.224-.28-.315-.309a59.643 59.643 0 0 0-.983-.255c-.749-.19-.93-.228-1.038-.214-.168.023-.282.13-.323.303-.016.07-.058.614-.093 1.21-.07 1.197-.068 1.246.082 1.446.17.226.427.292.617.158.146-.103.188-.238.209-.676.011-.211.022-.394.026-.406.004-.013.095.088.202.225 1.219 1.552 2.79 2.496 4.451 2.675a6.4 6.4 0 0 0 1.382-.055 4.963 4.963 0 0 0 1.531-.583c1.21-.722 2.105-2.006 2.501-3.588.116-.463.189-.89.18-1.047-.016-.26-.201-.515-.42-.58-.147-.044-.146-.044-.271.014Z" clip-rule="evenodd"/></g><path fill="url(#w)" d="M661 0h315v496H661z"/><path fill="url(#x)" d="M0 0h296v496H0z" transform="matrix(-1 0 0 1 343 0)"/><path stroke="#EFD701" stroke-dasharray="1 9" stroke-width="3" d="M309.633 269.5c-16.5-71-23.6-198 80-138"/><path stroke="#EFD701" stroke-width="3" d="M392.356 133.549 388.268 123m4.914 8.678-10.549 4.089"/><path stroke="#EFD701" stroke-dasharray="1 9" stroke-width="3" d="M612.266 269.5c-16.5-71-23.6-198 80-138"/><path stroke="#EFD701" stroke-width="3" d="M694.989 133.549 690.9 123m4.915 8.678-10.549 4.089"/><defs><linearGradient id="b" x1="8.804" x2="317.988" y1="14.964" y2="359.931" gradientUnits="userSpaceOnUse"><stop stop-color="#D8FF86"/><stop offset="1" stop-color="#0C4A0B"/></linearGradient><linearGradient id="d" x1="7.011" x2="17.193" y1="1.821" y2="76.145" gradientUnits="userSpaceOnUse"><stop stop-color="#D8FF86"/><stop offset="1" stop-color="#0C4A0B"/></linearGradient><linearGradient id="f" x1="8.804" x2="317.988" y1="14.964" y2="359.931" gradientUnits="userSpaceOnUse"><stop stop-color="#D8FF86"/><stop offset="1" stop-color="#0C4A0B"/></linearGradient><linearGradient id="h" x1="7.011" x2="17.193" y1="1.821" y2="76.145" gradientUnits="userSpaceOnUse"><stop stop-color="#D8FF86"/><stop offset="1" stop-color="#0C4A0B"/></linearGradient><linearGradient id="k" x1="3.261" x2="6.32" y1=".679" y2="28.552" gradientUnits="userSpaceOnUse"><stop stop-color="#D8FF86"/><stop offset="1" stop-color="#0C4A0B"/></linearGradient><linearGradient id="m" x1="1.533" x2="31.753" y1="1.679" y2="54.004" gradientUnits="userSpaceOnUse"><stop stop-color="#D8FF86"/><stop offset="1" stop-color="#0C4A0B"/></linearGradient><linearGradient id="p" x1="3.261" x2="6.32" y1=".679" y2="28.552" gradientUnits="userSpaceOnUse"><stop stop-color="#D8FF86"/><stop offset="1" stop-color="#0C4A0B"/></linearGradient><linearGradient id="r" x1="1.533" x2="31.753" y1="1.679" y2="54.004" gradientUnits="userSpaceOnUse"><stop stop-color="#D8FF86"/><stop offset="1" stop-color="#0C4A0B"/></linearGradient><linearGradient id="t" x1="8.804" x2="317.988" y1="14.964" y2="359.931" gradientUnits="userSpaceOnUse"><stop stop-color="#D8FF86"/><stop offset="1" stop-color="#0C4A0B"/></linearGradient><linearGradient id="v" x1="7.011" x2="17.193" y1="1.821" y2="76.145" gradientUnits="userSpaceOnUse"><stop stop-color="#D8FF86"/><stop offset="1" stop-color="#0C4A0B"/></linearGradient><linearGradient id="w" x1="661" x2="976" y1="212.5" y2="212.5" gradientUnits="userSpaceOnUse"><stop stop-color="#1D2628" stop-opacity="0"/><stop offset=".703" stop-color="#1D2628"/></linearGradient><linearGradient id="x" x1="0" x2="296" y1="212.5" y2="212.5" gradientUnits="userSpaceOnUse"><stop stop-color="#1D2628" stop-opacity="0"/><stop offset=".818" stop-color="#1D2628"/></linearGradient><filter id="a" width="397.668" height="494.907" x=".64" y="12.457" color-interpolation-filters="sRGB" filterUnits="userSpaceOnUse"><feFlood flood-opacity="0" result="BackgroundImageFix"/><feColorMatrix in="SourceAlpha" result="hardAlpha" values="0 0 0 0 0 0 0 0 0 0 0 0 0 0 0 0 0 0 127 0"/><feOffset dx="-14" dy="24"/><feGaussianBlur stdDeviation="17"/><feComposite in2="hardAlpha" operator="out"/><feColorMatrix values="0 0 0 0 0.0777778 0 0 0 0 0.166667 0 0 0 0 0.0973333 0 0 0 0.67 0"/><feBlend in2="BackgroundImageFix" result="effect1_dropShadow_179_22"/><feColorMatrix in="SourceAlpha" result="hardAlpha" values="0 0 0 0 0 0 0 0 0 0 0 0 0 0 0 0 0 0 127 0"/><feOffset dx="-1" dy="3"/><feComposite in2="hardAlpha" operator="out"/><feColorMatrix values="0 0 0 0 0.151059 0 0 0 0 0.320833 0 0 0 0 0.168036 0 0 0 1 0"/><feBlend in2="effect1_dropShadow_179_22" result="effect2_dropShadow_179_22"/><feBlend in="SourceGraphic" in2="effect2_dropShadow_179_22" result="shape"/><feColorMatrix in="SourceAlpha" result="hardAlpha" values="0 0 0 0 0 0 0 0 0 0 0 0 0 0 0 0 0 0 127 0"/><feOffset dy="2"/><feGaussianBlur stdDeviation="4"/><feComposite in2="hardAlpha" k2="-1" k3="1" operator="arithmetic"/><feColorMatrix values="0 0 0 0 1 0 0 0 0 1 0 0 0 0 1 0 0 0 0.37 0"/><feBlend in2="shape" result="effect3_innerShadow_179_22"/></filter><filter id="c" width="287.597" height="128.287" x="18.718" y="28.266" color-interpolation-filters="sRGB" filterUnits="userSpaceOnUse"><feFlood flood-opacity="0" result="BackgroundImageFix"/><feColorMatrix in="SourceAlpha" result="hardAlpha" values="0 0 0 0 0 0 0 0 0 0 0 0 0 0 0 0 0 0 127 0"/><feOffset dx="-14" dy="24"/><feGaussianBlur stdDeviation="17"/><feComposite in2="hardAlpha" operator="out"/><feColorMatrix values="0 0 0 0 0.0777778 0 0 0 0 0.166667 0 0 0 0 0.0973333 0 0 0 0.67 0"/><feBlend in2="BackgroundImageFix" result="effect1_dropShadow_179_22"/><feColorMatrix in="SourceAlpha" result="hardAlpha" values="0 0 0 0 0 0 0 0 0 0 0 0 0 0 0 0 0 0 127 0"/><feOffset dx="-1" dy="3"/><feComposite in2="hardAlpha" operator="out"/><feColorMatrix values="0 0 0 0 0.151059 0 0 0 0 0.320833 0 0 0 0 0.168036 0 0 0 1 0"/><feBlend in2="effect1_dropShadow_179_22" result="effect2_dropShadow_179_22"/><feBlend in="SourceGraphic" in2="effect2_dropShadow_179_22" result="shape"/><feColorMatrix in="SourceAlpha" result="hardAlpha" values="0 0 0 0 0 0 0 0 0 0 0 0 0 0 0 0 0 0 127 0"/><feOffset dy="2"/><feGaussianBlur stdDeviation="4"/><feComposite in2="hardAlpha" k2="-1" k3="1" operator="arithmetic"/><feColorMatrix values="0 0 0 0 1 0 0 0 0 1 0 0 0 0 1 0 0 0 0.37 0"/><feBlend in2="shape" result="effect3_innerShadow_179_22"/></filter><filter id="e" width="397.668" height="494.907" x="298.64" y="12.457" color-interpolation-filters="sRGB" filterUnits="userSpaceOnUse"><feFlood flood-opacity="0" result="BackgroundImageFix"/><feColorMatrix in="SourceAlpha" result="hardAlpha" values="0 0 0 0 0 0 0 0 0 0 0 0 0 0 0 0 0 0 127 0"/><feOffset dx="-14" dy="24"/><feGaussianBlur stdDeviation="17"/><feComposite in2="hardAlpha" operator="out"/><feColorMatrix values="0 0 0 0 0.0777778 0 0 0 0 0.166667 0 0 0 0 0.0973333 0 0 0 0.67 0"/><feBlend in2="BackgroundImageFix" result="effect1_dropShadow_179_22"/><feColorMatrix in="SourceAlpha" result="hardAlpha" values="0 0 0 0 0 0 0 0 0 0 0 0 0 0 0 0 0 0 127 0"/><feOffset dx="-1" dy="3"/><feComposite in2="hardAlpha" operator="out"/><feColorMatrix values="0 0 0 0 0.151059 0 0 0 0 0.320833 0 0 0 0 0.168036 0 0 0 1 0"/><feBlend in2="effect1_dropShadow_179_22" result="effect2_dropShadow_179_22"/><feBlend in="SourceGraphic" in2="effect2_dropShadow_179_22" result="shape"/><feColorMatrix in="SourceAlpha" result="hardAlpha" values="0 0 0 0 0 0 0 0 0 0 0 0 0 0 0 0 0 0 127 0"/><feOffset dy="2"/><feGaussianBlur stdDeviation="4"/><feComposite in2="hardAlpha" k2="-1" k3="1" operator="arithmetic"/><feColorMatrix values="0 0 0 0 1 0 0 0 0 1 0 0 0 0 1 0 0 0 0.37 0"/><feBlend in2="shape" result="effect3_innerShadow_179_22"/></filter><filter id="g" width="287.598" height="128.287" x="316.718" y="28.266" color-interpolation-filters="sRGB" filterUnits="userSpaceOnUse"><feFlood flood-opacity="0" result="BackgroundImageFix"/><feColorMatrix in="SourceAlpha" result="hardAlpha" values="0 0 0 0 0 0 0 0 0 0 0 0 0 0 0 0 0 0 127 0"/><feOffset dx="-14" dy="24"/><feGaussianBlur stdDeviation="17"/><feComposite in2="hardAlpha" operator="out"/><feColorMatrix values="0 0 0 0 0.0777778 0 0 0 0 0.166667 0 0 0 0 0.0973333 0 0 0 0.67 0"/><feBlend in2="BackgroundImageFix" result="effect1_dropShadow_179_22"/><feColorMatrix in="SourceAlpha" result="hardAlpha" values="0 0 0 0 0 0 0 0 0 0 0 0 0 0 0 0 0 0 127 0"/><feOffset dx="-1" dy="3"/><feComposite in2="hardAlpha" operator="out"/><feColorMatrix values="0 0 0 0 0.151059 0 0 0 0 0.320833 0 0 0 0 0.168036 0 0 0 1 0"/><feBlend in2="effect1_dropShadow_179_22" result="effect2_dropShadow_179_22"/><feBlend in="SourceGraphic" in2="effect2_dropShadow_179_22" result="shape"/><feColorMatrix in="SourceAlpha" result="hardAlpha" values="0 0 0 0 0 0 0 0 0 0 0 0 0 0 0 0 0 0 127 0"/><feOffset dy="2"/><feGaussianBlur stdDeviation="4"/><feComposite in2="hardAlpha" k2="-1" k3="1" operator="arithmetic"/><feColorMatrix values="0 0 0 0 1 0 0 0 0 1 0 0 0 0 1 0 0 0 0.37 0"/><feBlend in2="shape" result="effect3_innerShadow_179_22"/></filter><filter id="i" width="323.554" height="208.594" x="331.401" y="123.949" color-interpolation-filters="sRGB" filterUnits="userSpaceOnUse"><feFlood flood-opacity="0" result="BackgroundImageFix"/><feColorMatrix in="SourceAlpha" result="hardAlpha" values="0 0 0 0 0 0 0 0 0 0 0 0 0 0 0 0 0 0 127 0"/><feOffset dx="-14" dy="24"/><feGaussianBlur stdDeviation="17"/><feComposite in2="hardAlpha" operator="out"/><feColorMatrix values="0 0 0 0 0.0777778 0 0 0 0 0.166667 0 0 0 0 0.0973333 0 0 0 0.67 0"/><feBlend in2="BackgroundImageFix" result="effect1_dropShadow_179_22"/><feColorMatrix in="SourceAlpha" result="hardAlpha" values="0 0 0 0 0 0 0 0 0 0 0 0 0 0 0 0 0 0 127 0"/><feOffset dx="-1" dy="3"/><feComposite in2="hardAlpha" operator="out"/><feColorMatrix values="0 0 0 0 0.151059 0 0 0 0 0.320833 0 0 0 0 0.168036 0 0 0 1 0"/><feBlend in2="effect1_dropShadow_179_22" result="effect2_dropShadow_179_22"/><feBlend in="SourceGraphic" in2="effect2_dropShadow_179_22" result="shape"/><feColorMatrix in="SourceAlpha" result="hardAlpha" values="0 0 0 0 0 0 0 0 0 0 0 0 0 0 0 0 0 0 127 0"/><feOffset dy="2"/><feGaussianBlur stdDeviation="4"/><feComposite in2="hardAlpha" k2="-1" k3="1" operator="arithmetic"/><feColorMatrix values="0 0 0 0 1 0 0 0 0 1 0 0 0 0 1 0 0 0 0.37 0"/><feBlend in2="shape" result="effect3_innerShadow_179_22"/></filter><filter id="j" width="144.088" height="66.897" x="373.554" y="122.832" color-interpolation-filters="sRGB" filterUnits="userSpaceOnUse"><feFlood flood-opacity="0" result="BackgroundImageFix"/><feColorMatrix in="SourceAlpha" result="hardAlpha" values="0 0 0 0 0 0 0 0 0 0 0 0 0 0 0 0 0 0 127 0"/><feOffset dx="-6" dy="10"/><feGaussianBlur stdDeviation="11"/><feComposite in2="hardAlpha" operator="out"/><feColorMatrix values="0 0 0 0 0.0777778 0 0 0 0 0.166667 0 0 0 0 0.0973333 0 0 0 0.55 0"/><feBlend in2="BackgroundImageFix" result="effect1_dropShadow_179_22"/><feColorMatrix in="SourceAlpha" result="hardAlpha" values="0 0 0 0 0 0 0 0 0 0 0 0 0 0 0 0 0 0 127 0"/><feOffset dx="-1" dy="3"/><feComposite in2="hardAlpha" operator="out"/><feColorMatrix values="0 0 0 0 0.151059 0 0 0 0 0.320833 0 0 0 0 0.168036 0 0 0 1 0"/><feBlend in2="effect1_dropShadow_179_22" result="effect2_dropShadow_179_22"/><feBlend in="SourceGraphic" in2="effect2_dropShadow_179_22" result="shape"/><feColorMatrix in="SourceAlpha" result="hardAlpha" values="0 0 0 0 0 0 0 0 0 0 0 0 0 0 0 0 0 0 127 0"/><feOffset dy="2"/><feGaussianBlur stdDeviation="4"/><feComposite in2="hardAlpha" k2="-1" k3="1" operator="arithmetic"/><feColorMatrix values="0 0 0 0 1 0 0 0 0 1 0 0 0 0 1 0 0 0 0.37 0"/><feBlend in2="shape" result="effect3_innerShadow_179_22"/></filter><filter id="l" width="91.472" height="90.531" x="524.054" y="143.597" color-interpolation-filters="sRGB" filterUnits="userSpaceOnUse"><feFlood flood-opacity="0" result="BackgroundImageFix"/><feColorMatrix in="SourceAlpha" result="hardAlpha" values="0 0 0 0 0 0 0 0 0 0 0 0 0 0 0 0 0 0 127 0"/><feOffset dx="-6" dy="10"/><feGaussianBlur stdDeviation="11"/><feComposite in2="hardAlpha" operator="out"/><feColorMatrix values="0 0 0 0 0.0777778 0 0 0 0 0.166667 0 0 0 0 0.0973333 0 0 0 0.55 0"/><feBlend in2="BackgroundImageFix" result="effect1_dropShadow_179_22"/><feColorMatrix in="SourceAlpha" result="hardAlpha" values="0 0 0 0 0 0 0 0 0 0 0 0 0 0 0 0 0 0 127 0"/><feOffset dx="-1" dy="3"/><feComposite in2="hardAlpha" operator="out"/><feColorMatrix values="0 0 0 0 0.151059 0 0 0 0 0.320833 0 0 0 0 0.168036 0 0 0 1 0"/><feBlend in2="effect1_dropShadow_179_22" result="effect2_dropShadow_179_22"/><feBlend in="SourceGraphic" in2="effect2_dropShadow_179_22" result="shape"/><feColorMatrix in="SourceAlpha" result="hardAlpha" values="0 0 0 0 0 0 0 0 0 0 0 0 0 0 0 0 0 0 127 0"/><feOffset dy="2"/><feGaussianBlur stdDeviation="4"/><feComposite in2="hardAlpha" k2="-1" k3="1" operator="arithmetic"/><feColorMatrix values="0 0 0 0 1 0 0 0 0 1 0 0 0 0 1 0 0 0 0.37 0"/><feBlend in2="shape" result="effect3_innerShadow_179_22"/></filter><filter id="n" width="323.554" height="208.594" x="354.926" y="279.177" color-interpolation-filters="sRGB" filterUnits="userSpaceOnUse"><feFlood flood-opacity="0" result="BackgroundImageFix"/><feColorMatrix in="SourceAlpha" result="hardAlpha" values="0 0 0 0 0 0 0 0 0 0 0 0 0 0 0 0 0 0 127 0"/><feOffset dx="-14" dy="24"/><feGaussianBlur stdDeviation="17"/><feComposite in2="hardAlpha" operator="out"/><feColorMatrix values="0 0 0 0 0.0777778 0 0 0 0 0.166667 0 0 0 0 0.0973333 0 0 0 0.67 0"/><feBlend in2="BackgroundImageFix" result="effect1_dropShadow_179_22"/><feColorMatrix in="SourceAlpha" result="hardAlpha" values="0 0 0 0 0 0 0 0 0 0 0 0 0 0 0 0 0 0 127 0"/><feOffset dx="-1" dy="3"/><feComposite in2="hardAlpha" operator="out"/><feColorMatrix values="0 0 0 0 0.151059 0 0 0 0 0.320833 0 0 0 0 0.168036 0 0 0 1 0"/><feBlend in2="effect1_dropShadow_179_22" result="effect2_dropShadow_179_22"/><feBlend in="SourceGraphic" in2="effect2_dropShadow_179_22" result="shape"/><feColorMatrix in="SourceAlpha" result="hardAlpha" values="0 0 0 0 0 0 0 0 0 0 0 0 0 0 0 0 0 0 127 0"/><feOffset dy="2"/><feGaussianBlur stdDeviation="4"/><feComposite in2="hardAlpha" k2="-1" k3="1" operator="arithmetic"/><feColorMatrix values="0 0 0 0 1 0 0 0 0 1 0 0 0 0 1 0 0 0 0.37 0"/><feBlend in2="shape" result="effect3_innerShadow_179_22"/></filter><filter id="o" width="144.088" height="66.897" x="397.078" y="278.06" color-interpolation-filters="sRGB" filterUnits="userSpaceOnUse"><feFlood flood-opacity="0" result="BackgroundImageFix"/><feColorMatrix in="SourceAlpha" result="hardAlpha" values="0 0 0 0 0 0 0 0 0 0 0 0 0 0 0 0 0 0 127 0"/><feOffset dx="-6" dy="10"/><feGaussianBlur stdDeviation="11"/><feComposite in2="hardAlpha" operator="out"/><feColorMatrix values="0 0 0 0 0.0777778 0 0 0 0 0.166667 0 0 0 0 0.0973333 0 0 0 0.55 0"/><feBlend in2="BackgroundImageFix" result="effect1_dropShadow_179_22"/><feColorMatrix in="SourceAlpha" result="hardAlpha" values="0 0 0 0 0 0 0 0 0 0 0 0 0 0 0 0 0 0 127 0"/><feOffset dx="-1" dy="3"/><feComposite in2="hardAlpha" operator="out"/><feColorMatrix values="0 0 0 0 0.151059 0 0 0 0 0.320833 0 0 0 0 0.168036 0 0 0 1 0"/><feBlend in2="effect1_dropShadow_179_22" result="effect2_dropShadow_179_22"/><feBlend in="SourceGraphic" in2="effect2_dropShadow_179_22" result="shape"/><feColorMatrix in="SourceAlpha" result="hardAlpha" values="0 0 0 0 0 0 0 0 0 0 0 0 0 0 0 0 0 0 127 0"/><feOffset dy="2"/><feGaussianBlur stdDeviation="4"/><feComposite in2="hardAlpha" k2="-1" k3="1" operator="arithmetic"/><feColorMatrix values="0 0 0 0 1 0 0 0 0 1 0 0 0 0 1 0 0 0 0.37 0"/><feBlend in2="shape" result="effect3_innerShadow_179_22"/></filter><filter id="q" width="91.472" height="90.531" x="547.579" y="298.825" color-interpolation-filters="sRGB" filterUnits="userSpaceOnUse"><feFlood flood-opacity="0" result="BackgroundImageFix"/><feColorMatrix in="SourceAlpha" result="hardAlpha" values="0 0 0 0 0 0 0 0 0 0 0 0 0 0 0 0 0 0 127 0"/><feOffset dx="-6" dy="10"/><feGaussianBlur stdDeviation="11"/><feComposite in2="hardAlpha" operator="out"/><feColorMatrix values="0 0 0 0 0.0777778 0 0 0 0 0.166667 0 0 0 0 0.0973333 0 0 0 0.55 0"/><feBlend in2="BackgroundImageFix" result="effect1_dropShadow_179_22"/><feColorMatrix in="SourceAlpha" result="hardAlpha" values="0 0 0 0 0 0 0 0 0 0 0 0 0 0 0 0 0 0 127 0"/><feOffset dx="-1" dy="3"/><feComposite in2="hardAlpha" operator="out"/><feColorMatrix values="0 0 0 0 0.151059 0 0 0 0 0.320833 0 0 0 0 0.168036 0 0 0 1 0"/><feBlend in2="effect1_dropShadow_179_22" result="effect2_dropShadow_179_22"/><feBlend in="SourceGraphic" in2="effect2_dropShadow_179_22" result="shape"/><feColorMatrix in="SourceAlpha" result="hardAlpha" values="0 0 0 0 0 0 0 0 0 0 0 0 0 0 0 0 0 0 127 0"/><feOffset dy="2"/><feGaussianBlur stdDeviation="4"/><feComposite in2="hardAlpha" k2="-1" k3="1" operator="arithmetic"/><feColorMatrix values="0 0 0 0 1 0 0 0 0 1 0 0 0 0 1 0 0 0 0.37 0"/><feBlend in2="shape" result="effect3_innerShadow_179_22"/></filter><filter id="s" width="397.668" height="494.907" x="596.64" y="12.457" color-interpolation-filters="sRGB" filterUnits="userSpaceOnUse"><feFlood flood-opacity="0" result="BackgroundImageFix"/><feColorMatrix in="SourceAlpha" result="hardAlpha" values="0 0 0 0 0 0 0 0 0 0 0 0 0 0 0 0 0 0 127 0"/><feOffset dx="-14" dy="24"/><feGaussianBlur stdDeviation="17"/><feComposite in2="hardAlpha" operator="out"/><feColorMatrix values="0 0 0 0 0.0777778 0 0 0 0 0.166667 0 0 0 0 0.0973333 0 0 0 0.67 0"/><feBlend in2="BackgroundImageFix" result="effect1_dropShadow_179_22"/><feColorMatrix in="SourceAlpha" result="hardAlpha" values="0 0 0 0 0 0 0 0 0 0 0 0 0 0 0 0 0 0 127 0"/><feOffset dx="-1" dy="3"/><feComposite in2="hardAlpha" operator="out"/><feColorMatrix values="0 0 0 0 0.151059 0 0 0 0 0.320833 0 0 0 0 0.168036 0 0 0 1 0"/><feBlend in2="effect1_dropShadow_179_22" result="effect2_dropShadow_179_22"/><feBlend in="SourceGraphic" in2="effect2_dropShadow_179_22" result="shape"/><feColorMatrix in="SourceAlpha" result="hardAlpha" values="0 0 0 0 0 0 0 0 0 0 0 0 0 0 0 0 0 0 127 0"/><feOffset dy="2"/><feGaussianBlur stdDeviation="4"/><feComposite in2="hardAlpha" k2="-1" k3="1" operator="arithmetic"/><feColorMatrix values="0 0 0 0 1 0 0 0 0 1 0 0 0 0 1 0 0 0 0.37 0"/><feBlend in2="shape" result="effect3_innerShadow_179_22"/></filter><filter id="u" width="287.598" height="128.287" x="614.718" y="28.266" color-interpolation-filters="sRGB" filterUnits="userSpaceOnUse"><feFlood flood-opacity="0" result="BackgroundImageFix"/><feColorMatrix in="SourceAlpha" result="hardAlpha" values="0 0 0 0 0 0 0 0 0 0 0 0 0 0 0 0 0 0 127 0"/><feOffset dx="-14" dy="24"/><feGaussianBlur stdDeviation="17"/><feComposite in2="hardAlpha" operator="out"/><feColorMatrix values="0 0 0 0 0.0777778 0 0 0 0 0.166667 0 0 0 0 0.0973333 0 0 0 0.67 0"/><feBlend in2="BackgroundImageFix" result="effect1_dropShadow_179_22"/><feColorMatrix in="SourceAlpha" result="hardAlpha" values="0 0 0 0 0 0 0 0 0 0 0 0 0 0 0 0 0 0 127 0"/><feOffset dx="-1" dy="3"/><feComposite in2="hardAlpha" operator="out"/><feColorMatrix values="0 0 0 0 0.151059 0 0 0 0 0.320833 0 0 0 0 0.168036 0 0 0 1 0"/><feBlend in2="effect1_dropShadow_179_22" result="effect2_dropShadow_179_22"/><feBlend in="SourceGraphic" in2="effect2_dropShadow_179_22" result="shape"/><feColorMatrix in="SourceAlpha" result="hardAlpha" values="0 0 0 0 0 0 0 0 0 0 0 0 0 0 0 0 0 0 127 0"/><feOffset dy="2"/><feGaussianBlur stdDeviation="4"/><feComposite in2="hardAlpha" k2="-1" k3="1" operator="arithmetic"/><feColorMatrix values="0 0 0 0 1 0 0 0 0 1 0 0 0 0 1 0 0 0 0.37 0"/><feBlend in2="shape" result="effect3_innerShadow_179_22"/></filter></defs></svg>