<svg width="589" height="533" viewBox="0 0 589 533" fill="none" xmlns="http://www.w3.org/2000/svg">
<path d="M42.3506 33.6282L114.701 511.034" stroke="#3A5772"/>
<path d="M159.82 27.6953L232.17 505.101" stroke="#3A5772"/>
<path d="M278.835 21.6841L351.185 499.09" stroke="#3A5772"/>
<path d="M396.305 15.751L468.655 493.157" stroke="#3A5772"/>
<path d="M515.319 9.73999L587.669 487.146" stroke="#3A5772"/>
<path d="M115.59 511.76L587.013 487.95" stroke="#3A5772"/>
<path d="M103.531 432.193L574.954 408.382" stroke="#3A5772"/>
<path d="M91.4727 352.625L562.896 328.815" stroke="#3A5772"/>
<path d="M79.415 273.057L550.838 249.247" stroke="#3A5772"/>
<path d="M67.3564 193.49L538.779 169.679" stroke="#3A5772"/>
<path d="M55.2979 113.922L526.721 90.1116" stroke="#3A5772"/>
<path d="M43.0078 32.8242L514.431 9.01396" stroke="#3A5772"/>
<path d="M115.59 511.76L587.013 487.95" stroke="#3A5772"/>
<path d="M42.3506 33.6282L114.701 511.034" stroke="#445D74"/>
<path d="M115.986 532.271L115.025 532.319L114.568 529.302L112.783 529.392C112.585 529.402 112.418 529.414 112.282 529.427C112.149 529.437 112.035 529.453 111.94 529.474C111.848 529.491 111.77 529.515 111.705 529.544C111.644 529.57 111.585 529.603 111.529 529.645C111.462 529.697 111.405 529.755 111.359 529.819C111.312 529.88 111.275 529.956 111.246 530.049C111.221 530.141 111.205 530.253 111.199 530.387C111.193 530.52 111.198 530.683 111.215 530.877L111.283 531.652C111.29 531.746 111.295 531.831 111.297 531.909C111.299 531.984 111.296 532.054 111.29 532.119C111.283 532.184 111.273 532.249 111.26 532.315C111.25 532.377 111.234 532.443 111.212 532.512L110.11 532.568C110.142 532.524 110.173 532.475 110.2 532.422C110.228 532.369 110.252 532.306 110.27 532.234C110.288 532.158 110.301 532.07 110.309 531.969C110.316 531.868 110.316 531.748 110.308 531.609L110.245 530.639C110.233 530.478 110.23 530.322 110.233 530.173C110.237 530.023 110.263 529.883 110.312 529.75C110.36 529.618 110.442 529.497 110.556 529.388C110.674 529.278 110.842 529.184 111.059 529.105C110.949 529.071 110.819 529.026 110.67 528.969C110.52 528.911 110.371 528.823 110.222 528.704C110.076 528.585 109.942 528.426 109.82 528.228C109.701 528.027 109.618 527.768 109.57 527.453C109.536 527.228 109.531 527.022 109.555 526.836C109.58 526.65 109.623 526.484 109.686 526.338C109.749 526.189 109.826 526.062 109.918 525.956C110.013 525.848 110.113 525.759 110.217 525.688C110.327 525.615 110.457 525.555 110.607 525.508C110.761 525.461 110.917 525.426 111.078 525.402C111.238 525.377 111.392 525.36 111.541 525.349C111.694 525.338 111.827 525.33 111.94 525.324L114.91 525.174L115.986 532.271ZM114.077 526.063L111.882 526.173C111.798 526.178 111.712 526.184 111.625 526.191C111.537 526.196 111.45 526.205 111.364 526.219C111.277 526.233 111.195 526.254 111.117 526.28C111.039 526.304 110.969 526.336 110.906 526.378C110.817 526.438 110.744 526.51 110.688 526.594C110.632 526.678 110.589 526.769 110.558 526.868C110.53 526.967 110.514 527.068 110.51 527.172C110.507 527.276 110.512 527.378 110.527 527.477C110.538 527.545 110.554 527.62 110.576 527.704C110.598 527.784 110.632 527.868 110.678 527.956C110.724 528.042 110.783 528.126 110.855 528.21C110.926 528.291 111.015 528.364 111.124 528.43C111.218 528.49 111.31 528.536 111.4 528.567C111.493 528.595 111.589 528.614 111.689 528.625C111.788 528.633 111.893 528.634 112.004 528.629C112.118 528.623 112.243 528.615 112.379 528.605L114.446 528.501L114.077 526.063ZM116.607 527.029L117.504 526.984L117.82 529.07L120.258 528.946L119.942 526.861L120.844 526.815L121.628 531.986L120.726 532.031L120.375 529.719L117.937 529.842L118.288 532.154L117.39 532.2L116.607 527.029ZM122.166 526.749L124.39 526.636C125.027 526.604 125.521 526.697 125.872 526.917C126.226 527.135 126.437 527.468 126.505 527.916C126.541 528.154 126.513 528.358 126.421 528.528C126.329 528.698 126.196 528.851 126.023 528.986C126.315 529.075 126.557 529.212 126.749 529.397C126.941 529.582 127.06 529.827 127.106 530.133C127.143 530.374 127.135 530.594 127.083 530.791C127.031 530.988 126.933 531.158 126.787 531.302C126.642 531.446 126.446 531.561 126.201 531.648C125.958 531.731 125.663 531.782 125.315 531.8L122.95 531.919L122.166 526.749ZM123.739 531.164L125.105 531.095C125.342 531.083 125.536 531.055 125.687 531.012C125.84 530.966 125.959 530.904 126.042 530.829C126.126 530.753 126.18 530.665 126.203 530.563C126.227 530.461 126.23 530.347 126.211 530.222C126.192 530.096 126.155 529.985 126.101 529.887C126.046 529.786 125.967 529.704 125.862 529.641C125.757 529.575 125.622 529.528 125.458 529.501C125.296 529.47 125.096 529.461 124.859 529.473L123.494 529.542L123.739 531.164ZM123.395 528.89L124.75 528.822C125.053 528.806 125.283 528.735 125.44 528.607C125.598 528.479 125.657 528.289 125.619 528.038C125.598 527.897 125.556 527.781 125.493 527.69C125.429 527.596 125.353 527.522 125.263 527.468C125.173 527.414 125.074 527.378 124.966 527.361C124.862 527.34 124.756 527.333 124.648 527.338L123.171 527.413L123.395 528.89Z" fill="#A3A3A3"/>
<path d="M230.704 522.901C230.655 522.573 230.56 522.282 230.42 522.03C230.28 521.774 230.092 521.562 229.856 521.392C229.624 521.222 229.342 521.099 229.009 521.021C228.676 520.941 228.293 520.912 227.861 520.933L228.495 525.119C228.927 525.097 229.296 525.032 229.6 524.922C229.904 524.809 230.145 524.659 230.323 524.472C230.504 524.281 230.625 524.055 230.687 523.792C230.748 523.526 230.754 523.229 230.704 522.901ZM227.657 525.979C227.118 526.006 226.624 525.969 226.176 525.869C225.728 525.765 225.336 525.598 225 525.369C224.664 525.139 224.389 524.848 224.175 524.496C223.96 524.14 223.817 523.726 223.745 523.253C223.674 522.779 223.69 522.359 223.795 521.99C223.899 521.618 224.082 521.303 224.344 521.043C224.606 520.783 224.943 520.581 225.353 520.437C225.763 520.29 226.238 520.203 226.778 520.176L226.658 519.384L227.619 519.335L227.739 520.127C228.278 520.1 228.772 520.138 229.22 520.242C229.668 520.343 230.06 520.508 230.396 520.737C230.732 520.967 231.008 521.259 231.222 521.615C231.439 521.967 231.584 522.38 231.655 522.853C231.727 523.326 231.709 523.749 231.602 524.121C231.497 524.489 231.314 524.803 231.052 525.063C230.79 525.323 230.453 525.526 230.043 525.673C229.633 525.817 229.158 525.903 228.618 525.93L228.738 526.722L227.777 526.77L227.657 525.979ZM224.691 523.205C224.741 523.533 224.836 523.825 224.977 524.081C225.116 524.333 225.302 524.544 225.534 524.714C225.769 524.88 226.052 525.004 226.382 525.085C226.715 525.162 227.099 525.19 227.534 525.168L226.9 520.982C226.464 521.004 226.095 521.071 225.791 521.184C225.489 521.293 225.248 521.443 225.068 521.634C224.89 521.824 224.771 522.053 224.709 522.318C224.648 522.581 224.642 522.876 224.691 523.205ZM237.366 524.476C237.364 524.703 237.319 524.928 237.232 525.15C237.144 525.371 237.016 525.572 236.846 525.753C236.677 525.933 236.467 526.082 236.216 526.198C235.969 526.318 235.684 526.386 235.363 526.402C235.011 526.42 234.678 526.38 234.362 526.282C234.048 526.181 233.765 526.022 233.513 525.804C233.263 525.584 233.05 525.302 232.874 524.961C232.698 524.62 232.574 524.214 232.503 523.744C232.455 523.429 232.446 523.142 232.476 522.885C232.508 522.623 232.568 522.39 232.655 522.185C232.744 521.976 232.856 521.795 232.99 521.642C233.124 521.486 233.27 521.357 233.428 521.255C233.589 521.15 233.757 521.07 233.932 521.016C234.107 520.958 234.279 520.925 234.448 520.917C234.805 520.899 235.14 520.935 235.452 521.027C235.764 521.118 236.042 521.268 236.287 521.476C236.534 521.681 236.741 521.944 236.908 522.267C237.077 522.586 237.196 522.966 237.262 523.407L237.33 523.851L233.511 524.044C233.553 524.294 233.623 524.521 233.723 524.724C233.822 524.923 233.945 525.092 234.094 525.23C234.243 525.369 234.413 525.474 234.604 525.545C234.797 525.613 235.008 525.641 235.236 525.63C235.467 525.618 235.657 525.576 235.806 525.504C235.956 525.431 236.077 525.343 236.169 525.237C236.261 525.132 236.33 525.017 236.377 524.891C236.427 524.765 236.465 524.642 236.493 524.52L237.366 524.476ZM236.32 523.187C236.275 522.936 236.203 522.714 236.101 522.521C236.003 522.329 235.881 522.169 235.734 522.044C235.59 521.915 235.425 521.821 235.239 521.762C235.053 521.7 234.853 521.675 234.638 521.686C234.433 521.696 234.251 521.746 234.091 521.835C233.93 521.921 233.795 522.038 233.687 522.186C233.578 522.331 233.499 522.502 233.45 522.699C233.401 522.893 233.385 523.105 233.404 523.334L236.32 523.187ZM237.944 520.901L240.168 520.789C240.805 520.756 241.299 520.85 241.65 521.069C242.004 521.288 242.215 521.621 242.283 522.068C242.319 522.306 242.291 522.51 242.199 522.68C242.107 522.851 241.974 523.003 241.802 523.138C242.093 523.227 242.335 523.364 242.527 523.549C242.719 523.734 242.838 523.979 242.884 524.285C242.921 524.527 242.913 524.746 242.861 524.943C242.809 525.14 242.711 525.311 242.565 525.454C242.42 525.598 242.224 525.713 241.979 525.8C241.736 525.884 241.441 525.934 241.093 525.952L238.728 526.071L237.944 520.901ZM239.517 525.316L240.883 525.247C241.12 525.235 241.314 525.208 241.465 525.164C241.618 525.118 241.737 525.057 241.82 524.981C241.904 524.906 241.958 524.817 241.982 524.715C242.005 524.613 242.008 524.5 241.989 524.374C241.97 524.249 241.933 524.137 241.879 524.039C241.824 523.938 241.745 523.856 241.64 523.793C241.535 523.727 241.401 523.681 241.236 523.653C241.074 523.623 240.874 523.613 240.637 523.625L239.272 523.694L239.517 525.316ZM239.173 523.042L240.528 522.974C240.831 522.959 241.061 522.887 241.218 522.759C241.376 522.631 241.436 522.442 241.397 522.191C241.376 522.049 241.334 521.933 241.271 521.842C241.208 521.748 241.131 521.674 241.041 521.62C240.951 521.566 240.852 521.531 240.744 521.513C240.64 521.493 240.534 521.485 240.427 521.491L238.949 521.565L239.173 523.042ZM243.367 520.627L244.264 520.582L244.372 521.291L244.391 521.29C244.432 521.168 244.488 521.052 244.559 520.941C244.634 520.83 244.728 520.733 244.84 520.65C244.954 520.563 245.089 520.493 245.245 520.44C245.404 520.386 245.589 520.354 245.801 520.344C246.08 520.329 246.356 520.369 246.629 520.462C246.902 520.555 247.154 520.703 247.384 520.906C247.615 521.108 247.813 521.367 247.979 521.683C248.144 521.996 248.259 522.365 248.323 522.789C248.404 523.321 248.417 523.776 248.363 524.154C248.312 524.53 248.203 524.84 248.038 525.085C247.875 525.33 247.66 525.513 247.393 525.634C247.127 525.754 246.819 525.823 246.471 525.841C246.299 525.849 246.135 525.835 245.978 525.798C245.822 525.76 245.678 525.709 245.547 525.644C245.419 525.576 245.306 525.501 245.208 525.418C245.11 525.332 245.034 525.249 244.979 525.167L244.959 525.168L245.356 527.789L244.459 527.835L243.367 520.627ZM244.64 523.194C244.683 523.474 244.75 523.732 244.841 523.967C244.932 524.2 245.048 524.4 245.188 524.568C245.331 524.736 245.496 524.865 245.684 524.956C245.874 525.044 246.088 525.082 246.325 525.07C246.572 525.057 246.778 524.998 246.942 524.893C247.109 524.784 247.238 524.639 247.328 524.46C247.419 524.28 247.474 524.071 247.494 523.833C247.513 523.593 247.502 523.332 247.459 523.052C247.415 522.759 247.346 522.492 247.254 522.25C247.162 522.008 247.044 521.802 246.9 521.631C246.756 521.46 246.586 521.33 246.389 521.243C246.195 521.152 245.974 521.113 245.727 521.126C245.49 521.138 245.291 521.198 245.131 521.306C244.973 521.412 244.849 521.556 244.759 521.739C244.672 521.922 244.619 522.137 244.601 522.384C244.583 522.631 244.596 522.902 244.64 523.194Z" fill="#A3A3A3"/>
<path d="M341.839 513.713L343.214 513.643L346.147 519.513L346.167 519.512L347.291 513.437L348.666 513.368L349.741 520.465L348.844 520.51L347.939 514.538L347.919 514.539L346.806 520.613L345.85 520.661L342.926 514.791L342.906 514.792L343.811 520.764L342.914 520.809L341.839 513.713ZM350.592 516.773C350.554 516.457 350.574 516.189 350.652 515.967C350.729 515.743 350.852 515.558 351.02 515.414C351.188 515.269 351.396 515.161 351.644 515.09C351.895 515.016 352.173 514.971 352.479 514.956C352.732 514.943 352.982 514.956 353.227 514.996C353.475 515.035 353.701 515.108 353.904 515.214C354.106 515.318 354.277 515.458 354.415 515.636C354.556 515.811 354.646 516.028 354.686 516.289L355.142 519.297C355.154 519.38 355.188 519.452 355.243 519.51C355.297 519.566 355.375 519.591 355.475 519.586C355.521 519.584 355.568 519.578 355.615 519.569C355.663 519.557 355.712 519.545 355.762 519.533L355.855 520.146C355.783 520.169 355.711 520.191 355.639 520.21C355.57 520.23 355.485 520.243 355.384 520.248C355.228 520.255 355.091 520.249 354.973 520.229C354.859 520.209 354.758 520.172 354.671 520.118C354.587 520.061 354.517 519.987 354.461 519.895C354.404 519.801 354.358 519.685 354.324 519.547C354.232 519.672 354.132 519.789 354.024 519.898C353.915 520.004 353.791 520.099 353.65 520.184C353.508 520.266 353.346 520.333 353.164 520.384C352.982 520.439 352.773 520.472 352.535 520.484C352.334 520.494 352.132 520.472 351.931 520.417C351.732 520.362 351.547 520.276 351.375 520.158C351.207 520.04 351.063 519.892 350.944 519.713C350.825 519.531 350.747 519.318 350.71 519.073C350.669 518.806 350.68 518.573 350.742 518.376C350.803 518.175 350.897 518.006 351.024 517.87C351.15 517.731 351.302 517.621 351.48 517.541C351.658 517.46 351.842 517.404 352.034 517.372L353.475 517.119C353.612 517.096 353.713 517.037 353.778 516.943C353.845 516.846 353.863 516.695 353.832 516.493C353.785 516.18 353.647 515.962 353.418 515.837C353.193 515.709 352.886 515.655 352.499 515.675C352.103 515.695 351.82 515.793 351.65 515.97C351.48 516.144 351.407 516.398 351.431 516.731L350.592 516.773ZM353.98 517.599C353.916 517.654 353.834 517.702 353.732 517.743C353.633 517.781 353.521 517.814 353.398 517.843C353.275 517.872 353.143 517.899 353.003 517.926C352.862 517.949 352.722 517.974 352.582 518.001C352.422 518.031 352.278 518.071 352.148 518.12C352.017 518.169 351.907 518.229 351.816 518.302C351.726 518.375 351.66 518.461 351.62 518.56C351.579 518.656 351.568 518.769 351.587 518.897C351.61 519.045 351.652 519.175 351.715 519.285C351.781 519.395 351.86 519.487 351.953 519.56C352.049 519.633 352.159 519.686 352.282 519.718C352.405 519.751 352.536 519.764 352.676 519.757C352.764 519.752 352.863 519.738 352.974 519.713C353.084 519.684 353.196 519.646 353.31 519.598C353.424 519.55 353.533 519.491 353.637 519.421C353.744 519.348 353.836 519.262 353.913 519.164C353.99 519.066 354.047 518.956 354.084 518.834C354.121 518.713 354.128 518.578 354.106 518.43L353.98 517.599ZM355.878 514.945L356.775 514.899L356.882 515.609L356.902 515.608C356.942 515.486 356.998 515.37 357.07 515.259C357.145 515.148 357.238 515.051 357.35 514.967C357.465 514.881 357.6 514.811 357.756 514.757C357.915 514.704 358.1 514.672 358.311 514.661C358.591 514.647 358.867 514.687 359.14 514.78C359.413 514.873 359.665 515.021 359.895 515.223C360.126 515.426 360.324 515.685 360.49 516.001C360.655 516.313 360.77 516.682 360.834 517.107C360.915 517.638 360.928 518.093 360.874 518.472C360.823 518.848 360.714 519.158 360.548 519.403C360.386 519.648 360.171 519.831 359.904 519.951C359.637 520.072 359.33 520.141 358.982 520.158C358.81 520.167 358.646 520.153 358.489 520.115C358.333 520.078 358.189 520.026 358.058 519.962C357.93 519.894 357.817 519.818 357.719 519.736C357.621 519.65 357.544 519.566 357.489 519.485L357.47 519.486L357.867 522.107L356.97 522.152L355.878 514.945ZM357.151 517.512C357.194 517.792 357.26 518.05 357.352 518.285C357.443 518.517 357.558 518.717 357.698 518.885C357.842 519.053 358.007 519.183 358.195 519.274C358.385 519.361 358.599 519.399 358.836 519.387C359.083 519.375 359.289 519.316 359.453 519.21C359.62 519.101 359.748 518.957 359.839 518.777C359.93 518.598 359.985 518.389 360.005 518.151C360.024 517.91 360.012 517.65 359.97 517.37C359.925 517.077 359.857 516.809 359.765 516.568C359.672 516.326 359.554 516.119 359.41 515.948C359.267 515.777 359.096 515.648 358.9 515.561C358.706 515.47 358.485 515.431 358.238 515.443C358.001 515.455 357.802 515.515 357.641 515.624C357.484 515.729 357.36 515.873 357.27 516.056C357.183 516.239 357.13 516.454 357.112 516.702C357.094 516.949 357.107 517.219 357.151 517.512ZM362.993 515.364L361.193 515.454L361.076 514.682L365.572 514.455L365.689 515.227L363.89 515.318L364.556 519.716L363.659 519.762L362.993 515.364Z" fill="#A3A3A3"/>
<path d="M467.388 511.574L465.818 508.472L465.087 511.691L467.388 511.574ZM463.472 514.72L465.067 507.377L466.232 507.318L469.924 514.394L468.861 514.448L467.776 512.314L464.957 512.456L464.486 514.669L463.472 514.72ZM473.402 509.787L470.964 509.91L471.631 514.308L470.733 514.353L469.95 509.183L474.188 508.969L474.971 514.139L474.069 514.185L473.402 509.787ZM475.46 508.905L476.358 508.859L476.465 509.569L476.485 509.568C476.525 509.446 476.581 509.33 476.653 509.219C476.728 509.108 476.821 509.011 476.933 508.928C477.048 508.841 477.183 508.771 477.339 508.717C477.498 508.664 477.683 508.632 477.894 508.621C478.174 508.607 478.45 508.647 478.723 508.74C478.996 508.833 479.247 508.981 479.478 509.183C479.708 509.386 479.907 509.645 480.072 509.961C480.238 510.274 480.353 510.642 480.417 511.067C480.497 511.598 480.511 512.053 480.457 512.432C480.406 512.808 480.297 513.118 480.131 513.363C479.968 513.608 479.754 513.791 479.487 513.911C479.22 514.032 478.913 514.101 478.565 514.118C478.393 514.127 478.228 514.113 478.072 514.075C477.916 514.038 477.772 513.987 477.641 513.922C477.513 513.854 477.4 513.778 477.302 513.696C477.204 513.61 477.127 513.526 477.072 513.445L477.053 513.446L477.45 516.067L476.553 516.112L475.46 508.905ZM476.734 511.472C476.776 511.752 476.843 512.01 476.935 512.245C477.025 512.477 477.141 512.677 477.281 512.846C477.424 513.013 477.59 513.143 477.777 513.234C477.968 513.322 478.181 513.359 478.419 513.347C478.666 513.335 478.871 513.276 479.035 513.17C479.202 513.061 479.331 512.917 479.422 512.737C479.513 512.558 479.568 512.349 479.587 512.111C479.607 511.87 479.595 511.61 479.553 511.33C479.508 511.037 479.44 510.77 479.348 510.528C479.255 510.286 479.137 510.079 478.993 509.908C478.849 509.737 478.679 509.608 478.482 509.521C478.288 509.43 478.068 509.391 477.821 509.403C477.584 509.415 477.385 509.476 477.224 509.584C477.067 509.689 476.943 509.834 476.852 510.016C476.765 510.199 476.713 510.414 476.695 510.662C476.676 510.909 476.69 511.179 476.734 511.472Z" fill="#A3A3A3"/>
<path d="M563.374 502.523L564.749 502.454L567.683 508.323L567.702 508.322L568.826 502.248L570.201 502.179L571.276 509.275L570.379 509.321L569.474 503.349L569.455 503.35L568.341 509.424L567.385 509.472L564.461 503.602L564.441 503.603L565.346 509.575L564.449 509.62L563.374 502.523ZM572.127 505.584C572.089 505.268 572.109 504.999 572.187 504.778C572.264 504.554 572.387 504.369 572.555 504.224C572.723 504.08 572.931 503.972 573.179 503.901C573.43 503.827 573.708 503.782 574.014 503.766C574.268 503.754 574.517 503.767 574.762 503.807C575.01 503.846 575.236 503.919 575.439 504.025C575.641 504.129 575.812 504.269 575.95 504.447C576.091 504.622 576.181 504.839 576.221 505.1L576.677 508.107C576.689 508.191 576.723 508.262 576.778 508.321C576.832 508.377 576.91 508.402 577.011 508.397C577.056 508.395 577.103 508.389 577.15 508.38C577.198 508.368 577.247 508.356 577.297 508.344L577.39 508.957C577.318 508.98 577.246 509.001 577.174 509.021C577.105 509.041 577.02 509.053 576.919 509.058C576.763 509.066 576.626 509.06 576.509 509.04C576.394 509.02 576.293 508.983 576.207 508.929C576.123 508.872 576.052 508.797 575.996 508.706C575.939 508.612 575.894 508.496 575.86 508.358C575.767 508.483 575.667 508.6 575.559 508.709C575.451 508.815 575.326 508.91 575.185 508.995C575.043 509.077 574.881 509.143 574.699 509.195C574.517 509.249 574.308 509.283 574.07 509.295C573.869 509.305 573.667 509.283 573.466 509.228C573.267 509.173 573.082 509.087 572.911 508.969C572.742 508.851 572.598 508.703 572.479 508.524C572.36 508.342 572.282 508.128 572.245 507.884C572.204 507.617 572.215 507.384 572.277 507.186C572.338 506.986 572.432 506.817 572.559 506.681C572.685 506.542 572.837 506.432 573.015 506.351C573.193 506.271 573.378 506.215 573.569 506.182L575.01 505.93C575.147 505.906 575.248 505.848 575.313 505.754C575.38 505.656 575.398 505.506 575.367 505.303C575.32 504.991 575.182 504.773 574.953 504.648C574.728 504.52 574.421 504.466 574.034 504.485C573.638 504.505 573.355 504.604 573.185 504.781C573.015 504.955 572.942 505.209 572.966 505.541L572.127 505.584ZM575.515 506.41C575.452 506.465 575.369 506.513 575.267 506.554C575.168 506.591 575.056 506.624 574.933 506.653C574.81 506.682 574.678 506.71 574.538 506.737C574.397 506.76 574.257 506.785 574.117 506.811C573.958 506.842 573.813 506.882 573.683 506.931C573.552 506.979 573.442 507.04 573.352 507.113C573.261 507.185 573.195 507.271 573.155 507.371C573.114 507.467 573.103 507.579 573.122 507.708C573.145 507.856 573.187 507.985 573.25 508.096C573.316 508.206 573.395 508.298 573.488 508.371C573.584 508.444 573.694 508.496 573.817 508.529C573.94 508.562 574.071 508.575 574.211 508.568C574.299 508.563 574.398 508.548 574.509 508.523C574.619 508.495 574.731 508.457 574.845 508.409C574.959 508.361 575.068 508.302 575.172 508.232C575.279 508.159 575.371 508.073 575.448 507.975C575.525 507.877 575.582 507.767 575.619 507.645C575.656 507.523 575.664 507.388 575.641 507.24L575.515 506.41ZM577.413 503.755L578.31 503.71L578.418 504.42L578.437 504.419C578.478 504.297 578.534 504.18 578.605 504.07C578.68 503.959 578.774 503.862 578.885 503.778C579 503.691 579.135 503.621 579.291 503.568C579.45 503.515 579.635 503.483 579.846 503.472C580.126 503.458 580.402 503.497 580.675 503.591C580.948 503.684 581.2 503.832 581.43 504.034C581.661 504.236 581.859 504.496 582.025 504.812C582.19 505.124 582.305 505.493 582.369 505.918C582.45 506.449 582.463 506.904 582.409 507.283C582.358 507.658 582.249 507.969 582.083 508.214C581.921 508.459 581.706 508.642 581.439 508.762C581.172 508.882 580.865 508.952 580.517 508.969C580.345 508.978 580.181 508.963 580.024 508.926C579.868 508.888 579.724 508.837 579.593 508.773C579.465 508.704 579.352 508.629 579.254 508.546C579.156 508.461 579.08 508.377 579.025 508.295L579.005 508.296L579.402 510.918L578.505 510.963L577.413 503.755ZM578.686 506.323C578.729 506.603 578.796 506.86 578.887 507.096C578.978 507.328 579.093 507.528 579.234 507.696C579.377 507.864 579.542 507.994 579.73 508.085C579.92 508.172 580.134 508.21 580.371 508.198C580.618 508.186 580.824 508.127 580.988 508.021C581.155 507.912 581.284 507.768 581.374 507.588C581.465 507.408 581.52 507.2 581.54 506.962C581.559 506.721 581.547 506.46 581.505 506.18C581.461 505.888 581.392 505.62 581.3 505.378C581.208 505.137 581.089 504.93 580.946 504.759C580.802 504.588 580.631 504.459 580.435 504.371C580.241 504.281 580.02 504.241 579.773 504.254C579.536 504.266 579.337 504.326 579.177 504.435C579.019 504.54 578.895 504.684 578.805 504.867C578.718 505.05 578.665 505.265 578.647 505.512C578.629 505.76 578.642 506.03 578.686 506.323ZM584.528 504.174L582.728 504.265L582.611 503.493L587.107 503.266L587.224 504.038L585.425 504.129L586.092 508.527L585.194 508.572L584.528 504.174Z" fill="#A3A3A3"/>
<path opacity="0.5" d="M101.607 431.353C101.607 431.353 174.613 401.762 212.863 371.935C251.114 342.107 268.19 255.564 313.132 253.295C358.075 251.025 415.208 445.402 463.372 454.427C511.536 463.451 529.028 97.4317 529.028 97.4317L588.064 486.984L113.669 510.944L101.607 431.353Z" fill="url(#paint0_linear_1_1585)"/>
<path d="M96.0696 504.725C96.9734 504.679 97.6827 505.014 98.1975 505.731C98.596 506.285 98.8703 507.058 99.0205 508.049C99.1629 508.989 99.1393 509.773 98.9496 510.402C98.6736 511.305 98.0707 511.779 97.1409 511.826C96.3022 511.869 95.6233 511.54 95.1044 510.84C94.6719 510.255 94.3788 509.456 94.2251 508.442C94.1061 507.657 94.1063 506.977 94.2258 506.404C94.4504 505.335 95.065 504.775 96.0696 504.725ZM97.0161 511.035C97.4712 511.012 97.8035 510.794 98.0128 510.381C98.2222 509.969 98.2444 509.218 98.0796 508.13C97.9606 507.345 97.7652 506.705 97.4936 506.209C97.2215 505.711 96.8042 505.476 96.2418 505.504C95.7248 505.53 95.3827 505.791 95.2153 506.285C95.0506 506.777 95.0392 507.491 95.1812 508.428C95.288 509.132 95.4502 509.695 95.6679 510.115C96.001 510.757 96.4504 511.063 97.0161 511.035Z" fill="#A3A3A3"/>
<path d="M77.1093 432.472C77.0516 431.874 77.0966 431.35 77.2444 430.898C77.3954 430.446 77.7573 430.024 78.3301 429.632L79.1852 429.049C79.568 428.786 79.831 428.566 79.9742 428.386C80.2003 428.106 80.2873 427.793 80.2351 427.449C80.1741 427.047 80.0039 426.734 79.7245 426.512C79.4445 426.286 79.1014 426.183 78.695 426.204C78.0936 426.234 77.7116 426.48 77.549 426.943C77.4621 427.19 77.4445 427.528 77.4964 427.957L76.604 428.002C76.5225 427.4 76.5603 426.903 76.7173 426.513C76.9962 425.824 77.6169 425.455 78.5792 425.407C79.3789 425.366 79.9949 425.551 80.4272 425.96C80.8627 426.37 81.1202 426.837 81.1997 427.361C81.2836 427.915 81.1586 428.398 80.8247 428.811C80.6318 429.051 80.2657 429.348 79.7265 429.703L79.114 430.103C78.8218 430.293 78.5965 430.472 78.4384 430.639C78.1557 430.935 77.998 431.256 77.9651 431.601L81.7786 431.409L81.903 432.229L77.1093 432.472ZM84.0105 425.157C84.9143 425.111 85.6236 425.447 86.1384 426.163C86.5368 426.717 86.8112 427.49 86.9614 428.481C87.1038 429.421 87.0802 430.205 86.8905 430.834C86.6145 431.737 86.0116 432.212 85.0818 432.259C84.243 432.301 83.5642 431.972 83.0453 431.272C82.6128 430.687 82.3196 429.888 82.166 428.874C82.047 428.089 82.0472 427.409 82.1667 426.836C82.3913 425.767 83.0059 425.208 84.0105 425.157ZM84.957 431.467C85.4121 431.444 85.7444 431.226 85.9537 430.814C86.1631 430.401 86.1853 429.651 86.0205 428.563C85.9015 427.777 85.7061 427.137 85.4345 426.642C85.1624 426.143 84.7451 425.908 84.1826 425.936C83.6657 425.962 83.3236 426.223 83.1561 426.718C82.9915 427.209 82.9801 427.923 83.1221 428.86C83.2289 429.565 83.3911 430.127 83.6088 430.548C83.9419 431.189 84.3913 431.496 84.957 431.467Z" fill="#A3A3A3"/>
<path d="M67.6701 350.305L67.1953 347.172L65.4318 350.418L67.6701 350.305ZM68.0557 352.752L67.7996 351.062L64.7371 351.217L64.6083 350.367L67.1416 345.813L67.8829 345.775L68.5625 350.26L69.5915 350.208L69.7064 350.966L68.6774 351.018L68.9335 352.708L68.0557 352.752ZM71.9529 345.589C72.8567 345.544 73.566 345.879 74.0808 346.596C74.4792 347.15 74.7536 347.922 74.9038 348.913C75.0462 349.853 75.0226 350.638 74.8329 351.267C74.5569 352.169 73.954 352.644 73.0242 352.691C72.1854 352.733 71.5066 352.404 70.9877 351.704C70.5551 351.12 70.262 350.32 70.1084 349.306C69.9894 348.521 69.9896 347.842 70.1091 347.268C70.3337 346.2 70.9483 345.64 71.9529 345.589ZM72.8993 351.899C73.3545 351.876 73.6867 351.659 73.8961 351.246C74.1055 350.833 74.1277 350.083 73.9628 348.995C73.8438 348.21 73.6485 347.569 73.3769 347.074C73.1047 346.575 72.6875 346.34 72.125 346.369C71.6081 346.395 71.2659 346.655 71.0985 347.15C70.9339 347.642 70.9225 348.356 71.0644 349.292C71.1713 349.997 71.3335 350.56 71.5512 350.98C71.8843 351.622 72.3337 351.928 72.8993 351.899Z" fill="#A3A3A3"/>
<path d="M54.55 266.262C55.3303 266.223 55.9037 266.397 56.2702 266.783C56.6396 267.167 56.8564 267.571 56.9208 267.996L56.0528 268.04C55.9593 267.769 55.844 267.559 55.7068 267.41C55.4515 267.131 55.1094 267.003 54.6802 267.024C54.1893 267.049 53.8333 267.294 53.6123 267.759C53.3907 268.221 53.3271 268.871 53.4214 269.71C53.5786 269.407 53.799 269.175 54.0827 269.015C54.3427 268.872 54.6451 268.792 54.9897 268.775C55.5749 268.745 56.1134 268.904 56.6051 269.252C57.0968 269.601 57.3983 270.141 57.5095 270.875C57.6046 271.503 57.4825 272.07 57.1433 272.577C56.8036 273.081 56.2517 273.352 55.4877 273.39C54.8343 273.423 54.2331 273.207 53.6843 272.742C53.1351 272.273 52.7724 271.458 52.5963 270.296C52.4661 269.437 52.4613 268.703 52.5819 268.093C52.8146 266.927 53.4706 266.317 54.55 266.262ZM55.4487 272.614C55.9103 272.591 56.2318 272.42 56.413 272.103C56.597 271.782 56.6573 271.413 56.5939 270.994C56.5403 270.64 56.3869 270.309 56.1338 270.001C55.8802 269.69 55.4836 269.547 54.9439 269.575C54.5668 269.594 54.2539 269.734 54.0054 269.997C53.7601 270.259 53.6753 270.639 53.7509 271.138C53.8172 271.576 54.0015 271.938 54.3037 272.224C54.6086 272.507 54.9903 272.637 55.4487 272.614ZM59.8943 266.022C60.7981 265.976 61.5074 266.311 62.0222 267.028C62.4206 267.582 62.695 268.355 62.8452 269.346C62.9876 270.286 62.964 271.07 62.7743 271.699C62.4983 272.602 61.8954 273.076 60.9656 273.123C60.1268 273.166 59.448 272.837 58.9291 272.136C58.4965 271.552 58.2034 270.753 58.0498 269.739C57.9308 268.954 57.931 268.274 58.0505 267.701C58.2751 266.632 58.8897 266.072 59.8943 266.022ZM60.8407 272.332C61.2959 272.309 61.6282 272.091 61.8375 271.678C62.0469 271.266 62.0691 270.515 61.9043 269.427C61.7852 268.642 61.5899 268.002 61.3183 267.506C61.0461 267.008 60.6289 266.773 60.0664 266.801C59.5495 266.827 59.2073 267.088 59.0399 267.582C58.8753 268.074 58.8639 268.788 59.0059 269.725C59.1127 270.429 59.2749 270.992 59.4926 271.412C59.8257 272.054 60.2751 272.36 60.8407 272.332Z" fill="#A3A3A3"/>
<path d="M42.73 189.631C43.1168 189.611 43.4031 189.49 43.5887 189.266C43.7739 189.039 43.844 188.778 43.7991 188.482C43.7601 188.225 43.6202 187.993 43.3795 187.788C43.1387 187.583 42.8054 187.491 42.3795 187.513C41.9569 187.534 41.6676 187.657 41.5117 187.882C41.3559 188.108 41.2999 188.365 41.3438 188.655C41.393 188.98 41.5535 189.228 41.8251 189.399C42.0967 189.57 42.3983 189.647 42.73 189.631ZM43.3023 193.051C43.7087 193.03 44.0289 192.905 44.2628 192.676C44.4994 192.444 44.5851 192.112 44.5197 191.681C44.4519 191.233 44.2623 190.901 43.9508 190.683C43.6394 190.465 43.2675 190.367 42.8351 190.389C42.4157 190.41 42.0907 190.547 41.8602 190.798C41.6325 191.046 41.5504 191.38 41.6138 191.798C41.6684 192.159 41.836 192.465 42.1166 192.717C42.3999 192.965 42.7952 193.076 43.3023 193.051ZM41.5857 190.024C41.3262 189.933 41.1178 189.822 40.9602 189.691C40.6644 189.446 40.4852 189.118 40.4228 188.706C40.3448 188.191 40.4663 187.739 40.7873 187.35C41.1083 186.961 41.6151 186.749 42.3076 186.714C42.9773 186.68 43.5289 186.829 43.9624 187.16C44.3955 187.489 44.6474 187.886 44.7181 188.353C44.7835 188.784 44.7259 189.139 44.5453 189.417C44.4447 189.575 44.2753 189.733 44.0371 189.89C44.3465 190.008 44.597 190.148 44.7886 190.31C45.1463 190.616 45.3641 191.027 45.4421 191.542C45.5343 192.15 45.4062 192.677 45.0577 193.123C44.7087 193.565 44.1571 193.805 43.4028 193.843C42.7233 193.878 42.1203 193.725 41.5938 193.385C41.0701 193.042 40.7555 192.523 40.6501 191.827C40.5882 191.419 40.6356 191.061 40.7923 190.755C40.9485 190.445 41.2129 190.202 41.5857 190.024ZM47.8357 186.454C48.7395 186.408 49.4488 186.744 49.9636 187.46C50.362 188.014 50.6364 188.787 50.7866 189.778C50.929 190.718 50.9054 191.502 50.7157 192.131C50.4397 193.034 49.8368 193.509 48.907 193.556C48.0682 193.598 47.3894 193.269 46.8705 192.569C46.4379 191.984 46.1448 191.185 45.9912 190.171C45.8722 189.386 45.8724 188.706 45.9919 188.133C46.2165 187.064 46.8311 186.505 47.8357 186.454ZM48.7822 192.764C49.2373 192.741 49.5696 192.523 49.7789 192.111C49.9883 191.698 50.0105 190.948 49.8457 189.86C49.7266 189.074 49.5313 188.434 49.2597 187.939C48.9876 187.44 48.5703 187.205 48.0078 187.233C47.4909 187.259 47.1488 187.52 46.9813 188.015C46.8167 188.506 46.8053 189.22 46.9473 190.157C47.0541 190.862 47.2163 191.424 47.434 191.845C47.7671 192.486 48.2165 192.793 48.7822 192.764Z" fill="#A3A3A3"/>
<path d="M23.2191 109.554L23.1182 108.888C23.7429 108.794 24.1696 108.671 24.3985 108.516C24.6269 108.359 24.7624 108.01 24.805 107.469L25.4974 107.435L26.5407 114.319L25.6044 114.366L24.8626 109.471L23.2191 109.554ZM30.2185 107.167C31.1223 107.121 31.8316 107.457 32.3464 108.173C32.7448 108.727 33.0192 109.5 33.1694 110.491C33.3118 111.431 33.2882 112.215 33.0985 112.844C32.8225 113.747 32.2196 114.222 31.2898 114.269C30.451 114.311 29.7722 113.982 29.2533 113.282C28.8207 112.697 28.5276 111.898 28.374 110.884C28.255 110.099 28.2552 109.419 28.3747 108.846C28.5993 107.777 29.2139 107.218 30.2185 107.167ZM31.1649 113.477C31.6201 113.454 31.9523 113.236 32.1617 112.824C32.3711 112.411 32.3933 111.661 32.2285 110.573C32.1094 109.787 31.9141 109.147 31.6425 108.652C31.3703 108.153 30.9531 107.918 30.3906 107.946C29.8737 107.972 29.5315 108.233 29.3641 108.728C29.1995 109.219 29.1881 109.933 29.3301 110.87C29.4369 111.575 29.5991 112.137 29.8168 112.558C30.1499 113.199 30.5993 113.506 31.1649 113.477ZM35.7778 106.886C36.6816 106.84 37.3909 107.176 37.9057 107.893C38.3042 108.447 38.5785 109.219 38.7287 110.21C38.8711 111.15 38.8475 111.935 38.6578 112.564C38.3818 113.466 37.7789 113.941 36.8491 113.988C36.0104 114.03 35.3315 113.701 34.8126 113.001C34.3801 112.416 34.087 111.617 33.9333 110.603C33.8143 109.818 33.8145 109.139 33.934 108.565C34.1586 107.496 34.7732 106.937 35.7778 106.886ZM36.7243 113.196C37.1794 113.173 37.5117 112.956 37.721 112.543C37.9304 112.13 37.9526 111.38 37.7878 110.292C37.6688 109.507 37.4734 108.866 37.2018 108.371C36.9297 107.872 36.5124 107.637 35.95 107.665C35.433 107.692 35.0909 107.952 34.9234 108.447C34.7588 108.939 34.7474 109.653 34.8894 110.589C34.9962 111.294 35.1584 111.857 35.3761 112.277C35.7092 112.918 36.1586 113.225 36.7243 113.196Z" fill="#A3A3A3"/>
<path d="M11.1605 29.9862L11.0596 29.32C11.6843 29.2268 12.1111 29.1031 12.3399 28.9488C12.5683 28.7914 12.7038 28.4424 12.7464 27.9019L13.4388 27.8669L14.4821 34.7512L13.5458 34.7985L12.804 29.9032L11.1605 29.9862ZM16.818 34.6332C16.7603 34.0361 16.8053 33.5117 16.9531 33.06C17.1041 32.608 17.466 32.186 18.0388 31.7938L18.8939 31.2107C19.2767 30.9481 19.5397 30.7272 19.6829 30.5481C19.909 30.2675 19.996 29.955 19.9438 29.6107C19.8828 29.2084 19.7126 28.8959 19.4332 28.6733C19.1533 28.4474 18.8101 28.3448 18.4037 28.3653C17.8023 28.3957 17.4203 28.642 17.2577 29.1042C17.1708 29.3518 17.1532 29.69 17.2051 30.1187L16.3127 30.1638C16.2312 29.5614 16.269 29.065 16.426 28.6743C16.7049 27.9857 17.3256 27.6171 18.2879 27.5685C19.0876 27.5281 19.7036 27.7126 20.1359 28.1221C20.5714 28.5315 20.8289 28.9984 20.9084 29.523C20.9923 30.0766 20.8673 30.5597 20.5334 30.9722C20.3405 31.2122 19.9744 31.5096 19.4352 31.8644L18.8227 32.265C18.5305 32.4549 18.3053 32.6333 18.1471 32.8002C17.8644 33.0966 17.7067 33.4175 17.6738 33.763L21.4873 33.5704L21.6117 34.3911L16.818 34.6332ZM23.7192 27.3185C24.623 27.2728 25.3323 27.6083 25.8471 28.325C26.2456 28.8789 26.5199 29.6515 26.6701 30.6428C26.8125 31.5826 26.7889 32.367 26.5992 32.996C26.3232 33.8985 25.7203 34.3733 24.7905 34.4202C23.9518 34.4626 23.2729 34.1337 22.754 33.4334C22.3215 32.8488 22.0284 32.0496 21.8747 31.0358C21.7557 30.2505 21.7559 29.571 21.8754 28.9975C22.1 27.9289 22.7146 27.3692 23.7192 27.3185ZM24.6657 33.6287C25.1208 33.6058 25.4531 33.3879 25.6624 32.9752C25.8718 32.5625 25.894 31.8122 25.7292 30.7244C25.6102 29.939 25.4148 29.2987 25.1432 28.8032C24.8711 28.3046 24.4538 28.0694 23.8914 28.0978C23.3744 28.1239 23.0323 28.3845 22.8649 28.8794C22.7002 29.3709 22.6888 30.085 22.8308 31.0215C22.9376 31.7264 23.0998 32.289 23.3175 32.7093C23.6506 33.3508 24.1 33.6573 24.6657 33.6287Z" fill="#A3A3A3"/>
<path opacity="0.5" d="M100.5 415C100.5 415 177.25 415.828 215.5 386C253.75 356.172 257.557 188.27 302.5 186C347.443 183.73 406 285.5 439 299C472 312.5 559.5 330 562.5 324C565.5 318 588.064 486.984 588.064 486.984L113.669 510.944L100.5 415Z" fill="url(#paint1_linear_1_1585)"/>
<path d="M101.004 415.514C101.004 415.514 171.717 411.943 215.242 385.691C258.767 359.44 256.413 187.179 303.555 184.798C350.697 182.417 387.774 270.342 439.498 298.197C491.223 326.051 562.177 324.071 562.177 324.071" stroke="#EF002B" stroke-width="2"/>
<path d="M102.024 422.247C100.385 422.329 98.7148 421.764 97.3815 420.675C96.0482 419.586 95.1607 418.063 94.9144 416.44C94.668 414.817 95.0828 413.227 96.0677 412.021C97.0525 410.814 98.5267 410.089 100.166 410.006C101.805 409.922 103.476 410.486 104.809 411.575C106.143 412.663 107.031 414.186 107.279 415.809C107.526 417.432 107.112 419.022 106.128 420.229C105.143 421.436 103.67 422.162 102.03 422.246L102.024 422.247Z" fill="#EF002B"/>
<path d="M215.782 391.831C214.143 391.914 212.473 391.349 211.14 390.26C209.806 389.171 208.919 387.647 208.673 386.024C208.426 384.401 208.841 382.812 209.826 381.605C210.811 380.399 212.285 379.674 213.924 379.59C215.564 379.507 217.234 380.071 218.568 381.159C219.901 382.248 220.79 383.771 221.037 385.394C221.284 387.017 220.87 388.607 219.886 389.814C218.902 391.021 217.428 391.746 215.789 391.831L215.782 391.831Z" fill="#EF002B"/>
<path d="M303.802 191.569C302.162 191.652 300.492 191.087 299.159 189.998C297.826 188.909 296.938 187.386 296.692 185.763C296.445 184.14 296.86 182.55 297.845 181.343C298.83 180.137 300.304 179.412 301.944 179.328C303.583 179.245 305.253 179.809 306.587 180.898C307.921 181.986 308.809 183.509 309.056 185.132C309.303 186.755 308.889 188.345 307.905 189.552C306.921 190.759 305.447 191.485 303.808 191.569L303.802 191.569Z" fill="#EF002B"/>
<path d="M439.359 304.988C437.719 305.071 436.049 304.506 434.716 303.417C433.383 302.328 432.495 300.804 432.249 299.181C432.002 297.558 432.417 295.969 433.402 294.762C434.387 293.555 435.861 292.831 437.5 292.747C439.14 292.663 440.81 293.228 442.144 294.316C443.478 295.404 444.366 296.928 444.613 298.551C444.86 300.173 444.446 301.763 443.462 302.971C442.478 304.178 441.004 304.903 439.365 304.988L439.359 304.988Z" fill="#EF002B"/>
<path d="M563.012 329.58C561.372 329.663 559.702 329.097 558.369 328.008C557.036 326.919 556.148 325.396 555.902 323.773C555.655 322.15 556.07 320.56 557.055 319.354C558.04 318.147 559.514 317.422 561.153 317.339C562.793 317.255 564.463 317.82 565.797 318.908C567.131 319.996 568.019 321.519 568.266 323.142C568.513 324.765 568.099 326.355 567.115 327.562C566.131 328.769 564.657 329.495 563.018 329.579L563.012 329.58Z" fill="#EF002B"/>
<path opacity="0.5" d="M69.4998 213.5C69.4998 213.5 167.5 418.5 220.5 418.5C273.5 418.5 272.998 265 310.499 233C348 201 367.5 189.5 422.5 189.5C477.5 189.5 552.5 285 555.5 279C558.5 273 588.064 486.984 588.064 486.984L113.668 510.944L69.4998 213.5Z" fill="url(#paint2_linear_1_1585)"/>
<path d="M70.8589 216.595C70.8589 216.595 172.924 419.899 220.066 417.518C267.209 415.137 269.075 270.725 310.791 232.538C352.507 194.352 376.078 193.161 423.22 190.78C470.363 188.399 556.149 284.287 556.149 284.287" stroke="#5BA23A" stroke-width="2"/>
<path d="M71.8793 223.328C70.2398 223.41 68.5698 222.845 67.2365 221.756C65.9032 220.667 65.0157 219.144 64.7693 217.521C64.523 215.898 64.9378 214.308 65.9227 213.102C66.9075 211.895 68.3817 211.17 70.0211 211.086C71.6604 211.003 73.3306 211.567 74.6644 212.656C75.9982 213.744 76.8864 215.267 77.1336 216.89C77.3808 218.513 76.9668 220.103 75.9826 221.31C74.9984 222.517 73.5247 223.243 71.8855 223.327L71.8793 223.328Z" fill="#5BA23A"/>
<path d="M220.653 423.964C219.013 424.047 217.343 423.482 216.01 422.393C214.677 421.304 213.789 419.781 213.543 418.158C213.297 416.535 213.712 414.945 214.696 413.738C215.681 412.532 217.155 411.807 218.795 411.723C220.434 411.64 222.104 412.204 223.438 413.292C224.772 414.381 225.66 415.904 225.907 417.527C226.154 419.15 225.74 420.74 224.756 421.947C223.772 423.154 222.298 423.88 220.659 423.964L220.653 423.964Z" fill="#5BA23A"/>
<path d="M310.991 239.004C309.352 239.087 307.682 238.522 306.348 237.433C305.015 236.344 304.128 234.82 303.881 233.197C303.635 231.574 304.05 229.985 305.035 228.778C306.019 227.572 307.494 226.847 309.133 226.763C310.772 226.68 312.442 227.244 313.776 228.332C315.11 229.421 315.998 230.944 316.245 232.567C316.493 234.19 316.079 235.78 315.094 236.987C314.11 238.194 312.636 238.919 310.997 239.004L310.991 239.004Z" fill="#5BA23A"/>
<path d="M422.895 196.348C421.256 196.43 419.586 195.865 418.252 194.776C416.919 193.687 416.032 192.164 415.785 190.541C415.539 188.918 415.954 187.328 416.939 186.122C417.923 184.915 419.398 184.19 421.037 184.107C422.676 184.023 424.346 184.587 425.68 185.676C427.014 186.764 427.902 188.287 428.149 189.91C428.397 191.533 427.983 193.123 426.998 194.33C426.014 195.537 424.541 196.263 422.901 196.347L422.895 196.348Z" fill="#5BA23A"/>
<path d="M556.983 289.796C555.344 289.879 553.674 289.314 552.341 288.225C551.007 287.136 550.12 285.612 549.873 283.989C549.627 282.366 550.042 280.777 551.027 279.57C552.012 278.363 553.486 277.639 555.125 277.555C556.764 277.471 558.435 278.036 559.769 279.124C561.102 280.212 561.991 281.736 562.238 283.359C562.485 284.982 562.071 286.571 561.087 287.779C560.103 288.986 558.629 289.711 556.99 289.796L556.983 289.796Z" fill="#5BA23A"/>
<path d="M103.416 431.428C103.416 431.428 171.356 409.556 213.434 373.756C255.512 337.957 266.663 254.811 313.805 252.43C360.947 250.049 415.87 455.735 463.012 453.354C510.155 450.973 527.812 97.3035 527.812 97.3035" stroke="#FA982F" stroke-width="2"/>
<path d="M105.627 444.6C102.184 444.773 98.6773 443.586 95.8774 441.3C93.0774 439.013 91.2138 435.814 90.6964 432.405C90.179 428.997 91.0502 425.659 93.1184 423.125C95.1866 420.591 98.2824 419.069 101.725 418.893C105.168 418.718 108.675 419.903 111.476 422.189C114.277 424.474 116.142 427.673 116.661 431.081C117.18 434.489 116.311 437.828 114.244 440.363C112.177 442.898 109.083 444.422 105.64 444.599L105.627 444.6Z" fill="white"/>
<g filter="url(#filter0_d_1_1585)">
<path d="M104.343 437.548C102.704 437.631 101.034 437.066 99.7006 435.977C98.3673 434.888 97.4798 433.364 97.2335 431.741C96.9871 430.118 97.4019 428.529 98.3868 427.322C99.3716 426.115 100.846 425.391 102.485 425.307C104.125 425.223 105.795 425.788 107.129 426.876C108.462 427.965 109.351 429.488 109.598 431.111C109.845 432.734 109.431 434.323 108.447 435.531C107.463 436.738 105.989 437.463 104.35 437.548L104.343 437.548Z" fill="#FA982F"/>
</g>
<path d="M214.537 386.296C211.095 386.47 207.587 385.283 204.788 382.996C201.988 380.709 200.124 377.51 199.607 374.102C199.089 370.694 199.96 367.355 202.029 364.822C204.097 362.288 207.193 360.766 210.635 360.59C214.078 360.414 217.585 361.6 220.386 363.885C223.187 366.171 225.052 369.369 225.572 372.777C226.091 376.186 225.221 379.524 223.154 382.059C221.088 384.594 217.993 386.118 214.55 386.295L214.537 386.296Z" fill="white"/>
<g filter="url(#filter1_d_1_1585)">
<path d="M213.928 379.59C212.289 379.673 210.619 379.108 209.286 378.019C207.952 376.93 207.065 375.406 206.818 373.783C206.572 372.16 206.987 370.571 207.972 369.364C208.957 368.157 210.431 367.433 212.07 367.349C213.709 367.265 215.38 367.83 216.714 368.918C218.047 370.007 218.935 371.53 219.183 373.153C219.43 374.776 219.016 376.365 218.032 377.573C217.047 378.78 215.574 379.505 213.935 379.59L213.928 379.59Z" fill="#FA982F"/>
</g>
<path d="M315.305 267.631C311.862 267.805 308.355 266.618 305.555 264.331C302.755 262.044 300.892 258.845 300.374 255.437C299.857 252.028 300.728 248.69 302.796 246.156C304.864 243.622 307.96 242.1 311.403 241.925C314.845 241.749 318.353 242.934 321.154 245.22C323.955 247.505 325.82 250.704 326.339 254.112C326.858 257.52 325.989 260.859 323.922 263.394C321.855 265.929 318.76 267.453 315.318 267.63L315.305 267.631Z" fill="white"/>
<g filter="url(#filter2_d_1_1585)">
<path d="M314.504 261.077C312.864 261.16 311.194 260.594 309.861 259.506C308.527 258.417 307.64 256.893 307.394 255.27C307.147 253.647 307.562 252.057 308.547 250.851C309.532 249.644 311.006 248.919 312.645 248.836C314.285 248.752 315.955 249.317 317.289 250.405C318.623 251.493 319.511 253.016 319.758 254.639C320.005 256.262 319.591 257.852 318.607 259.059C317.623 260.267 316.149 260.992 314.51 261.077L314.504 261.077Z" fill="#FA982F"/>
</g>
<path d="M464.171 466.342C460.728 466.516 457.221 465.329 454.421 463.042C451.621 460.755 449.758 457.556 449.24 454.147C448.723 450.739 449.594 447.401 451.662 444.867C453.731 442.333 456.826 440.811 460.269 440.636C463.712 440.46 467.219 441.645 470.02 443.931C472.821 446.216 474.686 449.415 475.205 452.823C475.724 456.231 474.855 459.57 472.788 462.105C470.721 464.64 467.627 466.164 464.184 466.341L464.171 466.342Z" fill="white"/>
<g filter="url(#filter3_d_1_1585)">
<path d="M462.78 459.533C461.14 459.616 459.47 459.05 458.137 457.962C456.804 456.873 455.916 455.349 455.67 453.726C455.424 452.103 455.838 450.514 456.823 449.307C457.808 448.1 459.282 447.376 460.922 447.292C462.561 447.208 464.231 447.773 465.565 448.861C466.899 449.949 467.787 451.473 468.034 453.095C468.281 454.718 467.867 456.308 466.883 457.515C465.899 458.723 464.425 459.448 462.786 459.533L462.78 459.533Z" fill="#FA982F"/>
</g>
<path d="M529.978 110.335C526.535 110.509 523.028 109.322 520.228 107.036C517.428 104.749 515.564 101.549 515.047 98.1411C514.53 94.7329 515.401 91.3947 517.469 88.8608C519.537 86.327 522.633 84.8048 526.076 84.6292C529.518 84.4536 533.026 85.6389 535.827 87.9244C538.628 90.21 540.493 93.4085 541.012 96.8167C541.531 100.225 540.662 103.564 538.595 106.099C536.528 108.634 533.433 110.157 529.991 110.335L529.978 110.335Z" fill="white"/>
<g filter="url(#filter4_d_1_1585)">
<path d="M528.692 103.118C527.053 103.201 525.383 102.635 524.049 101.547C522.716 100.458 521.828 98.9341 521.582 97.3111C521.336 95.6881 521.751 94.0985 522.735 92.8919C523.72 91.6853 525.194 90.9605 526.834 90.8769C528.473 90.7932 530.143 91.3577 531.477 92.446C532.811 93.5344 533.699 95.0575 533.946 96.6804C534.194 98.3034 533.78 99.8933 532.795 101.1C531.811 102.308 530.337 103.033 528.698 103.118L528.692 103.118Z" fill="#FA982F"/>
</g>
<defs>
<filter id="filter0_d_1_1585" x="93.1641" y="425.299" width="20.5037" height="20.2571" filterUnits="userSpaceOnUse" color-interpolation-filters="sRGB">
<feFlood flood-opacity="0" result="BackgroundImageFix"/>
<feColorMatrix in="SourceAlpha" type="matrix" values="0 0 0 0 0 0 0 0 0 0 0 0 0 0 0 0 0 0 127 0" result="hardAlpha"/>
<feOffset dy="4"/>
<feGaussianBlur stdDeviation="2"/>
<feComposite in2="hardAlpha" operator="out"/>
<feColorMatrix type="matrix" values="0 0 0 0 0 0 0 0 0 0 0 0 0 0 0 0 0 0 0.25 0"/>
<feBlend mode="normal" in2="BackgroundImageFix" result="effect1_dropShadow_1_1585"/>
<feBlend mode="normal" in="SourceGraphic" in2="effect1_dropShadow_1_1585" result="shape"/>
</filter>
<filter id="filter1_d_1_1585" x="202.749" y="367.341" width="20.5035" height="20.2571" filterUnits="userSpaceOnUse" color-interpolation-filters="sRGB">
<feFlood flood-opacity="0" result="BackgroundImageFix"/>
<feColorMatrix in="SourceAlpha" type="matrix" values="0 0 0 0 0 0 0 0 0 0 0 0 0 0 0 0 0 0 127 0" result="hardAlpha"/>
<feOffset dy="4"/>
<feGaussianBlur stdDeviation="2"/>
<feComposite in2="hardAlpha" operator="out"/>
<feColorMatrix type="matrix" values="0 0 0 0 0 0 0 0 0 0 0 0 0 0 0 0 0 0 0.25 0"/>
<feBlend mode="normal" in2="BackgroundImageFix" result="effect1_dropShadow_1_1585"/>
<feBlend mode="normal" in="SourceGraphic" in2="effect1_dropShadow_1_1585" result="shape"/>
</filter>
<filter id="filter2_d_1_1585" x="303.324" y="248.828" width="20.5035" height="20.2571" filterUnits="userSpaceOnUse" color-interpolation-filters="sRGB">
<feFlood flood-opacity="0" result="BackgroundImageFix"/>
<feColorMatrix in="SourceAlpha" type="matrix" values="0 0 0 0 0 0 0 0 0 0 0 0 0 0 0 0 0 0 127 0" result="hardAlpha"/>
<feOffset dy="4"/>
<feGaussianBlur stdDeviation="2"/>
<feComposite in2="hardAlpha" operator="out"/>
<feColorMatrix type="matrix" values="0 0 0 0 0 0 0 0 0 0 0 0 0 0 0 0 0 0 0.25 0"/>
<feBlend mode="normal" in2="BackgroundImageFix" result="effect1_dropShadow_1_1585"/>
<feBlend mode="normal" in="SourceGraphic" in2="effect1_dropShadow_1_1585" result="shape"/>
</filter>
<filter id="filter3_d_1_1585" x="451.601" y="447.284" width="20.5035" height="20.2571" filterUnits="userSpaceOnUse" color-interpolation-filters="sRGB">
<feFlood flood-opacity="0" result="BackgroundImageFix"/>
<feColorMatrix in="SourceAlpha" type="matrix" values="0 0 0 0 0 0 0 0 0 0 0 0 0 0 0 0 0 0 127 0" result="hardAlpha"/>
<feOffset dy="4"/>
<feGaussianBlur stdDeviation="2"/>
<feComposite in2="hardAlpha" operator="out"/>
<feColorMatrix type="matrix" values="0 0 0 0 0 0 0 0 0 0 0 0 0 0 0 0 0 0 0.25 0"/>
<feBlend mode="normal" in2="BackgroundImageFix" result="effect1_dropShadow_1_1585"/>
<feBlend mode="normal" in="SourceGraphic" in2="effect1_dropShadow_1_1585" result="shape"/>
</filter>
<filter id="filter4_d_1_1585" x="517.513" y="90.8687" width="20.5035" height="20.2571" filterUnits="userSpaceOnUse" color-interpolation-filters="sRGB">
<feFlood flood-opacity="0" result="BackgroundImageFix"/>
<feColorMatrix in="SourceAlpha" type="matrix" values="0 0 0 0 0 0 0 0 0 0 0 0 0 0 0 0 0 0 127 0" result="hardAlpha"/>
<feOffset dy="4"/>
<feGaussianBlur stdDeviation="2"/>
<feComposite in2="hardAlpha" operator="out"/>
<feColorMatrix type="matrix" values="0 0 0 0 0 0 0 0 0 0 0 0 0 0 0 0 0 0 0.25 0"/>
<feBlend mode="normal" in2="BackgroundImageFix" result="effect1_dropShadow_1_1585"/>
<feBlend mode="normal" in="SourceGraphic" in2="effect1_dropShadow_1_1585" result="shape"/>
</filter>
<linearGradient id="paint0_linear_1_1585" x1="291.83" y1="109.412" x2="311.606" y2="500.947" gradientUnits="userSpaceOnUse">
<stop stop-color="#FA982F"/>
<stop offset="1" stop-color="#FA982F" stop-opacity="0"/>
</linearGradient>
<linearGradient id="paint1_linear_1_1585" x1="291.83" y1="109.412" x2="311.606" y2="500.947" gradientUnits="userSpaceOnUse">
<stop stop-color="#EF002B"/>
<stop offset="1" stop-color="#EF002B" stop-opacity="0.06"/>
</linearGradient>
<linearGradient id="paint2_linear_1_1585" x1="291.831" y1="109.412" x2="311.606" y2="500.947" gradientUnits="userSpaceOnUse">
<stop stop-color="#5BA13A"/>
<stop offset="1" stop-color="#5BA13A" stop-opacity="0"/>
</linearGradient>
</defs>
</svg>
