<svg width="52" height="52" viewBox="0 0 52 52" fill="none" xmlns="http://www.w3.org/2000/svg">
<circle cx="26" cy="26" r="26" fill="white"/>
<path fill-rule="evenodd" clip-rule="evenodd" d="M24.7769 25.0266L20.0383 29.6605L18.2055 27.938C16.4088 26.2493 15.925 25.9771 15.491 26.4111C15.0202 26.8819 15.3115 27.3286 17.5095 29.5052C18.7465 30.7301 19.8635 31.7015 20.035 31.7015C20.39 31.7015 30.2606 22.0105 30.5073 21.4197C30.7134 20.9261 30.4487 20.4854 29.9145 20.4324C29.5938 20.4006 28.5843 21.3034 24.7769 25.0266ZM30.667 25.0716L25.9501 29.7542L25.2785 29.1475C24.909 28.8136 24.5488 28.5406 24.4779 28.5406C24.1573 28.5406 23.6095 29.0924 23.6095 29.4153C23.6095 29.8633 25.466 31.7015 25.9186 31.7015C26.1213 31.7015 28.1895 29.7851 31.4148 26.6091C36.604 21.4989 36.9173 21.1194 36.3862 20.5884C35.8249 20.0271 35.4596 20.3136 30.667 25.0716Z" fill="#EF002B"/>
<path d="M44 26C44 35.9411 35.9411 44 26 44C16.0589 44 8 35.9411 8 26C8 16.0589 16.0589 8 26 8C35.9411 8 44 16.0589 44 26ZM9.50088 26C9.50088 35.1122 16.8878 42.4991 26 42.4991C35.1122 42.4991 42.4991 35.1122 42.4991 26C42.4991 16.8878 35.1122 9.50088 26 9.50088C16.8878 9.50088 9.50088 16.8878 9.50088 26Z" fill="#EF002B"/>
</svg>
