<svg width="130" height="40" viewBox="0 0 130 40" fill="none" xmlns="http://www.w3.org/2000/svg">
<path fill-rule="evenodd" clip-rule="evenodd" d="M18.621 30.6989C19.9477 30.1073 21.3056 30.7611 21.8988 32.022C22.6948 33.75 21.5866 36.6609 19.8697 39.245H24.3025C25.5355 36.5208 26.0818 34.8085 26.0818 33.0339C26.0818 28.8931 22.5387 26.5581 19.6043 26.5581C14.7813 26.5581 11.7845 31.5395 13.7044 35.7736L17.2787 34.0146C16.8729 33.174 16.9977 31.4149 18.621 30.6989Z" fill="#476075"/>
<path fill-rule="evenodd" clip-rule="evenodd" d="M32.9963 5.79133C38.506 5.79133 45.0147 10.9439 44.9367 17.7933L48.7295 26.5574H45.202C45.202 29.3594 45.202 32.1459 45.202 34.9479H38.428L36.6798 39.2287H27.7675C30.5614 33.9205 29.5936 29.9198 27.4397 27.0244C25.6759 24.6738 24.8487 22.2143 24.8487 20.175C24.8487 15.3493 28.8288 11.9091 32.4812 11.8935C35.6185 11.8779 38.0378 14.1351 38.0378 16.8126C38.0378 18.8985 36.9608 21.1713 34.8537 21.8562C33.8859 22.1676 33.0743 21.7161 32.6997 21.0623C32.1222 20.0349 32.6529 19.0386 33.4177 18.5561C33.8859 18.2603 34.3074 17.7466 34.2762 16.9994C34.2449 15.8786 33.1836 15.038 32.0442 15.3026C30.2336 15.7229 28.5167 17.6999 28.5167 20.1283C28.5167 23.1327 31.5135 25.6234 34.3074 25.6234C38.2563 25.6234 41.8931 21.4359 41.5497 17.015C41.2219 12.7808 37.6788 9.20045 33.0119 9.20045C29.7966 9.20045 28.1733 9.76086 24.24 12.952C20.5564 16.0498 15.9207 17.1239 12.3776 13.7148C9.19348 10.6637 10.0207 4.70166 13.9853 2.77138C17.4815 1.0746 20.6344 1.96191 22.8664 4.54599L20.1193 6.5074C19.2297 5.35546 17.0913 4.70166 15.3588 5.86916C13.5482 7.08337 13.3765 9.34055 14.3286 10.7727C15.9987 13.2945 19.0268 12.6718 21.2275 11.0373C25.6915 7.69048 27.4865 5.79133 32.9963 5.79133Z" fill="#476075"/>
<path fill-rule="evenodd" clip-rule="evenodd" d="M40.9252 5.99418L42.8762 3.22329C40.6286 1.65105 37.9908 0.576943 35.0876 0.172207L34.6194 3.53463C36.9762 3.84596 39.1146 4.71771 40.9252 5.99418ZM31.9347 3.39453L31.763 0.000976562C29.016 0.141077 26.2689 0.903846 23.7247 2.36712L25.426 5.30924C27.4863 4.12617 29.7183 3.5035 31.9347 3.39453Z" fill="#476075"/>
<path fill-rule="evenodd" clip-rule="evenodd" d="M17.3257 10.1194C18.028 10.1194 18.6056 9.54339 18.6056 8.84288C18.6056 8.14238 18.028 7.56641 17.3257 7.56641C16.6233 7.56641 16.0458 8.14238 16.0458 8.84288C16.0458 9.54339 16.6077 10.1194 17.3257 10.1194Z" fill="#476075"/>
<path fill-rule="evenodd" clip-rule="evenodd" d="M5.18162 13.2172C6.4459 11.9563 8.47498 11.9563 9.73926 13.2172C11.0035 14.4781 11.0035 16.5017 9.73926 17.7627C8.47498 19.0236 6.4459 19.0236 5.18162 17.7627C3.93295 16.5017 3.93295 14.4625 5.18162 13.2172ZM5.97764 15.4899L7.46044 16.9688L8.94324 15.4899L7.46044 14.0111L5.97764 15.4899Z" fill="#476075"/>
<path fill-rule="evenodd" clip-rule="evenodd" d="M5.88413 5.80713C7.3045 5.80713 8.45951 6.95907 8.4439 8.39121C8.4439 9.80779 7.28888 10.9597 5.86852 10.9442C4.44816 10.9442 3.29314 9.79222 3.30875 8.37565C3.30875 6.9435 4.46377 5.80713 5.88413 5.80713ZM5.04128 7.53504V9.20068H6.71138V7.53504H5.04128Z" fill="#476075"/>
<path d="M8.53023 2.03151L7.41077 3.26758L8.65015 4.38406L9.76961 3.14799L8.53023 2.03151Z" fill="#476075"/>
<path fill-rule="evenodd" clip-rule="evenodd" d="M4.6669 19.3661C3.10606 21.2341 1.54523 23.1021 0 24.9702L1.90423 26.558L4.99468 22.8686L8.69387 25.9509L11.7843 22.2615L15.4835 25.3438L18.574 21.6544L22.2732 24.7211L23.8652 22.8219C21.9922 21.2653 20.1192 19.7086 18.2462 18.1675C17.216 19.3973 16.1859 20.627 15.1557 21.8568C13.9227 20.8294 12.6896 19.802 11.4566 18.7746C10.4264 20.0044 9.39624 21.2341 8.36609 22.4639C7.13303 21.4209 5.89996 20.3935 4.6669 19.3661Z" fill="#476075"/>
<path fill-rule="evenodd" clip-rule="evenodd" d="M4.854 27.4297L11.3627 27.4453V27.4608L5.89977 30.6053L6.97675 32.4578L8.0069 34.2479L9.8643 33.1738L8.81854 31.3836L11.3627 29.9359V35.2131H4.854V27.4297Z" fill="#476075"/>
<path fill-rule="evenodd" clip-rule="evenodd" d="M62.2306 13.4503H64.6968V22.9927H62.2306V21.9965C61.6375 22.588 60.4825 23.2107 59.2182 23.2107C56.5336 23.2107 54.4733 20.8601 54.4733 18.2137C54.4733 15.5674 56.4711 13.2168 59.2182 13.2168C60.5605 13.2168 61.6375 13.855 62.2306 14.4933V13.4503ZM126.709 13.4503H129.175V22.9927H126.709V21.9965C126.116 22.588 124.961 23.2107 123.696 23.2107C121.012 23.2107 118.952 20.8601 118.952 18.2137C118.952 15.5674 120.949 13.2168 123.696 13.2168C125.039 13.2168 126.116 13.855 126.709 14.4933V13.4503ZM124.009 20.9068C125.413 20.9068 126.693 19.786 126.693 18.2293C126.693 16.8438 125.585 15.5518 124.009 15.5518C122.588 15.5518 121.324 16.6726 121.324 18.2293C121.324 19.6303 122.432 20.9068 124.009 20.9068ZM59.5304 20.9068C60.9351 20.9068 62.215 19.786 62.215 18.2293C62.215 16.8438 61.1068 15.5518 59.5304 15.5518C58.11 15.5518 56.8457 16.6726 56.8457 18.2293C56.8457 19.6303 57.9539 20.9068 59.5304 20.9068ZM113.91 23.1795C111.1 23.1795 108.915 20.8912 108.915 18.2137C108.915 15.5051 111.069 13.2168 113.91 13.2168C115.674 13.2168 117.313 14.1508 118.202 15.6608L116.126 16.875C115.689 16.1433 114.862 15.5985 113.941 15.5985C112.412 15.5985 111.335 16.8283 111.335 18.1982C111.335 19.677 112.443 20.7978 113.941 20.7978C114.862 20.7978 115.705 20.2374 116.126 19.4746L118.202 20.72C117.344 22.2144 115.705 23.1795 113.91 23.1795Z" fill="#476075"/>
<path fill-rule="evenodd" clip-rule="evenodd" d="M59.5304 28.6435C59.0465 28.5968 58.7031 28.6902 58.469 28.8926C58.2349 29.095 58.1256 29.4219 58.1256 29.9044V30.1068H59.5304V30.7295H58.1256V34.9792H57.4857V30.7139H56.6584V30.0912H57.4857V29.8889C57.4857 29.2506 57.6574 28.7681 58.0164 28.4412C58.3754 28.1143 58.8748 27.9741 59.5304 28.0208V28.6435ZM60.8571 30.9007C61.1537 30.3092 61.6687 30.0134 62.4023 30.0134V30.6361C61.9653 30.6361 61.5907 30.7606 61.2941 31.0252C60.9976 31.2899 60.8571 31.6946 60.8571 32.255V34.9636H60.2172V30.0912H60.8571V30.9007ZM65.2587 29.9823C65.9767 29.9823 66.5698 30.2313 67.0224 30.745C67.4751 31.2587 67.6936 31.8658 67.6936 32.5508C67.6936 32.6286 67.6936 32.722 67.678 32.8465H63.3857C63.4481 33.3447 63.6666 33.7338 64.01 34.0296C64.369 34.3254 64.806 34.4655 65.3211 34.4655C65.6957 34.4655 66.0079 34.3876 66.2888 34.232C66.5542 34.0763 66.7571 33.874 66.8975 33.6249L67.4595 33.9518C67.2409 34.2943 66.9444 34.5745 66.5854 34.7768C66.2108 34.9792 65.7893 35.0726 65.3055 35.0726C64.5407 35.0726 63.9163 34.8391 63.4325 34.3565C62.9486 33.874 62.7145 33.2668 62.7145 32.5196C62.7145 31.788 62.9486 31.1809 63.4325 30.6983C63.9007 30.2158 64.5095 29.9823 65.2587 29.9823ZM65.2587 30.6049C64.7436 30.6049 64.3222 30.7606 63.9788 31.0564C63.6354 31.3521 63.4325 31.7569 63.3701 32.2394H67.0224C66.96 31.7257 66.7571 31.321 66.4293 31.0408C66.0859 30.745 65.6957 30.6049 65.2587 30.6049ZM70.9713 29.9823C71.6893 29.9823 72.2824 30.2313 72.7351 30.745C73.1877 31.2587 73.4062 31.8658 73.4062 32.5508C73.4062 32.6286 73.4062 32.722 73.3906 32.8465H69.0983C69.1608 33.3447 69.3793 33.7338 69.7227 34.0296C70.0817 34.3254 70.5187 34.4655 71.0338 34.4655C71.4084 34.4655 71.7205 34.3876 72.0015 34.232C72.2668 34.0763 72.4697 33.874 72.6102 33.6249L73.1721 33.9518C72.9536 34.2943 72.657 34.5745 72.2981 34.7768C71.9235 34.9792 71.502 35.0726 71.0182 35.0726C70.2534 35.0726 69.629 34.8391 69.1452 34.3565C68.6613 33.874 68.4272 33.2668 68.4272 32.5196C68.4272 31.788 68.6613 31.1809 69.1452 30.6983C69.6134 30.2158 70.2221 29.9823 70.9713 29.9823ZM70.9713 30.6049C70.4563 30.6049 70.0348 30.7606 69.6915 31.0564C69.3481 31.3521 69.1452 31.7569 69.0827 32.2394H72.7351C72.6727 31.7257 72.4697 31.321 72.142 31.0408C71.7986 30.745 71.4084 30.6049 70.9713 30.6049ZM74.4208 34.9792V27.8496H75.0607V34.9792H74.4208ZM80.6485 30.0912H81.2885V34.9636H80.6485V34.0141C80.1959 34.7301 79.5403 35.0882 78.6663 35.0882C77.9639 35.0882 77.3708 34.8391 76.8869 34.341C76.3875 33.8428 76.1533 33.2357 76.1533 32.5196C76.1533 31.8036 76.4031 31.1965 76.8869 30.6983C77.3864 30.2002 77.9795 29.9511 78.6663 29.9511C79.5403 29.9511 80.1959 30.3092 80.6485 31.0252V30.0912ZM77.3552 33.9051C77.7298 34.2787 78.1824 34.4655 78.7287 34.4655C79.275 34.4655 79.7276 34.2787 80.1022 33.9051C80.4768 33.5315 80.6641 33.08 80.6641 32.5352C80.6641 31.9904 80.4768 31.5389 80.1022 31.1653C79.7276 30.7917 79.275 30.6049 78.7287 30.6049C78.1824 30.6049 77.7298 30.7917 77.3552 31.1653C76.9806 31.5389 76.7933 31.9904 76.7933 32.5352C76.7933 33.08 76.9806 33.5315 77.3552 33.9051ZM84.9565 29.9823C85.5496 29.9823 86.0178 30.1691 86.3612 30.5271C86.7046 30.8851 86.8763 31.3677 86.8763 31.9904V34.9792H86.2363V31.9904C86.2363 31.5545 86.1271 31.212 85.893 30.9785C85.6588 30.745 85.331 30.6205 84.9096 30.6205C84.4414 30.6205 84.0512 30.7762 83.7702 31.0719C83.4737 31.3677 83.3332 31.8191 83.3332 32.4418V34.9948H82.6932V30.0912H83.3332V30.854C83.6766 30.278 84.2229 29.9823 84.9565 29.9823ZM90.4038 35.0882C89.6702 35.0882 89.0458 34.8391 88.562 34.3565C88.0781 33.874 87.8284 33.2513 87.8284 32.5352C87.8284 31.8191 88.0781 31.212 88.562 30.7139C89.0458 30.2158 89.6702 29.9823 90.4038 29.9823C90.8876 29.9823 91.3247 30.0912 91.6993 30.3247C92.0895 30.5582 92.3704 30.8696 92.5421 31.2587L92.0114 31.5545C91.8866 31.2587 91.668 31.0252 91.3871 30.854C91.0905 30.6828 90.7628 30.5894 90.4038 30.5894C89.8575 30.5894 89.4048 30.7762 89.0302 31.1498C88.6556 31.5234 88.4683 31.9748 88.4683 32.5196C88.4683 33.0645 88.6556 33.5159 89.0302 33.8895C89.4048 34.2631 89.8575 34.4499 90.4038 34.4499C90.7628 34.4499 91.0905 34.3565 91.3871 34.1853C91.668 34.014 91.9022 33.7805 92.0583 33.4848L92.589 33.7961C92.386 34.1853 92.0895 34.4966 91.6993 34.7301C91.3091 34.9792 90.8876 35.0882 90.4038 35.0882ZM95.7418 29.9823C96.4598 29.9823 97.053 30.2313 97.5056 30.745C97.9582 31.2587 98.1767 31.8658 98.1767 32.5508C98.1767 32.6286 98.1768 32.722 98.1611 32.8465H93.8532C93.9157 33.3447 94.1342 33.7338 94.4776 34.0296C94.8366 34.3254 95.2736 34.4655 95.7887 34.4655C96.1633 34.4655 96.4754 34.3876 96.7564 34.232C97.0217 34.0763 97.2246 33.874 97.3651 33.6249L97.927 33.9518C97.7085 34.2943 97.4119 34.5745 97.053 34.7768C96.6783 34.9792 96.2569 35.0726 95.7731 35.0726C95.0083 35.0726 94.3839 34.8391 93.9001 34.3565C93.4162 33.874 93.1821 33.2668 93.1821 32.5196C93.1821 31.788 93.4162 31.1809 93.9001 30.6983C94.3839 30.2158 94.9926 29.9823 95.7418 29.9823ZM95.7418 30.6049C95.2268 30.6049 94.8053 30.7606 94.462 31.0564C94.1186 31.3521 93.9157 31.7569 93.8532 32.2394H97.5056C97.4432 31.7257 97.2402 31.321 96.9125 31.0408C96.5691 30.745 96.1789 30.6049 95.7418 30.6049ZM99.6283 34.9169C99.5191 35.0259 99.3942 35.0726 99.2537 35.0726C99.0976 35.0726 98.9728 35.0259 98.8791 34.9169C98.7699 34.808 98.723 34.6834 98.723 34.5433C98.723 34.3876 98.7699 34.2631 98.8791 34.1697C98.9884 34.0608 99.1133 34.0141 99.2537 34.0141C99.4098 34.0141 99.5347 34.0608 99.6283 34.1697C99.7376 34.2787 99.7844 34.4032 99.7844 34.5433C99.7844 34.6834 99.722 34.808 99.6283 34.9169ZM104.873 28.1454H105.513V34.9792H104.873V34.0296C104.42 34.7457 103.765 35.1037 102.89 35.1037C102.188 35.1037 101.595 34.8547 101.111 34.3565C100.612 33.8584 100.378 33.2513 100.378 32.5352C100.378 31.8191 100.627 31.212 101.111 30.7139C101.611 30.2158 102.204 29.9667 102.89 29.9667C103.765 29.9667 104.42 30.3247 104.873 31.0408V28.1454ZM101.579 33.9051C101.954 34.2787 102.407 34.4655 102.953 34.4655C103.499 34.4655 103.952 34.2787 104.326 33.9051C104.701 33.5315 104.888 33.08 104.888 32.5352C104.888 31.9904 104.701 31.5389 104.326 31.1653C103.952 30.7917 103.499 30.6049 102.953 30.6049C102.407 30.6049 101.954 30.7917 101.579 31.1653C101.205 31.5389 101.017 31.9904 101.017 32.5352C101.017 33.08 101.205 33.5315 101.579 33.9051ZM107.542 28.9237C107.448 29.0171 107.339 29.0638 107.214 29.0638C107.089 29.0638 106.98 29.0171 106.886 28.9237C106.793 28.8303 106.746 28.7214 106.746 28.5968C106.746 28.4723 106.793 28.3633 106.886 28.2699C106.98 28.1765 107.089 28.1298 107.214 28.1298C107.339 28.1298 107.448 28.1765 107.542 28.2699C107.635 28.3633 107.682 28.4723 107.682 28.5968C107.682 28.7214 107.635 28.8303 107.542 28.9237ZM106.886 34.9792V30.0912H107.526V34.9636H106.886V34.9792ZM113.114 30.0912H113.754V34.7768C113.754 35.4773 113.52 36.0377 113.036 36.4425C112.552 36.8472 111.975 37.0496 111.303 37.0496C110.148 37.0496 109.384 36.6448 108.978 35.8665L109.54 35.5396C109.836 36.1311 110.414 36.4269 111.288 36.4269C111.85 36.4269 112.287 36.2712 112.615 35.9755C112.942 35.6797 113.098 35.275 113.098 34.7768V34.0141C112.646 34.7301 111.99 35.0882 111.116 35.0882C110.414 35.0882 109.821 34.8391 109.337 34.341C108.837 33.8428 108.603 33.2357 108.603 32.5196C108.603 31.8036 108.853 31.1965 109.337 30.6983C109.836 30.2002 110.429 29.9511 111.116 29.9511C111.99 29.9511 112.646 30.3092 113.098 31.0252V30.0912H113.114ZM109.805 33.9051C110.18 34.2787 110.632 34.4655 111.179 34.4655C111.725 34.4655 112.177 34.2787 112.552 33.9051C112.927 33.5315 113.114 33.08 113.114 32.5352C113.114 31.9904 112.927 31.5389 112.552 31.1653C112.177 30.7917 111.725 30.6049 111.179 30.6049C110.632 30.6049 110.18 30.7917 109.805 31.1653C109.43 31.5389 109.243 31.9904 109.243 32.5352C109.259 33.08 109.446 33.5315 109.805 33.9051ZM115.783 28.9237C115.689 29.0171 115.58 29.0638 115.455 29.0638C115.33 29.0638 115.221 29.0171 115.127 28.9237C115.034 28.8303 114.987 28.7214 114.987 28.5968C114.987 28.4723 115.034 28.3633 115.127 28.2699C115.221 28.1765 115.33 28.1298 115.455 28.1298C115.58 28.1298 115.689 28.1765 115.783 28.2699C115.877 28.3633 115.923 28.4723 115.923 28.5968C115.923 28.7214 115.877 28.8303 115.783 28.9237ZM115.127 34.9792V30.0912H115.767V34.9636H115.127V34.9792ZM119.732 30.7139H118.327V33.6716C118.327 33.9362 118.374 34.123 118.483 34.2476C118.593 34.3565 118.749 34.4188 118.952 34.4188C119.154 34.4188 119.42 34.4188 119.732 34.4032V34.9636C119.045 35.0726 118.53 35.0259 118.187 34.8235C117.843 34.6212 117.672 34.232 117.672 33.6716V30.7139H116.641V30.0912H117.672V28.9237L118.312 28.7214V30.0912H119.716V30.7139H119.732ZM124.727 30.0912H125.367V34.9636H124.727V34.0141C124.274 34.7301 123.618 35.0882 122.744 35.0882C122.042 35.0882 121.449 34.8391 120.965 34.341C120.466 33.8428 120.231 33.2357 120.231 32.5196C120.231 31.8036 120.481 31.1965 120.965 30.6983C121.464 30.2002 122.058 29.9511 122.744 29.9511C123.618 29.9511 124.274 30.3092 124.727 31.0252V30.0912ZM121.433 33.9051C121.808 34.2787 122.26 34.4655 122.807 34.4655C123.353 34.4655 123.806 34.2787 124.18 33.9051C124.555 33.5315 124.742 33.08 124.742 32.5352C124.742 31.9904 124.555 31.5389 124.18 31.1653C123.806 30.7917 123.353 30.6049 122.807 30.6049C122.26 30.6049 121.808 30.7917 121.433 31.1653C121.059 31.5389 120.871 31.9904 120.871 32.5352C120.871 33.08 121.059 33.5315 121.433 33.9051ZM126.74 34.9792V27.8496H127.38V34.9792H126.74Z" fill="#476075"/>
<path fill-rule="evenodd" clip-rule="evenodd" d="M67.3193 9.69922C67.3193 14.1357 67.3193 18.5567 67.3193 22.9932H69.7855V17.8406H74.983V15.3811H69.7855V12.1588H75.1391V9.69922H67.3193ZM107.698 22.9932V20.5337H101.986V17.576H107.23V15.1165H101.986V12.1588H107.698V9.69922H99.5194C99.5194 14.1357 99.5194 18.5567 99.5194 22.9932H107.698ZM97.3811 22.9932V20.5337H91.6684V17.576H96.9128V15.1165H91.6684V12.1588H97.3811V9.69922H89.2023C89.2023 14.1357 89.2023 18.5567 89.2023 22.9932H97.3811ZM87.4854 22.9932L84.2544 17.6538C85.9089 17.1246 87.0952 15.5835 87.0952 13.7777C87.0952 11.5361 85.269 9.69922 83.0058 9.69922H77.2619C77.2619 14.1357 77.2619 18.5567 77.2619 22.9932H79.728V17.8406H81.5854L84.7071 22.9932C85.628 22.9932 86.5489 22.9932 87.4854 22.9932ZM83.0058 15.3811H79.728V12.1588H83.0058C83.8954 12.1588 84.629 12.8748 84.629 13.7777C84.6134 14.6495 83.8954 15.3811 83.0058 15.3811Z" fill="#476075"/>
</svg>
