<svg width="355" height="60" viewBox="0 0 355 60" fill="none" xmlns="http://www.w3.org/2000/svg">
<path fill-rule="evenodd" clip-rule="evenodd" d="M27.9615 28.3777L20.0639 36.1009L17.0092 33.23C14.0147 30.4154 13.2084 29.9618 12.4849 30.6852C11.7003 31.4699 12.1858 32.2144 15.8491 35.8419C17.9109 37.8835 19.7725 39.5025 20.0584 39.5025C20.6501 39.5025 37.1009 23.3508 37.5121 22.3662C37.8557 21.5435 37.4145 20.809 36.5242 20.7206C35.9896 20.6676 34.3071 22.1724 27.9615 28.3777ZM37.7783 28.4526L29.9168 36.257L28.7974 35.2458C28.1816 34.6893 27.5813 34.2343 27.4632 34.2343C26.9289 34.2343 26.0158 35.154 26.0158 35.6922C26.0158 36.4389 29.1099 39.5025 29.8644 39.5025C30.2021 39.5025 33.6492 36.3086 39.0246 31.0152C47.6733 22.4982 48.1954 21.8657 47.3104 20.9807C46.3749 20.0451 45.766 20.5226 37.7783 28.4526Z" fill="#EF002B"/>
<path d="M60 30C60 46.5685 46.5685 60 30 60C13.4315 60 0 46.5685 0 30C0 13.4315 13.4315 0 30 0C46.5685 0 60 13.4315 60 30ZM2.50146 30C2.50146 45.187 14.813 57.4985 30 57.4985C45.187 57.4985 57.4985 45.187 57.4985 30C57.4985 14.813 45.187 2.50146 30 2.50146C14.813 2.50146 2.50146 14.813 2.50146 30Z" fill="#EF002B"/>
<path fill-rule="evenodd" clip-rule="evenodd" d="M80.0839 47.8206H88.4021V35.9514L96.9282 35.83C104.545 35.7213 105.686 35.6451 107.629 35.1146C114.923 33.1235 118.625 28.7202 118.625 22.0343C118.625 15.3645 114.918 10.9697 107.572 8.9304C105.587 8.37946 104.659 8.33593 92.7691 8.23694L80.0839 8.13103V47.8206ZM346.543 18.3737L340.789 18.4999C334.371 18.6408 333.013 18.8909 329.721 20.5381C324.84 22.9806 322.273 27.3968 322.324 33.2638C322.375 39.0979 325.018 43.4081 329.981 45.7486C333.805 47.552 334.326 47.6216 344.948 47.7516L354.584 47.8697V8.17068H346.543V18.3737ZM193.904 18.2911L188.497 18.4497V22.3116H194.015L194.099 31.3922C194.18 40.1236 194.208 40.5336 194.821 42.0539C196.683 46.6669 201.902 49.2916 208.322 48.8432C210.368 48.7004 214.932 47.5129 215.216 47.0495C215.283 46.94 214.986 46.0752 214.556 45.1278L213.773 43.4054L212.104 44.0836C207.689 45.8772 204.12 44.8938 202.523 41.4434C201.982 40.2747 201.94 39.6286 201.858 31.2536L201.772 22.3116H210.679V18.4298H201.807V9.27977H194.057L193.904 18.2911ZM104.256 12.8438C106.373 13.5348 107.882 14.8399 108.918 16.8768C109.866 18.7417 109.89 18.8706 109.883 22.0063C109.877 24.7427 109.782 25.4276 109.251 26.594C108.254 28.7831 107.391 29.6973 105.39 30.6824L103.527 31.6002L88.4021 31.7851V12.2896L95.8191 12.4005C100.536 12.4709 103.607 12.6323 104.256 12.8438ZM162.577 17.7807C156.732 19.0331 152.494 22.8428 150.905 28.2729C150.251 30.5091 150.239 35.3875 150.882 37.8097C152.24 42.929 156.226 46.721 161.879 48.272C164.404 48.965 170.726 48.9644 173.247 48.2712C178.928 46.7093 182.679 43.1938 184.229 37.9775C184.91 35.6844 184.91 30.566 184.229 28.2729C183.493 25.7972 182.159 23.475 180.541 21.8549C178.745 20.0573 175.31 18.3322 172.358 17.7454C169.698 17.2167 165.133 17.233 162.577 17.7807ZM257.07 17.8564C253.957 18.6993 252.042 19.7587 250.027 21.752C247.004 24.743 245.764 28.0678 245.786 33.1252C245.808 38.0812 246.951 41.1173 249.911 44.0836C251.855 46.0325 254.049 47.2644 257.132 48.1387C260.311 49.0398 266.164 49.0498 269.264 48.1592C272.064 47.3551 276.116 45.2897 276.116 44.6664C276.116 44.4543 274.141 41.4434 274.002 41.4434C273.95 41.4434 273.213 41.8881 272.363 42.4319C269.503 44.2613 267.481 44.868 264.193 44.8832C261.629 44.8951 261.098 44.8111 259.744 44.1817C256.886 42.8533 255.523 41.1434 254.673 37.8261L254.286 36.3138L278.695 36.1694L278.521 32.7756C278.426 30.9092 278.172 28.7396 277.957 27.9541C276.723 23.4428 273.099 19.8458 268.075 18.1472C265.435 17.2547 259.837 17.1066 257.07 17.8564ZM133.979 18.8432C128.755 19.9794 125.448 23.3694 124.732 28.3212C124.582 29.3621 124.456 34.1752 124.453 39.0172L124.448 47.8206H132.463L132.627 27.4411L133.36 26.0548C134.209 24.4474 134.662 24.004 136.37 23.1082C137.515 22.5079 138.013 22.4461 142.401 22.3598L147.184 22.2658V18.4298L141.43 18.4517C137.754 18.4658 135.064 18.6072 133.979 18.8432ZM229.083 18.8432C223.86 19.9794 220.553 23.3694 219.837 28.3212C219.686 29.3621 219.561 34.1752 219.558 39.0172L219.552 47.8206H227.567L227.732 27.4411L228.464 26.0548C229.313 24.4474 229.766 24.004 231.475 23.1082C232.619 22.5079 233.118 22.4461 237.505 22.3598L242.288 22.2658V18.4298L236.535 18.4517C232.859 18.4658 230.168 18.6072 229.083 18.8432ZM284.711 47.8206H292.752V22.2597L297.951 22.3737C303.418 22.4937 304.17 22.6462 305.861 23.9763C306.284 24.3096 306.908 25.1007 307.247 25.7345C307.848 26.8575 307.866 27.1505 307.948 37.3536L308.032 47.8206H316.043L316.041 38.74C316.039 29.4159 315.84 26.9309 314.936 24.8872C314.115 23.0297 312.134 21.1224 310.013 20.1469C306.852 18.6926 304.394 18.4298 293.963 18.4298H284.711V47.8206ZM171.23 21.7129C173.615 22.9396 175.309 25.404 175.988 28.6331C176.372 30.4576 176.391 35.3309 176.021 37.2787C175.378 40.672 173.367 43.5387 170.84 44.6647C169.406 45.3038 165.727 45.3069 164.299 44.67C161.782 43.5476 160.036 41.1314 159.214 37.6334C158.593 34.9932 158.802 29.1799 159.597 26.9661C160.624 24.1094 162.366 22.2331 164.851 21.307C166.385 20.7356 169.745 20.9493 171.23 21.7129ZM264.886 21.5871C265.649 21.9483 266.671 22.6645 267.159 23.1789C268.759 24.8675 270.016 28.4055 270.016 31.222V32.2934H254.13L254.3 30.2832C254.806 24.3371 257.621 20.9707 262.113 20.9402C263.013 20.9341 263.987 21.1612 264.886 21.5871ZM346.543 43.9948L341.898 43.8931C337.588 43.7985 337.145 43.7395 335.729 43.0712C332.399 41.4988 331.037 39.0652 330.803 34.2676C330.488 27.8188 332.221 24.2605 336.376 22.8248C337.51 22.433 338.721 22.3277 342.176 22.3207L346.543 22.3116V43.9948Z" fill="white"/>
</svg>
