<svg width="25" height="23" viewBox="0 0 25 23" fill="none" xmlns="http://www.w3.org/2000/svg">
<path fill-rule="evenodd" clip-rule="evenodd" d="M19.4154 0.104802C19.036 0.295222 18.837 0.763216 18.9663 1.16066C19.0012 1.26785 19.228 1.57145 19.517 1.89766C20.512 3.02124 21.1242 3.90958 21.7172 5.09023C22.7577 7.16189 23.228 9.15722 23.228 11.5C23.228 13.763 22.7703 15.7621 21.7985 17.7428C21.1722 19.0194 20.5491 19.9417 19.5625 21.0519C19.2381 21.417 19.0026 21.7277 18.9666 21.8385C18.8362 22.2391 19.0372 22.7087 19.4194 22.8964C19.8775 23.1212 20.19 23.0004 20.7813 22.3695C22.8294 20.1841 24.2669 17.2742 24.7793 14.2762C24.973 13.1433 25.002 12.7753 24.9999 11.4752C24.9977 10.1008 24.9445 9.53067 24.7062 8.32712C24.1313 5.42367 22.7258 2.69116 20.7057 0.549595C20.1901 0.00302341 19.851 -0.113876 19.4154 0.104802ZM10.6016 2.24255C10.4304 2.33164 8.76683 3.55864 6.90491 4.96921L3.5196 7.53391H1.7598H0V11.5V15.466H1.76043H3.52087L6.95443 18.051C8.84289 19.4727 10.498 20.6883 10.6324 20.7524C10.9321 20.8951 11.0675 20.8995 11.1946 20.7706C11.2917 20.6721 11.2924 20.6054 11.2924 11.4532V2.23492L11.1837 2.15778C11.0298 2.04846 10.9535 2.05957 10.6016 2.24255ZM16.4986 2.99362C16.1885 3.13397 15.9853 3.45949 15.9853 3.81574C15.9853 4.1065 16.0578 4.24714 16.4153 4.64955C17.1963 5.52868 17.6365 6.17683 18.0907 7.11663C19.4157 9.85787 19.4302 13.0095 18.1306 15.8032C17.6988 16.7314 17.2353 17.4225 16.4408 18.3225C16.0537 18.7611 15.9853 18.8911 15.9853 19.189C15.9853 19.6921 16.3684 20.0765 16.8699 20.0765C17.1725 20.0765 17.3515 19.9712 17.7211 19.5756C18.8614 18.3554 19.7598 16.8276 20.2869 15.2124C21.6262 11.1086 20.6338 6.53521 17.7316 3.43638C17.549 3.24135 17.3255 3.04612 17.235 3.0026C17.0364 2.90702 16.6989 2.90295 16.4986 2.99362ZM14.1023 5.8183C13.9146 5.90119 13.649 6.20608 13.611 6.38217C13.5949 6.45668 13.5727 6.54711 13.5616 6.58315C13.507 6.76038 13.6608 7.09819 13.9431 7.42142C14.5199 8.08177 14.902 8.70875 15.1535 9.40767C15.8058 11.2202 15.5807 13.1778 14.5358 14.7814C14.4169 14.9638 14.1892 15.2589 14.0298 15.4373C13.6717 15.8381 13.5791 16.0151 13.5759 16.3053C13.5685 16.97 14.2679 17.4098 14.8507 17.1069C15.1267 16.9634 15.8219 16.1291 16.195 15.4937C17.5736 13.1456 17.666 10.3284 16.4429 7.93052C15.9808 7.02467 15.1558 5.97753 14.7769 5.81616C14.58 5.73228 14.2948 5.73317 14.1023 5.8183Z" fill="#D9D9D9"/>
</svg>
